<svg width="144" height="145" viewBox="0 0 144 145" fill="none" xmlns="http://www.w3.org/2000/svg">
<path fill-rule="evenodd" clip-rule="evenodd" d="M87.8801 37.6044C87.8801 39.3505 87.6021 41.0318 87.0879 42.6062C87.0708 42.7393 87.0378 42.8734 86.9874 43.0064L78.2668 66.0273L101.198 57.2198C101.311 57.1766 101.424 57.1458 101.537 57.1267C103.132 56.598 104.836 56.3118 106.608 56.3118C115.498 56.3118 122.705 63.5187 122.705 72.4088C122.705 81.299 115.498 88.5059 106.608 88.5059C104.862 88.5059 103.181 88.2278 101.606 87.7136C101.473 87.6965 101.339 87.6635 101.206 87.6131L78.1609 78.8834L86.9719 101.824C87.0152 101.937 87.046 102.05 87.0651 102.163C87.5937 103.758 87.8799 105.462 87.8799 107.234C87.8799 116.124 80.673 123.331 71.7828 123.331C62.8927 123.331 55.6858 116.124 55.6858 107.234C55.6858 105.488 55.9639 103.806 56.4781 102.232C56.4952 102.099 56.5282 101.965 56.5786 101.832L65.3047 78.7962L42.3886 87.5977C42.2763 87.6408 42.1632 87.6715 42.0505 87.6906C40.4561 88.2195 38.7511 88.5058 36.9792 88.5058C28.089 88.5058 20.8821 81.2989 20.8821 72.4087C20.8821 63.5186 28.089 56.3117 36.9792 56.3117C38.7252 56.3117 40.4063 56.5897 41.9806 57.1038C42.1138 57.1209 42.248 57.1539 42.3811 57.2043L65.3922 65.9212L56.5941 43.0139C56.5508 42.9013 56.52 42.7878 56.5009 42.6748C55.9722 41.0806 55.6861 39.3759 55.6861 37.6044C55.6861 28.7142 62.893 21.5073 71.7831 21.5073C80.6732 21.5073 87.8801 28.7142 87.8801 37.6044Z" fill="#E9B7AA"/>
<path fill-rule="evenodd" clip-rule="evenodd" d="M58.7579 36.6319C59.9923 37.8663 60.9843 39.2513 61.7339 40.7277C61.8163 40.8342 61.8881 40.9527 61.9467 41.0829L72.0583 63.5269L82.0452 41.0849C82.0943 40.9745 82.1529 40.8723 82.2194 40.7787C82.9728 39.2778 83.9758 37.8701 85.2284 36.6175C91.5147 30.3313 101.707 30.3313 107.993 36.6175C114.279 42.9038 114.279 53.0959 107.993 59.3822C106.758 60.6169 105.373 61.6091 103.896 62.3588C103.79 62.4409 103.672 62.5125 103.542 62.5709L81.0736 72.6934L103.525 82.6843C103.634 82.7332 103.736 82.7914 103.829 82.8575C105.331 83.611 106.739 84.6143 107.992 85.8674C114.279 92.1537 114.279 102.346 107.992 108.632C101.706 114.918 91.514 114.918 85.2277 108.632C83.9934 107.398 83.0015 106.013 82.2519 104.537C82.1693 104.43 82.0974 104.311 82.0386 104.181L71.9206 81.7227L61.9402 104.15C61.8912 104.26 61.8328 104.362 61.7665 104.456C61.013 105.957 60.0099 107.365 58.7571 108.618C52.4708 114.904 42.2787 114.904 35.9924 108.618C29.7061 102.331 29.7061 92.1392 35.9924 85.8529C37.227 84.6183 38.6122 83.6262 40.0889 82.8766C40.1953 82.7943 40.3136 82.7227 40.4436 82.6642L62.8797 72.5562L40.4606 62.5795C40.3509 62.5306 40.2493 62.4724 40.1561 62.4064C38.6545 61.6529 37.2463 60.6496 35.9932 59.3965C29.7069 53.1102 29.7069 42.9182 35.9932 36.6319C42.2795 30.3456 52.4716 30.3456 58.7579 36.6319Z" fill="#C95853"/>
</svg>
