<svg width="80" height="80" viewBox="0 0 80 80" fill="none" xmlns="http://www.w3.org/2000/svg">
<path fill-rule="evenodd" clip-rule="evenodd" d="M48.9344 20.5985C48.9344 21.5691 48.7773 22.503 48.4872 23.3762C48.4772 23.4473 48.4591 23.5188 48.4323 23.5897L43.6772 36.1422L56.181 31.3398C56.2394 31.3174 56.2982 31.301 56.3568 31.2901C57.2417 30.9912 58.1896 30.8292 59.1754 30.8292C64.0372 30.8292 67.9784 34.7705 67.9784 39.6323C67.9784 44.4941 64.0372 48.4353 59.1754 48.4353C58.2042 48.4353 57.2699 48.2781 56.3963 47.9877C56.326 47.9776 56.2554 47.9596 56.1853 47.933L43.6179 43.1724L48.4224 55.6817C48.4452 55.7409 48.4618 55.8006 48.4727 55.8601C48.7712 56.7445 48.933 57.6918 48.933 58.677C48.933 63.5388 44.9917 67.48 40.1299 67.48C35.2681 67.48 31.3268 63.5388 31.3268 58.677C31.3268 57.706 31.4841 56.7717 31.7744 55.8982C31.7844 55.8275 31.8025 55.7564 31.8292 55.6859L36.5875 43.1249L24.0908 47.9246C24.0326 47.9469 23.974 47.9634 23.9155 47.9742C23.0305 48.2732 22.0824 48.4353 21.0965 48.4353C16.2347 48.4353 12.2934 44.494 12.2934 39.6322C12.2934 34.7704 16.2347 30.8292 21.0965 30.8292C22.0674 30.8292 23.0017 30.9864 23.8752 31.2767C23.9455 31.2868 24.0163 31.3048 24.0866 31.3314L36.6368 36.0856L31.839 23.5939C31.8164 23.5349 31.7998 23.4756 31.789 23.4164C31.4902 22.5317 31.3283 21.584 31.3283 20.5985C31.3283 15.7367 35.2696 11.7954 40.1314 11.7954C44.9932 11.7954 48.9344 15.7367 48.9344 20.5985ZM40.093 39.6783C40.1212 39.6783 40.1495 39.6787 40.1777 39.6795C40.1776 39.652 40.1779 39.6246 40.1785 39.5972C40.1641 39.5973 40.1496 39.5972 40.1351 39.597C40.1214 39.5969 40.1078 39.5967 40.0941 39.5963C40.0941 39.6237 40.0937 39.651 40.093 39.6783Z" fill="#F8F8F8"/>
<path fill-rule="evenodd" clip-rule="evenodd" d="M33.0077 20.0665C33.6944 20.7531 34.2439 21.525 34.6562 22.348C34.699 22.405 34.7364 22.4679 34.7673 22.5365L40.2813 34.7757L45.7274 22.5377C45.7527 22.4807 45.7826 22.4276 45.8162 22.3785C46.2307 21.5411 46.7866 20.7559 47.4839 20.0586C50.9217 16.6208 56.4955 16.6208 59.9333 20.0586C63.3711 23.4964 63.3711 29.0702 59.9333 32.508C59.2471 33.1941 58.4759 33.7433 57.6536 34.1556C57.5962 34.1988 57.5328 34.2367 57.4635 34.2679L45.2125 39.7872L57.4552 45.2354C57.513 45.2611 57.5668 45.2914 57.6164 45.3257C58.4529 45.74 59.2372 46.2954 59.9338 46.992C63.3716 50.4298 63.3716 56.0036 59.9338 59.4414C56.496 62.8793 50.9222 62.8793 47.4844 59.4414C46.7976 58.7546 46.248 57.9825 45.8356 57.1593C45.7931 57.1025 45.7558 57.0399 45.725 56.9715L40.2074 44.7244L34.765 56.9543C34.7395 57.0116 34.7095 57.0649 34.6756 57.1141C34.2612 57.9514 33.7054 58.7364 33.0082 59.4336C29.5704 62.8714 23.9966 62.8714 20.5588 59.4336C17.121 55.9958 17.121 50.422 20.5588 46.9842C21.2449 46.2981 22.0161 45.7489 22.8384 45.3366C22.8959 45.2933 22.9594 45.2554 23.0288 45.2241L35.2619 39.7128L23.0371 34.2727C22.9793 34.2469 22.9255 34.2166 22.8759 34.1824C22.0394 33.768 21.255 33.2125 20.5583 32.5159C17.1205 29.0781 17.1205 23.5043 20.5583 20.0665C23.9961 16.6286 29.5699 16.6286 33.0077 20.0665ZM40.2498 39.8086C40.2693 39.7892 40.2889 39.7701 40.3088 39.7512C40.2891 39.7316 40.2696 39.7117 40.2503 39.6916C40.2311 39.7109 40.2116 39.7301 40.1918 39.749C40.2114 39.7686 40.2308 39.7885 40.2498 39.8086Z" fill="#E9B7AA"/>
</svg>
