<svg width="422" height="607" viewBox="0 0 422 607" fill="none" xmlns="http://www.w3.org/2000/svg">
<rect x="23" y="35.4998" width="375.75" height="758.25" fill="#C4D8CB"/>
<rect x="53.9375" y="65.3123" width="131.625" height="208.125" fill="#C4D8CB" stroke="#4F8A60" stroke-width="5.625"/>
<rect x="53.9375" y="309.437" width="131.625" height="209.25" fill="#C4D8CB" stroke="#4F8A60" stroke-width="5.625"/>
<rect x="53.9375" y="554.687" width="131.625" height="208.125" fill="#C4D8CB" stroke="#4F8A60" stroke-width="5.625"/>
<rect x="236.188" y="65.3123" width="131.625" height="208.125" fill="#C4D8CB" stroke="#4F8A60" stroke-width="5.625"/>
<rect x="236.188" y="309.437" width="131.625" height="209.25" fill="#C4D8CB" stroke="#4F8A60" stroke-width="5.625"/>
<rect x="236.188" y="554.687" width="131.625" height="208.125" fill="#C4D8CB" stroke="#4F8A60" stroke-width="5.625"/>
<path fill-rule="evenodd" clip-rule="evenodd" d="M22.7427 0.624756H399.008H399.008L404.568 0.624805H421.25V6.2498H415.689V10.7498H410.129V15.2498H405.495L399.008 35.4987V35.4998H22.7427V0.624756ZM0.5 0.62483H17.1817L22.7423 0.62478V35.4998L16.255 15.2498H11.6211V10.7498H6.06057V6.24983H0.5V0.62483Z" fill="#4F8A60"/>
<ellipse cx="330.125" cy="549.625" rx="28.125" ry="28.125" fill="#C95853"/>
<mask id="path-10-inside-1_1_21" fill="white">
<path fill-rule="evenodd" clip-rule="evenodd" d="M135.5 144.625C135.5 157.672 124.923 168.25 111.875 168.25H111.875L111.875 214.375C124.923 214.375 135.5 224.952 135.5 238H286.25C286.25 224.952 296.827 214.375 309.875 214.375V168.25C296.827 168.25 286.25 157.672 286.25 144.625H135.5Z"/>
</mask>
<path fill-rule="evenodd" clip-rule="evenodd" d="M135.5 144.625C135.5 157.672 124.923 168.25 111.875 168.25H111.875L111.875 214.375C124.923 214.375 135.5 224.952 135.5 238H286.25C286.25 224.952 296.827 214.375 309.875 214.375V168.25C296.827 168.25 286.25 157.672 286.25 144.625H135.5Z" fill="#F8F8F8"/>
<path d="M135.5 144.625V134.5H125.375V144.625H135.5ZM111.875 168.25V158.125H101.75L101.75 168.25L111.875 168.25ZM111.875 214.375L101.75 214.375L101.75 224.5H111.875V214.375ZM135.5 238H125.375V248.125H135.5V238ZM286.25 238V248.125H296.375V238H286.25ZM309.875 214.375V224.5H320V214.375H309.875ZM309.875 168.25H320V158.125H309.875V168.25ZM286.25 144.625H296.375V134.5H286.25V144.625ZM111.875 178.375C130.515 178.375 145.625 163.264 145.625 144.625H125.375C125.375 152.081 119.331 158.125 111.875 158.125V178.375ZM111.875 178.375H111.875V158.125H111.875V178.375ZM122 214.375L122 168.25L101.75 168.25L101.75 214.375L122 214.375ZM111.875 224.5C119.331 224.5 125.375 230.544 125.375 238H145.625C145.625 219.36 130.515 204.25 111.875 204.25V224.5ZM286.25 227.875H135.5V248.125H286.25V227.875ZM309.875 204.25C291.235 204.25 276.125 219.36 276.125 238H296.375C296.375 230.544 302.419 224.5 309.875 224.5V204.25ZM299.75 168.25V214.375H320V168.25H299.75ZM276.125 144.625C276.125 163.264 291.235 178.375 309.875 178.375V158.125C302.419 158.125 296.375 152.081 296.375 144.625H276.125ZM135.5 154.75H286.25V134.5H135.5V154.75Z" fill="#C95853" mask="url(#path-10-inside-1_1_21)"/>
<path d="M169.531 210.25C169.531 206.537 170.038 203.256 171.05 200.406C172.1 197.519 173.356 195.062 174.819 193.037C176.281 190.975 178.194 188.65 180.556 186.062C182.619 183.812 184.231 181.9 185.394 180.325C186.594 178.712 187.494 176.969 188.094 175.094H168.125C167.863 177.119 167.225 178.806 166.213 180.156C165.8 180.794 165.313 181.356 164.75 181.844H163.063V170.875H189.781V173.406C189.781 175.506 189.444 177.456 188.769 179.256C188.131 181.056 187.119 183.381 185.731 186.231C184.381 188.894 183.275 191.256 182.413 193.319C181.588 195.381 180.875 197.856 180.275 200.744C179.675 203.594 179.375 206.762 179.375 210.25H169.531ZM207.247 211.094C202.522 211.094 198.941 210.156 196.504 208.281C194.104 206.406 192.904 203.969 192.904 200.969C192.904 198.906 193.804 196.919 195.604 195.006C197.404 193.056 199.597 191.669 202.185 190.844C199.71 189.456 197.816 187.937 196.504 186.287C195.229 184.6 194.591 182.556 194.591 180.156C194.591 177.156 195.791 174.719 198.191 172.844C200.629 170.969 204.21 170.031 208.935 170.031C211.297 170.031 213.36 170.462 215.122 171.325C216.922 172.187 218.31 173.312 219.285 174.7C220.26 176.087 220.747 177.531 220.747 179.031C220.747 180.794 219.979 182.5 218.441 184.15C216.941 185.8 215.179 186.906 213.154 187.469C216.566 188.969 219.154 190.75 220.916 192.812C222.679 194.875 223.56 197.406 223.56 200.406C223.56 202.356 222.96 204.137 221.76 205.75C220.56 207.362 218.741 208.656 216.304 209.631C213.866 210.606 210.847 211.094 207.247 211.094ZM211.466 186.344C212.891 185.706 214.035 184.787 214.897 183.587C215.797 182.387 216.247 180.869 216.247 179.031C216.247 177.681 215.91 176.425 215.235 175.262C214.597 174.1 213.754 173.181 212.704 172.506C211.691 171.794 210.622 171.437 209.497 171.437C207.885 171.437 206.535 172.075 205.447 173.35C204.397 174.587 203.872 176.294 203.872 178.469C203.872 181.469 206.404 184.094 211.466 186.344ZM206.685 209.687C209.085 209.687 210.941 209.031 212.254 207.719C213.604 206.369 214.279 204.494 214.279 202.094C214.279 200.294 213.379 198.475 211.579 196.637C209.779 194.8 207.397 193.244 204.435 191.969C202.335 192.719 200.685 193.844 199.485 195.344C198.285 196.806 197.685 198.681 197.685 200.969C197.685 202.544 198.079 204.006 198.866 205.356C199.691 206.669 200.779 207.719 202.129 208.506C203.516 209.294 205.035 209.687 206.685 209.687ZM240.18 211.094C237.967 211.094 236.017 210.737 234.33 210.025C232.68 209.275 231.405 208.337 230.505 207.212C229.642 206.087 229.211 204.944 229.211 203.781C229.211 202.506 229.586 201.494 230.336 200.744C231.124 199.956 232.155 199.562 233.43 199.562C233.73 199.562 234.03 199.6 234.33 199.675C234.63 199.712 234.836 199.731 234.949 199.731L235.68 199.844V208.844L236.749 209.294C237.424 209.556 238.192 209.687 239.055 209.687C240.892 209.687 242.392 209.2 243.555 208.225C244.717 207.25 245.617 205.45 246.255 202.825C246.892 200.2 247.211 196.487 247.211 191.687C246.874 192.25 246.349 192.812 245.636 193.375C244.211 194.5 242.58 195.062 240.742 195.062C238.005 195.062 235.605 194.556 233.542 193.544C231.517 192.494 229.961 191.05 228.874 189.212C227.786 187.375 227.242 185.294 227.242 182.969C227.242 178.956 228.48 175.806 230.955 173.519C233.467 171.194 237.011 170.031 241.586 170.031C246.311 170.031 250.024 171.719 252.724 175.094C255.424 178.469 256.774 183.625 256.774 190.562C256.774 197.312 255.292 202.431 252.33 205.919C249.405 209.369 245.355 211.094 240.18 211.094ZM241.867 193.656C243.405 193.656 244.624 192.906 245.524 191.406C246.461 189.906 246.93 187.562 246.93 184.375C246.93 179.612 246.405 176.219 245.355 174.194C244.342 172.169 243.086 171.156 241.586 171.156C240.836 171.156 240.086 171.531 239.336 172.281C238.624 173.031 238.024 174.25 237.536 175.937C237.049 177.625 236.805 179.781 236.805 182.406C236.805 185.031 237.049 187.187 237.536 188.875C238.061 190.562 238.699 191.781 239.449 192.531C240.236 193.281 241.042 193.656 241.867 193.656Z" fill="black"/>
</svg>
