<svg width="422" height="607" viewBox="0 0 422 607" fill="none" xmlns="http://www.w3.org/2000/svg">
<rect x="23.125" y="35.4998" width="375.75" height="758.25" fill="#C4D8CB"/>
<rect x="54.0625" y="65.3123" width="131.625" height="208.125" fill="#C4D8CB" stroke="#4F8A60" stroke-width="5.625"/>
<rect x="54.0625" y="309.437" width="131.625" height="209.25" fill="#C4D8CB" stroke="#4F8A60" stroke-width="5.625"/>
<rect x="54.0625" y="554.687" width="131.625" height="208.125" fill="#C4D8CB" stroke="#4F8A60" stroke-width="5.625"/>
<rect x="236.312" y="65.3123" width="131.625" height="208.125" fill="#C4D8CB" stroke="#4F8A60" stroke-width="5.625"/>
<rect x="236.312" y="309.437" width="131.625" height="209.25" fill="#C4D8CB" stroke="#4F8A60" stroke-width="5.625"/>
<rect x="236.312" y="554.687" width="131.625" height="208.125" fill="#C4D8CB" stroke="#4F8A60" stroke-width="5.625"/>
<ellipse cx="330.25" cy="549.625" rx="28.125" ry="28.125" fill="#C95853"/>
<path fill-rule="evenodd" clip-rule="evenodd" d="M22.8677 0.624756H399.133H399.133L404.693 0.624805H421.375V6.2498H415.814V10.7498H410.254V15.2498H405.62L399.133 35.4986V35.4998H22.8677V0.624756ZM0.625 0.62483H17.3067L22.8673 0.62478V35.4998L16.38 15.2498H11.7461V10.7498H6.18557V6.24983H0.625V0.62483Z" fill="#4F8A60"/>
<mask id="path-10-inside-1_1_22" fill="white">
<path fill-rule="evenodd" clip-rule="evenodd" d="M135.625 144.625C135.625 157.672 125.048 168.25 112 168.25L112 214.375C125.048 214.375 135.625 224.952 135.625 238H286.375C286.375 224.952 296.952 214.375 310 214.375V168.25C296.952 168.25 286.375 157.672 286.375 144.625H135.625Z"/>
</mask>
<path fill-rule="evenodd" clip-rule="evenodd" d="M135.625 144.625C135.625 157.672 125.048 168.25 112 168.25L112 214.375C125.048 214.375 135.625 224.952 135.625 238H286.375C286.375 224.952 296.952 214.375 310 214.375V168.25C296.952 168.25 286.375 157.672 286.375 144.625H135.625Z" fill="#F8F8F8"/>
<path d="M112 168.25L112 158.125L101.875 158.125L101.875 168.25L112 168.25ZM135.625 144.625V134.5H125.5V144.625H135.625ZM112 214.375L101.875 214.375L101.875 224.5H112V214.375ZM135.625 238H125.5V248.125H135.625V238ZM286.375 238V248.125H296.5V238H286.375ZM310 214.375V224.5H320.125V214.375H310ZM310 168.25H320.125V158.125H310V168.25ZM286.375 144.625H296.5V134.5H286.375V144.625ZM112 178.375C130.64 178.375 145.75 163.264 145.75 144.625H125.5C125.5 152.081 119.456 158.125 112 158.125L112 178.375ZM122.125 214.375L122.125 168.25L101.875 168.25L101.875 214.375L122.125 214.375ZM112 224.5C119.456 224.5 125.5 230.544 125.5 238H145.75C145.75 219.36 130.64 204.25 112 204.25V224.5ZM286.375 227.875H135.625V248.125H286.375V227.875ZM310 204.25C291.36 204.25 276.25 219.36 276.25 238H296.5C296.5 230.544 302.544 224.5 310 224.5V204.25ZM299.875 168.25V214.375H320.125V168.25H299.875ZM276.25 144.625C276.25 163.264 291.36 178.375 310 178.375V158.125C302.544 158.125 296.5 152.081 296.5 144.625H276.25ZM135.625 154.75H286.375V134.5H135.625V154.75Z" fill="#C95853" mask="url(#path-10-inside-1_1_22)"/>
<path d="M174.719 210.25V209.406L178.656 208.281V199.844H162.625L161.5 198.156L182.594 170.312H187.937V197.312H193.844V199.844H187.937V208.281L191.875 209.406V210.25H174.719ZM164.594 197.312H178.656V178.75L164.594 197.312ZM208.192 211.094C205.604 211.094 203.392 210.737 201.554 210.025C199.754 209.312 198.386 208.394 197.448 207.269C196.548 206.144 196.098 204.981 196.098 203.781C196.098 202.506 196.473 201.494 197.223 200.744C198.011 199.956 199.042 199.562 200.317 199.562C200.617 199.562 200.917 199.6 201.217 199.675C201.517 199.712 201.723 199.731 201.836 199.731L202.567 199.844V208.844C202.604 208.844 202.998 208.994 203.748 209.294C204.723 209.556 205.829 209.687 207.067 209.687C209.317 209.687 211.098 208.769 212.411 206.931C213.723 205.056 214.379 202.131 214.379 198.156C214.379 194.219 213.704 191.369 212.354 189.606C211.004 187.806 209.054 186.906 206.504 186.906C205.529 186.906 204.611 187.075 203.748 187.412C202.886 187.75 201.967 188.2 200.992 188.762C200.204 189.25 199.417 189.85 198.629 190.562L197.504 189.719L199.754 170.875H216.348C216.611 168.85 217.248 167.162 218.261 165.812C218.673 165.175 219.161 164.612 219.723 164.125H221.411V175.094H200.992L199.473 188.031C199.998 187.656 200.767 187.244 201.779 186.794C203.879 185.931 205.829 185.5 207.629 185.5C213.104 185.5 217.192 186.625 219.892 188.875C222.592 191.087 223.942 194.181 223.942 198.156C223.942 202.206 222.611 205.375 219.948 207.662C217.286 209.95 213.367 211.094 208.192 211.094ZM244.209 211.094C239.484 211.094 235.772 209.406 233.072 206.031C230.372 202.656 229.022 197.5 229.022 190.562C229.022 183.812 230.484 178.712 233.409 175.262C236.372 171.775 240.441 170.031 245.616 170.031C247.828 170.031 249.759 170.406 251.409 171.156C253.097 171.869 254.372 172.787 255.234 173.912C256.134 175.037 256.584 176.181 256.584 177.344C256.584 178.619 256.191 179.65 255.403 180.437C254.653 181.187 253.641 181.562 252.366 181.562C251.841 181.562 251.316 181.525 250.791 181.45L250.116 181.281V172.281L249.047 171.887C248.222 171.587 247.453 171.437 246.741 171.437C244.903 171.437 243.384 171.925 242.184 172.9C241.022 173.875 240.122 175.675 239.484 178.3C238.884 180.925 238.584 184.637 238.584 189.437C238.997 188.8 239.503 188.237 240.103 187.75C241.528 186.625 243.178 186.062 245.053 186.062C247.791 186.062 250.172 186.587 252.197 187.637C254.259 188.65 255.834 190.075 256.922 191.912C258.009 193.75 258.553 195.831 258.553 198.156C258.553 202.169 257.297 205.337 254.784 207.662C252.309 209.95 248.784 211.094 244.209 211.094ZM244.209 209.969C244.959 209.969 245.691 209.594 246.403 208.844C247.153 208.094 247.772 206.875 248.259 205.187C248.747 203.5 248.991 201.344 248.991 198.719C248.991 196.094 248.728 193.937 248.203 192.25C247.716 190.562 247.078 189.344 246.291 188.594C245.541 187.844 244.753 187.469 243.928 187.469C242.391 187.469 241.153 188.219 240.216 189.719C239.316 191.219 238.866 193.562 238.866 196.75C238.866 201.512 239.372 204.906 240.384 206.931C241.434 208.956 242.709 209.969 244.209 209.969Z" fill="black"/>
</svg>
