<svg width="422" height="607" viewBox="0 0 422 607" fill="none" xmlns="http://www.w3.org/2000/svg">
<rect x="23.25" y="35.4998" width="375.75" height="758.25" fill="#C4D8CB"/>
<rect x="54.1875" y="65.3123" width="131.625" height="208.125" fill="#C4D8CB" stroke="#4F8A60" stroke-width="5.625"/>
<rect x="54.1875" y="309.437" width="131.625" height="209.25" fill="#C4D8CB" stroke="#4F8A60" stroke-width="5.625"/>
<rect x="54.1875" y="554.687" width="131.625" height="208.125" fill="#C4D8CB" stroke="#4F8A60" stroke-width="5.625"/>
<rect x="236.437" y="65.3123" width="131.625" height="208.125" fill="#C4D8CB" stroke="#4F8A60" stroke-width="5.625"/>
<rect x="236.437" y="309.437" width="131.625" height="209.25" fill="#C4D8CB" stroke="#4F8A60" stroke-width="5.625"/>
<rect x="236.437" y="554.687" width="131.625" height="208.125" fill="#C4D8CB" stroke="#4F8A60" stroke-width="5.625"/>
<ellipse cx="330.375" cy="549.625" rx="28.125" ry="28.125" fill="#C95853"/>
<path fill-rule="evenodd" clip-rule="evenodd" d="M22.9926 0.624756H399.258H399.258L404.818 0.624805H421.5V6.2498H415.939V10.7498H410.379V15.2498H405.745L399.258 35.4988V35.4998H22.9926V0.624756ZM0.75 0.62483H17.4317L22.9923 0.62478V35.4998L16.505 15.2498H11.8711V10.7498H6.31057V6.24983H0.75V0.62483Z" fill="#4F8A60"/>
<mask id="path-10-inside-1_1_23" fill="white">
<path fill-rule="evenodd" clip-rule="evenodd" d="M135.75 144.625C135.75 157.672 125.173 168.25 112.125 168.25V214.375C125.173 214.375 135.75 224.952 135.75 238H286.5C286.5 224.952 297.077 214.375 310.125 214.375V168.25C297.077 168.25 286.5 157.672 286.5 144.625H135.75Z"/>
</mask>
<path fill-rule="evenodd" clip-rule="evenodd" d="M135.75 144.625C135.75 157.672 125.173 168.25 112.125 168.25V214.375C125.173 214.375 135.75 224.952 135.75 238H286.5C286.5 224.952 297.077 214.375 310.125 214.375V168.25C297.077 168.25 286.5 157.672 286.5 144.625H135.75Z" fill="#F8F8F8"/>
<path d="M112.125 168.25V158.125H102V168.25H112.125ZM135.75 144.625V134.5H125.625V144.625H135.75ZM112.125 214.375H102V224.5H112.125V214.375ZM135.75 238H125.625V248.125H135.75V238ZM286.5 238V248.125H296.625V238H286.5ZM310.125 214.375V224.5H320.25V214.375H310.125ZM310.125 168.25H320.25V158.125H310.125V168.25ZM286.5 144.625H296.625V134.5H286.5V144.625ZM112.125 178.375C130.765 178.375 145.875 163.264 145.875 144.625H125.625C125.625 152.081 119.581 158.125 112.125 158.125V178.375ZM122.25 214.375V168.25H102V214.375H122.25ZM112.125 224.5C119.581 224.5 125.625 230.544 125.625 238H145.875C145.875 219.36 130.765 204.25 112.125 204.25V224.5ZM286.5 227.875H135.75V248.125H286.5V227.875ZM310.125 204.25C291.485 204.25 276.375 219.36 276.375 238H296.625C296.625 230.544 302.669 224.5 310.125 224.5V204.25ZM300 168.25V214.375H320.25V168.25H300ZM276.375 144.625C276.375 163.264 291.485 178.375 310.125 178.375V158.125C302.669 158.125 296.625 152.081 296.625 144.625H276.375ZM135.75 154.75H286.5V134.5H135.75V154.75Z" fill="#C95853" mask="url(#path-10-inside-1_1_23)"/>
<path d="M171.187 210.25V209.406L175.125 208.281V177.4L169.219 181.562L168.094 180.156L178.331 170.875H184.406V208.281L188.344 209.406V210.25H171.187ZM192.283 207.719C192.283 205.506 192.715 203.5 193.577 201.7C194.477 199.862 195.565 198.269 196.84 196.919C198.115 195.569 199.783 193.975 201.846 192.137C203.758 190.45 205.258 189.044 206.346 187.919C207.433 186.756 208.352 185.462 209.102 184.037C209.852 182.575 210.227 181 210.227 179.312C210.227 176.837 209.627 174.906 208.427 173.519C207.227 172.131 205.671 171.437 203.758 171.437C202.671 171.437 201.565 171.587 200.44 171.887L199.258 172.281V181.281L198.527 181.45C197.927 181.525 197.421 181.562 197.008 181.562C195.733 181.562 194.702 181.187 193.915 180.437C193.165 179.65 192.79 178.619 192.79 177.344C192.79 176.144 193.24 174.981 194.14 173.856C195.077 172.731 196.446 171.812 198.246 171.1C200.083 170.387 202.296 170.031 204.883 170.031C209.946 170.031 213.696 171.044 216.133 173.069C218.571 175.094 219.79 177.925 219.79 181.562C219.79 183.85 219.19 185.819 217.99 187.469C216.827 189.119 215.383 190.487 213.658 191.575C211.971 192.662 209.702 193.9 206.852 195.287C204.452 196.45 202.502 197.481 201.002 198.381C199.54 199.244 198.171 200.294 196.896 201.531C195.658 202.769 194.777 204.175 194.252 205.75H215.065C215.327 203.725 215.965 202.037 216.977 200.687C217.39 200.05 217.877 199.487 218.44 199H220.127V210.25H192.283V207.719ZM236.451 211.094C233.863 211.094 231.651 210.737 229.813 210.025C228.013 209.312 226.644 208.394 225.707 207.269C224.807 206.144 224.357 204.981 224.357 203.781C224.357 202.506 224.732 201.494 225.482 200.744C226.269 199.956 227.301 199.562 228.576 199.562C228.876 199.562 229.176 199.6 229.476 199.675C229.776 199.712 229.982 199.731 230.094 199.731L230.826 199.844V208.844C230.863 208.844 231.257 208.994 232.007 209.294C232.982 209.556 234.088 209.687 235.326 209.687C237.951 209.687 239.957 208.9 241.344 207.325C242.769 205.712 243.482 203.312 243.482 200.125C243.482 196.862 242.788 194.406 241.401 192.756C240.051 191.106 238.213 190.281 235.888 190.281H233.076V188.875H235.888C237.576 188.875 238.982 188.125 240.107 186.625C241.232 185.125 241.794 182.969 241.794 180.156C241.794 177.344 241.213 175.187 240.051 173.687C238.888 172.187 237.407 171.437 235.607 171.437C234.632 171.437 233.694 171.587 232.794 171.887C232.682 171.925 232.307 172.056 231.669 172.281V181.281L230.938 181.45C230.338 181.525 229.832 181.562 229.419 181.562C228.144 181.562 227.113 181.187 226.326 180.437C225.576 179.65 225.201 178.619 225.201 177.344C225.201 176.181 225.651 175.037 226.551 173.912C227.451 172.787 228.763 171.869 230.488 171.156C232.251 170.406 234.332 170.031 236.732 170.031C239.882 170.031 242.544 170.5 244.719 171.437C246.932 172.337 248.582 173.556 249.669 175.094C250.794 176.631 251.357 178.319 251.357 180.156C251.357 182.294 250.813 184 249.726 185.275C248.638 186.512 247.213 187.506 245.451 188.256C243.726 188.931 241.757 189.325 239.544 189.437V189.719C242.019 189.831 244.269 190.262 246.294 191.012C250.794 192.812 253.044 195.85 253.044 200.125C253.044 203.425 251.676 206.087 248.938 208.112C246.238 210.1 242.076 211.094 236.451 211.094Z" fill="black"/>
</svg>
