<svg width="1151" height="495" viewBox="0 0 1151 495" fill="none" xmlns="http://www.w3.org/2000/svg">
<path d="M1154.54 94.7576L1176.55 80.6263V142.841H1192.27V511.717L1189.13 524.274C1181.58 528.041 1185.98 533.169 1189.13 535.262V549.389L1184.41 557.237V576.074L1190.7 585.492L1178.12 596.479V670.255H1226.85V596.479L1212.71 585.492L1218.99 576.074V557.237L1212.71 549.389V535.262C1220.25 530.239 1215.85 525.844 1212.71 524.274L1207.99 511.717V142.841H1223.71V53.4844L1241 42.3812V-0.000213623L621.125 400.34V438.399V497.474H636.844L637.377 938.337L634.233 950.894C626.688 954.661 631.089 959.789 634.233 961.882V976.009L629.517 983.858V1002.69L635.805 1012.11L623.229 1023.1V1096.87H671.959V1023.1L657.812 1012.11L664.1 1002.69V983.858L657.812 976.009V961.882C665.357 956.859 660.956 952.464 657.812 950.894L653.096 938.337L652.564 497.474H668.283V406.997L689.912 393.109V453.305H705.631V938.337L702.487 950.894C694.942 954.661 699.343 959.789 702.487 961.882V976.009L697.771 983.858V1002.69L704.059 1012.11L691.484 1023.1V1096.87H740.214V1023.1L726.066 1012.11L732.354 1002.69V983.858L726.066 976.009V961.882C733.611 956.859 729.21 952.464 726.066 950.894L721.35 938.337V453.305H737.07V362.827L761.476 347.155V407.351H777.196L777.279 790.469L774.135 803.027C766.59 806.794 770.991 811.922 774.135 814.015V828.142L769.419 835.99V854.826L775.707 864.244L763.132 875.232V949.007H811.862V875.232L797.714 864.244L804.002 854.826V835.99L797.714 828.142V814.015C805.26 808.992 800.858 804.597 797.714 803.027L792.998 790.469L792.915 407.351H808.634V316.874L829.07 303.752V363.948H844.789L844.872 790.469L841.728 803.027C834.183 806.794 838.585 811.922 841.728 814.015V828.142L837.013 835.99V854.826L843.3 864.244L830.725 875.232V949.007H879.455V875.232L865.307 864.244L871.595 854.826V835.99L865.307 828.142V814.015C872.853 808.992 868.451 804.597 865.307 803.027L860.592 790.469L860.508 363.948H876.228V273.471L900.634 257.799V317.995H916.354V790.469L913.21 803.027C905.665 806.794 910.066 811.922 913.21 814.015V828.142L908.494 835.99V854.826L914.782 864.244L902.206 875.232V949.007H950.936V875.232L936.789 864.244L943.077 854.826V835.99L936.789 828.142V814.015C944.334 808.992 939.933 804.597 936.789 803.027L932.073 790.469V317.995H947.792V227.517L971.371 212.377V274.591H987.091L986.347 654.57L983.203 667.128C975.657 670.895 980.059 676.022 983.203 678.115V692.243L978.487 700.091V718.927L984.775 728.345L972.199 739.333V813.108H1020.93V739.333L1006.78 728.345L1013.07 718.927V700.091L1006.78 692.243V678.115C1014.33 673.092 1009.93 668.697 1006.78 667.128L1002.07 654.57L1002.81 274.591H1018.53V182.095L1039.79 168.442V228.638H1055.51V654.57L1052.37 667.128C1044.82 670.895 1049.22 676.022 1052.37 678.115V692.242L1047.65 700.091V718.927L1053.94 728.345L1041.36 739.333V813.108H1090.09V739.333L1075.95 728.345L1082.23 718.927V700.091L1075.95 692.242V678.115C1083.49 673.092 1079.09 668.697 1075.95 667.128L1071.23 654.57V228.638H1086.95V138.161L1107.39 125.039V185.235H1123.1V654.57L1119.96 667.128C1112.42 670.895 1116.82 676.022 1119.96 678.115V692.243L1115.25 700.091V718.927L1121.53 728.345L1108.96 739.333V813.108H1157.69V739.333L1143.54 728.345L1149.83 718.927V700.091L1143.54 692.243V678.115C1151.09 673.092 1146.68 668.697 1143.54 667.128L1138.82 654.57V185.235H1154.54V94.7576Z" fill="#E9B7AA"/>
<path d="M534.512 495.16L556.559 481.044V543.194H572.307V911.692L569.157 924.236C561.598 928 566.007 933.122 569.157 935.213V949.326L564.433 957.166V975.983L570.732 985.391L558.133 996.368V1070.07H606.952V996.368L592.779 985.391L599.078 975.983V957.166L592.779 949.326V935.213C600.338 930.195 595.928 925.804 592.779 924.236L588.054 911.692V543.194H603.802V453.929L621.125 442.838V400.5L0.125 800.429V838.449V897.464H15.8729L16.4064 1337.87L13.2568 1350.42C5.69781 1354.18 10.1072 1359.3 13.2568 1361.4V1375.51L8.53241 1383.35V1402.17L14.8316 1411.57L2.23328 1422.55V1496.25H51.0517V1422.55L36.8786 1411.57L43.1778 1402.17V1383.35L36.8786 1375.51V1361.4C44.4376 1356.38 40.0282 1351.99 36.8786 1350.42L32.1542 1337.87L31.6207 897.464H47.3687V807.079L69.0364 793.205V853.34H84.7843V1337.87L81.6348 1350.42C74.0757 1354.18 78.4852 1359.3 81.6348 1361.4V1375.51L76.9104 1383.35V1402.17L83.2095 1411.57L70.6112 1422.55V1496.25H119.43V1422.55L105.257 1411.57L111.556 1402.17V1383.35L105.257 1375.51V1361.4C112.816 1356.38 108.406 1351.99 105.257 1350.42L100.532 1337.87V853.34H116.28V762.955L140.731 747.299V807.433H156.479L156.562 1190.16L153.413 1202.7C145.854 1206.47 150.263 1211.59 153.413 1213.68V1227.79L148.689 1235.63V1254.45L154.988 1263.86L142.389 1274.83V1348.53H191.208V1274.83L177.035 1263.86L183.334 1254.45V1235.63L177.035 1227.79V1213.68C184.594 1208.66 180.184 1204.27 177.035 1202.7L172.31 1190.16L172.227 807.433H187.975V717.049L208.447 703.94V764.075H224.195L224.278 1190.16L221.129 1202.7C213.57 1206.47 217.979 1211.59 221.129 1213.68V1227.79L216.404 1235.63V1254.45L222.704 1263.86L210.105 1274.83V1348.53H258.924V1274.83L244.751 1263.86L251.05 1254.45V1235.63L244.751 1227.79V1213.68C252.31 1208.66 247.9 1204.27 244.751 1202.7L240.026 1190.16L239.943 764.075H255.691V673.69L280.142 658.034V718.168H295.889V1190.16L292.74 1202.7C285.181 1206.47 289.59 1211.59 292.74 1213.68V1227.79L288.016 1235.63V1254.45L294.315 1263.86L281.716 1274.83V1348.53H330.535V1274.83L316.362 1263.86L322.661 1254.45V1235.63L316.362 1227.79V1213.68C323.921 1208.66 319.511 1204.27 316.362 1202.7L311.637 1190.16V718.168H327.385V627.784L351.007 612.659V674.81H366.755L366.009 1054.4L362.86 1066.94C355.301 1070.71 359.71 1075.83 362.86 1077.92V1092.03L358.135 1099.87V1118.69L364.435 1128.1L351.836 1139.07V1212.77H400.655V1139.07L386.482 1128.1L392.781 1118.69V1099.87L386.482 1092.03V1077.92C394.041 1072.9 389.631 1068.51 386.482 1066.94L381.757 1054.4L382.503 674.81H398.251V582.409L419.552 568.769V628.903H435.3V1054.4L432.15 1066.94C424.591 1070.71 429.001 1075.83 432.15 1077.92V1092.03L427.426 1099.87V1118.69L433.725 1128.1L421.127 1139.07V1212.77H469.945V1139.07L455.772 1128.1L462.071 1118.69V1099.87L455.772 1092.03V1077.92C463.331 1072.9 458.922 1068.51 455.772 1066.94L451.048 1054.4V628.903H466.796V538.519L487.268 525.411V585.545H503.016V1054.4L499.866 1066.94C492.307 1070.71 496.717 1075.83 499.866 1077.92V1092.03L495.142 1099.87V1118.69L501.441 1128.1L488.843 1139.07V1212.77H537.661V1139.07L523.488 1128.1L529.787 1118.69V1099.87L523.488 1092.03V1077.92C531.047 1072.9 526.638 1068.51 523.488 1066.94L518.764 1054.4V585.545H534.512V495.16Z" fill="#E9B7AA"/>
</svg>
