<svg width="493" height="243" viewBox="0 0 493 243" fill="none" xmlns="http://www.w3.org/2000/svg">
<path d="M86.5495 94.7213L64.5823 80.5954V142.786H48.8915V511.521L52.0297 524.073C59.5612 527.839 55.1678 532.965 52.0297 535.057V549.179L56.7369 557.024V575.853L50.4606 585.267L63.0132 596.251V669.998H14.3717V596.251L28.4934 585.267L22.2171 575.853V557.024L28.4934 549.179V535.057C20.9618 530.036 25.3553 525.642 28.4934 524.073L33.2007 511.521V142.786H17.5098V53.4639L0.249939 42.365V-0.000244141L619 400.186V438.231V497.284H603.309L602.778 937.977L605.916 950.53C613.447 954.296 609.054 959.422 605.916 961.514V975.635L610.623 983.481V1002.31L604.347 1011.72L616.899 1022.71V1096.45H568.258V1022.71L582.379 1011.72L576.103 1002.31V983.481L582.379 975.635V961.514C574.848 956.493 579.241 952.099 582.379 950.53L587.087 937.977L587.618 497.284H571.927V406.841L550.338 392.958V453.131H534.647V937.977L537.786 950.53C545.317 954.296 540.924 959.422 537.786 961.514V975.635L542.493 983.481V1002.31L536.216 1011.72L548.769 1022.71V1096.45H500.128V1022.71L514.249 1011.72L507.973 1002.31V983.481L514.249 975.635V961.514C506.718 956.493 511.111 952.099 514.249 950.53L518.956 937.977V453.131H503.266V362.688L478.903 347.022V407.195H463.212L463.129 790.167L466.267 802.719C473.799 806.485 469.406 811.611 466.267 813.703V827.825L470.975 835.67V854.499L464.698 863.913L477.251 874.897V948.644H428.609V874.897L442.731 863.913L436.455 854.499V835.67L442.731 827.825V813.703C435.2 808.682 439.593 804.288 442.731 802.719L447.438 790.167L447.522 407.195H431.831V316.753L411.433 303.636V363.809H395.742L395.659 790.167L398.797 802.719C406.328 806.485 401.935 811.611 398.797 813.703V827.825L403.504 835.67V854.499L397.228 863.913L409.78 874.897V948.644H361.139V874.897L375.261 863.913L368.984 854.499V835.67L375.261 827.825V813.703C367.729 808.682 372.122 804.288 375.261 802.719L379.968 790.167L380.051 363.809H364.36V273.366L339.998 257.7V317.873H324.307V790.167L327.445 802.719C334.977 806.485 330.583 811.611 327.445 813.703V827.825L332.152 835.67V854.499L325.876 863.913L338.429 874.897V948.644H289.787V874.897L303.909 863.913L297.633 854.499V835.67L303.909 827.825V813.703C296.377 808.682 300.771 804.288 303.909 802.719L308.616 790.167V317.873H292.925V227.43L269.389 212.295V274.486H253.698L254.441 654.319L257.579 666.872C265.111 670.638 260.718 675.764 257.579 677.856V691.977L262.287 699.823V718.652L256.01 728.066L268.563 739.05V812.797H219.921V739.05L234.043 728.066L227.767 718.652V699.823L234.043 691.977V677.856C226.512 672.835 230.905 668.441 234.043 666.872L238.75 654.319L238.008 274.486H222.317V182.026L201.092 168.378V228.55H185.402V654.319L188.54 666.872C196.071 670.638 191.678 675.763 188.54 677.856V691.977L193.247 699.823V718.652L186.971 728.066L199.523 739.05V812.797H150.882V739.05L165.004 728.066L158.727 718.652V699.823L165.004 691.977V677.856C157.472 672.835 161.865 668.441 165.004 666.872L169.711 654.319V228.55H154.02V138.108L133.622 124.991V185.164H117.931V654.319L121.069 666.872C128.601 670.638 124.207 675.764 121.069 677.856V691.977L125.777 699.823V718.652L119.5 728.066L132.053 739.05V812.797H83.4113V739.05L97.533 728.066L91.2567 718.652V699.823L97.533 691.977V677.856C90.0014 672.835 94.3949 668.441 97.533 666.872L102.24 654.319V185.164H86.5495V94.7213Z" fill="#E9B7AA"/>
</svg>
