<svg width="1055" height="810" viewBox="0 0 1055 810" fill="none" xmlns="http://www.w3.org/2000/svg">
<path d="M-97.0755 94.7213L-119.043 80.5955V142.786H-134.733V511.521L-131.595 524.073C-124.064 527.839 -128.457 532.965 -131.595 535.057V549.179L-126.888 557.024V575.853L-133.164 585.268L-120.612 596.251V669.998H-169.253V596.251L-155.132 585.268L-161.408 575.853V557.024L-155.132 549.179V535.057C-162.663 530.036 -158.27 525.642 -155.132 524.073L-150.424 511.521V142.786H-166.115V53.4639L-183.375 42.365V-0.000183105L435.375 400.186V438.231V497.284H419.684L419.153 937.977L422.291 950.53C429.822 954.296 425.429 959.422 422.291 961.514V975.635L426.998 983.481V1002.31L420.722 1011.72L433.274 1022.71V1096.45H384.633V1022.71L398.755 1011.72L392.478 1002.31V983.481L398.755 975.635V961.514C391.223 956.493 395.616 952.099 398.755 950.53L403.462 937.977L403.993 497.284H388.302V406.841L366.713 392.958V453.131H351.022V937.977L354.161 950.53C361.692 954.296 357.299 959.422 354.161 961.514V975.635L358.868 983.481V1002.31L352.591 1011.72L365.144 1022.71V1096.45H316.503V1022.71L330.624 1011.72L324.348 1002.31V983.481L330.624 975.635V961.514C323.093 956.493 327.486 952.099 330.624 950.53L335.332 937.977V453.131H319.641V362.688L295.278 347.022V407.195H279.588L279.504 790.167L282.642 802.719C290.174 806.485 285.781 811.611 282.642 813.703V827.825L287.35 835.67V854.499L281.073 863.914L293.626 874.897V948.644H244.984V874.897L259.106 863.914L252.83 854.499V835.67L259.106 827.825V813.703C251.575 808.682 255.968 804.288 259.106 802.719L263.813 790.167L263.897 407.195H248.206V316.753L227.808 303.636V363.809H212.117L212.034 790.167L215.172 802.719C222.703 806.485 218.31 811.611 215.172 813.703V827.825L219.879 835.67V854.499L213.603 863.914L226.155 874.897V948.644H177.514V874.897L191.636 863.914L185.359 854.499V835.67L191.636 827.825V813.703C184.104 808.682 188.497 804.288 191.636 802.719L196.343 790.167L196.426 363.809H180.735V273.366L156.373 257.7V317.873H140.682V790.167L143.82 802.719C151.352 806.485 146.958 811.611 143.82 813.703V827.825L148.528 835.67V854.499L142.251 863.914L154.804 874.897V948.644H106.162V874.897L120.284 863.914L114.008 854.499V835.67L120.284 827.825V813.703C112.752 808.682 117.146 804.288 120.284 802.719L124.991 790.167V317.873H109.3V227.43L85.7643 212.295V274.486H70.0734L70.8163 654.319L73.9545 666.872C81.4861 670.638 77.0927 675.764 73.9545 677.856V691.977L78.6617 699.823V718.652L72.3854 728.066L84.9381 739.05V812.797H36.2965V739.05L50.4183 728.066L44.1419 718.652V699.823L50.4183 691.977V677.856C42.8867 672.835 47.2801 668.441 50.4183 666.872L55.1255 654.319L54.3826 274.486H38.6918V182.026L17.4675 168.378V228.55H1.7767V654.319L4.91487 666.872C12.4465 670.638 8.05304 675.764 4.91487 677.856V691.977L9.62212 699.823V718.652L3.34579 728.066L15.8985 739.05V812.797H-32.7431V739.05L-18.6214 728.066L-24.8977 718.652V699.823L-18.6214 691.977V677.856C-26.153 672.835 -21.7595 668.441 -18.6214 666.872L-13.9141 654.319V228.55H-29.6049V138.108L-50.003 124.991V185.164H-65.6938V654.319L-62.5557 666.872C-55.0241 670.638 -59.4175 675.764 -62.5557 677.856V691.977L-57.8484 699.823V718.652L-64.1247 728.066L-51.5721 739.05V812.797H-100.214V739.05L-86.0919 728.066L-92.3682 718.652V699.823L-86.0919 691.977V677.856C-93.6235 672.835 -89.2301 668.441 -86.0919 666.872L-81.3847 654.319V185.164H-97.0755V94.7213Z" fill="#E9B7AA"/>
<path d="M521.675 494.884L499.707 480.758V542.949H484.017V911.683L487.155 924.236C494.686 928.001 490.293 933.127 487.155 935.219V949.341L491.862 957.186V976.015L485.586 985.43L498.138 996.413V1070.16H449.497V996.413L463.618 985.43L457.342 976.015V957.186L463.618 949.341V935.219C456.087 930.198 460.48 925.805 463.618 924.236L468.326 911.683V542.949H452.635V453.626L435.375 442.527V400.162L1054.12 800.349V838.393V897.446H1038.43L1037.9 1338.14L1041.04 1350.69C1048.57 1354.46 1044.18 1359.58 1041.04 1361.68V1375.8L1045.75 1383.64V1402.47L1039.47 1411.89L1052.02 1422.87V1496.62H1003.38V1422.87L1017.5 1411.89L1011.23 1402.47V1383.64L1017.5 1375.8V1361.68C1009.97 1356.65 1014.37 1352.26 1017.5 1350.69L1022.21 1338.14L1022.74 897.446H1007.05V807.003L985.463 793.121V853.293H969.772V1338.14L972.911 1350.69C980.442 1354.46 976.049 1359.58 972.911 1361.68V1375.8L977.618 1383.64V1402.47L971.341 1411.89L983.894 1422.87V1496.62H935.253V1422.87L949.374 1411.89L943.098 1402.47V1383.64L949.374 1375.8V1361.68C941.843 1356.65 946.236 1352.26 949.374 1350.69L954.082 1338.14V853.293H938.391V762.851L914.028 747.185V807.358H898.338L898.254 1190.33L901.392 1202.88C908.924 1206.65 904.531 1211.77 901.392 1213.87V1227.99L906.1 1235.83V1254.66L899.823 1264.08L912.376 1275.06V1348.81H863.734V1275.06L877.856 1264.08L871.58 1254.66V1235.83L877.856 1227.99V1213.87C870.325 1208.84 874.718 1204.45 877.856 1202.88L882.563 1190.33L882.647 807.358H866.956V716.915L846.558 703.798V763.971H830.867L830.784 1190.33L833.922 1202.88C841.453 1206.65 837.06 1211.77 833.922 1213.87V1227.99L838.629 1235.83V1254.66L832.353 1264.08L844.905 1275.06V1348.81H796.264V1275.06L810.386 1264.08L804.109 1254.66V1235.83L810.386 1227.99V1213.87C802.854 1208.84 807.247 1204.45 810.386 1202.88L815.093 1190.33L815.176 763.971H799.485V673.528L775.123 657.862V718.035H759.432V1190.33L762.57 1202.88C770.102 1206.65 765.708 1211.77 762.57 1213.87V1227.99L767.278 1235.83V1254.66L761.001 1264.08L773.554 1275.06V1348.81H724.912V1275.06L739.034 1264.08L732.758 1254.66V1235.83L739.034 1227.99V1213.87C731.502 1208.84 735.896 1204.45 739.034 1202.88L743.741 1190.33V718.035H728.05V627.593L704.514 612.458V674.649H688.823L689.566 1054.48L692.704 1067.03C700.236 1070.8 695.843 1075.93 692.704 1078.02V1092.14L697.412 1099.99V1118.81L691.135 1128.23L703.688 1139.21V1212.96H655.047V1139.21L669.168 1128.23L662.892 1118.81V1099.99L669.168 1092.14V1078.02C661.637 1073 666.03 1068.6 669.168 1067.03L673.876 1054.48L673.133 674.649H657.442V582.188L636.218 568.54V628.713H620.527V1054.48L623.665 1067.03C631.196 1070.8 626.803 1075.93 623.665 1078.02V1092.14L628.372 1099.99V1118.81L622.096 1128.23L634.648 1139.21V1212.96H586.007V1139.21L600.129 1128.23L593.852 1118.81V1099.99L600.129 1092.14V1078.02C592.597 1073 596.99 1068.6 600.129 1067.03L604.836 1054.48V628.713H589.145V538.27L568.747 525.153V585.326H553.056V1054.48L556.194 1067.03C563.726 1070.8 559.332 1075.93 556.194 1078.02V1092.14L560.902 1099.99V1118.81L554.625 1128.23L567.178 1139.21V1212.96H518.536V1139.21L532.658 1128.23L526.382 1118.81V1099.99L532.658 1092.14V1078.02C525.127 1073 529.52 1068.6 532.658 1067.03L537.365 1054.48V585.326H521.675V494.884Z" fill="#E9B7AA"/>
</svg>
