<svg width="1192" height="540" viewBox="0 0 1192 540" fill="none" xmlns="http://www.w3.org/2000/svg">
<path d="M1155.04 94.7577L1177.05 80.6264V142.841H1192.77V511.717L1189.63 524.274C1182.08 528.041 1186.48 533.169 1189.63 535.262V549.389L1184.91 557.237V576.074L1191.2 585.492L1178.62 596.48V670.255H1227.35V596.48L1213.21 585.492L1219.49 576.074V557.237L1213.21 549.389V535.262C1220.75 530.239 1216.35 525.844 1213.21 524.274L1208.49 511.717V142.841H1224.21V53.4845L1241.5 42.3813V-0.00012207L621.625 400.34V438.399V497.474H637.344L637.877 938.337L634.733 950.894C627.188 954.662 631.589 959.789 634.733 961.882V976.009L630.017 983.858V1002.69L636.305 1012.11L623.729 1023.1V1096.87H672.459V1023.1L658.312 1012.11L664.6 1002.69V983.858L658.312 976.009V961.882C665.857 956.859 661.456 952.464 658.312 950.894L653.596 938.337L653.064 497.474H668.783V406.997L690.412 393.109V453.305H706.131V938.337L702.987 950.894C695.442 954.662 699.843 959.789 702.987 961.882V976.009L698.271 983.858V1002.69L704.559 1012.11L691.984 1023.1V1096.87H740.714V1023.1L726.566 1012.11L732.854 1002.69V983.858L726.566 976.009V961.882C734.111 956.859 729.71 952.464 726.566 950.894L721.85 938.337V453.305H737.57V362.827L761.976 347.155V407.351H777.696L777.779 790.469L774.635 803.027C767.09 806.794 771.491 811.922 774.635 814.015V828.142L769.919 835.99V854.826L776.207 864.245L763.632 875.232V949.007H812.362V875.232L798.214 864.245L804.502 854.826V835.99L798.214 828.142V814.015C805.76 808.992 801.358 804.597 798.214 803.027L793.498 790.469L793.415 407.351H809.134V316.874L829.57 303.752V363.948H845.289L845.372 790.469L842.228 803.027C834.683 806.794 839.085 811.922 842.228 814.015V828.142L837.513 835.99V854.826L843.8 864.245L831.225 875.232V949.007H879.955V875.232L865.807 864.245L872.095 854.826V835.99L865.807 828.142V814.015C873.353 808.992 868.951 804.597 865.807 803.027L861.092 790.469L861.008 363.948H876.728V273.471L901.134 257.799V317.995H916.854V790.469L913.71 803.027C906.165 806.794 910.566 811.922 913.71 814.015V828.142L908.994 835.99V854.826L915.282 864.245L902.706 875.232V949.007H951.436V875.232L937.289 864.245L943.577 854.826V835.99L937.289 828.142V814.015C944.834 808.992 940.433 804.597 937.289 803.027L932.573 790.469V317.995H948.292V227.517L971.871 212.377V274.591H987.591L986.846 654.57L983.703 667.128C976.157 670.895 980.559 676.023 983.703 678.115V692.243L978.987 700.091V718.927L985.275 728.345L972.699 739.333V813.108H1021.43V739.333L1007.28 728.345L1013.57 718.927V700.091L1007.28 692.243V678.115C1014.83 673.092 1010.43 668.697 1007.28 667.128L1002.57 654.57L1003.31 274.591H1019.03V182.096L1040.29 168.442V228.638H1056.01V654.57L1052.87 667.128C1045.32 670.895 1049.72 676.023 1052.87 678.115V692.243L1048.15 700.091V718.927L1054.44 728.345L1041.86 739.333V813.108H1090.59V739.333L1076.45 728.345L1082.73 718.927V700.091L1076.45 692.243V678.115C1083.99 673.092 1079.59 668.697 1076.45 667.128L1071.73 654.57V228.638H1087.45V138.161L1107.89 125.039V185.235H1123.6V654.57L1120.46 667.128C1112.92 670.895 1117.32 676.023 1120.46 678.115V692.243L1115.75 700.091V718.927L1122.03 728.345L1109.46 739.333V813.108H1158.19V739.333L1144.04 728.345L1150.33 718.927V700.091L1144.04 692.243V678.115C1151.59 673.092 1147.18 668.697 1144.04 667.128L1139.32 654.57V185.235H1155.04V94.7577Z" fill="#E9B7AA"/>
<path d="M535.012 495.16L557.059 481.044V543.195H572.807V911.692L569.657 924.236C562.098 928 566.507 933.122 569.657 935.213V949.326L564.933 957.166V975.983L571.232 985.391L558.634 996.368V1070.07H607.452V996.368L593.279 985.391L599.578 975.983V957.166L593.279 949.326V935.213C600.838 930.195 596.428 925.804 593.279 924.236L588.555 911.692V543.195H604.302V453.93L621.625 442.838V400.5L0.625061 800.429V838.449V897.464H16.3729L16.9064 1337.87L13.7568 1350.42C6.19788 1354.18 10.6073 1359.3 13.7568 1361.4V1375.51L9.03247 1383.35V1402.17L15.3317 1411.57L2.73334 1422.55V1496.25H51.5518V1422.55L37.3787 1411.57L43.6779 1402.17V1383.35L37.3787 1375.51V1361.4C44.9377 1356.38 40.5283 1351.99 37.3787 1350.42L32.6543 1337.87L32.1208 897.464H47.8687V807.079L69.5365 793.206V853.34H85.2844V1337.87L82.1348 1350.42C74.5758 1354.18 78.9852 1359.3 82.1348 1361.4V1375.51L77.4105 1383.35V1402.17L83.7096 1411.57L71.1113 1422.55V1496.25H119.93V1422.55L105.757 1411.57L112.056 1402.17V1383.35L105.757 1375.51V1361.4C113.316 1356.38 108.906 1351.99 105.757 1350.42L101.032 1337.87V853.34H116.78V762.955L141.231 747.299V807.433H156.979L157.063 1190.16L153.913 1202.7C146.354 1206.47 150.763 1211.59 153.913 1213.68V1227.79L149.189 1235.63V1254.45L155.488 1263.86L142.889 1274.83V1348.53H191.708V1274.83L177.535 1263.86L183.834 1254.45V1235.63L177.535 1227.79V1213.68C185.094 1208.66 180.684 1204.27 177.535 1202.7L172.81 1190.16L172.727 807.433H188.475V717.049L208.947 703.941V764.075H224.695L224.778 1190.16L221.629 1202.7C214.07 1206.47 218.479 1211.59 221.629 1213.68V1227.79L216.905 1235.63V1254.45L223.204 1263.86L210.605 1274.83V1348.53H259.424V1274.83L245.251 1263.86L251.55 1254.45V1235.63L245.251 1227.79V1213.68C252.81 1208.66 248.4 1204.27 245.251 1202.7L240.526 1190.16L240.443 764.075H256.191V673.69L280.642 658.034V718.168H296.39V1190.16L293.24 1202.7C285.681 1206.47 290.09 1211.59 293.24 1213.68V1227.79L288.516 1235.63V1254.45L294.815 1263.86L282.216 1274.83V1348.53H331.035V1274.83L316.862 1263.86L323.161 1254.45V1235.63L316.862 1227.79V1213.68C324.421 1208.66 320.011 1204.27 316.862 1202.7L312.137 1190.16V718.168H327.885V627.784L351.507 612.659V674.81H367.255L366.509 1054.4L363.36 1066.94C355.801 1070.71 360.21 1075.83 363.36 1077.92V1092.03L358.635 1099.87V1118.69L364.935 1128.1L352.336 1139.07V1212.77H401.155V1139.07L386.982 1128.1L393.281 1118.69V1099.87L386.982 1092.03V1077.92C394.541 1072.9 390.131 1068.51 386.982 1066.94L382.257 1054.4L383.003 674.81H398.751V582.409L420.052 568.769V628.904H435.8V1054.4L432.65 1066.94C425.092 1070.71 429.501 1075.83 432.65 1077.92V1092.03L427.926 1099.87V1118.69L434.225 1128.1L421.627 1139.07V1212.77H470.445V1139.07L456.272 1128.1L462.571 1118.69V1099.87L456.272 1092.03V1077.92C463.831 1072.9 459.422 1068.51 456.272 1066.94L451.548 1054.4V628.904H467.296V538.519L487.768 525.411V585.545H503.516V1054.4L500.366 1066.94C492.807 1070.71 497.217 1075.83 500.366 1077.92V1092.03L495.642 1099.87V1118.69L501.941 1128.1L489.343 1139.07V1212.77H538.161V1139.07L523.988 1128.1L530.287 1118.69V1099.87L523.988 1092.03V1077.92C531.547 1072.9 527.138 1068.51 523.988 1066.94L519.264 1054.4V585.545H535.012V495.16Z" fill="#E9B7AA"/>
</svg>
