<svg width="926" height="247" viewBox="0 0 926 247" fill="none" xmlns="http://www.w3.org/2000/svg">
<path fill-rule="evenodd" clip-rule="evenodd" d="M706.309 187.598C706.309 188.569 706.152 189.503 705.862 190.376C705.852 190.447 705.834 190.519 705.807 190.589L701.052 203.142L713.556 198.34C713.614 198.318 713.673 198.301 713.731 198.29C714.616 197.991 715.564 197.829 716.55 197.829C721.412 197.829 725.353 201.77 725.353 206.632C725.353 211.494 721.412 215.435 716.55 215.435C715.579 215.435 714.645 215.278 713.772 214.988C713.701 214.978 713.631 214.96 713.56 214.933L700.993 210.172L705.797 222.682C705.82 222.741 705.837 222.801 705.848 222.86C706.146 223.744 706.308 224.692 706.308 225.677C706.308 230.539 702.367 234.48 697.505 234.48C692.643 234.48 688.702 230.539 688.702 225.677C688.702 224.706 688.859 223.772 689.149 222.898C689.159 222.828 689.177 222.756 689.204 222.686L693.963 210.125L681.466 214.924C681.408 214.947 681.349 214.963 681.291 214.974C680.406 215.273 679.457 215.435 678.471 215.435C673.61 215.435 669.668 211.494 669.668 206.632C669.668 201.77 673.61 197.829 678.471 197.829C679.442 197.829 680.377 197.986 681.25 198.277C681.321 198.287 681.391 198.305 681.461 198.331L694.012 203.085L689.214 190.594C689.191 190.535 689.175 190.476 689.164 190.417C688.865 189.532 688.703 188.584 688.703 187.598C688.703 182.737 692.645 178.795 697.506 178.795C702.368 178.795 706.309 182.737 706.309 187.598ZM697.468 206.678C697.496 206.678 697.524 206.679 697.553 206.679C697.553 206.652 697.553 206.624 697.554 206.597C697.525 206.597 697.497 206.597 697.469 206.596C697.469 206.623 697.469 206.651 697.468 206.678Z" fill="#F8F8F8"/>
<path fill-rule="evenodd" clip-rule="evenodd" d="M690.383 187.066C691.069 187.753 691.619 188.525 692.031 189.348C692.074 189.405 692.111 189.468 692.142 189.537L697.656 201.776L703.102 189.538C703.128 189.481 703.157 189.428 703.191 189.379C703.606 188.541 704.161 187.756 704.859 187.059C708.297 183.621 713.87 183.621 717.308 187.059C720.746 190.496 720.746 196.07 717.308 199.508C716.622 200.194 715.851 200.743 715.028 201.156C714.971 201.199 714.908 201.237 714.838 201.268L702.588 206.787L714.83 212.235C714.888 212.261 714.942 212.291 714.992 212.326C715.828 212.74 716.612 213.295 717.309 213.992C720.747 217.43 720.747 223.004 717.309 226.441C713.871 229.879 708.297 229.879 704.859 226.441C704.172 225.755 703.623 224.982 703.21 224.159C703.168 224.102 703.131 224.04 703.1 223.971L697.582 211.724L692.14 223.954C692.114 224.012 692.084 224.065 692.05 224.114C691.636 224.951 691.08 225.736 690.383 226.433C686.945 229.871 681.372 229.871 677.934 226.433C674.496 222.996 674.496 217.422 677.934 213.984C678.62 213.298 679.391 212.749 680.214 212.336C680.271 212.293 680.335 212.255 680.404 212.224L692.637 206.713L680.412 201.273C680.354 201.247 680.3 201.216 680.25 201.182C679.414 200.768 678.63 200.212 677.933 199.516C674.495 196.078 674.495 190.504 677.933 187.066C681.371 183.629 686.945 183.629 690.383 187.066ZM697.625 206.809C697.644 206.789 697.664 206.77 697.684 206.751C697.664 206.732 697.645 206.712 697.625 206.692C697.606 206.711 697.587 206.73 697.567 206.749C697.586 206.769 697.606 206.788 697.625 206.809Z" fill="#E9B7AA"/>
<path fill-rule="evenodd" clip-rule="evenodd" d="M800.809 187.598C800.809 188.569 800.652 189.503 800.362 190.376C800.352 190.447 800.334 190.519 800.307 190.589L795.552 203.142L808.056 198.34C808.114 198.318 808.173 198.301 808.231 198.29C809.116 197.991 810.064 197.829 811.05 197.829C815.912 197.829 819.853 201.77 819.853 206.632C819.853 211.494 815.912 215.435 811.05 215.435C810.079 215.435 809.145 215.278 808.272 214.988C808.201 214.978 808.131 214.96 808.06 214.933L795.493 210.172L800.297 222.682C800.32 222.741 800.337 222.801 800.348 222.86C800.646 223.745 800.808 224.692 800.808 225.677C800.808 230.539 796.867 234.48 792.005 234.48C787.143 234.48 783.202 230.539 783.202 225.677C783.202 224.706 783.359 223.772 783.649 222.898C783.659 222.827 783.678 222.756 783.704 222.686L788.463 210.125L775.966 214.924C775.908 214.947 775.849 214.963 775.791 214.974C774.906 215.273 773.957 215.435 772.971 215.435C768.11 215.435 764.168 211.494 764.168 206.632C764.168 201.77 768.11 197.829 772.971 197.829C773.942 197.829 774.877 197.986 775.75 198.277C775.82 198.287 775.891 198.305 775.961 198.331L788.512 203.085L783.714 190.594C783.691 190.535 783.675 190.476 783.664 190.417C783.365 189.532 783.203 188.584 783.203 187.598C783.203 182.737 787.144 178.795 792.006 178.795C796.868 178.795 800.809 182.737 800.809 187.598ZM791.968 206.678C791.996 206.678 792.024 206.679 792.053 206.679C792.053 206.652 792.053 206.624 792.054 206.597C792.025 206.597 791.997 206.597 791.969 206.596C791.969 206.623 791.969 206.651 791.968 206.678Z" fill="#F8F8F8"/>
<path fill-rule="evenodd" clip-rule="evenodd" d="M784.883 187.066C785.569 187.753 786.119 188.525 786.531 189.348C786.574 189.405 786.611 189.468 786.642 189.537L792.156 201.776L797.602 189.538C797.628 189.481 797.658 189.428 797.691 189.378C798.106 188.541 798.662 187.756 799.359 187.059C802.797 183.621 808.37 183.621 811.808 187.059C815.246 190.496 815.246 196.07 811.808 199.508C811.122 200.194 810.351 200.743 809.528 201.156C809.471 201.199 809.408 201.237 809.338 201.268L797.088 206.787L809.33 212.235C809.388 212.261 809.442 212.291 809.492 212.326C810.328 212.74 811.112 213.295 811.809 213.992C815.247 217.43 815.247 223.004 811.809 226.441C808.371 229.879 802.797 229.879 799.359 226.441C798.672 225.754 798.123 224.982 797.71 224.159C797.668 224.102 797.631 224.04 797.6 223.971L792.082 211.724L786.64 223.954C786.614 224.012 786.584 224.065 786.55 224.115C786.136 224.952 785.58 225.736 784.883 226.433C781.445 229.871 775.872 229.871 772.434 226.433C768.996 222.996 768.996 217.422 772.434 213.984C773.12 213.298 773.891 212.748 774.714 212.336C774.771 212.293 774.835 212.255 774.904 212.224L787.137 206.713L774.912 201.273C774.854 201.247 774.8 201.216 774.75 201.182C773.914 200.768 773.13 200.212 772.433 199.516C768.995 196.078 768.995 190.504 772.433 187.066C775.871 183.629 781.445 183.629 784.883 187.066ZM792.125 206.808C792.144 206.789 792.164 206.77 792.184 206.751C792.164 206.732 792.145 206.712 792.125 206.692C792.106 206.711 792.087 206.73 792.067 206.749C792.087 206.769 792.106 206.788 792.125 206.808Z" fill="#E9B7AA"/>
<path fill-rule="evenodd" clip-rule="evenodd" d="M895.309 187.598C895.309 188.569 895.152 189.503 894.862 190.376C894.852 190.447 894.834 190.519 894.807 190.589L890.052 203.142L902.556 198.34C902.614 198.318 902.673 198.301 902.731 198.29C903.616 197.991 904.564 197.829 905.55 197.829C910.412 197.829 914.353 201.77 914.353 206.632C914.353 211.494 910.412 215.435 905.55 215.435C904.579 215.435 903.645 215.278 902.772 214.988C902.701 214.978 902.631 214.96 902.56 214.933L889.993 210.172L894.797 222.682C894.82 222.741 894.837 222.801 894.848 222.86C895.146 223.744 895.308 224.692 895.308 225.677C895.308 230.539 891.367 234.48 886.505 234.48C881.643 234.48 877.702 230.539 877.702 225.677C877.702 224.706 877.859 223.772 878.149 222.898C878.159 222.828 878.177 222.756 878.204 222.686L882.962 210.125L870.466 214.924C870.408 214.947 870.349 214.963 870.291 214.974C869.406 215.273 868.457 215.435 867.471 215.435C862.61 215.435 858.668 211.494 858.668 206.632C858.668 201.77 862.61 197.829 867.471 197.829C868.442 197.829 869.377 197.986 870.25 198.277C870.32 198.287 870.391 198.305 870.462 198.331L883.012 203.085L878.214 190.594C878.191 190.535 878.175 190.476 878.164 190.417C877.865 189.532 877.703 188.584 877.703 187.598C877.703 182.737 881.645 178.795 886.506 178.795C891.368 178.795 895.309 182.737 895.309 187.598ZM886.468 206.678C886.496 206.678 886.525 206.679 886.553 206.679C886.553 206.652 886.553 206.624 886.554 206.597C886.525 206.597 886.497 206.597 886.469 206.596C886.469 206.623 886.469 206.651 886.468 206.678Z" fill="#F8F8F8"/>
<path fill-rule="evenodd" clip-rule="evenodd" d="M879.383 187.066C880.069 187.753 880.619 188.525 881.031 189.348C881.074 189.405 881.111 189.468 881.142 189.537L886.656 201.776L892.102 189.538C892.128 189.481 892.158 189.428 892.191 189.379C892.606 188.541 893.161 187.756 893.859 187.059C897.297 183.621 902.87 183.621 906.308 187.059C909.746 190.496 909.746 196.07 906.308 199.508C905.622 200.194 904.851 200.743 904.028 201.156C903.971 201.199 903.908 201.237 903.838 201.268L891.588 206.787L903.83 212.235C903.888 212.261 903.942 212.291 903.992 212.326C904.828 212.74 905.612 213.295 906.309 213.992C909.747 217.43 909.747 223.004 906.309 226.441C902.871 229.879 897.297 229.879 893.859 226.441C893.172 225.755 892.623 224.982 892.21 224.159C892.168 224.102 892.131 224.04 892.1 223.971L886.582 211.724L881.14 223.954C881.114 224.011 881.084 224.065 881.051 224.114C880.636 224.951 880.08 225.736 879.383 226.433C875.945 229.871 870.372 229.871 866.934 226.433C863.496 222.996 863.496 217.422 866.934 213.984C867.62 213.298 868.391 212.749 869.214 212.336C869.271 212.293 869.334 212.255 869.404 212.224L881.637 206.713L869.412 201.273C869.354 201.247 869.3 201.216 869.25 201.182C868.414 200.768 867.63 200.212 866.933 199.516C863.495 196.078 863.495 190.504 866.933 187.066C870.371 183.629 875.945 183.629 879.383 187.066ZM886.625 206.809C886.644 206.789 886.664 206.77 886.684 206.751C886.664 206.732 886.645 206.712 886.625 206.692C886.606 206.711 886.587 206.73 886.567 206.749C886.586 206.769 886.606 206.788 886.625 206.809Z" fill="#E9B7AA"/>
<path fill-rule="evenodd" clip-rule="evenodd" d="M48.1844 21.0984C48.1844 22.069 48.0273 23.003 47.7372 23.8762C47.7272 23.9471 47.7091 24.0185 47.6823 24.0893L42.9271 36.6423L55.4311 31.8398C55.4893 31.8174 55.5479 31.801 55.6063 31.7901C56.4914 31.4912 57.4394 31.3291 58.4254 31.3291C63.2872 31.3291 67.2285 35.2703 67.2285 40.1321C67.2285 44.9939 63.2872 48.9352 58.4254 48.9352C57.4544 48.9352 56.5201 48.778 55.6467 48.4877C55.5763 48.4776 55.5055 48.4596 55.4353 48.433L42.868 43.6724L47.6724 56.1815C47.6952 56.2408 47.7118 56.3004 47.7227 56.36C48.0212 57.2444 48.183 58.1917 48.183 59.1768C48.183 64.0386 44.2417 67.9799 39.3799 67.9799C34.5181 67.9799 30.5769 64.0386 30.5769 59.1768C30.5769 58.2059 30.7341 57.2716 31.0244 56.3981C31.0344 56.3274 31.0525 56.2563 31.0792 56.1857L35.8375 43.6248L23.3408 48.4244C23.2827 48.4467 23.2242 48.4631 23.1659 48.474C22.2807 48.7731 21.3325 48.9352 20.3465 48.9352C15.4847 48.9352 11.5434 44.9939 11.5434 40.1321C11.5434 35.2703 15.4847 31.329 20.3465 31.329C21.3174 31.329 22.2515 31.4862 23.1249 31.7765C23.1954 31.7866 23.2662 31.8046 23.3366 31.8312L35.8869 36.5854L31.0891 24.0935C31.0665 24.0348 31.05 23.9757 31.0391 23.9167C30.7403 23.0319 30.5783 22.084 30.5783 21.0984C30.5783 16.2366 34.5196 12.2953 39.3814 12.2953C44.2432 12.2953 48.1844 16.2366 48.1844 21.0984ZM39.343 40.1781C39.3713 40.1782 39.3995 40.1785 39.4277 40.1793C39.4277 40.1518 39.428 40.1243 39.4286 40.0969C39.4004 40.0969 39.3723 40.0966 39.3441 40.096C39.3441 40.1234 39.3437 40.1507 39.343 40.1781Z" fill="#F8F8F8"/>
<path fill-rule="evenodd" clip-rule="evenodd" d="M32.2577 20.5665C32.9445 21.2532 33.4941 22.0253 33.9065 22.8485C33.9491 22.9053 33.9865 22.9681 34.0173 23.0367L39.5313 35.2757L44.9774 23.0376C45.0028 22.9805 45.0327 22.9274 45.0664 22.8783C45.4808 22.0409 46.0366 21.2558 46.7339 20.5586C50.1717 17.1208 55.7455 17.1208 59.1833 20.5586C62.6211 23.9964 62.6211 29.5702 59.1833 33.008C58.4971 33.6942 57.7257 34.2435 56.9033 34.6557C56.846 34.6989 56.7827 34.7366 56.7135 34.7678L44.4625 40.2872L56.7053 45.7353C56.7632 45.7611 56.8171 45.7915 56.8668 45.8258C57.7031 46.2401 58.4873 46.7955 59.1839 47.492C62.6217 50.9298 62.6217 56.5036 59.1839 59.9415C55.746 63.3793 50.1722 63.3793 46.7344 59.9415C46.0476 59.2546 45.4979 58.4824 45.0855 57.6591C45.043 57.6023 45.0058 57.5397 44.9751 57.4714L39.4575 45.2244L34.015 57.4543C33.9895 57.5117 33.9594 57.5651 33.9255 57.6144C33.5111 58.4515 32.9554 59.2365 32.2583 59.9336C28.8204 63.3714 23.2467 63.3714 19.8088 59.9336C16.371 56.4958 16.371 50.922 19.8088 47.4842C20.495 46.798 21.2663 46.2488 22.0887 45.8365C22.1461 45.7932 22.2096 45.7554 22.2789 45.7241L34.5118 40.2129L22.2871 34.7728C22.229 34.747 22.175 34.7164 22.1252 34.682C21.2889 34.2677 20.5048 33.7123 19.8083 33.0159C16.3705 29.5781 16.3705 24.0043 19.8083 20.5665C23.2461 17.1286 28.8199 17.1286 32.2577 20.5665ZM39.4998 40.3086C39.5192 40.2892 39.5389 40.2701 39.5588 40.2512C39.5391 40.2316 39.5197 40.2117 39.5005 40.1916C39.4812 40.211 39.4616 40.2301 39.4419 40.249C39.4614 40.2686 39.4808 40.2885 39.4998 40.3086Z" fill="#E9B7AA"/>
</svg>
