<svg width="1440" height="1343" viewBox="0 0 1440 1343" fill="none" xmlns="http://www.w3.org/2000/svg">
<path d="M47.8124 552.125C32.5313 548.187 11.1378 528.05 47.8124 479C63.0936 499.625 84.4872 543.125 47.8124 552.125Z" fill="#4F8A60"/>
<path d="M17.707 596.162C17.0251 580.396 30.062 554.067 87.6644 574.873C72.3817 595.497 36.9943 628.628 17.707 596.162Z" fill="#4F8A60"/>
<path d="M147.233 518.016C153.965 503.744 177.756 486.504 219.062 531.723C195.938 542.868 149.199 555.728 147.233 518.016Z" fill="#4F8A60"/>
<path d="M29.8751 770.374C20.4032 757.753 16.2794 728.663 75.5597 713.276C74.6063 738.927 64.1346 786.259 29.8751 770.374Z" fill="#4F8A60"/>
<path d="M15.8585 690.551C-5.35215 698.902 -47.4654 693.473 -46.2335 604.949C-10.853 616.133 51.098 648.911 15.8585 690.551Z" fill="#4F8A60"/>
<path d="M-7.02333 870.832C-35.0601 871.983 -81.8788 848.616 -44.8589 745.937C-8.18763 773.288 50.7193 836.557 -7.02333 870.832Z" fill="#4F8A60"/>
<path d="M207 491.375C196.388 488.588 181.531 474.337 207 439.625C217.612 454.221 232.469 485.006 207 491.375Z" fill="#4F8A60"/>
<path d="M233.89 445.343C225.352 438.454 217.639 419.366 255.094 398.137C258.794 415.8 259.733 449.969 233.89 445.343Z" fill="#4F8A60"/>
<path d="M125.488 519.271C121.181 515.157 118.215 501.655 140.802 480.565C141.614 493.512 139.688 519.38 125.488 519.271Z" fill="#4F8A60"/>
<path d="M221.447 480.116C222.502 474.254 232.124 464.33 262.176 471.53C251.827 479.351 229.191 492.018 221.447 480.116Z" fill="#4F8A60"/>
<path d="M27.6174 801.998C21.675 802.4 9.70939 795.479 9.38623 764.578C19.4891 772.715 37.2794 791.592 27.6174 801.998Z" fill="#4F8A60"/>
<path d="M23.4188 719.067C16.3999 711.221 13.0348 687.117 55.7252 653.465C55.3717 676.282 48.4154 721.345 23.4188 719.067Z" fill="#4F8A60"/>
<path d="M78.7144 535.511C84.6554 526.821 107.257 517.793 150.136 551.204C127.896 556.314 82.4761 560.328 78.7144 535.511Z" fill="#4F8A60"/>
<path d="M94.0742 586.505C76.767 571.71 61.8128 532.043 140.453 491.734C147.176 528.157 147.313 598.102 94.0742 586.505Z" fill="#4F8A60"/>
<path d="M27.1274 624.483C36.2428 603.619 69.8378 577.764 131.295 641.262C98.4083 658.298 31.5329 678.792 27.1274 624.483Z" fill="#4F8A60"/>
<path d="M244.558 605.356C262.335 591.129 304.102 583.875 328.955 668.677C291.918 668.454 223.187 655.477 244.558 605.356Z" fill="#4F8A60"/>
<path d="M-67.5946 857.982C-71.8654 835.617 -58.7603 795.302 27.8269 812.957C10.3221 845.597 -33.2688 900.298 -67.5946 857.982Z" fill="#4F8A60"/>
<path d="M-35.1335 745.64C-67.9191 743.011 -119.055 709.264 -61.3134 595.319C-22.5532 632.253 36.9472 714.025 -35.1335 745.64Z" fill="#4F8A60"/>
<path d="M338.913 608.735C326.927 598.393 316.712 570.501 371.735 541.667C376.231 567.314 375.96 616.634 338.913 608.735Z" fill="#4F8A60"/>
<path d="M402.958 566.133C396.262 551.788 398.372 522.159 460.378 518.401C453.971 543.638 433.516 588.517 402.958 566.133Z" fill="#4F8A60"/>
<path d="M215.58 593.191C212.608 585.127 217.327 565.748 259.976 552.74C252.816 570.035 233.914 602.337 215.58 593.191Z" fill="#4F8A60"/>
<path d="M364.777 603.306C369.862 596.378 388.627 589.62 423.009 618.011C404.635 621.583 367.265 623.643 364.777 603.306Z" fill="#4F8A60"/>
<path d="M-43.4213 787.393C-47.5419 772.773 -36.6153 739.4 40.0552 722.863C25.126 752.208 -12.4701 806.199 -43.4213 787.393Z" fill="#4F8A60"/>
<path d="M144.661 584.572C157.872 577.078 192.89 579.712 227.27 650.209C195.207 642.726 133.796 619.121 144.661 584.572Z" fill="#4F8A60"/>
<path d="M-389.249 988.82C-320.8 999.125 -166.305 997.444 -95.9223 908.276C-7.94325 796.816 -60.9578 666.958 53.9165 602.093C168.791 537.228 346.047 679.093 406.758 562.421" stroke="#4F8A60" stroke-width="4.86972"/>
<path d="M-31.9258 735.005C-49.233 720.21 -64.1872 680.543 14.4528 640.234C21.1763 676.657 21.3133 746.602 -31.9258 735.005Z" fill="#4F8A60"/>
<path d="M-98.8726 772.983C-89.7572 752.119 -56.1622 726.264 5.29536 789.762C-27.5917 806.798 -94.4671 827.292 -98.8726 772.983Z" fill="#4F8A60"/>
<path d="M118.558 753.856C136.335 739.629 178.102 732.375 202.955 817.177C165.918 816.954 97.1869 803.977 118.558 753.856Z" fill="#4F8A60"/>
<path d="M212.913 757.235C200.927 746.893 190.712 719.001 245.735 690.167C250.231 715.814 249.96 765.134 212.913 757.235Z" fill="#4F8A60"/>
<path d="M276.958 714.633C270.262 700.288 272.372 670.659 334.379 666.901C327.971 692.138 307.516 737.017 276.958 714.633Z" fill="#4F8A60"/>
<path d="M89.5801 741.691C86.6082 733.627 91.3267 714.248 133.976 701.241C126.816 718.535 107.914 750.838 89.5801 741.691Z" fill="#4F8A60"/>
<path d="M238.777 751.806C243.862 744.878 262.627 738.12 297.009 766.511C278.635 770.083 241.265 772.143 238.777 751.806Z" fill="#4F8A60"/>
<path d="M18.6608 733.072C31.8721 725.578 66.8898 728.212 101.27 798.709C69.2068 791.226 7.79632 767.621 18.6608 733.072Z" fill="#4F8A60"/>
<path d="M-515.249 1137.32C-446.8 1147.63 -292.305 1145.94 -221.922 1056.78C-133.943 945.316 -186.958 815.458 -72.0835 750.593C42.7908 685.728 220.047 827.593 280.758 710.921" stroke="#4F8A60" stroke-width="4.86972"/>
<path d="M1354.84 494.625C1376.89 488.944 1407.76 459.888 1354.84 389.115C1332.79 418.874 1301.92 481.639 1354.84 494.625Z" fill="#4F8A60"/>
<path d="M1398.28 558.165C1399.26 535.417 1380.45 497.427 1297.34 527.447C1319.39 557.205 1370.45 605.009 1398.28 558.165Z" fill="#4F8A60"/>
<path d="M1211.39 445.41C1201.68 424.817 1167.35 399.942 1107.75 465.188C1141.11 481.268 1208.55 499.823 1211.39 445.41Z" fill="#4F8A60"/>
<path d="M1380.72 809.532C1394.39 791.321 1400.34 749.349 1314.81 727.147C1316.18 764.158 1331.29 832.452 1380.72 809.532Z" fill="#4F8A60"/>
<path d="M1400.95 694.357C1431.55 706.406 1492.32 698.573 1490.54 570.844C1439.49 586.981 1350.1 634.275 1400.95 694.357Z" fill="#4F8A60"/>
<path d="M1125.15 406.97C1140.46 402.949 1161.9 382.386 1125.15 332.301C1109.84 353.361 1088.4 397.78 1125.15 406.97Z" fill="#4F8A60"/>
<path d="M1086.35 340.552C1098.67 330.611 1109.8 303.07 1055.76 272.439C1050.42 297.924 1049.07 347.226 1086.35 340.552Z" fill="#4F8A60"/>
<path d="M1242.76 447.22C1248.98 441.284 1253.26 421.803 1220.67 391.373C1219.5 410.054 1222.28 447.377 1242.76 447.22Z" fill="#4F8A60"/>
<path d="M1104.31 390.724C1102.78 382.267 1088.9 367.948 1045.54 378.336C1060.47 389.621 1093.13 407.898 1104.31 390.724Z" fill="#4F8A60"/>
<path d="M1383.98 855.161C1392.56 855.741 1409.82 845.755 1410.29 801.169C1395.71 812.91 1370.04 840.147 1383.98 855.161Z" fill="#4F8A60"/>
<path d="M1390.04 735.503C1400.17 724.182 1405.02 689.403 1343.43 640.847C1343.94 673.769 1353.97 738.789 1390.04 735.503Z" fill="#4F8A60"/>
<path d="M1310.26 470.653C1301.68 458.114 1269.07 445.087 1207.2 493.296C1239.29 500.668 1304.83 506.46 1310.26 470.653Z" fill="#4F8A60"/>
<path d="M1612.12 1068.44C1546.11 1047.61 1408.08 978.188 1384.06 867.158C1354.03 728.371 1458.73 635.035 1384.06 526.278C1309.39 417.521 1087.82 467.03 1084.57 335.547" stroke="#4F8A60" stroke-width="4.86972"/>
<path d="M1403.14 1040.23C1412.91 1061.13 1412.22 1101.31 1331.26 1094.81C1337.9 1061.45 1361.56 1003.83 1403.14 1040.23Z" fill="#4F8A60"/>
<path d="M1473.3 1042.74C1458.41 1055.31 1420.9 1059.64 1389.93 976.396C1423.84 978.967 1488 995.836 1473.3 1042.74Z" fill="#4F8A60"/>
<path d="M1280.86 948.812C1260.82 951.551 1222.64 936.452 1230.21 854.142C1261.81 873.007 1316.18 918.352 1280.86 948.812Z" fill="#4F8A60"/>
<path d="M1201.32 898.439C1208.06 912.993 1207.31 941.096 1150.45 937.067C1155.33 913.697 1172.32 873.253 1201.32 898.439Z" fill="#4F8A60"/>
<path d="M1132.07 901.188C1132.92 916.368 1121.04 939.683 1066.74 911.499C1080.8 893.965 1113.55 867.356 1132.07 901.188Z" fill="#4F8A60"/>
<path d="M1301.51 973.437C1301.31 981.571 1290.68 995.136 1249.79 984.326C1261.79 973.708 1288.94 956.664 1301.51 973.437Z" fill="#4F8A60"/>
<path d="M1177.36 889.86C1170.65 892.995 1152.31 889.09 1132.56 848.388C1149.49 854.717 1182.14 871.871 1177.36 889.86Z" fill="#4F8A60"/>
<path d="M1359.23 1016.3C1345.38 1015.8 1316.33 995.974 1310.89 920.628C1335.77 942.958 1380.26 993.355 1359.23 1016.3Z" fill="#4F8A60"/>
<path d="M1953.23 952.989C1898.2 909.984 1765.51 833.442 1675 871.308C1561.88 918.64 1563.07 1052.23 1442.78 1047.65C1322.49 1043.08 1219.14 836.951 1127.56 902.326" stroke="#4F8A60" stroke-width="4.86972"/>
<path d="M1252.35 660.988C1267.88 644.333 1278.26 603.231 1195.57 572.061C1193 609.01 1200.76 678.523 1252.35 660.988Z" fill="#4F8A60"/>
<path d="M1323.16 691.163C1311.75 671.461 1275.45 649.566 1221.55 719.599C1256.15 732.812 1324.92 745.622 1323.16 691.163Z" fill="#4F8A60"/>
<path d="M1104.96 696.713C1085.69 684.585 1043.37 682.095 1028.25 769.161C1065.03 764.756 1131.85 744.101 1104.96 696.713Z" fill="#4F8A60"/>
<path d="M1566.53 1005.98C1601.52 985.612 1640.31 920.838 1515.55 824.719C1492.2 886.456 1469.69 1009.14 1566.53 1005.98Z" fill="#4F8A60"/>
<path d="M1011.59 710.727C1022.33 699.098 1029.33 670.23 971.403 647.794C969.833 673.785 975.671 722.759 1011.59 710.727Z" fill="#4F8A60"/>
<path d="M943.143 675.63C948.176 660.62 942.734 631.419 880.699 634.688C889.916 659.04 915.308 701.322 943.143 675.63Z" fill="#4F8A60"/>
<path d="M1132.38 681.353C1134.42 673.005 1127.54 654.283 1083.7 646.175C1092.77 662.551 1115.19 692.512 1132.38 681.353Z" fill="#4F8A60"/>
<path d="M985.278 708.253C979.443 701.944 960.034 697.349 929.079 729.441C947.739 730.915 985.102 728.742 985.278 708.253Z" fill="#4F8A60"/>
<path d="M1201.87 664.78C1187.9 658.825 1153.4 665.397 1127.2 739.326C1158.22 728.269 1216.57 697.881 1201.87 664.78Z" fill="#4F8A60"/>
<path d="M1778.02 1006.15C1711.17 1024.12 1557.47 1039.89 1477.47 959.243C1377.47 858.432 1415.48 723.418 1294.01 671.941C1172.55 620.464 1012.45 781.439 938.949 672.37" stroke="#4F8A60" stroke-width="4.86972"/>
<path d="M1495.27 999.088C1479.44 979.357 1435.9 961.379 1388.42 1047.32C1428.64 1056.04 1506.31 1058.61 1495.27 999.088Z" fill="#4F8A60"/>
<path d="M1432.7 970.43C1430.91 954.751 1413.93 930.775 1360.27 960.305C1378.58 978.295 1418.7 1005.51 1432.7 970.43Z" fill="#4F8A60"/>
<path d="M1288.57 842.408C1288.67 826.628 1274.67 800.795 1217.87 823.701C1233.9 843.75 1270.48 875.56 1288.57 842.408Z" fill="#4F8A60"/>
<path d="M1312.14 647.078C1323.48 636.103 1332.13 608.023 1276 583.508C1272.91 608.99 1275.81 657.38 1312.14 647.078Z" fill="#4F8A60"/>
<path d="M1341.77 897.264C1357.44 895.35 1381.27 878.169 1351.3 824.762C1333.46 843.221 1306.58 883.565 1341.77 897.264Z" fill="#4F8A60"/>
<path d="M1313.58 739.996C1325.08 729.195 1334.16 701.252 1278.42 675.879C1274.94 701.311 1277.09 749.739 1313.58 739.996Z" fill="#4F8A60"/>
<path d="M1276.97 549.212C1283.89 544.667 1291.17 531.749 1264.93 516.434C1260.75 528.459 1257.31 551.85 1276.97 549.212Z" fill="#4F8A60"/>
<path d="M1370.21 1010.67C1365.08 1004.17 1351.58 998.037 1338.6 1025.51C1350.94 1028.63 1374.54 1030.02 1370.21 1010.67Z" fill="#4F8A60"/>
<path d="M1295.44 580.149C1303.68 579.319 1316.12 571.231 1299.92 545.519C1290.66 554.252 1276.8 573.404 1295.44 580.149Z" fill="#4F8A60"/>
<path d="M1213.42 800.751C1221.66 799.921 1234.09 791.833 1217.9 766.121C1208.64 774.854 1194.78 794.006 1213.42 800.751Z" fill="#4F8A60"/>
<path d="M1339.19 998.02C1348.01 991.49 1356.51 972.739 1319.96 949.975C1315.54 967.47 1313.18 1001.57 1339.19 998.02Z" fill="#4F8A60"/>
<path d="M1466.99 818.369C1476.41 812.743 1486.72 794.925 1452.61 768.658C1446.47 785.629 1440.76 819.33 1466.99 818.369Z" fill="#4F8A60"/>
<path d="M1492.37 887.068C1490.83 876.205 1478.39 859.802 1440.97 881.093C1454.24 893.319 1483.11 911.631 1492.37 887.068Z" fill="#4F8A60"/>
<path d="M1338.36 598.69C1348.4 594.274 1360.84 577.869 1330.24 547.58C1322.05 563.66 1312.21 596.394 1338.36 598.69Z" fill="#4F8A60"/>
<path d="M1193.06 764.75C1203.67 761.963 1218.53 747.712 1193.06 713C1182.45 727.596 1167.59 758.381 1193.06 764.75Z" fill="#4F8A60"/>
<path d="M1380.94 940.25C1390.7 936.312 1404.37 916.175 1380.94 867.125C1371.17 887.75 1357.51 931.25 1380.94 940.25Z" fill="#4F8A60"/>
<path d="M1355.27 918.569C1355.51 912.589 1349.47 901.871 1323.33 906.838C1330.37 915.495 1346.62 929.962 1355.27 918.569Z" fill="#4F8A60"/>
<path d="M1310.74 794.727C1313.64 789.492 1313.04 777.2 1287.45 769.918C1289.87 780.815 1297.91 801.034 1310.74 794.727Z" fill="#4F8A60"/>
<path d="M1311.49 777.645C1321.53 780.819 1344.88 773.981 1358.02 721.232C1337.36 730.931 1299.14 755.793 1311.49 777.645Z" fill="#4F8A60"/>
<path d="M1683.56 1280C1689.98 1219.97 1670.57 1097.74 1557.56 1026.82M1275.19 545.375C1302.59 584.525 1312.58 626.577 1315.43 664.625M1316.19 848C1304.91 807.846 1311.94 771.575 1313.44 750.125C1315 727.649 1317.91 697.645 1315.43 664.625M1316.19 848C1275.34 840.875 1193.4 813.575 1192.5 761.375M1316.19 848C1329.68 896.028 1369.36 949.612 1476 990.04M1557.56 1026.82C1538.56 1014.89 1516.92 1004.42 1492.31 995.937C1486.71 994.005 1481.27 992.039 1476 990.04M1557.56 1026.82C1561.87 1004.9 1560.94 952.287 1522.69 917.187C1474.87 873.312 1466.44 848 1464.75 815.375M1476 990.04C1455.94 1007.76 1400.17 1033.74 1337.62 995.937M1315.43 664.625C1322.83 663.687 1337.62 648.987 1337.62 597.687" stroke="#4F8A60" stroke-width="3.375"/>
<path d="M95.6252 975.162C116.309 960.596 163.121 955.4 184.901 1051.14C143.845 1048.36 68.5096 1029.29 95.6252 975.162Z" fill="#4F8A60"/>
<path d="M163.691 964.985C169.754 950.416 192.719 932.091 236.078 975.346C213.496 987.55 167.404 1002.56 163.691 964.985Z" fill="#4F8A60"/>
<path d="M86.0448 891.248C72.4557 883.226 57.4877 857.945 106.329 820.993C115.289 845.047 123.777 892.774 86.0448 891.248Z" fill="#4F8A60"/>
<path d="M337.675 881.967C341.954 866.778 362.565 845.84 410.782 883.603C389.82 898.419 345.853 918.834 337.675 881.967Z" fill="#4F8A60"/>
<path d="M369.206 687.762C361.357 674.072 360.84 644.697 421.562 636.712C417.463 662.051 401.254 707.737 369.206 687.762Z" fill="#4F8A60"/>
<path d="M271.339 919.911C256.821 913.727 238.689 890.609 282.303 847.613C294.319 870.296 308.949 916.512 271.339 919.911Z" fill="#4F8A60"/>
<path d="M342.054 776.636C333.996 763.068 333.029 733.703 393.621 724.789C389.911 750.188 374.404 796.117 342.054 776.636Z" fill="#4F8A60"/>
<path d="M6.8014 991.319C-17.3496 977.032 -43.9212 931.954 43.0009 865.94C58.8912 908.839 73.8979 993.973 6.8014 991.319Z" fill="#4F8A60"/>
<path d="M-54.1055 1027.21C-42.8162 1001.52 -1.24842 969.741 74.7081 1048.12C34.0228 1069.04 -48.6993 1094.14 -54.1055 1027.21Z" fill="#4F8A60"/>
<path d="M430.151 603.495C424.761 597.208 421.346 582.776 450.808 575.342C451.484 588.053 448.3 611.48 430.151 603.495Z" fill="#4F8A60"/>
<path d="M212.563 1020.98C219.294 1016.16 233.968 1014.01 238.817 1044.01C226.094 1043.58 203.032 1038.37 212.563 1020.98Z" fill="#4F8A60"/>
<path d="M150.783 847.577C142.908 845.016 132.478 834.473 153.76 812.786C160.956 823.286 170.435 844.945 150.783 847.577Z" fill="#4F8A60"/>
<path d="M403.815 628.092C396.129 625.009 386.429 613.79 409.117 593.578C415.593 604.537 423.599 626.783 403.815 628.092Z" fill="#4F8A60"/>
<path d="M421.429 862.79C413.743 859.707 404.043 848.488 426.731 828.276C433.207 839.235 441.213 861.481 421.429 862.79Z" fill="#4F8A60"/>
<path d="M245.87 1017.43C239.211 1008.71 236.248 988.337 277.672 976.603C277.074 994.64 269.877 1028.06 245.87 1017.43Z" fill="#4F8A60"/>
<path d="M172.923 809.379C165.434 801.361 160.471 781.381 200.531 765.608C201.719 783.615 197.862 817.579 172.923 809.379Z" fill="#4F8A60"/>
<path d="M129.478 868.34C133.974 858.331 150.476 846.024 180.522 876.859C164.378 884.923 131.568 894.509 129.478 868.34Z" fill="#4F8A60"/>
<path d="M357.441 634.001C349.016 626.972 341.617 607.761 379.415 587.148C382.825 604.869 383.204 639.049 357.441 634.001Z" fill="#4F8A60"/>
<path d="M450.975 833.848C441.553 828.228 431.232 810.415 465.33 784.129C471.477 801.096 477.211 834.794 450.975 833.848Z" fill="#4F8A60"/>
<path d="M67.9001 976.661C67.3379 966.149 79.8029 945.246 134.16 945.727C119.601 963.299 85.9671 994.085 67.9001 976.661Z" fill="#4F8A60"/>
<path d="M221.791 950.347C213.503 943.856 205.958 920.717 242.075 880.091C245.734 902.615 246.799 948.2 221.791 950.347Z" fill="#4F8A60"/>
<path d="M252.464 936.636C253.888 930.823 262.67 922.203 286.408 934.226C277.238 940.589 257.61 949.98 252.464 936.636Z" fill="#4F8A60"/>
<path d="M329.596 830.006C328.263 824.171 332.248 812.528 358.856 812.631C353.513 822.431 340.179 839.625 329.596 830.006Z" fill="#4F8A60"/>
<path d="M333.617 813.387C323.093 813.652 302.549 800.603 304.563 746.281C321.717 761.329 351.543 795.818 333.617 813.387Z" fill="#4F8A60"/>
<path d="M-163.203 1192.82C-152.719 1133.36 -100.162 1021.31 28.0845 984.522M432.926 600.302C395.737 630.314 374.472 667.943 361.179 703.708M309.584 879.677C331.558 844.226 334.869 807.43 339.381 786.407C344.109 764.378 349.642 734.745 361.179 703.708M309.584 879.677C350.813 884.164 437.107 880.664 452.452 830.762M309.584 879.677C283.302 922.078 230.32 962.554 116.648 971.814M28.0845 984.522C49.6436 978.337 73.3417 974.279 99.3385 972.954C105.259 972.653 111.028 972.271 116.648 971.814M28.0845 984.522C30.0211 962.268 45.5156 911.982 92.001 888.869C150.108 859.979 165.236 838 175.907 807.124M116.648 971.814C131.009 994.399 177.376 1034.83 247.957 1015.86M361.179 703.708C354.332 700.755 344.197 682.529 358.427 633.242" stroke="#4F8A60" stroke-width="3.375"/>
<path d="M38.1 504.445C47.7274 491.942 74.6534 480.187 105.338 533.19C80.3668 539.134 31.959 541.706 38.1 504.445Z" fill="#4F8A60"/>
<path d="M139.688 335.953C137.502 320.325 147.962 292.87 207.29 308.073C194.049 330.064 161.991 366.426 139.688 335.953Z" fill="#4F8A60"/>
<path d="M-37.5953 514.955C-48.7658 503.809 -56.9845 475.602 -0.494862 451.941C2.20927 477.467 -1.42502 525.807 -37.5953 514.955Z" fill="#4F8A60"/>
<path d="M81.3908 408.321C78.9654 392.729 89.0032 365.116 148.557 379.408C135.655 401.599 104.158 438.449 81.3908 408.321Z" fill="#4F8A60"/>
<path d="M227.631 280.445C224.97 272.603 227.176 257.937 257.287 262.009C253.18 274.059 241.5 294.615 227.631 280.445Z" fill="#4F8A60"/>
<path d="M194.029 293.464C188.044 287.74 183.22 273.716 211.803 263.408C213.732 275.99 212.878 299.617 194.029 293.464Z" fill="#4F8A60"/>
<path d="M122.971 517.839C116.986 512.115 112.162 498.091 140.745 487.783C142.674 500.365 141.819 523.992 122.971 517.839Z" fill="#4F8A60"/>
<path d="M148.79 281.677C143.59 272.017 143.877 251.432 186.633 246.378C183.198 264.095 170.82 295.957 148.79 281.677Z" fill="#4F8A60"/>
<path d="M161.17 501.983C154.518 493.258 151.574 472.883 193.008 461.187C192.394 479.222 185.166 512.631 161.17 501.983Z" fill="#4F8A60"/>
<path d="M49.953 453.213C50.8883 447.302 58.9229 437.98 83.579 447.985C74.9701 455.09 56.1924 466.082 49.953 453.213Z" fill="#4F8A60"/>
<path d="M59.8739 439.287C50.0084 435.614 35.8021 415.853 57.9016 366.188C68.2173 386.543 83.0538 429.658 59.8739 439.287Z" fill="#4F8A60"/>
<path d="M-542.514 606.4C-510.641 555.124 -420.137 470.711 -287.414 484.326M231.395 278.515C185.705 292.517 151.956 319.521 126.299 347.762M12.8827 491.858C46.4779 467.141 63.2538 434.225 75.2711 416.394C87.863 397.711 104.034 372.271 126.299 347.762M12.8827 491.858C49.4746 511.377 130.865 540.266 163.69 499.669M12.8827 491.858C-27.3 521.421 -91.5446 539.255 -200.489 505.514M-287.414 484.326C-265.102 486.615 -241.598 491.674 -216.978 500.127C-211.37 502.052 -205.875 503.846 -200.489 505.514M-287.414 484.326C-277.329 464.394 -244.221 423.496 -192.473 419.358C-127.786 414.185 -105.562 399.422 -84.1591 374.74M-200.489 505.514C-195.572 531.824 -167.597 586.613 -95.0303 595.297M126.299 347.762C121.045 342.472 118.427 321.783 149.989 281.341" stroke="#4F8A60" stroke-width="3.375"/>
<path d="M-21.5171 370.641C-14.7849 356.369 9.00591 339.129 50.3117 384.348C27.1878 395.493 -19.5515 408.353 -21.5171 370.641Z" fill="#4F8A60"/>
<path d="M38.2499 344C27.638 341.213 12.7814 326.962 38.2499 292.25C48.8618 306.846 63.7185 337.631 38.2499 344Z" fill="#4F8A60"/>
<path d="M65.1401 297.968C56.6017 291.078 48.8886 271.991 86.3439 250.762C90.0436 268.424 90.9825 302.594 65.1401 297.968Z" fill="#4F8A60"/>
<path d="M52.6965 332.741C53.7515 326.879 63.3744 316.955 93.4264 324.155C83.0767 331.976 60.4411 344.643 52.6965 332.741Z" fill="#4F8A60"/>
<path d="M-299.25 802.437C-253.5 788 -157.838 739.887 -141.188 662.937C-120.375 566.75 -192.938 502.062 -141.188 426.687C-89.4376 351.312 64.1249 385.625 66.3749 294.5" stroke="#4F8A60" stroke-width="3.375"/>
<path d="M1280.84 544.941C1290.58 534.489 1297.09 508.695 1245.2 489.133C1243.59 512.321 1248.46 555.945 1280.84 544.941Z" fill="#4F8A60"/>
<path d="M1325.27 563.878C1318.11 551.514 1295.33 537.773 1261.51 581.723C1283.22 590.015 1326.37 598.055 1325.27 563.878Z" fill="#4F8A60"/>
<path d="M1188.34 567.361C1176.24 559.75 1149.69 558.187 1140.2 612.827C1163.28 610.063 1205.21 597.1 1188.34 567.361Z" fill="#4F8A60"/>
<path d="M1478 761.449C1499.96 748.664 1524.3 708.015 1446.01 647.693C1431.35 686.438 1417.23 763.431 1478 761.449Z" fill="#4F8A60"/>
<path d="M1129.74 576.156C1136.48 568.857 1140.87 550.741 1104.52 536.661C1103.53 552.972 1107.2 583.706 1129.74 576.156Z" fill="#4F8A60"/>
<path d="M1086.79 554.13C1089.94 544.71 1086.53 526.385 1047.6 528.436C1053.38 543.719 1069.32 570.254 1086.79 554.13Z" fill="#4F8A60"/>
<path d="M1205.54 557.722C1206.83 552.483 1202.51 540.733 1174.99 535.645C1180.68 545.922 1194.76 564.724 1205.54 557.722Z" fill="#4F8A60"/>
<path d="M1113.23 574.603C1109.57 570.644 1097.39 567.76 1077.96 587.9C1089.67 588.825 1113.12 587.461 1113.23 574.603Z" fill="#4F8A60"/>
<path d="M1418.02 725.797C1422.75 723.208 1428.51 712.095 1413.7 688.354C1409.95 699.488 1405.57 722.564 1418.02 725.797Z" fill="#4F8A60"/>
<path d="M1249.16 547.321C1240.39 543.584 1218.74 547.708 1202.3 594.103C1221.76 587.165 1258.38 568.094 1249.16 547.321Z" fill="#4F8A60"/>
<path d="M1610.73 761.551C1568.78 772.829 1472.32 782.729 1422.11 732.117C1359.35 668.851 1383.21 584.12 1306.98 551.815C1230.75 519.51 1130.28 620.533 1084.15 552.084" stroke="#4F8A60" stroke-width="3.05608"/>
<path d="M330.05 541.108C330 525.328 344.081 499.541 400.804 522.637C384.708 542.633 348.022 574.32 330.05 541.108Z" fill="#4F8A60"/>
<path d="M307.128 345.7C295.826 334.687 287.275 306.579 343.481 282.251C346.486 307.744 343.424 356.123 307.128 345.7Z" fill="#4F8A60"/>
<path d="M276.659 595.785C261.002 593.819 237.226 576.558 267.381 523.251C285.156 541.771 311.896 582.205 276.659 595.785Z" fill="#4F8A60"/>
<path d="M305.382 438.612C293.913 427.774 284.932 399.8 340.758 374.614C344.154 400.057 341.834 448.478 305.382 438.612Z" fill="#4F8A60"/>
<path d="M342.634 247.953C335.726 243.385 328.485 230.441 354.78 215.215C358.915 227.254 362.276 250.656 342.634 247.953Z" fill="#4F8A60"/>
<path d="M247.846 709.1C252.997 702.615 266.519 696.525 279.406 724.043C267.053 727.117 243.447 728.434 247.846 709.1Z" fill="#4F8A60"/>
<path d="M140.891 559.277C132.615 558.973 119.694 551.693 134.215 525.002C144.014 533.127 159.068 551.357 140.891 559.277Z" fill="#4F8A60"/>
<path d="M324.05 278.828C315.813 277.97 303.409 269.84 319.686 244.183C328.919 252.947 342.717 272.145 324.05 278.828Z" fill="#4F8A60"/>
<path d="M405.337 499.703C397.1 498.845 384.696 490.716 400.973 465.058C410.206 473.822 424.004 493.02 405.337 499.703Z" fill="#4F8A60"/>
<path d="M278.903 696.549C270.108 689.99 261.673 671.21 298.293 648.569C302.663 666.078 304.903 700.187 278.903 696.549Z" fill="#4F8A60"/>
<path d="M151.709 516.472C142.309 510.814 132.058 492.961 166.259 466.809C172.339 483.8 177.941 517.52 151.709 516.472Z" fill="#4F8A60"/>
<path d="M281.073 297.224C271.044 292.775 258.661 276.328 289.36 246.142C297.497 262.249 307.233 295.016 281.073 297.224Z" fill="#4F8A60"/>
<path d="M425.816 463.77C415.213 460.948 400.405 446.647 425.989 412.02C436.552 426.652 451.306 457.486 425.816 463.77Z" fill="#4F8A60"/>
<path d="M237.354 638.64C227.604 634.67 214.004 614.486 237.599 565.515C247.293 586.173 260.815 629.718 237.354 638.64Z" fill="#4F8A60"/>
<path d="M263.092 617.045C262.868 611.064 268.951 600.366 295.075 605.42C288.001 614.054 271.7 628.467 263.092 617.045Z" fill="#4F8A60"/>
<path d="M308.034 493.353C305.152 488.108 305.792 475.818 331.41 468.622C328.957 479.511 320.849 499.703 308.034 493.353Z" fill="#4F8A60"/>
<path d="M307.344 476.268C297.297 479.409 273.963 472.492 261.006 419.7C281.628 429.468 319.767 454.458 307.344 476.268Z" fill="#4F8A60"/>
<path d="M-66.4082 977.374C-72.6277 917.32 -52.8049 795.158 60.4402 724.614M344.426 244.121C316.89 283.179 306.758 325.197 303.779 363.236M302.408 546.607C313.82 506.491 306.915 470.197 305.491 448.742C303.998 426.261 301.195 396.247 303.779 363.236M302.408 546.607C343.287 539.619 425.315 512.594 426.39 460.397M302.408 546.607C288.758 594.59 248.904 648.041 142.125 688.111M60.4402 724.614C79.4774 712.755 101.155 702.355 125.792 693.954C131.403 692.041 136.846 690.092 142.125 688.111M60.4402 724.614C56.2011 702.682 57.3149 650.074 95.6822 615.103C143.641 571.388 152.164 546.104 153.96 513.485M142.125 688.111C162.128 705.894 217.804 732.062 280.48 694.472M303.779 363.236C296.386 362.274 281.642 347.524 281.814 296.224" stroke="#4F8A60" stroke-width="3.375"/>
<path d="M1404.29 520.067C1401.81 504.483 1383.78 481.286 1331.49 513.174C1350.59 530.331 1391.88 555.73 1404.29 520.067Z" fill="#4F8A60"/>
<path d="M1395.61 323.51C1405 310.828 1408.93 281.713 1349.56 266.708C1350.67 292.352 1361.45 339.616 1395.61 323.51Z" fill="#4F8A60"/>
<path d="M1465.76 565.481C1480.9 561.03 1501.6 540.183 1463.29 492.397C1448.72 513.526 1428.8 557.722 1465.76 565.481Z" fill="#4F8A60"/>
<path d="M1412.22 414.942C1421.8 402.406 1426.19 373.354 1367.04 357.44C1367.77 383.099 1377.82 430.522 1412.22 414.942Z" fill="#4F8A60"/>
<path d="M1344.89 232.717C1350.98 227.101 1356.05 213.165 1327.66 202.349C1325.5 214.895 1325.94 238.533 1344.89 232.717Z" fill="#4F8A60"/>
<path d="M1368.18 260.214C1376.18 258.048 1387.12 248.035 1366.94 225.318C1359.23 235.448 1348.69 256.61 1368.18 260.214Z" fill="#4F8A60"/>
<path d="M1323.35 491.262C1331.34 489.095 1342.28 479.083 1322.1 456.365C1314.39 466.495 1303.85 487.657 1323.35 491.262Z" fill="#4F8A60"/>
<path d="M1479.69 665.302C1487.32 657.418 1492.64 637.53 1452.86 621.05C1451.35 639.033 1454.61 673.059 1479.69 665.302Z" fill="#4F8A60"/>
<path d="M1413.55 271.486C1422.74 265.487 1432.33 247.269 1397.19 222.392C1391.74 239.595 1387.38 273.498 1413.55 271.486Z" fill="#4F8A60"/>
<path d="M1297.37 459.075C1307.39 454.59 1319.71 438.101 1288.91 408.022C1280.83 424.157 1271.21 456.957 1297.37 459.075Z" fill="#4F8A60"/>
<path d="M1418.37 469.401C1420.38 463.761 1417.78 451.733 1391.34 448.735C1395.5 459.091 1406.74 477.722 1418.37 469.401Z" fill="#4F8A60"/>
<path d="M1416.31 452.426C1426.74 453.916 1448.66 443.349 1452.99 389.163C1434.2 402.11 1400.56 432.889 1416.31 452.426Z" fill="#4F8A60"/>
<path d="M1865.54 887.16C1862.06 826.885 1822.91 709.479 1699.83 657.995M1342.51 229.222C1375.95 263.362 1392.68 303.213 1401.72 340.283M1432.46 521.065C1414.77 483.296 1415.77 446.365 1413.73 424.958C1411.61 402.529 1409.56 372.453 1401.72 340.283M1432.46 521.065C1390.99 520.718 1305.69 507.187 1296.27 455.837M1432.46 521.065C1453.62 566.239 1501.53 612.613 1613.35 635.054M1699.83 657.995C1679.14 649.34 1656.07 642.548 1630.41 638.204C1624.56 637.214 1618.88 636.163 1613.35 635.054M1699.83 657.995C1700.5 635.666 1690.97 583.917 1647.49 555.546C1593.15 520.082 1580.68 496.491 1573.68 464.581M1613.35 635.054C1596.45 655.812 1545.69 690.565 1477.8 663.504M1401.72 340.283C1408.86 338.148 1421.05 321.227 1412.66 270.618" stroke="#4F8A60" stroke-width="3.375"/>
<path d="M172.907 971.961C147.485 957.145 119.311 910.161 209.996 840.749C226.955 885.508 243.28 974.413 172.907 971.961Z" fill="#4F8A60"/>
<path d="M96.5535 1035.71C103.326 1007.07 140.073 966.443 232.879 1032.99C194.996 1062.25 114.695 1103.75 96.5535 1035.71Z" fill="#4F8A60"/>
<path d="M368.604 961.183C387.923 938.988 439.356 920.121 490.538 1022.21C443.393 1030.48 353.004 1029.85 368.604 961.183Z" fill="#4F8A60"/>
<path d="M45.3622 1204.14C3.0675 1208.37 -69.7447 1177.26 -22.6361 1019.05C35.1765 1057.06 129.714 1147.29 45.3622 1204.14Z" fill="#4F8A60"/>
<path d="M-87.1293 1516.02C-138.021 1503.87 -210.178 1438.19 -91.6742 1272.73C-39.7449 1340.4 33.865 1483.81 -87.1293 1516.02Z" fill="#4F8A60"/>
<path d="M489.359 943.693C471.731 933.311 452.301 900.204 515.606 850.835C527.244 882.408 538.289 945.182 489.359 943.693Z" fill="#4F8A60"/>
<path d="M560.957 874.734C549.131 858.041 544.972 819.88 622.947 800.784C620.627 834.353 604.981 896.141 560.957 874.734Z" fill="#4F8A60"/>
<path d="M328.948 952.406C323.308 942.839 324.833 917.109 376.058 890.721C370.948 914.365 354.372 959.802 328.948 952.406Z" fill="#4F8A60"/>
<path d="M520.992 930.817C525.858 920.834 548.158 907.908 598.43 936.069C575.892 944.854 528.852 956.102 520.992 930.817Z" fill="#4F8A60"/>
<path d="M-4.91557 1291.25C-11.2615 1272.68 0.489426 1228.84 98.2609 1202.11C81.0615 1241.03 36.3472 1313.34 -4.91557 1291.25Z" fill="#4F8A60"/>
<path d="M236.782 957.823C251.85 945.243 296.984 940.507 356.977 1022.21C314.48 1020.09 230.946 1004.26 236.782 957.823Z" fill="#4F8A60"/>
<path d="M564.929 869.137C514.674 1031.51 256.532 892.052 125.446 1001.05C42.3358 1070.16 51.0666 1156.9 46.6403 1252.44" stroke="#4F8A60" stroke-width="6.2932"/>
<path d="M1325.76 1028.58C1354.23 1021.24 1394.08 983.73 1325.76 892.362C1297.3 930.781 1257.45 1011.81 1325.76 1028.58Z" fill="#4F8A60"/>
<path d="M1381.84 1110.61C1383.11 1081.24 1358.83 1032.19 1251.53 1070.95C1280 1109.37 1345.92 1171.08 1381.84 1110.61Z" fill="#4F8A60"/>
<path d="M1140.57 965.04C1128.03 938.454 1083.71 906.341 1006.77 990.574C1049.84 1011.33 1136.9 1035.29 1140.57 965.04Z" fill="#4F8A60"/>
<path d="M1443.97 1313.77C1477.58 1287.81 1509.1 1215.27 1366.32 1132.73C1350.44 1199.99 1343.72 1330.38 1443.97 1313.77Z" fill="#4F8A60"/>
<path d="M1029.23 915.413C1049 910.223 1076.68 883.676 1029.23 819.015C1009.47 846.205 981.793 903.549 1029.23 915.413Z" fill="#4F8A60"/>
<path d="M979.144 829.668C995.049 816.834 1009.42 781.279 939.646 741.733C932.754 774.635 931.005 838.284 979.144 829.668Z" fill="#4F8A60"/>
<path d="M1181.07 967.377C1189.09 959.713 1194.62 934.564 1152.55 895.278C1151.03 919.395 1154.62 967.58 1181.07 967.377Z" fill="#4F8A60"/>
<path d="M1002.32 894.441C1000.36 883.522 982.433 865.036 926.453 878.448C945.732 893.017 987.897 916.612 1002.32 894.441Z" fill="#4F8A60"/>
<path d="M1268.2 997.629C1257.14 981.441 1215.03 964.624 1135.16 1026.86C1176.59 1036.38 1261.19 1043.86 1268.2 997.629Z" fill="#4F8A60"/>
<path d="M1391.62 1278.31C1339.87 1168.63 1459.88 1209.85 1363.48 1069.44C1267.09 929.035 981.036 992.951 976.845 823.207" stroke="#4F8A60" stroke-width="6.28683"/>
</svg>
