<svg width="1180" height="418" viewBox="0 0 1180 418" fill="none" xmlns="http://www.w3.org/2000/svg">
<path fill-rule="evenodd" clip-rule="evenodd" d="M60.061 70.9732C60.061 71.8964 59.9189 72.7863 59.6554 73.6224C59.6478 73.6992 59.6299 73.7767 59.6008 73.8536L54.804 86.5162L67.4163 81.6722C67.4841 81.6461 67.5525 81.6289 67.6205 81.6197C68.4658 81.3497 69.3667 81.204 70.3016 81.204C75.1633 81.204 79.1046 85.1452 79.1046 90.007C79.1046 94.8688 75.1633 98.81 70.3016 98.81C69.3787 98.81 68.4891 98.668 67.6532 98.4047C67.5758 98.3971 67.4976 98.3792 67.4201 98.3498L54.7455 93.5485L59.5921 106.168C59.6182 106.235 59.6354 106.304 59.6446 106.372C59.9144 107.217 60.06 108.117 60.06 109.052C60.06 113.914 56.1188 117.855 51.257 117.855C46.3952 117.855 42.454 113.914 42.454 109.052C42.454 108.128 42.5962 107.238 42.86 106.401C42.8677 106.325 42.8855 106.248 42.9145 106.171L47.7153 93.4982L35.1043 98.3417C35.0376 98.3674 34.9703 98.3845 34.9035 98.3938C34.0578 98.664 33.1566 98.8098 32.2213 98.8098C27.3596 98.8098 23.4183 94.8686 23.4183 90.0068C23.4183 85.145 27.3596 81.2038 32.2213 81.2038C33.1448 81.2038 34.035 81.346 34.8713 81.6097C34.9474 81.6174 35.0243 81.6352 35.1004 81.6641L47.7639 86.4612L42.9231 73.8574C42.8972 73.79 42.88 73.7221 42.8708 73.6546C42.6008 72.8091 42.455 71.9082 42.455 70.9732C42.455 66.1114 46.3962 62.1702 51.258 62.1702C56.1198 62.1702 60.061 66.1114 60.061 70.9732Z" fill="#E9B7AA"/>
<path fill-rule="evenodd" clip-rule="evenodd" d="M44.1305 70.4415C44.7832 71.0942 45.312 71.824 45.7169 72.6015C45.7658 72.6612 45.808 72.7287 45.8417 72.8036L51.406 85.1543L56.9021 72.8038C56.9315 72.7378 56.9674 72.6776 57.0086 72.6233C57.4154 71.8346 57.9494 71.0944 58.6105 70.4333C62.0483 66.9955 67.6221 66.9955 71.0599 70.4333C74.4977 73.8711 74.4977 79.4449 71.0599 82.8827C70.4071 83.5355 69.6773 84.0643 68.8997 84.4692C68.8401 84.518 68.7726 84.5602 68.6977 84.5939L56.3383 90.1621L68.6892 95.6584C68.7555 95.6879 68.8161 95.724 68.8706 95.7656C69.659 96.1723 70.3988 96.7062 71.0597 97.367C74.4975 100.805 74.4975 106.379 71.0597 109.816C67.6219 113.254 62.0481 113.254 58.6103 109.816C57.9573 109.163 57.4284 108.433 57.0235 107.656C56.9748 107.596 56.9327 107.529 56.899 107.454L51.3322 95.0977L45.8408 107.438C45.8116 107.503 45.7758 107.563 45.7347 107.618C45.3279 108.407 44.7938 109.147 44.1325 109.808C40.6947 113.246 35.1209 113.246 31.6831 109.808C28.2453 106.37 28.2453 100.797 31.6831 97.3588C32.3358 96.7061 33.0654 96.1774 33.8428 95.7725C33.9026 95.7236 33.9702 95.6813 34.0452 95.6474L46.3854 90.0879L34.0516 84.5992C33.9856 84.5699 33.9255 84.534 33.8712 84.4928C33.0824 84.086 32.3423 83.552 31.6811 82.8908C28.2433 79.453 28.2433 73.8793 31.6811 70.4415C35.1189 67.0037 40.6927 67.0037 44.1305 70.4415Z" fill="#C95853"/>
<path fill-rule="evenodd" clip-rule="evenodd" d="M198.434 300.473C198.434 301.444 198.277 302.378 197.987 303.251C197.977 303.322 197.959 303.394 197.932 303.465L193.177 316.017L205.681 311.215C205.739 311.193 205.798 311.176 205.856 311.165C206.741 310.866 207.689 310.704 208.675 310.704C213.537 310.704 217.478 314.645 217.478 319.507C217.478 324.369 213.537 328.31 208.675 328.31C207.704 328.31 206.77 328.153 205.897 327.863C205.826 327.853 205.756 327.835 205.685 327.808L193.118 323.047L197.922 335.557C197.945 335.616 197.962 335.676 197.973 335.735C198.271 336.62 198.433 337.567 198.433 338.552C198.433 343.414 194.492 347.355 189.63 347.355C184.768 347.355 180.827 343.414 180.827 338.552C180.827 337.581 180.984 336.647 181.274 335.773C181.284 335.703 181.302 335.632 181.329 335.561L186.088 322.999L173.591 327.799C173.533 327.821 173.475 327.838 173.417 327.849C172.531 328.148 171.583 328.31 170.596 328.31C165.735 328.31 161.793 324.369 161.793 319.507C161.793 314.645 165.735 310.704 170.596 310.704C171.567 310.704 172.501 310.861 173.374 311.151C173.445 311.161 173.516 311.179 173.587 311.206L186.137 315.96L181.339 303.469C181.316 303.41 181.3 303.351 181.289 303.291C180.99 302.407 180.828 301.459 180.828 300.473C180.828 295.612 184.77 291.67 189.631 291.67C194.493 291.67 198.434 295.612 198.434 300.473ZM189.593 319.554C189.621 319.554 189.649 319.554 189.678 319.555C189.678 319.527 189.678 319.5 189.679 319.472C189.65 319.472 189.622 319.472 189.594 319.471C189.594 319.499 189.594 319.526 189.593 319.554Z" fill="#F8F8F8"/>
<path fill-rule="evenodd" clip-rule="evenodd" d="M182.508 299.941C183.194 300.628 183.744 301.4 184.156 302.223C184.199 302.28 184.236 302.343 184.267 302.412L189.781 314.651L195.227 302.413C195.253 302.356 195.282 302.303 195.316 302.254C195.73 301.416 196.286 300.631 196.984 299.934C200.422 296.496 205.995 296.496 209.433 299.934C212.871 303.371 212.871 308.945 209.433 312.383C208.747 313.069 207.976 313.618 207.154 314.03C207.096 314.074 207.033 314.112 206.964 314.143L194.713 319.662L206.955 325.11C207.013 325.136 207.067 325.167 207.117 325.201C207.953 325.615 208.737 326.171 209.434 326.867C212.872 330.305 212.872 335.879 209.434 339.316C205.996 342.754 200.422 342.754 196.984 339.316C196.297 338.629 195.748 337.857 195.335 337.034C195.293 336.977 195.256 336.915 195.225 336.846L189.707 324.599L184.265 336.829C184.239 336.887 184.209 336.94 184.176 336.989C183.761 337.826 183.205 338.611 182.508 339.309C179.07 342.746 173.497 342.746 170.059 339.309C166.621 335.871 166.621 330.297 170.059 326.859C170.745 326.173 171.516 325.624 172.339 325.212C172.396 325.168 172.46 325.13 172.529 325.099L184.762 319.588L172.537 314.148C172.479 314.122 172.425 314.091 172.375 314.057C171.539 313.643 170.755 313.087 170.058 312.391C166.62 308.953 166.62 303.379 170.058 299.941C173.496 296.504 179.07 296.504 182.508 299.941ZM189.75 319.684C189.769 319.664 189.789 319.645 189.809 319.626C189.789 319.607 189.77 319.587 189.75 319.567C189.731 319.586 189.712 319.605 189.692 319.624C189.711 319.644 189.731 319.663 189.75 319.684Z" fill="#E9B7AA"/>
<path fill-rule="evenodd" clip-rule="evenodd" d="M1070.31 99.0987C1070.31 100.069 1070.15 101.003 1069.86 101.876C1069.85 101.947 1069.83 102.019 1069.81 102.09L1065.05 114.643L1077.56 109.84C1077.61 109.818 1077.67 109.802 1077.73 109.791C1078.62 109.492 1079.56 109.329 1080.55 109.329C1085.41 109.329 1089.35 113.271 1089.35 118.133C1089.35 122.994 1085.41 126.936 1080.55 126.936C1079.58 126.936 1078.65 126.778 1077.77 126.488C1077.7 126.478 1077.63 126.46 1077.56 126.433L1064.99 121.673L1069.8 134.182C1069.82 134.241 1069.84 134.301 1069.85 134.36C1070.15 135.245 1070.31 136.192 1070.31 137.177C1070.31 142.039 1066.37 145.98 1061.5 145.98C1056.64 145.98 1052.7 142.039 1052.7 137.177C1052.7 136.206 1052.86 135.272 1053.15 134.398C1053.16 134.328 1053.18 134.257 1053.2 134.186L1057.96 121.625L1045.47 126.425C1045.41 126.447 1045.35 126.463 1045.29 126.474C1044.41 126.773 1043.46 126.935 1042.47 126.935C1037.61 126.935 1033.67 122.994 1033.67 118.132C1033.67 113.27 1037.61 109.329 1042.47 109.329C1043.44 109.329 1044.38 109.486 1045.25 109.777C1045.32 109.787 1045.39 109.805 1045.46 109.831L1058.01 114.585L1053.21 102.094C1053.19 102.035 1053.17 101.976 1053.16 101.917C1052.87 101.032 1052.7 100.084 1052.7 99.0987C1052.7 94.2369 1056.64 90.2957 1061.51 90.2957C1066.37 90.2957 1070.31 94.2369 1070.31 99.0987ZM1061.47 118.178C1061.5 118.178 1061.52 118.179 1061.55 118.18C1061.55 118.152 1061.55 118.125 1061.55 118.097C1061.53 118.097 1061.5 118.097 1061.47 118.097C1061.47 118.124 1061.47 118.151 1061.47 118.178Z" fill="#F8F8F8"/>
<path fill-rule="evenodd" clip-rule="evenodd" d="M1054.38 98.5663C1055.07 99.2531 1055.62 100.025 1056.03 100.848C1056.07 100.905 1056.11 100.968 1056.14 101.036L1061.66 113.275L1067.1 101.037C1067.13 100.98 1067.16 100.927 1067.19 100.878C1067.61 100.04 1068.16 99.2554 1068.86 98.5582C1072.3 95.1204 1077.87 95.1204 1081.31 98.5582C1084.75 101.996 1084.75 107.57 1081.31 111.008C1080.62 111.694 1079.85 112.243 1079.03 112.655C1078.97 112.699 1078.91 112.736 1078.84 112.767L1066.59 118.287L1078.83 123.735C1078.89 123.761 1078.94 123.792 1078.99 123.826C1079.83 124.24 1080.61 124.796 1081.31 125.492C1084.75 128.93 1084.75 134.504 1081.31 137.941C1077.87 141.379 1072.3 141.379 1068.86 137.941C1068.17 137.254 1067.62 136.482 1067.21 135.659C1067.17 135.602 1067.13 135.539 1067.1 135.471L1061.58 123.224L1056.14 135.454C1056.11 135.511 1056.08 135.565 1056.05 135.614C1055.64 136.451 1055.08 137.236 1054.38 137.933C1050.95 141.371 1045.37 141.371 1041.93 137.933C1038.5 134.495 1038.5 128.922 1041.93 125.484C1042.62 124.798 1043.39 124.248 1044.21 123.836C1044.27 123.793 1044.33 123.755 1044.4 123.724L1056.64 118.213L1044.41 112.772C1044.35 112.747 1044.3 112.716 1044.25 112.682C1043.41 112.268 1042.63 111.712 1041.93 111.016C1038.5 107.578 1038.5 102.004 1041.93 98.5663C1045.37 95.1285 1050.94 95.1285 1054.38 98.5663ZM1061.62 118.308C1061.64 118.289 1061.66 118.27 1061.68 118.251C1061.66 118.231 1061.64 118.211 1061.63 118.191C1061.61 118.211 1061.59 118.23 1061.57 118.249C1061.59 118.268 1061.61 118.288 1061.62 118.308Z" fill="#E9B7AA"/>
<path fill-rule="evenodd" clip-rule="evenodd" d="M954.438 340.974C954.438 341.945 954.281 342.879 953.991 343.752C953.981 343.823 953.963 343.894 953.936 343.965L949.181 356.518L961.685 351.715C961.744 351.693 961.803 351.676 961.862 351.665C962.747 351.367 963.695 351.205 964.68 351.205C969.542 351.205 973.483 355.146 973.483 360.008C973.483 364.87 969.542 368.811 964.68 368.811C963.71 368.811 962.776 368.654 961.903 368.364C961.832 368.354 961.76 368.336 961.689 368.309L949.124 363.549L953.928 376.057C953.95 376.116 953.967 376.176 953.978 376.235C954.277 377.119 954.438 378.067 954.438 379.053C954.438 383.914 950.497 387.856 945.635 387.856C940.774 387.856 936.832 383.914 936.832 379.053C936.832 378.082 936.989 377.148 937.28 376.275C937.29 376.204 937.308 376.132 937.335 376.061L942.093 363.5L929.596 368.3C929.538 368.323 929.478 368.339 929.42 368.35C928.535 368.649 927.587 368.811 926.601 368.811C921.739 368.811 917.798 364.87 917.798 360.008C917.798 355.146 921.739 351.205 926.601 351.205C927.571 351.205 928.505 351.362 929.378 351.652C929.449 351.662 929.521 351.68 929.592 351.707L942.141 356.46L937.343 343.969C937.32 343.91 937.304 343.851 937.293 343.792C936.994 342.907 936.832 341.96 936.832 340.974C936.832 336.112 940.774 332.171 945.635 332.171C950.497 332.171 954.438 336.112 954.438 340.974ZM945.599 360.053C945.626 360.053 945.654 360.054 945.681 360.054C945.681 360.027 945.681 360 945.682 359.973C945.666 359.973 945.651 359.973 945.635 359.973C945.623 359.973 945.612 359.973 945.6 359.972C945.6 359.999 945.6 360.026 945.599 360.053Z" fill="#C95853" fill-opacity="0.5"/>
<path fill-rule="evenodd" clip-rule="evenodd" d="M938.507 340.442C939.193 341.128 939.742 341.898 940.154 342.72C940.198 342.778 940.236 342.842 940.268 342.912L945.782 355.151L951.228 342.913C951.254 342.855 951.285 342.8 951.319 342.75C951.733 341.914 952.289 341.13 952.985 340.434C956.423 336.996 961.997 336.996 965.434 340.434C968.872 343.872 968.872 349.446 965.434 352.883C964.748 353.57 963.976 354.12 963.153 354.532C963.096 354.575 963.033 354.612 962.964 354.643L950.712 360.163L962.954 365.611C963.012 365.636 963.065 365.666 963.115 365.701C963.952 366.115 964.736 366.67 965.433 367.367C968.871 370.805 968.871 376.379 965.433 379.817C961.995 383.255 956.422 383.255 952.984 379.817C952.297 379.13 951.748 378.359 951.336 377.537C951.293 377.479 951.255 377.416 951.224 377.347L945.707 365.102L940.266 377.33C940.24 377.389 940.209 377.443 940.174 377.494C939.76 378.329 939.205 379.113 938.509 379.809C935.071 383.247 929.497 383.247 926.059 379.809C922.621 376.371 922.621 370.797 926.059 367.36C926.746 366.673 927.518 366.123 928.342 365.711C928.398 365.668 928.461 365.631 928.53 365.6L940.763 360.088L928.537 354.648C928.481 354.622 928.428 354.593 928.379 354.559C927.541 354.145 926.755 353.589 926.058 352.891C922.62 349.453 922.62 343.88 926.058 340.442C929.496 337.004 935.07 337.004 938.507 340.442ZM945.749 360.182C945.769 360.163 945.788 360.144 945.807 360.126C945.788 360.107 945.769 360.087 945.75 360.068C945.732 360.087 945.712 360.106 945.693 360.124C945.712 360.143 945.731 360.163 945.749 360.182Z" fill="#C95853"/>
<path fill-rule="evenodd" clip-rule="evenodd" d="M565.184 82.2237C565.184 83.1943 565.027 84.1283 564.737 85.0015C564.727 85.0725 564.709 85.144 564.682 85.2148L559.927 97.7677L572.431 92.9652C572.489 92.943 572.548 92.9266 572.606 92.9157C573.491 92.6166 574.439 92.4544 575.425 92.4544C580.287 92.4544 584.228 96.3957 584.228 101.258C584.228 106.119 580.287 110.061 575.425 110.061C574.455 110.061 573.52 109.903 572.647 109.613C572.577 109.603 572.506 109.585 572.435 109.558L559.868 104.798L564.672 117.307C564.695 117.366 564.712 117.426 564.723 117.485C565.021 118.37 565.183 119.317 565.183 120.302C565.183 125.164 561.242 129.105 556.38 129.105C551.518 129.105 547.577 125.164 547.577 120.302C547.577 119.331 547.734 118.397 548.024 117.524C548.034 117.453 548.052 117.382 548.079 117.311L552.838 104.75L540.341 109.55C540.283 109.572 540.224 109.588 540.166 109.599C539.281 109.898 538.333 110.06 537.346 110.06C532.485 110.06 528.543 106.119 528.543 101.257C528.543 96.3955 532.485 92.4542 537.346 92.4542C538.317 92.4542 539.252 92.6114 540.125 92.9016C540.195 92.9117 540.266 92.9297 540.337 92.9563L552.887 97.7105L548.089 85.219C548.066 85.1602 548.05 85.1009 548.039 85.0418C547.74 84.157 547.578 83.2093 547.578 82.2237C547.578 77.3619 551.52 73.4207 556.381 73.4207C561.243 73.4207 565.184 77.3619 565.184 82.2237ZM556.343 101.303C556.371 101.303 556.4 101.304 556.428 101.305C556.428 101.277 556.428 101.25 556.429 101.222C556.4 101.222 556.372 101.222 556.344 101.222C556.344 101.249 556.344 101.276 556.343 101.303Z" fill="#E9B7AA"/>
<path fill-rule="evenodd" clip-rule="evenodd" d="M549.258 81.6913C549.944 82.3779 550.494 83.1497 550.906 83.9726C550.949 84.0296 550.986 84.0926 551.017 84.1613L556.531 96.4004L561.977 84.1623C562.003 84.1053 562.033 84.0522 562.066 84.0031C562.481 83.1657 563.036 82.3805 563.734 81.6832C567.172 78.2454 572.745 78.2454 576.183 81.6832C579.621 85.121 579.621 90.6948 576.183 94.1327C575.497 94.8188 574.726 95.3681 573.903 95.7803C573.846 95.8235 573.783 95.8613 573.713 95.8925L561.462 101.412L573.705 106.86C573.764 106.886 573.818 106.917 573.868 106.951C574.704 107.365 575.488 107.921 576.184 108.617C579.622 112.055 579.622 117.629 576.184 121.066C572.746 124.504 567.172 124.504 563.734 121.066C563.047 120.379 562.498 119.607 562.085 118.783C562.043 118.727 562.006 118.664 561.975 118.596L556.457 106.349L551.015 118.579C550.989 118.637 550.959 118.69 550.925 118.739C550.511 119.576 549.955 120.361 549.258 121.058C545.82 124.496 540.247 124.496 536.809 121.058C533.371 117.62 533.371 112.047 536.809 108.609C537.495 107.923 538.266 107.373 539.089 106.961C539.146 106.918 539.21 106.88 539.279 106.849L551.512 101.338L539.287 95.8974C539.229 95.8718 539.176 95.8416 539.126 95.8074C538.29 95.3931 537.505 94.8375 536.808 94.1408C533.37 90.7029 533.37 85.1291 536.808 81.6913C540.246 78.2535 545.82 78.2535 549.258 81.6913ZM556.5 101.433C556.519 101.414 556.539 101.395 556.559 101.376C556.539 101.356 556.52 101.336 556.5 101.316C556.481 101.336 556.462 101.355 556.442 101.374C556.461 101.393 556.481 101.413 556.5 101.433Z" fill="#F8F8F8"/>
<path fill-rule="evenodd" clip-rule="evenodd" d="M666.437 20.3501C666.437 21.2733 666.295 22.1632 666.032 22.9993C666.024 23.0761 666.006 23.1537 665.977 23.2306L661.18 35.8927L673.793 31.0487C673.861 31.0225 673.93 31.0052 673.998 30.9961C674.843 30.7263 675.743 30.5807 676.678 30.5807C681.54 30.5807 685.481 34.5219 685.481 39.3837C685.481 44.2455 681.54 48.1867 676.678 48.1867C675.755 48.1867 674.865 48.0446 674.029 47.7811C673.951 47.7735 673.874 47.7556 673.796 47.7264L661.122 42.925L665.968 55.5441C665.994 55.6121 666.012 55.6806 666.021 55.7487C666.291 56.5937 666.436 57.4941 666.436 58.4285C666.436 63.2903 662.495 67.2315 657.633 67.2315C652.771 67.2315 648.83 63.2903 648.83 58.4285C648.83 57.5049 648.972 56.6145 649.236 55.778C649.244 55.7016 649.262 55.6245 649.291 55.548L654.091 42.8752L641.481 47.7187C641.414 47.7443 641.346 47.7615 641.28 47.7708C640.434 48.041 639.533 48.1868 638.598 48.1868C633.736 48.1868 629.795 44.2455 629.795 39.3838C629.795 34.522 633.736 30.5807 638.598 30.5807C639.521 30.5807 640.411 30.7229 641.248 30.9866C641.324 30.9944 641.401 31.0122 641.477 31.0411L654.14 35.8381L649.299 23.2344C649.274 23.167 649.256 23.0991 649.247 23.0316C648.977 22.1861 648.831 21.2852 648.831 20.3501C648.831 15.4884 652.772 11.5471 657.634 11.5471C662.496 11.5471 666.437 15.4884 666.437 20.3501Z" fill="#E9B7AA"/>
<path fill-rule="evenodd" clip-rule="evenodd" d="M650.507 19.8183C651.16 20.4713 651.689 21.2013 652.094 21.9792C652.142 22.0387 652.184 22.106 652.218 22.1807L657.782 34.5315L663.279 22.1808C663.308 22.1149 663.344 22.0548 663.385 22.0005C663.792 21.2117 664.326 20.4715 664.987 19.8104C668.425 16.3726 673.998 16.3726 677.436 19.8104C680.874 23.2482 680.874 28.8219 677.436 32.2597C676.784 32.9125 676.054 33.4413 675.276 33.8462C675.217 33.895 675.149 33.9372 675.074 33.971L662.715 39.5392L675.066 45.0355C675.131 45.0647 675.191 45.1004 675.245 45.1414C676.034 45.5483 676.775 46.0825 677.436 46.7439C680.874 50.1817 680.874 55.7554 677.436 59.1932C673.999 62.631 668.425 62.631 664.987 59.1932C664.334 58.5407 663.806 57.8113 663.401 57.034C663.352 56.9741 663.309 56.9064 663.275 56.8311L657.709 44.4747L652.217 56.8147C652.188 56.8805 652.152 56.9406 652.111 56.9948C651.704 57.7837 651.17 58.524 650.509 59.1852C647.071 62.623 641.497 62.623 638.059 59.1852C634.622 55.7474 634.622 50.1736 638.059 46.7358C638.712 46.0831 639.442 45.5544 640.219 45.1495C640.279 45.1006 640.347 45.0583 640.422 45.0245L652.762 39.465L640.428 33.9763C640.362 33.9468 640.301 33.9106 640.246 33.8691C639.458 33.4623 638.718 32.9285 638.057 32.2677C634.62 28.8299 634.62 23.2561 638.057 19.8183C641.495 16.3805 647.069 16.3805 650.507 19.8183Z" fill="#C95853"/>
<path fill-rule="evenodd" clip-rule="evenodd" d="M538.008 358.441C538.694 359.128 539.244 359.9 539.656 360.723C539.699 360.78 539.736 360.843 539.767 360.912L545.281 373.151L550.727 360.913C550.753 360.856 550.783 360.803 550.816 360.754C551.231 359.916 551.787 359.131 552.484 358.434C555.922 354.996 561.496 354.996 564.933 358.434C568.371 361.871 568.371 367.445 564.933 370.883C564.247 371.569 563.476 372.118 562.654 372.531C562.596 372.574 562.533 372.612 562.464 372.643L550.213 378.162L562.455 383.61C562.513 383.636 562.567 383.666 562.616 383.701C563.453 384.115 564.237 384.67 564.934 385.367C568.372 388.805 568.372 394.379 564.934 397.816C561.496 401.254 555.922 401.254 552.484 397.816C551.798 397.13 551.248 396.358 550.836 395.534C550.793 395.478 550.756 395.415 550.725 395.347L545.207 383.1L539.765 395.33C539.739 395.387 539.709 395.441 539.675 395.49C539.261 396.327 538.705 397.112 538.008 397.809C534.57 401.246 528.997 401.246 525.559 397.809C522.121 394.371 522.121 388.797 525.559 385.359C526.245 384.673 527.017 384.123 527.839 383.711C527.897 383.668 527.96 383.63 528.029 383.599L540.262 378.088L528.037 372.648C527.979 372.622 527.926 372.592 527.876 372.557C527.039 372.143 526.255 371.588 525.558 370.891C522.121 367.453 522.121 361.879 525.558 358.441C528.996 355.004 534.57 355.004 538.008 358.441ZM545.25 378.184C545.269 378.164 545.289 378.145 545.309 378.126C545.289 378.107 545.27 378.087 545.25 378.067C545.231 378.086 545.212 378.105 545.192 378.124C545.211 378.144 545.231 378.164 545.25 378.184Z" fill="#F8F8F8"/>
<path fill-rule="evenodd" clip-rule="evenodd" d="M1133.13 121.066C1133.82 121.753 1134.37 122.525 1134.78 123.348C1134.82 123.405 1134.86 123.468 1134.89 123.536L1140.41 135.775L1145.85 123.537C1145.88 123.48 1145.91 123.427 1145.94 123.378C1146.36 122.54 1146.91 121.755 1147.61 121.058C1151.05 117.62 1156.62 117.62 1160.06 121.058C1163.5 124.496 1163.5 130.07 1160.06 133.508C1159.37 134.194 1158.6 134.743 1157.78 135.155C1157.72 135.199 1157.66 135.236 1157.59 135.267L1145.34 140.787L1157.58 146.235C1157.64 146.261 1157.69 146.292 1157.74 146.326C1158.58 146.74 1159.36 147.296 1160.06 147.992C1163.5 151.43 1163.5 157.004 1160.06 160.441C1156.62 163.879 1151.05 163.879 1147.61 160.441C1146.92 159.754 1146.37 158.982 1145.96 158.159C1145.92 158.102 1145.88 158.039 1145.85 157.971L1140.33 145.724L1134.89 157.954C1134.86 158.011 1134.83 158.065 1134.8 158.114C1134.39 158.951 1133.83 159.736 1133.13 160.433C1129.7 163.871 1124.12 163.871 1120.68 160.433C1117.25 156.995 1117.25 151.422 1120.68 147.984C1121.37 147.298 1122.14 146.748 1122.96 146.336C1123.02 146.293 1123.08 146.255 1123.15 146.224L1135.39 140.713L1123.16 135.272C1123.1 135.247 1123.05 135.216 1123 135.182C1122.16 134.768 1121.38 134.212 1120.68 133.516C1117.25 130.078 1117.25 124.504 1120.68 121.066C1124.12 117.629 1129.69 117.629 1133.13 121.066ZM1140.37 140.808C1140.39 140.789 1140.41 140.77 1140.43 140.751C1140.41 140.731 1140.39 140.711 1140.38 140.691C1140.36 140.711 1140.34 140.73 1140.32 140.749C1140.34 140.768 1140.36 140.788 1140.37 140.808Z" fill="#4F8A60"/>
<path fill-rule="evenodd" clip-rule="evenodd" d="M816.445 188.566C817.131 189.252 817.68 190.023 818.092 190.845C818.136 190.903 818.174 190.967 818.205 191.036L823.719 203.274L829.164 191.037C829.19 190.979 829.221 190.925 829.255 190.875C829.669 190.039 830.225 189.255 830.921 188.558C834.359 185.12 839.933 185.12 843.371 188.558C846.809 191.996 846.809 197.57 843.371 201.008C842.684 201.694 841.912 202.244 841.089 202.656C841.032 202.699 840.969 202.736 840.9 202.767L828.649 208.287L840.891 213.735C840.949 213.761 841.003 213.791 841.052 213.825C841.889 214.239 842.674 214.795 843.371 215.492C846.809 218.93 846.809 224.503 843.371 227.941C839.933 231.379 834.359 231.379 830.921 227.941C830.235 227.255 829.686 226.484 829.274 225.661C829.23 225.604 829.192 225.54 829.161 225.471L823.644 213.225L818.202 225.454C818.176 225.512 818.146 225.565 818.112 225.614C817.698 226.451 817.142 227.236 816.445 227.933C813.007 231.371 807.434 231.371 803.996 227.933C800.558 224.495 800.558 218.922 803.996 215.484C804.682 214.798 805.453 214.248 806.276 213.836C806.333 213.793 806.397 213.755 806.466 213.724L818.699 208.212L806.475 202.772C806.418 202.747 806.365 202.717 806.316 202.683C805.478 202.269 804.693 201.713 803.996 201.016C800.558 197.578 800.558 192.004 803.996 188.566C807.434 185.128 813.007 185.128 816.445 188.566ZM823.686 208.308C823.706 208.288 823.725 208.269 823.745 208.25C823.726 208.231 823.707 208.212 823.688 208.192C823.669 208.211 823.649 208.23 823.629 208.249C823.648 208.269 823.667 208.288 823.686 208.308Z" fill="#E9B7AA"/>
<path fill-rule="evenodd" clip-rule="evenodd" d="M32.8827 180.691C33.5695 181.378 34.1191 182.15 34.5315 182.974C34.5742 183.03 34.6115 183.093 34.6423 183.162L40.1563 195.401L45.6024 183.163C45.6277 183.106 45.6576 183.053 45.6913 183.003C46.1057 182.166 46.6616 181.381 47.3589 180.684C50.7967 177.246 56.3705 177.246 59.8083 180.684C63.2461 184.121 63.2461 189.695 59.8083 193.133C59.1221 193.819 58.3509 194.368 57.5285 194.781C57.4711 194.824 57.4077 194.862 57.3385 194.893L45.0875 200.412L57.3302 205.86C57.3881 205.886 57.4419 205.916 57.4915 205.951C58.328 206.365 59.1123 206.92 59.8088 207.617C63.2466 211.055 63.2466 216.629 59.8088 220.066C56.371 223.504 50.7972 223.504 47.3594 220.066C46.6726 219.38 46.1229 218.608 45.7106 217.784C45.668 217.727 45.6308 217.665 45.6 217.596L40.0825 205.349L34.64 217.579C34.6144 217.637 34.5843 217.69 34.5503 217.74C34.1359 218.577 33.5802 219.362 32.8832 220.059C29.4454 223.496 23.8716 223.496 20.4338 220.059C16.996 216.621 16.996 211.047 20.4338 207.609C21.1202 206.923 21.8916 206.374 22.7142 205.961C22.7715 205.918 22.8348 205.88 22.9039 205.849L35.1369 200.338L22.9121 194.898C22.8539 194.872 22.7998 194.841 22.7499 194.807C21.9137 194.393 21.1297 193.837 20.4333 193.141C16.9955 189.703 16.9955 184.129 20.4333 180.691C23.8711 177.254 29.4449 177.254 32.8827 180.691ZM40.1248 200.434C40.1442 200.414 40.1639 200.395 40.1838 200.376C40.1641 200.357 40.1446 200.337 40.1254 200.317C40.1061 200.336 40.0866 200.355 40.0668 200.374C40.0864 200.394 40.1057 200.414 40.1248 200.434Z" fill="#F8F8F8"/>
<path fill-rule="evenodd" clip-rule="evenodd" d="M311.883 70.4413C312.569 71.1279 313.119 71.8997 313.531 72.7226C313.574 72.7796 313.611 72.8426 313.642 72.9113L319.156 85.1503L324.602 72.9123C324.628 72.8552 324.657 72.8022 324.691 72.7531C325.106 71.9157 325.661 71.1305 326.359 70.4332C329.797 66.9954 335.37 66.9954 338.808 70.4332C342.246 73.871 342.246 79.4448 338.808 82.8826C338.122 83.5688 337.351 84.1181 336.528 84.5303C336.471 84.5735 336.408 84.6113 336.338 84.6425L324.087 90.1618L336.33 95.6099C336.389 95.6359 336.443 95.6666 336.493 95.7013C337.329 96.1155 338.113 96.6707 338.809 97.3669C342.247 100.805 342.247 106.379 338.809 109.816C335.371 113.254 329.797 113.254 326.359 109.816C325.672 109.129 325.122 108.357 324.71 107.533C324.668 107.477 324.631 107.414 324.6 107.346L319.082 95.0991L313.64 107.329C313.614 107.387 313.584 107.44 313.55 107.489C313.136 108.326 312.58 109.111 311.883 109.808C308.445 113.246 302.872 113.246 299.434 109.808C295.996 106.37 295.996 100.797 299.434 97.3588C300.12 96.6725 300.891 96.1232 301.714 95.711C301.771 95.6678 301.835 95.6301 301.904 95.5989L314.137 90.0876L301.912 84.6474C301.854 84.6218 301.801 84.5916 301.751 84.5574C300.915 84.1431 300.13 83.5875 299.433 82.8907C295.995 79.4529 295.995 73.8791 299.433 70.4413C302.871 67.0035 308.445 67.0035 311.883 70.4413ZM319.125 90.1833C319.144 90.1639 319.164 90.1447 319.184 90.1258C319.164 90.1062 319.145 90.0864 319.125 90.0663C319.115 90.0766 319.105 90.0869 319.094 90.0971C319.085 90.106 319.076 90.1149 319.067 90.1237C319.086 90.1433 319.106 90.1632 319.125 90.1833Z" fill="#4F8A60"/>
</svg>
