<svg width="269" height="80" viewBox="0 0 269 80" fill="none" xmlns="http://www.w3.org/2000/svg">
<path fill-rule="evenodd" clip-rule="evenodd" d="M237.685 20.5984C237.685 21.569 237.528 22.503 237.238 23.3762C237.228 23.4471 237.21 23.5186 237.183 23.5894L232.428 36.1423L244.932 31.3398C244.99 31.3176 245.048 31.3012 245.107 31.2903C245.992 30.9912 246.94 30.829 247.926 30.829C252.788 30.829 256.729 34.7703 256.729 39.6321C256.729 44.4939 252.788 48.4352 247.926 48.4352C246.956 48.4352 246.022 48.278 245.148 47.9878C245.078 47.9777 245.007 47.9597 244.936 47.933L232.369 43.1723L237.173 55.6817C237.196 55.7407 237.213 55.8001 237.223 55.8594C237.522 56.744 237.684 57.6916 237.684 58.677C237.684 63.5388 233.743 67.4801 228.881 67.4801C224.019 67.4801 220.078 63.5388 220.078 58.677C220.078 57.7062 220.235 56.7721 220.525 55.8988C220.535 55.8279 220.553 55.7567 220.58 55.6859L225.338 43.1247L212.842 47.9243C212.784 47.9466 212.725 47.963 212.667 47.9739C211.782 48.273 210.834 48.4351 209.848 48.4351C204.986 48.4351 201.044 44.4939 201.044 39.6321C201.044 34.7703 204.986 30.829 209.848 30.829C210.818 30.829 211.752 30.9862 212.626 31.2764C212.696 31.2865 212.767 31.3045 212.838 31.3311L225.388 36.0853L220.59 23.5936C220.568 23.5349 220.551 23.4757 220.54 23.4168C220.241 22.5319 220.079 21.5841 220.079 20.5984C220.079 15.7366 224.021 11.7953 228.882 11.7953C233.744 11.7953 237.685 15.7366 237.685 20.5984ZM228.844 39.6784C228.872 39.6784 228.901 39.6788 228.929 39.6795C228.929 39.652 228.929 39.6245 228.93 39.597C228.902 39.5971 228.873 39.5968 228.845 39.5961C228.845 39.6235 228.845 39.6509 228.844 39.6784Z" fill="#F8F8F8"/>
<path fill-rule="evenodd" clip-rule="evenodd" d="M221.758 20.0665C222.444 20.7527 222.993 21.5242 223.405 22.3467C223.449 22.4041 223.487 22.4675 223.518 22.5368L229.031 34.7745L234.477 22.5377C234.503 22.4795 234.533 22.4253 234.568 22.3754C234.982 21.5392 235.537 20.755 236.234 20.0586C239.672 16.6208 245.245 16.6208 248.683 20.0586C252.121 23.4964 252.121 29.0702 248.683 32.508C247.997 33.1946 247.225 33.7441 246.402 34.1565C246.345 34.1994 246.282 34.2369 246.213 34.2679L233.962 39.7872L246.204 45.2353C246.262 45.2607 246.315 45.2907 246.364 45.3245C247.201 45.7389 247.987 46.2948 248.684 46.992C252.122 50.4299 252.122 56.0036 248.684 59.4415C245.246 62.8793 239.672 62.8793 236.234 59.4415C235.548 58.7555 234.999 57.9844 234.587 57.1623C234.544 57.1047 234.506 57.041 234.474 56.9714L228.957 44.7252L223.515 56.9543C223.489 57.0117 223.459 57.065 223.425 57.1143C223.011 57.9514 222.455 58.7364 221.758 59.4335C218.32 62.8713 212.747 62.8713 209.309 59.4335C205.871 55.9957 205.871 50.4219 209.309 46.9841C209.995 46.2978 210.766 45.7486 211.589 45.3363C211.646 45.2931 211.71 45.2553 211.779 45.2241L224.012 39.7128L211.788 34.2729C211.73 34.2472 211.676 34.2169 211.626 34.1827C210.79 33.7683 210.005 33.2127 209.308 32.5159C205.87 29.0781 205.87 23.5043 209.308 20.0665C212.746 16.6287 218.32 16.6286 221.758 20.0665ZM228.999 39.8081C229.019 39.7889 229.038 39.7699 229.058 39.7511C229.039 39.7317 229.019 39.7121 229 39.6923C228.981 39.7115 228.962 39.7306 228.942 39.7493C228.961 39.7687 228.98 39.7883 228.999 39.8081Z" fill="#C4D8CB"/>
<path fill-rule="evenodd" clip-rule="evenodd" d="M143.185 20.5984C143.185 21.5691 143.028 22.503 142.738 23.3763C142.728 23.4472 142.71 23.5186 142.683 23.5894L137.928 36.1423L150.432 31.3398C150.49 31.3176 150.548 31.3012 150.607 31.2903C151.492 30.9912 152.44 30.829 153.426 30.829C158.288 30.829 162.229 34.7703 162.229 39.6321C162.229 44.4939 158.288 48.4352 153.426 48.4352C152.456 48.4352 151.522 48.278 150.648 47.9878C150.578 47.9777 150.507 47.9597 150.436 47.933L137.869 43.1723L142.673 55.6817C142.696 55.7409 142.713 55.8005 142.724 55.86C143.022 56.7444 143.184 57.6918 143.184 58.677C143.184 63.5388 139.243 67.4801 134.381 67.4801C129.519 67.4801 125.578 63.5388 125.578 58.677C125.578 57.706 125.735 56.7718 126.025 55.8983C126.035 55.8276 126.053 55.7565 126.08 55.6859L130.839 43.1247L118.342 47.9243C118.284 47.9466 118.225 47.963 118.167 47.9739C117.282 48.273 116.334 48.4351 115.348 48.4351C110.486 48.4351 106.544 44.4939 106.544 39.6321C106.544 34.7703 110.486 30.829 115.348 30.829C116.318 30.829 117.252 30.9862 118.126 31.2764C118.196 31.2865 118.267 31.3045 118.338 31.3311L130.888 36.0853L126.09 23.5936C126.067 23.5348 126.051 23.4756 126.04 23.4166C125.741 22.5318 125.579 21.584 125.579 20.5984C125.579 15.7366 129.521 11.7953 134.382 11.7953C139.244 11.7953 143.185 15.7366 143.185 20.5984ZM134.344 39.6784C134.372 39.6784 134.401 39.6788 134.429 39.6795C134.429 39.652 134.429 39.6245 134.43 39.597C134.401 39.5971 134.373 39.5968 134.345 39.5961C134.345 39.6235 134.345 39.6509 134.344 39.6784Z" fill="#F8F8F8"/>
<path fill-rule="evenodd" clip-rule="evenodd" d="M127.258 20.0665C127.944 20.7526 128.493 21.5239 128.905 22.3463C128.949 22.4038 128.987 22.4673 129.018 22.5368L134.531 34.7745L139.977 22.5377C140.003 22.4797 140.033 22.4257 140.067 22.376C140.482 21.5395 141.037 20.7552 141.734 20.0586C145.172 16.6208 150.745 16.6208 154.183 20.0586C157.621 23.4964 157.621 29.0702 154.183 32.508C153.497 33.1946 152.725 33.744 151.902 34.1563C151.845 34.1993 151.782 34.2369 151.713 34.2679L139.462 39.7873L151.704 45.2353C151.762 45.2607 151.815 45.2907 151.864 45.3244C152.701 45.7389 153.486 46.2947 154.184 46.992C157.622 50.4299 157.622 56.0036 154.184 59.4415C150.746 62.8793 145.172 62.8793 141.734 59.4415C141.048 58.7555 140.499 57.9845 140.087 57.1624C140.044 57.1048 140.006 57.041 139.974 56.9714L134.457 44.7252L129.015 56.9543C128.989 57.0116 128.959 57.0649 128.926 57.1142C128.511 57.9514 127.955 58.7363 127.258 59.4335C123.82 62.8713 118.247 62.8713 114.809 59.4335C111.371 55.9957 111.371 50.4219 114.809 46.9841C115.495 46.2979 116.266 45.7486 117.089 45.3363C117.146 45.2931 117.21 45.2553 117.279 45.2241L129.512 39.7128L117.288 34.2729C117.23 34.2472 117.176 34.217 117.127 34.1828C116.29 33.7685 115.505 33.2128 114.808 32.5159C111.37 29.0781 111.37 23.5043 114.808 20.0665C118.246 16.6287 123.82 16.6286 127.258 20.0665ZM134.499 39.8082C134.519 39.7889 134.538 39.7698 134.558 39.751C134.539 39.7317 134.519 39.7121 134.5 39.6923C134.481 39.7116 134.462 39.7306 134.442 39.7494C134.461 39.7687 134.48 39.7883 134.499 39.8082Z" fill="#C4D8CB"/>
<path fill-rule="evenodd" clip-rule="evenodd" d="M48.6856 20.5984C48.6856 21.5691 48.5284 22.5031 48.2382 23.3764C48.2282 23.4473 48.2102 23.5186 48.1833 23.5894L43.4282 36.1422L55.9321 31.3398C55.9901 31.3175 56.0485 31.3011 56.1067 31.2903C56.9919 30.9911 57.9402 30.829 58.9264 30.829C63.7882 30.829 67.7295 34.7702 67.7295 39.632C67.7295 44.4938 63.7882 48.4351 58.9264 48.4351C57.9556 48.4351 57.0215 48.2779 56.1482 47.9877C56.0777 47.9777 56.0067 47.9597 55.9363 47.933L43.369 43.1723L48.1735 55.6817C48.1962 55.7408 48.2128 55.8004 48.2237 55.8598C48.5223 56.7443 48.6841 57.6917 48.6841 58.6769C48.6841 63.5387 44.7428 67.48 39.881 67.48C35.0192 67.48 31.078 63.5387 31.078 58.6769C31.078 57.706 31.2352 56.7718 31.5255 55.8984C31.5355 55.8277 31.5535 55.7565 31.5803 55.6859L36.3387 43.1246L23.8418 47.9243C23.7838 47.9466 23.7253 47.963 23.6671 47.9738C22.7819 48.2729 21.8336 48.4351 20.8475 48.4351C15.9857 48.4351 12.0444 44.4938 12.0444 39.632C12.0444 34.7702 15.9857 30.8289 20.8475 30.8289C21.8183 30.8289 22.7525 30.9861 23.6258 31.2764C23.6963 31.2864 23.7672 31.3044 23.8376 31.3311L36.3879 36.0853L31.5901 23.5936C31.5675 23.5347 31.551 23.4754 31.5401 23.4163C31.2414 22.5316 31.0794 21.5839 31.0794 20.5984C31.0794 15.7366 35.0207 11.7953 39.8825 11.7953C44.7443 11.7953 48.6856 15.7366 48.6856 20.5984ZM39.844 39.6783C39.8723 39.6783 39.9005 39.6787 39.9288 39.6795C39.9287 39.6519 39.929 39.6244 39.9296 39.5969C39.9015 39.597 39.8733 39.5967 39.8452 39.596C39.8451 39.6235 39.8447 39.6509 39.844 39.6783Z" fill="#F8F8F8"/>
<path fill-rule="evenodd" clip-rule="evenodd" d="M32.7579 20.0664C33.4443 20.7527 33.9936 21.5242 34.4059 22.3469C34.4491 22.4042 34.4868 22.4675 34.518 22.5367L40.0314 34.7745L45.477 22.5375C45.5029 22.4794 45.5334 22.4253 45.5679 22.3755C45.9822 21.5391 46.5376 20.7549 47.2341 20.0584C50.6719 16.6206 56.2457 16.6206 59.6835 20.0584C63.1213 23.4962 63.1213 29.07 59.6835 32.5078C58.9969 33.1944 58.2251 33.7439 57.4022 34.1562C57.3451 34.1991 57.282 34.2367 57.2132 34.2677L44.9618 39.7872L57.2041 45.2352C57.2612 45.2606 57.3145 45.2906 57.3636 45.3244C58.201 45.7388 58.9862 46.2947 59.6835 46.9919C63.1213 50.4298 63.1213 56.0036 59.6835 59.4414C56.2457 62.8792 50.6719 62.8792 47.2341 59.4414C46.5481 58.7554 45.999 57.9844 45.5868 57.1622C45.5433 57.1046 45.5052 57.0409 45.4739 56.9713L39.9567 44.7251L34.5146 56.9542C34.4891 57.0115 34.4591 57.0649 34.4252 57.1141C34.0108 57.9513 33.4551 58.7363 32.7579 59.4334C29.3201 62.8712 23.7463 62.8712 20.3085 59.4334C16.8707 55.9956 16.8707 50.4218 20.3085 46.984C20.9947 46.2978 21.766 45.7485 22.5885 45.3363C22.6458 45.293 22.7092 45.2552 22.7785 45.224L35.0118 39.7126L22.7878 34.2728C22.7299 34.2471 22.6761 34.2167 22.6265 34.1825C21.7898 33.7681 21.0053 33.2126 20.3085 32.5158C16.8707 29.078 16.8707 23.5042 20.3085 20.0664C23.7463 16.6286 29.3201 16.6286 32.7579 20.0664ZM39.999 39.8081C40.0185 39.7887 40.0381 39.7695 40.058 39.7507C40.0387 39.7314 40.0195 39.7119 40.0006 39.6921C39.9813 39.7115 39.9618 39.7306 39.9421 39.7495C39.9613 39.7688 39.9803 39.7883 39.999 39.8081Z" fill="#C4D8CB"/>
</svg>
