<svg width="576" height="311" viewBox="0 0 576 311" fill="none" xmlns="http://www.w3.org/2000/svg">
<rect x="3.75" y="4.24976" width="135" height="123.75" fill="#F8F8F8" stroke="#C95853" stroke-width="6.75"/>
<path fill-rule="evenodd" clip-rule="evenodd" d="M79.9345 46.9734C79.9345 47.944 79.7774 48.878 79.4872 49.7512C79.4772 49.8222 79.4592 49.8936 79.4323 49.9644L74.6772 62.5171L87.1811 57.7147C87.2393 57.6924 87.2978 57.676 87.3562 57.6651C88.2413 57.3661 89.1894 57.204 90.1754 57.204C95.0372 57.204 98.9785 61.1452 98.9785 66.007C98.9785 70.8688 95.0372 74.8101 90.1754 74.8101C89.2045 74.8101 88.2703 74.6529 87.3968 74.3626C87.3264 74.3525 87.2556 74.3345 87.1853 74.3079L74.6179 69.5472L79.4224 82.0565C79.4452 82.1157 79.4618 82.1754 79.4726 82.2349C79.7712 83.1193 79.933 84.0667 79.933 85.0518C79.933 89.9136 75.9917 93.8549 71.1299 93.8549C66.2681 93.8549 62.3269 89.9136 62.3269 85.0518C62.3269 84.0809 62.4841 83.1466 62.7744 82.2732C62.7844 82.2025 62.8025 82.1313 62.8292 82.0607L67.5875 69.4997L55.0908 74.2993C55.0326 74.3217 54.9741 74.3381 54.9158 74.3489C54.0307 74.648 53.0825 74.8101 52.0965 74.8101C47.2347 74.8101 43.2934 70.8688 43.2934 66.007C43.2934 61.1452 47.2347 57.2039 52.0965 57.2039C53.0674 57.2039 54.0016 57.3611 54.8751 57.6514C54.9455 57.6615 55.0163 57.6795 55.0866 57.7061L67.6368 62.4603L62.8391 49.9686C62.8165 49.9098 62.8 49.8505 62.7891 49.7914C62.4903 48.9067 62.3284 47.9589 62.3284 46.9734C62.3284 42.1116 66.2696 38.1703 71.1314 38.1703C75.9932 38.1703 79.9345 42.1116 79.9345 46.9734ZM71.093 66.0531C71.1213 66.0532 71.1495 66.0536 71.1777 66.0543C71.1777 66.0269 71.178 65.9994 71.1786 65.972C71.1504 65.972 71.1223 65.9717 71.0941 65.9711C71.0941 65.9984 71.0937 66.0258 71.093 66.0531Z" fill="#4F8A60"/>
<path fill-rule="evenodd" clip-rule="evenodd" d="M64.0077 46.4413C64.6945 47.1281 65.2441 47.9002 65.6565 48.7234C65.6991 48.7803 65.7365 48.8431 65.7673 48.9116L71.2813 61.1506L76.7273 48.9126C76.7528 48.8555 76.7827 48.8023 76.8164 48.7532C77.2308 47.9159 77.7866 47.1308 78.4839 46.4336C81.9217 42.9958 87.4955 42.9958 90.9333 46.4336C94.3711 49.8714 94.3711 55.4452 90.9333 58.883C90.2471 59.5692 89.4757 60.1185 88.6532 60.5308C88.5959 60.5739 88.5326 60.6117 88.4635 60.6428L76.2126 66.1621L88.4552 71.6102C88.5131 71.636 88.5669 71.6663 88.6166 71.7006C89.453 72.1149 90.2373 72.6704 90.9338 73.3669C94.3717 76.8047 94.3717 82.3785 90.9338 85.8163C87.496 89.2541 81.9222 89.2541 78.4844 85.8163C77.7976 85.1295 77.248 84.3574 76.8356 83.5341C76.7931 83.4774 76.7558 83.4147 76.725 83.3464L71.2074 71.0993L65.765 83.3293C65.7395 83.3866 65.7094 83.44 65.6755 83.4893C65.2611 84.3264 64.7054 85.1114 64.0083 85.8085C60.5704 89.2463 54.9967 89.2463 51.5588 85.8085C48.121 82.3707 48.121 76.7969 51.5588 73.3591C52.245 72.6729 53.0163 72.1236 53.8387 71.7114C53.8961 71.6681 53.9596 71.6303 54.0289 71.5991L66.2618 66.0878L54.0371 60.6477C53.979 60.6218 53.9249 60.5913 53.8751 60.5568C53.0388 60.1426 52.2547 59.5872 51.5583 58.8908C48.1205 55.453 48.1205 49.8792 51.5583 46.4413C54.9961 43.0035 60.5699 43.0035 64.0077 46.4413ZM71.2498 66.1835C71.2692 66.1641 71.2888 66.145 71.3087 66.1261C71.289 66.1065 71.2696 66.0867 71.2504 66.0666C71.2403 66.0767 71.2301 66.0868 71.2199 66.0968C71.2106 66.1059 71.2013 66.115 71.1919 66.124C71.2114 66.1436 71.2307 66.1634 71.2498 66.1835Z" fill="#C4D8CB"/>
<rect x="436.875" y="183.125" width="135" height="123.75" fill="#F8F8F8" stroke="#C95853" stroke-width="6.75"/>
<path fill-rule="evenodd" clip-rule="evenodd" d="M513.059 225.848C513.059 226.819 512.902 227.753 512.612 228.626C512.602 228.697 512.584 228.769 512.557 228.839L507.802 241.392L520.306 236.59C520.364 236.567 520.423 236.551 520.481 236.54C521.366 236.241 522.314 236.079 523.3 236.079C528.162 236.079 532.103 240.02 532.103 244.882C532.103 249.744 528.162 253.685 523.3 253.685C522.329 253.685 521.395 253.528 520.522 253.238C520.451 253.228 520.381 253.21 520.31 253.183L507.743 248.422L512.547 260.932C512.57 260.991 512.587 261.051 512.598 261.11C512.896 261.995 513.058 262.942 513.058 263.927C513.058 268.789 509.117 272.73 504.255 272.73C499.393 272.73 495.452 268.789 495.452 263.927C495.452 262.956 495.609 262.021 495.899 261.148C495.91 261.077 495.928 261.006 495.954 260.936L500.713 248.375L488.216 253.174C488.158 253.197 488.099 253.213 488.041 253.224C487.156 253.523 486.207 253.685 485.221 253.685C480.36 253.685 476.418 249.744 476.418 244.882C476.418 240.02 480.36 236.079 485.221 236.079C486.192 236.079 487.127 236.236 488 236.526C488.071 236.537 488.141 236.555 488.212 236.581L500.762 241.335L495.964 228.844C495.941 228.785 495.925 228.726 495.914 228.666C495.615 227.782 495.453 226.834 495.453 225.848C495.453 220.987 499.395 217.045 504.256 217.045C509.118 217.045 513.059 220.987 513.059 225.848ZM504.218 244.928C504.246 244.928 504.275 244.929 504.303 244.93C504.303 244.902 504.303 244.874 504.304 244.847C504.275 244.847 504.247 244.847 504.219 244.846C504.219 244.874 504.219 244.901 504.218 244.928Z" fill="#C4D8CB"/>
<path fill-rule="evenodd" clip-rule="evenodd" d="M497.133 225.316C497.819 226.003 498.369 226.775 498.781 227.598C498.824 227.655 498.861 227.718 498.892 227.786L504.406 240.026L509.852 227.788C509.878 227.731 509.907 227.678 509.941 227.629C510.356 226.791 510.911 226.006 511.609 225.308C515.047 221.871 520.62 221.871 524.058 225.308C527.496 228.746 527.496 234.32 524.058 237.758C523.372 238.444 522.601 238.993 521.779 239.405C521.721 239.449 521.658 239.487 521.588 239.518L509.338 245.037L521.58 250.485C521.638 250.511 521.692 250.541 521.742 250.576C522.578 250.99 523.362 251.545 524.059 252.242C527.497 255.68 527.497 261.253 524.059 264.691C520.621 268.129 515.047 268.129 511.609 264.691C510.922 264.004 510.373 263.232 509.96 262.409C509.918 262.352 509.881 262.289 509.85 262.221L504.332 249.974L498.89 262.204C498.864 262.262 498.834 262.315 498.8 262.364C498.386 263.201 497.83 263.986 497.133 264.683C493.695 268.121 488.122 268.121 484.684 264.683C481.246 261.245 481.246 255.672 484.684 252.234C485.37 251.548 486.141 250.998 486.964 250.586C487.021 250.543 487.085 250.505 487.154 250.474L499.387 244.963L487.162 239.523C487.104 239.497 487.05 239.466 487 239.432C486.164 239.018 485.38 238.462 484.683 237.766C481.245 234.328 481.245 228.754 484.683 225.316C488.121 221.878 493.695 221.878 497.133 225.316ZM504.375 245.058C504.394 245.039 504.414 245.02 504.434 245.001C504.414 244.981 504.394 244.962 504.375 244.941C504.356 244.961 504.337 244.98 504.317 244.999C504.336 245.018 504.356 245.038 504.375 245.058Z" fill="#C95853"/>
</svg>
