<svg width="155" height="823" viewBox="0 0 155 823" fill="none" xmlns="http://www.w3.org/2000/svg">
<path fill-rule="evenodd" clip-rule="evenodd" d="M94.3107 28.0792C94.3107 29.4568 94.1491 30.7965 93.8437 32.0806C93.8901 32.2652 93.8834 32.4668 93.8086 32.6642L84.021 58.5017L109.768 48.613C109.961 48.5387 110.159 48.5299 110.341 48.5726C111.629 48.265 112.974 48.1022 114.356 48.1022C123.871 48.1022 131.585 55.8158 131.585 65.3311C131.585 74.8463 123.871 82.5599 114.356 82.5599C112.979 82.5599 111.639 82.3983 110.355 82.093C110.171 82.1393 109.969 82.1325 109.772 82.0578L83.9054 72.2592L93.7976 98.0151C93.8719 98.2086 93.8807 98.4064 93.8379 98.5883C94.1455 99.8768 94.3084 101.221 94.3084 102.604C94.3084 112.119 86.5947 119.833 77.0795 119.833C67.5643 119.833 59.8506 112.119 59.8506 102.604C59.8506 101.227 60.0123 99.8868 60.3177 98.6028C60.2713 98.4183 60.278 98.2167 60.3528 98.0193L70.1456 72.1681L44.4177 82.0495C44.2244 82.1238 44.0268 82.1326 43.845 82.0899C42.5566 82.3975 41.2121 82.5603 39.8294 82.5603C30.3142 82.5603 22.6006 74.8467 22.6006 65.3315C22.6006 55.8162 30.3142 48.1026 39.8294 48.1026C41.2068 48.1026 42.5464 48.2642 43.8303 48.5696C44.0147 48.5232 44.2162 48.53 44.4135 48.6047L70.2424 58.389L60.3638 32.6684C60.2895 32.4749 60.2807 32.2771 60.3236 32.0951C60.0159 30.8066 59.853 29.4619 59.853 28.0792C59.853 18.564 67.5667 10.8503 77.0819 10.8503C86.5971 10.8503 94.3107 18.564 94.3107 28.0792Z" fill="#C95853"/>
<path fill-rule="evenodd" clip-rule="evenodd" d="M63.1387 27.0388C64.1125 28.0126 64.9453 29.0739 65.6372 30.1974C65.8015 30.2951 65.9401 30.4429 66.0271 30.6361L77.3741 55.8224L88.5853 30.6291C88.67 30.4388 88.8046 30.2922 88.9646 30.1938C89.658 29.0658 90.4934 28.0003 91.4706 27.023C98.1989 20.2947 109.108 20.2947 115.836 27.023C122.564 33.7513 122.564 44.66 115.836 51.3883C114.861 52.363 113.799 53.1965 112.674 53.8889C112.576 54.0515 112.429 54.1887 112.237 54.2752L87.023 65.6349L112.228 76.8516C112.417 76.9355 112.563 77.0685 112.661 77.2266C113.791 77.9205 114.858 78.7567 115.836 79.7352C122.564 86.4634 122.564 97.3721 115.836 104.1C109.108 110.829 98.1991 110.829 91.4708 104.1C90.4973 103.127 89.6646 102.066 88.9728 100.943C88.8083 100.845 88.6696 100.697 88.5824 100.504L77.2284 75.3018L66.0242 100.479C65.9396 100.669 65.8052 100.816 65.6455 100.914C64.952 102.043 64.1165 103.108 63.1389 104.086C56.4106 110.814 45.5019 110.814 38.7736 104.086C32.0453 97.3576 32.0453 86.4489 38.7736 79.7206C39.7482 78.746 40.8105 77.9126 41.9351 77.2203C42.0328 77.0573 42.18 76.9197 42.3722 76.8331L67.5516 65.4893L42.3811 54.2881C42.1921 54.2041 42.0463 54.0708 41.948 53.9124C40.8185 53.2186 39.7518 52.3825 38.7734 51.4041C32.0451 44.6758 32.0451 33.7671 38.7734 27.0388C45.5017 20.3105 56.4104 20.3105 63.1387 27.0388Z" fill="#E9B7AA"/>
<path fill-rule="evenodd" clip-rule="evenodd" d="M94.3107 367.829C94.3107 369.207 94.1491 370.546 93.8437 371.83C93.8901 372.015 93.8834 372.217 93.8086 372.414L84.0211 398.251L109.768 388.363C109.961 388.288 110.159 388.28 110.341 388.322C111.629 388.015 112.974 387.852 114.356 387.852C123.871 387.852 131.585 395.566 131.585 405.081C131.585 414.596 123.871 422.31 114.356 422.31C112.979 422.31 111.639 422.148 110.355 421.843C110.171 421.889 109.969 421.882 109.772 421.807L83.9053 412.009L93.7976 437.765C93.8719 437.958 93.8807 438.156 93.8378 438.338C94.1455 439.627 94.3084 440.971 94.3084 442.354C94.3084 451.869 86.5947 459.583 77.0795 459.583C67.5643 459.583 59.8506 451.869 59.8506 442.354C59.8506 440.977 60.0123 439.637 60.3177 438.353C60.2713 438.168 60.278 437.967 60.3528 437.769L70.1455 411.918L44.4177 421.799C44.2243 421.874 44.0265 421.883 43.8447 421.84C42.5564 422.147 41.2119 422.31 39.8294 422.31C30.3142 422.31 22.6006 414.596 22.6006 405.081C22.6006 395.566 30.3142 387.852 39.8294 387.852C41.2069 387.852 42.5466 388.014 43.8307 388.319C44.015 388.273 44.2164 388.28 44.4135 388.355L70.2424 398.139L60.3638 372.418C60.2895 372.225 60.2807 372.027 60.3236 371.845C60.0159 370.556 59.853 369.212 59.853 367.829C59.853 358.314 67.5667 350.6 77.0819 350.6C86.5971 350.6 94.3107 358.314 94.3107 367.829Z" fill="#C95853"/>
<path fill-rule="evenodd" clip-rule="evenodd" d="M63.1387 366.789C64.1125 367.762 64.9453 368.824 65.6372 369.947C65.8014 370.045 65.94 370.193 66.0271 370.386L77.3741 395.572L88.5853 370.379C88.67 370.188 88.8047 370.042 88.9647 369.943C89.6581 368.815 90.4934 367.75 91.4706 366.773C98.1989 360.044 109.108 360.044 115.836 366.773C122.564 373.501 122.564 384.41 115.836 391.138C114.861 392.113 113.799 392.946 112.674 393.639C112.576 393.801 112.429 393.938 112.237 394.025L87.023 405.385L112.228 416.601C112.417 416.685 112.563 416.818 112.661 416.976C113.791 417.67 114.858 418.506 115.836 419.485C122.564 426.213 122.564 437.122 115.836 443.85C109.108 450.578 98.1991 450.578 91.4708 443.85C90.4973 442.877 89.6646 441.815 88.9727 440.692C88.8083 440.595 88.6696 440.447 88.5824 440.253L77.2285 415.052L66.0242 440.229C65.9396 440.419 65.8051 440.566 65.6453 440.664C64.9518 441.792 64.1164 442.858 63.1389 443.836C56.4106 450.564 45.5019 450.564 38.7736 443.836C32.0453 437.107 32.0453 426.199 38.7736 419.47C39.7483 418.496 40.8106 417.662 41.9353 416.97C42.0329 416.807 42.1801 416.67 42.3722 416.583L67.5518 405.239L42.3811 394.038C42.1922 393.954 42.0463 393.821 41.948 393.662C40.8186 392.968 39.7518 392.132 38.7734 391.154C32.0451 384.426 32.0451 373.517 38.7734 366.789C45.5017 360.06 56.4104 360.06 63.1387 366.789Z" fill="#E9B7AA"/>
<path fill-rule="evenodd" clip-rule="evenodd" d="M94.3107 707.579C94.3107 708.957 94.1491 710.297 93.8437 711.581C93.8901 711.765 93.8833 711.967 93.8086 712.164L84.0211 738.001L109.768 728.113C109.961 728.038 110.159 728.03 110.341 728.072C111.629 727.765 112.974 727.602 114.356 727.602C123.871 727.602 131.585 735.316 131.585 744.831C131.585 754.346 123.871 762.06 114.356 762.06C112.979 762.06 111.639 761.898 110.355 761.593C110.171 761.639 109.969 761.632 109.772 761.557L83.9054 751.759L93.7976 777.515C93.8719 777.708 93.8807 777.906 93.8378 778.088C94.1455 779.377 94.3084 780.721 94.3084 782.104C94.3084 791.619 86.5947 799.333 77.0795 799.333C67.5643 799.333 59.8506 791.619 59.8506 782.104C59.8506 780.727 60.0123 779.387 60.3177 778.103C60.2713 777.918 60.278 777.717 60.3528 777.519L70.1454 751.668L44.4177 761.55C44.2244 761.624 44.0267 761.633 43.8448 761.59C42.5565 761.897 41.212 762.06 39.8294 762.06C30.3142 762.06 22.6006 754.347 22.6006 744.831C22.6006 735.316 30.3142 727.603 39.8294 727.603C41.2069 727.603 42.5465 727.764 43.8305 728.07C44.0149 728.023 44.2163 728.03 44.4135 728.105L70.2425 737.889L60.3638 712.168C60.2895 711.975 60.2807 711.777 60.3235 711.595C60.0159 710.307 59.853 708.962 59.853 707.579C59.853 698.064 67.5666 690.35 77.0819 690.35C86.5971 690.35 94.3107 698.064 94.3107 707.579Z" fill="#C95853"/>
<path fill-rule="evenodd" clip-rule="evenodd" d="M63.1387 706.538C64.1126 707.512 64.9456 708.574 65.6375 709.697C65.8016 709.795 65.9401 709.943 66.0271 710.136L77.3741 735.322L88.5853 710.129C88.67 709.939 88.8044 709.792 88.9643 709.694C89.6577 708.566 90.4932 707.5 91.4706 706.523C98.1989 699.794 109.108 699.794 115.836 706.523C122.564 713.251 122.564 724.159 115.836 730.888C114.861 731.862 113.799 732.696 112.674 733.388C112.577 733.551 112.429 733.689 112.237 733.775L87.0235 745.134L112.228 756.351C112.417 756.435 112.563 756.568 112.661 756.727C113.791 757.42 114.858 758.256 115.836 759.235C122.564 765.963 122.564 776.872 115.836 783.6C109.108 790.328 98.1991 790.328 91.4708 783.6C90.4971 782.626 89.6643 781.565 88.9724 780.442C88.8082 780.344 88.6695 780.196 88.5824 780.003L77.2285 754.801L66.0242 779.979C65.9396 780.169 65.805 780.316 65.6451 780.414C64.9517 781.542 64.1163 782.608 63.1389 783.585C56.4106 790.314 45.5019 790.314 38.7736 783.585C32.0453 776.857 32.0453 765.948 38.7736 759.22C39.7483 758.245 40.8107 757.412 41.9355 756.72C42.0331 756.557 42.1802 756.42 42.3722 756.333L67.5516 744.989L42.3811 733.788C42.1919 733.704 42.046 733.57 41.9476 733.412C40.8183 732.718 39.7517 731.882 38.7734 730.904C32.0451 724.175 32.0451 713.267 38.7734 706.538C45.5017 699.81 56.4104 699.81 63.1387 706.538Z" fill="#E9B7AA"/>
<path fill-rule="evenodd" clip-rule="evenodd" d="M94.3107 197.953C94.3107 199.33 94.1491 200.67 93.8437 201.954C93.8901 202.139 93.8833 202.34 93.8086 202.538L84.0207 228.376L109.768 218.487C109.961 218.413 110.159 218.404 110.341 218.447C111.629 218.139 112.974 217.976 114.356 217.976C123.871 217.976 131.585 225.69 131.585 235.205C131.585 244.72 123.871 252.434 114.356 252.434C112.979 252.434 111.639 252.272 110.355 251.967C110.171 252.013 109.969 252.006 109.772 251.932L83.9054 242.133L93.7976 267.889C93.8719 268.083 93.8807 268.28 93.8378 268.462C94.1455 269.751 94.3084 271.095 94.3084 272.478C94.3084 281.993 86.5947 289.707 77.0795 289.707C67.5643 289.707 59.8506 281.993 59.8506 272.478C59.8506 271.101 60.0123 269.761 60.3177 268.477C60.2713 268.292 60.278 268.091 60.3528 267.893L70.1458 242.041L44.4177 251.923C44.2244 251.997 44.0268 252.006 43.845 251.963C42.5566 252.271 41.212 252.434 39.8294 252.434C30.3142 252.434 22.6006 244.72 22.6006 235.205C22.6006 225.69 30.3142 217.976 39.8294 217.976C41.2068 217.976 42.5464 218.138 43.8304 218.443C44.0148 218.397 44.2163 218.403 44.4135 218.478L70.2424 228.262L60.3638 202.542C60.2895 202.348 60.2807 202.151 60.3235 201.969C60.0159 200.68 59.853 199.336 59.853 197.953C59.853 188.438 67.5666 180.724 77.0819 180.724C86.5971 180.724 94.3107 188.438 94.3107 197.953Z" fill="#C95853"/>
<path fill-rule="evenodd" clip-rule="evenodd" d="M63.1387 196.912C64.1127 197.886 64.9457 198.948 65.6377 200.071C65.8017 200.169 65.9401 200.317 66.0271 200.51L77.3729 225.693L88.5831 200.502C88.6679 200.312 88.8025 200.165 88.9626 200.067C89.656 198.939 90.4912 197.873 91.4684 196.896C98.1967 190.168 109.105 190.168 115.834 196.896C122.562 203.625 122.562 214.533 115.834 221.262C114.859 222.236 113.796 223.07 112.672 223.762C112.574 223.925 112.427 224.062 112.235 224.148L87.0216 235.508L112.228 246.725C112.417 246.809 112.562 246.941 112.661 247.099C113.79 247.793 114.857 248.629 115.836 249.608C122.564 256.336 122.564 267.245 115.836 273.973C109.108 280.702 98.1991 280.702 91.4708 273.973C90.4975 273 89.665 271.939 88.9733 270.816C88.8086 270.719 88.6697 270.571 88.5824 270.377L77.2284 245.175L66.0242 270.353C65.9396 270.543 65.8052 270.689 65.6454 270.788C64.9519 271.916 64.1164 272.982 63.1389 273.959C56.4106 280.687 45.5019 280.687 38.7736 273.959C32.0453 267.231 32.0453 256.322 38.7736 249.594C39.7482 248.619 40.8106 247.786 41.9352 247.094C42.0328 246.931 42.18 246.793 42.3722 246.706L67.5511 235.363L42.3811 224.162C42.1918 224.078 42.0458 223.944 41.9475 223.785C40.8182 223.092 39.7517 222.256 38.7734 221.277C32.0451 214.549 32.0451 203.64 38.7734 196.912C45.5017 190.184 56.4104 190.184 63.1387 196.912Z" fill="#E9B7AA"/>
<path fill-rule="evenodd" clip-rule="evenodd" d="M94.3107 537.703C94.3107 539.08 94.1491 540.42 93.8437 541.704C93.8901 541.889 93.8833 542.09 93.8086 542.288L84.021 568.125L109.768 558.236C109.961 558.162 110.159 558.153 110.341 558.196C111.629 557.888 112.974 557.726 114.356 557.726C123.871 557.726 131.585 565.439 131.585 574.954C131.585 584.47 123.871 592.183 114.356 592.183C112.979 592.183 111.639 592.022 110.355 591.716C110.171 591.763 109.969 591.756 109.772 591.681L83.9054 581.882L93.7976 607.639C93.8719 607.832 93.8807 608.03 93.8378 608.212C94.1455 609.5 94.3084 610.845 94.3084 612.228C94.3084 621.743 86.5947 629.456 77.0795 629.456C67.5643 629.456 59.8506 621.743 59.8506 612.228C59.8506 610.85 60.0123 609.51 60.3177 608.226C60.2713 608.042 60.278 607.84 60.3528 607.643L70.1459 581.791L44.4177 591.672C44.2244 591.746 44.0268 591.755 43.845 591.713C42.5566 592.02 41.212 592.183 39.8294 592.183C30.3142 592.183 22.6006 584.469 22.6006 574.954C22.6006 565.439 30.3142 557.725 39.8294 557.725C41.2068 557.725 42.5464 557.887 43.8303 558.192C44.0148 558.146 44.2163 558.153 44.4135 558.227L70.2421 568.012L60.3638 542.292C60.2895 542.098 60.2807 541.9 60.3235 541.719C60.0159 540.43 59.853 539.085 59.853 537.703C59.853 528.188 67.5667 520.474 77.0819 520.474C86.5971 520.474 94.3107 528.188 94.3107 537.703Z" fill="#C95853"/>
<path fill-rule="evenodd" clip-rule="evenodd" d="M63.1387 536.662C64.1125 537.636 64.9453 538.697 65.6371 539.821C65.8014 539.918 65.94 540.066 66.0271 540.26L77.3729 565.443L88.5831 540.252C88.6679 540.062 88.8026 539.915 88.9627 539.817C89.656 538.689 90.4913 537.623 91.4684 536.646C98.1967 529.918 109.105 529.918 115.834 536.646C122.562 543.375 122.562 554.283 115.834 561.012C114.859 561.986 113.796 562.82 112.671 563.512C112.574 563.675 112.427 563.812 112.235 563.898L87.0213 575.258L112.228 586.475C112.417 586.559 112.562 586.692 112.661 586.849C113.79 587.543 114.858 588.38 115.836 589.358C122.564 596.087 122.564 606.995 115.836 613.724C109.108 620.452 98.1991 620.452 91.4708 613.724C90.4975 612.75 89.6649 611.689 88.9732 610.566C88.8086 610.469 88.6697 610.321 88.5824 610.127L77.2285 584.925L66.0242 610.103C65.9396 610.293 65.805 610.44 65.6451 610.538C64.9517 611.666 64.1163 612.732 63.1389 613.709C56.4106 620.438 45.5019 620.438 38.7736 613.709C32.0453 606.981 32.0453 596.072 38.7736 589.344C39.7483 588.369 40.8108 587.536 41.9355 586.844C42.0331 586.681 42.1802 586.544 42.3722 586.457L67.5521 575.113L42.3811 563.912C42.1922 563.828 42.0464 563.694 41.948 563.536C40.8186 562.842 39.7518 562.006 38.7734 561.028C32.0451 554.299 32.0451 543.391 38.7734 536.662C45.5017 529.934 56.4104 529.934 63.1387 536.662Z" fill="#E9B7AA"/>
</svg>
