<svg width="1429" height="963" viewBox="0 0 1429 963" fill="none" xmlns="http://www.w3.org/2000/svg">
<path fill-rule="evenodd" clip-rule="evenodd" d="M132.559 542.223C132.559 543.194 132.402 544.128 132.112 545.002C132.102 545.072 132.084 545.143 132.057 545.214L127.302 557.767L139.806 552.965C139.864 552.943 139.923 552.926 139.981 552.915C140.866 552.616 141.814 552.454 142.8 552.454C147.662 552.454 151.603 556.395 151.603 561.257C151.603 566.119 147.662 570.06 142.8 570.06C141.829 570.06 140.895 569.903 140.022 569.613C139.951 569.603 139.881 569.585 139.81 569.558L127.243 564.798L132.047 577.306C132.07 577.366 132.087 577.426 132.098 577.486C132.396 578.37 132.558 579.317 132.558 580.302C132.558 585.164 128.617 589.105 123.755 589.105C118.893 589.105 114.952 585.164 114.952 580.302C114.952 579.331 115.109 578.397 115.399 577.523C115.409 577.453 115.427 577.381 115.454 577.31L120.212 564.75L107.716 569.549C107.658 569.572 107.6 569.588 107.542 569.599C106.656 569.898 105.708 570.06 104.721 570.06C99.8597 570.06 95.9184 566.119 95.9184 561.257C95.9184 556.395 99.8597 552.454 104.721 552.454C105.692 552.454 106.626 552.611 107.499 552.901C107.57 552.911 107.641 552.93 107.712 552.956L120.262 557.71L115.464 545.218C115.442 545.16 115.425 545.101 115.414 545.042C115.115 544.157 114.953 543.209 114.953 542.223C114.953 537.362 118.895 533.42 123.756 533.42C128.618 533.42 132.559 537.362 132.559 542.223ZM123.718 561.303C123.746 561.303 123.775 561.303 123.803 561.304C123.803 561.277 123.803 561.249 123.804 561.222C123.775 561.222 123.747 561.221 123.719 561.221C123.719 561.248 123.719 561.276 123.718 561.303Z" fill="#F8F8F8"/>
<path fill-rule="evenodd" clip-rule="evenodd" d="M116.633 541.691C117.319 542.378 117.869 543.15 118.281 543.973C118.324 544.03 118.361 544.093 118.392 544.161L123.906 556.4L129.352 544.162C129.378 544.105 129.408 544.052 129.441 544.003C129.856 543.165 130.412 542.38 131.109 541.683C134.547 538.245 140.12 538.245 143.558 541.683C146.996 545.121 146.996 550.695 143.558 554.133C142.872 554.819 142.1 555.368 141.278 555.781C141.221 555.824 141.157 555.861 141.088 555.892L128.837 561.412L141.08 566.86C141.138 566.886 141.191 566.916 141.241 566.95C142.078 567.364 142.862 567.92 143.559 568.617C146.997 572.054 146.997 577.628 143.559 581.066C140.121 584.504 134.547 584.504 131.109 581.066C130.423 580.379 129.873 579.607 129.461 578.784C129.418 578.727 129.381 578.665 129.35 578.596L123.832 566.349L118.39 578.579C118.364 578.637 118.334 578.691 118.3 578.74C117.885 579.577 117.33 580.361 116.633 581.058C113.195 584.496 107.622 584.496 104.184 581.058C100.746 577.62 100.746 572.046 104.184 568.609C104.87 567.922 105.642 567.372 106.466 566.96C106.522 566.917 106.585 566.88 106.654 566.849L118.887 561.338L106.662 555.897C106.604 555.872 106.55 555.841 106.5 555.807C105.664 555.393 104.88 554.837 104.183 554.141C100.745 550.703 100.745 545.129 104.183 541.691C107.621 538.253 113.195 538.253 116.633 541.691ZM123.875 561.433C123.894 561.414 123.914 561.395 123.934 561.376C123.914 561.356 123.895 561.336 123.875 561.316C123.856 561.336 123.836 561.355 123.817 561.374C123.836 561.393 123.856 561.413 123.875 561.433Z" fill="#E9B7AA"/>
<path fill-rule="evenodd" clip-rule="evenodd" d="M1271.06 335.223C1271.06 336.194 1270.9 337.128 1270.61 338.002C1270.6 338.072 1270.58 338.144 1270.56 338.214L1265.8 350.767L1278.31 345.965C1278.36 345.943 1278.42 345.926 1278.48 345.915C1279.37 345.616 1280.31 345.454 1281.3 345.454C1286.16 345.454 1290.1 349.395 1290.1 354.257C1290.1 359.119 1286.16 363.06 1281.3 363.06C1280.33 363.06 1279.4 362.903 1278.52 362.613C1278.45 362.603 1278.38 362.585 1278.31 362.558L1265.74 357.797L1270.55 370.307C1270.57 370.366 1270.59 370.426 1270.6 370.485C1270.9 371.37 1271.06 372.317 1271.06 373.302C1271.06 378.164 1267.12 382.105 1262.25 382.105C1257.39 382.105 1253.45 378.164 1253.45 373.302C1253.45 372.331 1253.61 371.397 1253.9 370.523C1253.91 370.452 1253.93 370.381 1253.95 370.311L1258.71 357.75L1246.22 362.549C1246.16 362.572 1246.1 362.588 1246.04 362.599C1245.16 362.898 1244.21 363.06 1243.22 363.06C1238.36 363.06 1234.42 359.119 1234.42 354.257C1234.42 349.395 1238.36 345.454 1243.22 345.454C1244.19 345.454 1245.13 345.611 1246 345.901C1246.07 345.912 1246.14 345.93 1246.21 345.956L1258.76 350.71L1253.96 338.219C1253.94 338.16 1253.92 338.101 1253.91 338.041C1253.62 337.157 1253.45 336.209 1253.45 335.223C1253.45 330.362 1257.39 326.42 1262.26 326.42C1267.12 326.42 1271.06 330.362 1271.06 335.223ZM1262.22 354.303C1262.25 354.303 1262.27 354.304 1262.3 354.304C1262.3 354.277 1262.3 354.249 1262.3 354.222C1262.28 354.222 1262.25 354.222 1262.22 354.221C1262.22 354.248 1262.22 354.276 1262.22 354.303Z" fill="#F8F8F8"/>
<path fill-rule="evenodd" clip-rule="evenodd" d="M1255.13 334.691C1255.82 335.378 1256.37 336.15 1256.78 336.973C1256.82 337.03 1256.86 337.093 1256.89 337.162L1262.41 349.401L1267.85 337.163C1267.88 337.106 1267.91 337.053 1267.94 337.003C1268.36 336.166 1268.91 335.381 1269.61 334.684C1273.05 331.246 1278.62 331.246 1282.06 334.684C1285.5 338.122 1285.5 343.695 1282.06 347.133C1281.37 347.819 1280.6 348.369 1279.78 348.781C1279.72 348.824 1279.66 348.862 1279.59 348.893L1267.34 354.412L1279.58 359.86C1279.64 359.886 1279.69 359.917 1279.74 359.951C1280.58 360.365 1281.36 360.921 1282.06 361.617C1285.5 365.055 1285.5 370.629 1282.06 374.066C1278.62 377.504 1273.05 377.504 1269.61 374.066C1268.92 373.379 1268.37 372.607 1267.96 371.784C1267.92 371.727 1267.88 371.665 1267.85 371.596L1262.33 359.349L1256.89 371.579C1256.86 371.637 1256.83 371.69 1256.8 371.74C1256.39 372.577 1255.83 373.362 1255.13 374.059C1251.7 377.496 1246.12 377.496 1242.68 374.059C1239.25 370.621 1239.25 365.047 1242.68 361.609C1243.37 360.923 1244.14 360.374 1244.96 359.962C1245.02 359.918 1245.08 359.88 1245.15 359.849L1257.39 354.338L1245.16 348.898C1245.1 348.872 1245.05 348.841 1245 348.807C1244.16 348.393 1243.38 347.837 1242.68 347.141C1239.25 343.703 1239.25 338.129 1242.68 334.691C1246.12 331.254 1251.69 331.254 1255.13 334.691ZM1262.37 354.434C1262.39 354.414 1262.41 354.395 1262.43 354.376C1262.41 354.357 1262.39 354.337 1262.38 354.317C1262.36 354.336 1262.34 354.355 1262.32 354.374C1262.34 354.394 1262.36 354.413 1262.37 354.434Z" fill="#E9B7AA"/>
<path fill-rule="evenodd" clip-rule="evenodd" d="M1343.06 727.848C1343.06 728.819 1342.9 729.753 1342.61 730.627C1342.6 730.697 1342.58 730.768 1342.56 730.839L1337.8 743.392L1350.31 738.59C1350.36 738.567 1350.42 738.551 1350.48 738.54C1351.37 738.241 1352.31 738.079 1353.3 738.079C1358.16 738.079 1362.1 742.02 1362.1 746.882C1362.1 751.744 1358.16 755.685 1353.3 755.685C1352.33 755.685 1351.4 755.528 1350.52 755.237C1350.45 755.227 1350.38 755.209 1350.31 755.183L1337.74 750.422L1342.55 762.931C1342.57 762.991 1342.59 763.051 1342.6 763.11C1342.9 763.995 1343.06 764.942 1343.06 765.927C1343.06 770.789 1339.12 774.73 1334.25 774.73C1329.39 774.73 1325.45 770.789 1325.45 765.927C1325.45 764.956 1325.61 764.022 1325.9 763.149C1325.91 763.078 1325.93 763.006 1325.95 762.935L1330.71 750.375L1318.22 755.174C1318.16 755.197 1318.1 755.213 1318.04 755.224C1317.16 755.523 1316.21 755.685 1315.22 755.685C1310.36 755.685 1306.42 751.744 1306.42 746.882C1306.42 742.02 1310.36 738.079 1315.22 738.079C1316.19 738.079 1317.13 738.236 1318 738.527C1318.07 738.537 1318.14 738.555 1318.21 738.581L1330.76 743.336L1325.96 730.843C1325.94 730.785 1325.93 730.726 1325.91 730.667C1325.62 729.782 1325.45 728.834 1325.45 727.848C1325.45 722.987 1329.39 719.045 1334.26 719.045C1339.12 719.045 1343.06 722.987 1343.06 727.848ZM1334.22 746.928C1334.25 746.928 1334.27 746.928 1334.3 746.929C1334.3 746.901 1334.3 746.874 1334.3 746.846C1334.28 746.846 1334.25 746.846 1334.22 746.845C1334.22 746.873 1334.22 746.9 1334.22 746.928Z" fill="#F8F8F8"/>
<path fill-rule="evenodd" clip-rule="evenodd" d="M1327.13 727.316C1327.82 728.003 1328.37 728.775 1328.78 729.598C1328.82 729.655 1328.86 729.718 1328.89 729.786L1334.41 742.025L1339.85 729.787C1339.88 729.731 1339.91 729.678 1339.94 729.629C1340.36 728.791 1340.91 728.006 1341.61 727.308C1345.05 723.87 1350.62 723.87 1354.06 727.308C1357.5 730.746 1357.5 736.32 1354.06 739.758C1353.37 740.444 1352.6 740.993 1351.78 741.405C1351.72 741.448 1351.66 741.486 1351.59 741.518L1339.34 747.037L1351.58 752.485C1351.64 752.511 1351.69 752.541 1351.74 752.575C1352.58 752.99 1353.36 753.545 1354.06 754.242C1357.5 757.679 1357.5 763.253 1354.06 766.691C1350.62 770.129 1345.05 770.129 1341.61 766.691C1340.92 766.004 1340.37 765.232 1339.96 764.409C1339.92 764.352 1339.88 764.289 1339.85 764.221L1334.33 751.974L1328.89 764.204C1328.86 764.262 1328.83 764.316 1328.8 764.366C1328.38 765.202 1327.83 765.987 1327.13 766.683C1323.7 770.121 1318.12 770.121 1314.68 766.683C1311.25 763.245 1311.25 757.671 1314.68 754.234C1315.37 753.547 1316.14 752.997 1316.97 752.585C1317.02 752.542 1317.09 752.505 1317.15 752.474L1329.39 746.963L1317.16 741.522C1317.1 741.497 1317.05 741.466 1317 741.432C1316.16 741.018 1315.38 740.462 1314.68 739.766C1311.25 736.328 1311.25 730.754 1314.68 727.316C1318.12 723.878 1323.69 723.878 1327.13 727.316ZM1334.37 747.058C1334.39 747.039 1334.41 747.02 1334.43 747.001C1334.41 746.981 1334.39 746.961 1334.38 746.941C1334.36 746.961 1334.34 746.98 1334.32 746.999C1334.34 747.018 1334.36 747.038 1334.37 747.058Z" fill="#E9B7AA"/>
<path fill-rule="evenodd" clip-rule="evenodd" d="M1398.18 20.2235C1398.18 21.1941 1398.03 22.128 1397.74 23.0012C1397.73 23.0722 1397.71 23.1437 1397.68 23.2147L1392.93 35.7675L1405.43 30.965C1405.49 30.9428 1405.55 30.9265 1405.61 30.9156C1406.49 30.6164 1407.44 30.4542 1408.43 30.4542C1413.29 30.4542 1417.23 34.3955 1417.23 39.2573C1417.23 44.1191 1413.29 48.0603 1408.43 48.0603C1407.45 48.0603 1406.52 47.9032 1405.65 47.613C1405.58 47.603 1405.51 47.5849 1405.44 47.5583L1392.87 42.7975L1397.67 55.3068C1397.69 55.3658 1397.71 55.4253 1397.72 55.4845C1398.02 56.3692 1398.18 57.3168 1398.18 58.3022C1398.18 63.164 1394.24 67.1052 1389.38 67.1052C1384.52 67.1052 1380.58 63.164 1380.58 58.3022C1380.58 57.3314 1380.73 56.3974 1381.02 55.5241C1381.03 55.4532 1381.05 55.3818 1381.08 55.311L1385.84 42.7497L1373.34 47.5494C1373.28 47.5717 1373.22 47.5881 1373.17 47.599C1372.28 47.898 1371.33 48.0601 1370.35 48.0601C1365.48 48.0601 1361.54 44.1188 1361.54 39.257C1361.54 34.3952 1365.48 30.454 1370.35 30.454C1371.32 30.454 1372.25 30.6111 1373.13 30.9015C1373.2 30.9115 1373.27 30.9295 1373.34 30.9562L1385.89 35.7103L1381.09 23.2189C1381.07 23.16 1381.05 23.1006 1381.04 23.0415C1380.74 22.1568 1380.58 21.209 1380.58 20.2235C1380.58 15.3617 1384.52 11.4204 1389.38 11.4204C1394.24 11.4204 1398.18 15.3617 1398.18 20.2235ZM1389.34 39.3035C1389.37 39.3035 1389.4 39.3039 1389.43 39.3046C1389.43 39.2771 1389.43 39.2497 1389.43 39.2222C1389.41 39.2222 1389.4 39.2222 1389.39 39.222C1389.37 39.2219 1389.36 39.2217 1389.34 39.2213C1389.34 39.2487 1389.34 39.2761 1389.34 39.3035Z" fill="#F8F8F8"/>
<path fill-rule="evenodd" clip-rule="evenodd" d="M1382.26 19.6915C1382.94 20.3782 1383.49 21.1502 1383.91 21.9733C1383.95 22.0303 1383.99 22.0931 1384.02 22.1617L1389.53 34.4007L1394.98 22.1626C1395 22.1057 1395.03 22.0526 1395.07 22.0036C1395.48 21.1662 1396.04 20.3809 1396.73 19.6836C1400.17 16.2458 1405.75 16.2458 1409.18 19.6836C1412.62 23.1214 1412.62 28.6952 1409.18 32.133C1408.5 32.8192 1407.73 33.3684 1406.9 33.7806C1406.85 33.8238 1406.78 33.8616 1406.71 33.8928L1394.46 39.4122L1406.71 44.8604C1406.76 44.8861 1406.82 44.9165 1406.87 44.9508C1407.7 45.3651 1408.49 45.9205 1409.18 46.617C1412.62 50.0549 1412.62 55.6287 1409.18 59.0665C1405.75 62.5043 1400.17 62.5043 1396.73 59.0665C1396.05 58.3796 1395.5 57.6074 1395.09 56.7841C1395.04 56.7274 1395.01 56.6648 1394.98 56.5965L1389.46 44.3494L1384.01 56.5795C1383.99 56.6368 1383.96 56.6902 1383.93 56.7395C1383.51 57.5766 1382.96 58.3615 1382.26 59.0586C1378.82 62.4964 1373.25 62.4964 1369.81 59.0586C1366.37 55.6208 1366.37 50.047 1369.81 46.6092C1370.5 45.9229 1371.27 45.3736 1372.09 44.9614C1372.15 44.9182 1372.21 44.8804 1372.28 44.8493L1384.51 39.338L1372.29 33.8979C1372.23 33.872 1372.18 33.8415 1372.13 33.807C1371.29 33.3927 1370.5 32.8374 1369.81 32.1409C1366.37 28.7031 1366.37 23.1293 1369.81 19.6915C1373.25 16.2537 1378.82 16.2537 1382.26 19.6915ZM1389.5 39.4337C1389.52 39.4143 1389.54 39.3951 1389.56 39.3762C1389.54 39.3566 1389.52 39.3368 1389.5 39.3167C1389.48 39.3361 1389.46 39.3553 1389.44 39.3742C1389.46 39.3938 1389.48 39.4136 1389.5 39.4337Z" fill="#E9B7AA"/>
<path fill-rule="evenodd" clip-rule="evenodd" d="M1052.81 609.724C1052.81 610.694 1052.65 611.628 1052.36 612.502C1052.35 612.572 1052.33 612.644 1052.31 612.715L1047.55 625.268L1060.06 620.465C1060.11 620.443 1060.17 620.426 1060.23 620.415C1061.12 620.116 1062.06 619.954 1063.05 619.954C1067.91 619.954 1071.85 623.896 1071.85 628.758C1071.85 633.619 1067.91 637.561 1063.05 637.561C1062.08 637.561 1061.14 637.403 1060.27 637.113C1060.2 637.103 1060.13 637.085 1060.06 637.058L1047.49 632.298L1052.3 644.806C1052.32 644.866 1052.34 644.926 1052.35 644.986C1052.65 645.87 1052.81 646.817 1052.81 647.802C1052.81 652.664 1048.87 656.605 1044.01 656.605C1039.14 656.605 1035.2 652.664 1035.2 647.802C1035.2 646.831 1035.36 645.897 1035.65 645.024C1035.66 644.953 1035.68 644.881 1035.7 644.811L1040.46 632.25L1027.97 637.05C1027.91 637.072 1027.85 637.089 1027.79 637.1C1026.91 637.398 1025.96 637.561 1024.97 637.561C1020.11 637.561 1016.17 633.619 1016.17 628.757C1016.17 623.896 1020.11 619.954 1024.97 619.954C1025.94 619.954 1026.88 620.112 1027.75 620.402C1027.82 620.412 1027.89 620.43 1027.96 620.457L1040.51 625.211L1035.71 612.719C1035.69 612.66 1035.68 612.601 1035.66 612.542C1035.37 611.657 1035.2 610.71 1035.2 609.724C1035.2 604.862 1039.14 600.921 1044.01 600.921C1048.87 600.921 1052.81 604.862 1052.81 609.724ZM1043.97 628.803C1044 628.803 1044.02 628.804 1044.05 628.804C1044.05 628.777 1044.05 628.749 1044.05 628.722C1044.03 628.722 1044 628.722 1043.97 628.721C1043.97 628.749 1043.97 628.776 1043.97 628.803Z" fill="#F8F8F8"/>
<path fill-rule="evenodd" clip-rule="evenodd" d="M1036.88 609.192C1037.57 609.879 1038.12 610.651 1038.53 611.474C1038.57 611.531 1038.61 611.594 1038.64 611.662L1044.16 623.901L1049.6 611.663C1049.63 611.606 1049.66 611.553 1049.69 611.504C1050.11 610.666 1050.66 609.881 1051.36 609.184C1054.8 605.746 1060.37 605.746 1063.81 609.184C1067.25 612.621 1067.25 618.195 1063.81 621.633C1063.12 622.319 1062.35 622.868 1061.53 623.28C1061.47 623.324 1061.41 623.362 1061.34 623.393L1049.09 628.912L1061.33 634.36C1061.39 634.386 1061.44 634.417 1061.49 634.451C1062.33 634.866 1063.11 635.421 1063.81 636.117C1067.25 639.555 1067.25 645.129 1063.81 648.567C1060.37 652.004 1054.8 652.004 1051.36 648.567C1050.67 647.88 1050.12 647.108 1049.71 646.284C1049.67 646.227 1049.63 646.165 1049.6 646.097L1044.08 633.85L1038.64 646.08C1038.61 646.138 1038.58 646.192 1038.55 646.241C1038.14 647.078 1037.58 647.862 1036.88 648.558C1033.45 651.996 1027.87 651.996 1024.43 648.558C1021 645.121 1021 639.547 1024.43 636.109C1025.12 635.422 1025.89 634.873 1026.72 634.46C1026.77 634.418 1026.84 634.38 1026.9 634.349L1039.14 628.838L1026.91 623.398C1026.85 623.372 1026.8 623.342 1026.75 623.307C1025.91 622.893 1025.13 622.337 1024.43 621.641C1021 618.203 1021 612.629 1024.43 609.192C1027.87 605.754 1033.44 605.754 1036.88 609.192ZM1044.12 628.934C1044.14 628.914 1044.16 628.895 1044.18 628.876C1044.16 628.857 1044.14 628.837 1044.13 628.817C1044.11 628.836 1044.09 628.855 1044.07 628.874C1044.09 628.894 1044.11 628.914 1044.12 628.934Z" fill="#E9B7AA"/>
<path fill-rule="evenodd" clip-rule="evenodd" d="M79.6844 93.3485C79.6844 94.3191 79.5274 95.253 79.2372 96.1262C79.2272 96.1973 79.2091 96.2687 79.1823 96.3397L74.4271 108.893L86.9311 104.09C86.989 104.068 87.0473 104.051 87.1054 104.041C87.9907 103.741 88.9391 103.579 89.9254 103.579C94.7872 103.579 98.7285 107.52 98.7285 112.382C98.7285 117.244 94.7872 121.185 89.9254 121.185C88.9547 121.185 88.0207 121.028 87.1474 120.738C87.0768 120.728 87.0058 120.71 86.9353 120.683L74.3679 115.923L79.1724 128.432C79.1952 128.491 79.2118 128.551 79.2227 128.61C79.5212 129.495 79.683 130.442 79.683 131.427C79.683 136.289 75.7417 140.23 70.8799 140.23C66.0181 140.23 62.0769 136.289 62.0769 131.427C62.0769 130.456 62.2341 129.522 62.5244 128.648C62.5344 128.578 62.5525 128.507 62.5792 128.436L67.3376 115.875L54.8408 120.674C54.7826 120.697 54.724 120.713 54.6656 120.724C53.7806 121.023 52.8324 121.185 51.8465 121.185C46.9847 121.185 43.0434 117.244 43.0434 112.382C43.0434 107.52 46.9847 103.579 51.8465 103.579C52.8174 103.579 53.7517 103.736 54.6251 104.026C54.6955 104.037 54.7663 104.055 54.8366 104.081L67.3867 108.835L62.5891 96.3439C62.5664 96.2849 62.5499 96.2256 62.539 96.1665C62.2403 95.2817 62.0783 94.334 62.0783 93.3485C62.0783 88.4867 66.0196 84.5454 70.8814 84.5454C75.7432 84.5454 79.6844 88.4867 79.6844 93.3485ZM70.843 112.428C70.8713 112.428 70.8995 112.429 70.9277 112.43C70.9277 112.402 70.928 112.375 70.9286 112.347C70.9004 112.347 70.8723 112.347 70.8441 112.346C70.8441 112.374 70.8437 112.401 70.843 112.428Z" fill="#F8F8F8"/>
<path fill-rule="evenodd" clip-rule="evenodd" d="M63.7577 92.8165C64.4445 93.5033 64.9941 94.2753 65.4065 95.0986C65.4491 95.1555 65.4865 95.2182 65.5173 95.2867L71.0313 107.526L76.4774 95.2876C76.5028 95.2306 76.5326 95.1775 76.5663 95.1284C76.9807 94.291 77.5366 93.5059 78.2339 92.8086C81.6717 89.3708 87.2455 89.3708 90.6833 92.8086C94.1211 96.2464 94.1211 101.82 90.6833 105.258C89.9971 105.944 89.2258 106.493 88.4034 106.906C88.3461 106.949 88.2827 106.987 88.2135 107.018L75.9625 112.537L88.2052 117.985C88.2631 118.011 88.317 118.041 88.3666 118.076C89.203 118.49 89.9873 119.045 90.6838 119.742C94.1216 123.18 94.1216 128.754 90.6838 132.191C87.246 135.629 81.6722 135.629 78.2344 132.191C77.5476 131.505 76.9979 130.732 76.5855 129.909C76.543 129.852 76.5058 129.79 76.475 129.721L70.9575 117.474L65.515 129.704C65.4894 129.762 65.4593 129.815 65.4253 129.865C65.011 130.702 64.4553 131.487 63.7583 132.184C60.3204 135.621 54.7466 135.621 51.3088 132.184C47.871 128.746 47.871 123.172 51.3088 119.734C51.9951 119.048 52.7666 118.499 53.5892 118.086C53.6464 118.043 53.7097 118.005 53.7789 117.974L66.0119 112.463L53.7871 107.023C53.7289 106.997 53.6749 106.966 53.625 106.932C52.7888 106.518 52.0047 105.962 51.3083 105.266C47.8705 101.828 47.8705 96.2543 51.3083 92.8165C54.7461 89.3787 60.3199 89.3786 63.7577 92.8165ZM70.9998 112.559C71.0192 112.539 71.0389 112.52 71.0588 112.501C71.0391 112.482 71.0196 112.462 71.0005 112.442C70.9811 112.461 70.9616 112.48 70.9418 112.499C70.9614 112.519 70.9807 112.539 70.9998 112.559Z" fill="#E9B7AA"/>
<path fill-rule="evenodd" clip-rule="evenodd" d="M48.1845 904.473C48.1845 905.444 48.0274 906.378 47.7373 907.251C47.7273 907.322 47.7092 907.394 47.6823 907.465L42.9271 920.017L55.4311 915.215C55.4894 915.193 55.5481 915.176 55.6066 915.165C56.4915 914.866 57.4396 914.704 58.4254 914.704C63.2872 914.704 67.2285 918.646 67.2285 923.507C67.2285 928.369 63.2872 932.31 58.4254 932.31C57.4544 932.31 56.52 932.153 55.6465 931.863C55.5762 931.853 55.5055 931.835 55.4353 931.808L42.8681 927.048L47.6724 939.557C47.6952 939.616 47.7118 939.675 47.7227 939.735C48.0212 940.619 48.183 941.567 48.183 942.552C48.183 947.414 44.2418 951.355 39.38 951.355C34.5182 951.355 30.5769 947.414 30.5769 942.552C30.5769 941.581 30.7341 940.647 31.0244 939.773C31.0345 939.702 31.0525 939.631 31.0792 939.561L35.8375 927L23.3408 931.799C23.2827 931.822 23.2242 931.838 23.1658 931.849C22.2807 932.148 21.3325 932.31 20.3465 932.31C15.4847 932.31 11.5434 928.369 11.5434 923.507C11.5434 918.645 15.4847 914.704 20.3465 914.704C21.3174 914.704 22.2516 914.861 23.125 915.152C23.1954 915.162 23.2663 915.18 23.3366 915.206L35.8868 919.96L31.0891 907.469C31.0664 907.41 31.0499 907.35 31.039 907.291C30.7403 906.407 30.5783 905.459 30.5783 904.473C30.5783 899.612 34.5196 895.67 39.3814 895.67C44.2432 895.67 48.1845 899.612 48.1845 904.473ZM39.343 923.553C39.3713 923.553 39.3995 923.554 39.4278 923.554C39.4277 923.527 39.428 923.5 39.4286 923.472C39.4004 923.472 39.3723 923.472 39.3441 923.471C39.3441 923.499 39.3437 923.526 39.343 923.553Z" fill="#F8F8F8"/>
<path fill-rule="evenodd" clip-rule="evenodd" d="M32.2576 903.942C32.9444 904.628 33.494 905.4 33.9064 906.224C33.9491 906.281 33.9864 906.343 34.0172 906.412L39.5312 918.651L44.9773 906.413C45.0026 906.356 45.0325 906.303 45.0662 906.254C45.4806 905.416 46.0365 904.631 46.7338 903.934C50.1716 900.496 55.7454 900.496 59.1832 903.934C62.621 907.372 62.621 912.945 59.1832 916.383C58.497 917.069 57.7258 917.618 56.9034 918.031C56.8461 918.074 56.7826 918.112 56.7134 918.143L44.4626 923.662L56.7051 929.11C56.7629 929.136 56.8167 929.166 56.8662 929.201C57.7027 929.615 58.4871 930.17 59.1837 930.867C62.6215 934.305 62.6215 939.879 59.1837 943.316C55.7459 946.754 50.1721 946.754 46.7343 943.316C46.0475 942.63 45.4979 941.857 45.0855 941.034C45.043 940.977 45.0057 940.915 44.9749 940.846L39.4573 928.599L34.0149 940.829C33.9894 940.886 33.9594 940.94 33.9255 940.989C33.5111 941.826 32.9553 942.611 32.2581 943.308C28.8203 946.746 23.2465 946.746 19.8087 943.308C16.3709 939.871 16.3709 934.297 19.8087 930.859C20.4949 930.173 21.2661 929.624 22.0884 929.212C22.1458 929.168 22.2094 929.13 22.2788 929.099L34.5113 923.588L22.287 918.148C22.2288 918.122 22.1747 918.091 22.1247 918.057C21.2886 917.643 20.5046 917.087 19.8082 916.391C16.3704 912.953 16.3704 907.379 19.8082 903.942C23.246 900.504 28.8198 900.504 32.2576 903.942ZM39.4998 923.684C39.5191 923.664 39.5387 923.645 39.5586 923.626C39.5389 923.607 39.5195 923.587 39.5003 923.567C39.4811 923.586 39.4616 923.605 39.4419 923.624C39.4614 923.644 39.4807 923.663 39.4998 923.684Z" fill="#E9B7AA"/>
</svg>
