<svg width="1440" height="723" viewBox="0 0 1440 723" fill="none" xmlns="http://www.w3.org/2000/svg">
<path d="M86.6243 127.043C184.124 74.5983 276.525 29.406 367.875 34.806C425.636 38.2205 509.016 73.1552 579.938 107.067M86.6243 127.043C53.144 110.689 20.3112 99.8594 -10.125 97.4486C-146.475 86.6486 -366.938 279.005 -460.125 376.533M86.6243 127.043C167.557 166.576 252.269 238.393 316.033 301.616M1433.37 173.181C1407.35 159.871 1369.55 141.448 1328.64 123.007C1304.64 112.184 1279.56 101.356 1255.15 91.5511M579.938 107.067C649.223 140.195 689.062 170.884 716.625 173.181C750.378 175.994 885.69 110.356 1007.32 75.2135M579.938 107.067C661.5 70.2435 778.614 12.8685 833.064 12.8685C887.514 12.8685 985.987 67.9319 1007.32 75.2135M1007.32 75.2135C1059.64 60.0991 1107.84 52.705 1134 55.75C1166.62 59.5475 1206.92 72.1693 1255.15 91.5511M0 546.25C61.9352 481.43 203.716 362.729 316.033 301.616M1878.53 281.271C1820.12 212.504 1695.78 88.6914 1579.28 31.7809C1545.8 15.4266 1512.96 4.59716 1482.53 2.18637C1418.09 -2.91788 1334.86 37.3561 1255.15 91.5511M316.033 301.616C372.708 270.779 427.897 251.551 473.624 255.173C504.061 257.584 536.894 268.414 570.374 284.768C630.756 314.263 693.242 361.728 747.562 410.187M1900.69 443.265C1842.28 374.498 1717.94 250.686 1601.44 193.775C1567.96 177.421 1535.12 166.592 1504.69 164.181C1458.96 160.559 1403.77 179.786 1347.1 210.624C1234.78 271.736 1116.62 378.445 1054.69 443.265M1054.69 443.265C1085.12 445.676 1117.96 456.505 1151.44 472.859C1267.94 529.77 1392.28 653.582 1450.69 722.349M1054.69 443.265C1020.59 440.565 981.243 450.565 939.938 468.609M776.812 440.377C787.744 452.407 801.044 467.667 816.188 486.089" stroke="#4F8A60" stroke-width="1.85779"/>
</svg>
