<svg width="300" height="193" viewBox="0 0 300 193" fill="none" xmlns="http://www.w3.org/2000/svg">
<rect x="3.5" y="3.625" width="292.5" height="176.625" fill="#F8F8F8" stroke="#C95853" stroke-width="6.75"/>
<circle cx="65.2589" cy="51.0028" r="32.8615" fill="#E9B7AA" fill-opacity="0.3" stroke="#E9B7AA" stroke-width="2.03267"/>
<path d="M70.3448 163.416C62.327 163.416 54.8174 161.609 47.816 157.995C44.6541 156.414 42.0003 154.551 39.8547 152.406C38.2738 155.003 36.2976 157.318 33.9261 159.35C31.8934 160.819 30.7642 161.609 30.5383 161.722H26.3036V129.538H33.0792C34.7731 135.071 37.1445 140.04 40.1935 144.444C47.082 154.269 56.0032 159.181 66.957 159.181C73.3938 159.181 78.5319 157.261 82.3714 153.422C86.2109 149.582 88.1307 144.444 88.1307 138.007C88.1307 134.281 87.0014 130.95 84.7429 128.013C82.5973 125.077 79.887 122.48 76.6122 120.222C73.3373 117.963 68.7638 115.14 62.8917 111.752C55.4385 107.574 49.397 103.791 44.767 100.403C40.137 97.0153 36.1846 92.7805 32.9098 87.6989C29.6349 82.5043 27.9975 76.4062 27.9975 69.4048C27.9975 63.8714 29.522 58.9027 32.571 54.4986C35.7329 49.9815 40.4194 46.4244 46.6303 43.8271C52.8412 41.1168 60.4638 39.7617 69.4978 39.7617C76.0476 39.7617 82.5973 41.625 89.147 45.3516C91.6314 46.7067 94.1157 48.5135 96.6001 50.772C98.5199 47.8359 100.496 45.5209 102.529 43.8271C104.561 42.359 105.691 41.5685 105.917 41.4556H110.151V73.6396H103.376C101.908 68.2191 99.7056 63.3068 96.7695 58.9027C94.0593 54.6115 90.6715 51.0543 86.6062 48.2312C82.6537 45.408 78.0802 43.9964 72.8856 43.9964C68.4815 43.9964 64.6985 45.7468 61.5365 49.2475C58.3746 52.7482 56.7936 57.2088 56.7936 62.6293C56.7936 66.8075 57.9794 70.5905 60.3508 73.9783C62.8352 77.2532 65.8277 80.1328 69.3285 82.6172C72.9421 85.1016 77.7979 88.0941 83.8959 91.5948C91.0103 95.6602 96.7695 99.2738 101.174 102.436C105.578 105.598 109.304 109.55 112.353 114.293C115.402 118.923 116.927 124.287 116.927 130.385C116.927 136.483 115.176 142.073 111.676 147.154C108.175 152.123 102.924 156.076 95.9226 159.012C88.9211 161.948 80.3952 163.416 70.3448 163.416Z" fill="#26243E"/>
<path d="M198.8 112.825V120.363L200.6 121.038V121.375H196.325V121.038L198.125 120.363V110.8L196.55 110.463V110.125H199.588C200.323 110.125 200.915 110.283 201.365 110.598C201.815 110.913 202.198 111.355 202.513 111.925L205.573 117.348L208.025 111.925C208.31 111.325 208.67 110.875 209.105 110.575C209.54 110.275 210.155 110.125 210.95 110.125H213.2V110.463L211.85 110.8V120.7L213.2 121.038V121.375H206.9V121.038L208.25 120.7V112.825L204.29 121.6H203.75L198.8 112.825ZM214.203 121.038L215.328 120.7L216.228 118C216.468 117.28 217.105 116.755 218.14 116.425C218.56 116.305 219.048 116.23 219.603 116.2V116.088C218.913 116.073 218.238 115.953 217.578 115.728C216.228 115.248 215.553 114.43 215.553 113.275C215.553 112.345 216.01 111.588 216.925 111.003C217.855 110.418 219.348 110.125 221.403 110.125H227.365V110.463L226.015 110.8V120.7L227.365 121.038V121.375H221.065V121.038L222.415 120.7V116.425H220.615L219.603 119.575C219.438 120.07 219.115 120.498 218.635 120.858C218.17 121.203 217.593 121.375 216.903 121.375H214.203V121.038ZM222.415 115.863V110.688H221.403C220.758 110.688 220.24 110.913 219.85 111.363C219.46 111.798 219.265 112.435 219.265 113.275C219.265 114.115 219.46 114.76 219.85 115.21C220.24 115.645 220.758 115.863 221.403 115.863H222.415ZM229.163 121.038L230.513 120.7V110.8L229.163 110.463V110.125H239.625V114.063H238.95C238.665 113.808 238.418 113.515 238.208 113.185C237.728 112.375 237.488 111.543 237.488 110.688H234.113V120.7L235.463 121.038V121.375H229.163V121.038ZM241.094 121.038L242.444 120.7V110.8L241.094 110.463V110.125H247.394V110.463L246.044 110.8V115.188H246.831C247.266 115.188 247.641 115.053 247.956 114.783C248.271 114.498 248.496 114.145 248.631 113.725L249.194 111.7C249.554 110.5 250.229 109.9 251.219 109.9C251.894 109.9 252.419 110.08 252.794 110.44C253.169 110.8 253.356 111.295 253.356 111.925C253.356 112.495 253.199 112.938 252.884 113.253C252.584 113.568 252.179 113.725 251.669 113.725C251.459 113.725 251.249 113.71 251.039 113.68L250.769 113.613V110.575C250.319 110.695 250.019 111.07 249.869 111.7L249.306 113.725C249.156 114.25 248.909 114.67 248.564 114.985C248.444 115.105 248.279 115.21 248.069 115.3H248.744C249.629 115.3 250.319 115.48 250.814 115.84C251.324 116.185 251.684 116.643 251.894 117.213L253.019 120.7L254.144 121.038V121.375H251.781C250.986 121.375 250.341 121.195 249.846 120.835C249.366 120.475 249.036 120.018 248.856 119.463L247.619 115.75H246.044V120.7L247.394 121.038V121.375H241.094V121.038ZM255.156 121.375V121.038L256.506 120.7V110.8L255.156 110.463V110.125H261.456V110.463L260.106 110.8V118.225L263.706 112.038V110.8L262.356 110.463V110.125H268.656V110.463L267.306 110.8V120.7L268.656 121.038V121.375H262.356V121.038L263.706 120.7V113.275L260.106 119.463V120.7L261.456 121.038V121.375H255.156ZM276.524 121.713C274.604 121.713 273.112 121.188 272.047 120.138C270.982 119.073 270.449 117.61 270.449 115.75C270.449 114.535 270.682 113.478 271.147 112.578C271.612 111.678 272.257 110.988 273.082 110.508C273.922 110.028 274.882 109.788 275.962 109.788C277.042 109.788 277.987 109.99 278.797 110.395C279.622 110.8 280.252 111.348 280.687 112.038C281.137 112.713 281.362 113.463 281.362 114.288C281.362 114.663 281.324 114.985 281.249 115.255L281.137 115.638C280.492 115.773 279.794 115.885 279.044 115.975C277.469 116.2 275.879 116.313 274.274 116.313C274.274 118.053 274.514 119.298 274.994 120.048C275.474 120.783 276.134 121.15 276.974 121.15C277.559 121.15 278.099 121.015 278.594 120.745C279.104 120.46 279.502 120.093 279.787 119.643C280.087 119.178 280.237 118.705 280.237 118.225H280.799C280.799 118.825 280.619 119.395 280.259 119.935C279.899 120.475 279.397 120.91 278.752 121.24C278.107 121.555 277.364 121.713 276.524 121.713ZM274.274 115.75C275.234 115.75 276.014 115.713 276.614 115.638C276.869 115.623 277.139 115.585 277.424 115.525C277.439 115.45 277.477 115.285 277.537 115.03C277.612 114.655 277.649 114.258 277.649 113.838C277.649 112.593 277.484 111.685 277.154 111.115C276.824 110.53 276.427 110.238 275.962 110.238C274.837 110.238 274.274 112.075 274.274 115.75ZM201.838 151.538L203.188 151.2V147.488C201.838 147.458 200.66 147.188 199.655 146.678C198.65 146.168 197.878 145.485 197.338 144.63C196.813 143.76 196.55 142.8 196.55 141.75C196.55 140.7 196.813 139.748 197.338 138.893C197.878 138.023 198.65 137.333 199.655 136.823C200.66 136.313 201.838 136.043 203.188 136.013V132.3L201.838 131.963V131.625H204.763C206.113 131.625 206.788 132.3 206.788 133.65V136.013C208.138 136.043 209.315 136.313 210.32 136.823C211.325 137.333 212.09 138.023 212.615 138.893C213.155 139.748 213.425 140.7 213.425 141.75C213.425 142.8 213.155 143.76 212.615 144.63C212.09 145.485 211.325 146.168 210.32 146.678C209.315 147.188 208.138 147.458 206.788 147.488V151.2L208.138 151.538V151.875H201.838V151.538ZM203.188 136.463C202.363 136.523 201.688 136.973 201.163 137.813C200.638 138.653 200.375 139.965 200.375 141.75C200.375 143.535 200.638 144.848 201.163 145.688C201.688 146.528 202.363 146.978 203.188 147.038V136.463ZM206.788 147.038C207.613 146.978 208.288 146.528 208.813 145.688C209.338 144.848 209.6 143.535 209.6 141.75C209.6 139.965 209.338 138.653 208.813 137.813C208.288 136.973 207.613 136.523 206.788 136.463V147.038ZM220.953 147.713C219.093 147.713 217.63 147.188 216.565 146.138C215.515 145.073 214.99 143.61 214.99 141.75C214.99 139.89 215.515 138.435 216.565 137.385C217.63 136.32 219.093 135.788 220.953 135.788C222.813 135.788 224.268 136.32 225.318 137.385C226.383 138.435 226.915 139.89 226.915 141.75C226.915 143.61 226.383 145.073 225.318 146.138C224.268 147.188 222.813 147.713 220.953 147.713ZM220.953 147.263C221.553 147.263 222.055 146.843 222.46 146.003C222.88 145.163 223.09 143.745 223.09 141.75C223.09 139.755 222.88 138.338 222.46 137.498C222.055 136.658 221.553 136.238 220.953 136.238C220.353 136.238 219.843 136.658 219.423 137.498C219.018 138.338 218.815 139.755 218.815 141.75C218.815 143.745 219.018 145.163 219.423 146.003C219.843 146.843 220.353 147.263 220.953 147.263ZM228.498 151.538L229.848 151.2V136.8L228.498 136.463V136.125H230.523C231.408 136.125 232.106 136.41 232.616 136.98C232.811 137.205 232.976 137.483 233.111 137.813C233.306 137.423 233.553 137.085 233.853 136.8C234.528 136.125 235.368 135.788 236.373 135.788C237.258 135.788 238.046 136.02 238.736 136.485C239.426 136.935 239.973 137.61 240.378 138.51C240.783 139.395 240.986 140.475 240.986 141.75C240.986 143.67 240.536 145.148 239.636 146.183C238.751 147.203 237.551 147.713 236.036 147.713C235.316 147.713 234.686 147.563 234.146 147.263C233.921 147.158 233.688 147.008 233.448 146.813V151.2L234.798 151.538V151.875H228.498V151.538ZM235.136 147.038C235.781 147.038 236.276 146.663 236.621 145.913C236.981 145.163 237.161 143.775 237.161 141.75C237.161 139.815 236.996 138.473 236.666 137.723C236.351 136.958 235.953 136.575 235.473 136.575C234.903 136.575 234.393 136.875 233.943 137.475C233.748 137.73 233.583 138.03 233.448 138.375V146.138C233.658 146.348 233.823 146.498 233.943 146.588C234.348 146.888 234.746 147.038 235.136 147.038ZM244.811 138.825V146.363L246.611 147.038V147.375H242.336V147.038L244.136 146.363V136.8L242.561 136.463V136.125H245.598C246.333 136.125 246.926 136.283 247.376 136.598C247.826 136.913 248.208 137.355 248.523 137.925L251.583 143.348L254.036 137.925C254.321 137.325 254.681 136.875 255.116 136.575C255.551 136.275 256.166 136.125 256.961 136.125H259.211V136.463L257.861 136.8V146.7L259.211 147.038V147.375H252.911V147.038L254.261 146.7V138.825L250.301 147.6H249.761L244.811 138.825ZM261.001 147.038L262.351 146.7V136.8L261.001 136.463V136.125H267.301V136.463L265.951 136.8V140.625H267.076C270.976 140.625 272.926 141.75 272.926 144C272.926 146.25 270.976 147.375 267.076 147.375H261.001V147.038ZM273.376 147.375V147.038L274.726 146.7V136.8L273.376 136.463V136.125H279.676V136.463L278.326 136.8V146.7L279.676 147.038V147.375H273.376ZM267.076 146.813C267.736 146.813 268.254 146.58 268.629 146.115C269.019 145.635 269.214 144.93 269.214 144C269.214 143.07 269.019 142.373 268.629 141.908C268.254 141.428 267.736 141.188 267.076 141.188H265.951V146.813H267.076Z" fill="#26243E"/>
<path d="M129.156 52.4125L130.506 52.075V42.175L129.156 41.8375V41.5H135.456V41.8375L134.106 42.175V46.5625H134.894C135.329 46.5625 135.704 46.4275 136.019 46.1575C136.334 45.8725 136.559 45.52 136.694 45.1L137.256 43.075C137.616 41.875 138.291 41.275 139.281 41.275C139.956 41.275 140.481 41.455 140.856 41.815C141.231 42.175 141.419 42.67 141.419 43.3C141.419 43.87 141.261 44.3125 140.946 44.6275C140.646 44.9425 140.241 45.1 139.731 45.1C139.521 45.1 139.311 45.085 139.101 45.055L138.831 44.9875V41.95C138.381 42.07 138.081 42.445 137.931 43.075L137.369 45.1C137.219 45.625 136.971 46.045 136.626 46.36C136.506 46.48 136.341 46.585 136.131 46.675H136.806C137.691 46.675 138.381 46.855 138.876 47.215C139.386 47.56 139.746 48.0175 139.956 48.5875L141.081 52.075L142.206 52.4125V52.75H139.844C139.049 52.75 138.404 52.57 137.909 52.21C137.429 51.85 137.099 51.3925 136.919 50.8375L135.681 47.125H134.106V52.075L135.456 52.4125V52.75H129.156V52.4125ZM149.181 53.0875C147.321 53.0875 145.859 52.5625 144.794 51.5125C143.744 50.4475 143.219 48.985 143.219 47.125C143.219 45.265 143.744 43.81 144.794 42.76C145.859 41.695 147.321 41.1625 149.181 41.1625C151.041 41.1625 152.496 41.695 153.546 42.76C154.611 43.81 155.144 45.265 155.144 47.125C155.144 48.985 154.611 50.4475 153.546 51.5125C152.496 52.5625 151.041 53.0875 149.181 53.0875ZM149.181 52.6375C149.781 52.6375 150.284 52.2175 150.689 51.3775C151.109 50.5375 151.319 49.12 151.319 47.125C151.319 45.13 151.109 43.7125 150.689 42.8725C150.284 42.0325 149.781 41.6125 149.181 41.6125C148.581 41.6125 148.071 42.0325 147.651 42.8725C147.246 43.7125 147.044 45.13 147.044 47.125C147.044 49.12 147.246 50.5375 147.651 51.3775C148.071 52.2175 148.581 52.6375 149.181 52.6375ZM156.952 52.75V52.4125L158.302 52.075V42.175L156.952 41.8375V41.5H163.252V41.8375L161.902 42.175V46.7875H165.277V42.175L163.927 41.8375V41.5H170.227V41.8375L168.877 42.175V52.075L170.227 52.4125V52.75H163.927V52.4125L165.277 52.075V47.35H161.902V52.075L163.252 52.4125V52.75H156.952ZM174.163 52.4125L175.513 52.075V42.0625H173.825C173.825 42.8875 173.578 43.72 173.083 44.56C172.888 44.875 172.648 45.1675 172.363 45.4375H171.688V41.5H182.938V45.4375H182.263C181.978 45.1825 181.73 44.89 181.52 44.56C181.04 43.75 180.8 42.9175 180.8 42.0625H179.113V52.075L180.463 52.4125V52.75H174.163V52.4125ZM184.171 56.9125L185.521 56.575V42.175L184.171 41.8375V41.5H186.196C187.081 41.5 187.778 41.785 188.288 42.355C188.483 42.58 188.648 42.8575 188.783 43.1875C188.978 42.7975 189.226 42.46 189.526 42.175C190.201 41.5 191.041 41.1625 192.046 41.1625C192.931 41.1625 193.718 41.395 194.408 41.86C195.098 42.31 195.646 42.985 196.051 43.885C196.456 44.77 196.658 45.85 196.658 47.125C196.658 49.045 196.208 50.5225 195.308 51.5575C194.423 52.5775 193.223 53.0875 191.708 53.0875C190.988 53.0875 190.358 52.9375 189.818 52.6375C189.593 52.5325 189.361 52.3825 189.121 52.1875V56.575L190.471 56.9125V57.25H184.171V56.9125ZM190.808 52.4125C191.453 52.4125 191.948 52.0375 192.293 51.2875C192.653 50.5375 192.833 49.15 192.833 47.125C192.833 45.19 192.668 43.8475 192.338 43.0975C192.023 42.3325 191.626 41.95 191.146 41.95C190.576 41.95 190.066 42.25 189.616 42.85C189.421 43.105 189.256 43.405 189.121 43.75V51.5125C189.331 51.7225 189.496 51.8725 189.616 51.9625C190.021 52.2625 190.418 52.4125 190.808 52.4125ZM202.846 53.0875C201.511 53.0875 200.483 52.8025 199.763 52.2325C199.043 51.6625 198.683 50.935 198.683 50.05C198.683 49.465 198.811 48.8875 199.066 48.3175C199.171 48.0475 199.306 47.8 199.471 47.575C200.086 47.425 200.753 47.29 201.473 47.17C203.093 46.9 204.526 46.735 205.771 46.675V46C205.771 44.335 205.568 43.1875 205.163 42.5575C204.758 41.9275 204.136 41.6125 203.296 41.6125C202.981 41.6125 202.711 41.65 202.486 41.725L202.171 41.8375V45.2125L201.878 45.28C201.638 45.31 201.436 45.325 201.271 45.325C200.761 45.325 200.348 45.175 200.033 44.875C199.733 44.56 199.583 44.1475 199.583 43.6375C199.583 42.9475 199.928 42.3625 200.618 41.8825C201.323 41.4025 202.366 41.1625 203.746 41.1625C204.916 41.1625 205.921 41.3725 206.761 41.7925C207.616 42.1975 208.261 42.7675 208.696 43.5025C209.146 44.2225 209.371 45.055 209.371 46V52.075L210.721 52.4125V52.75H208.696C207.796 52.75 207.098 52.4725 206.603 51.9175C206.393 51.6925 206.228 51.4075 206.108 51.0625C205.898 51.4375 205.651 51.775 205.366 52.075C204.691 52.75 203.851 53.0875 202.846 53.0875ZM203.746 52.3C204.301 52.3 204.803 52 205.253 51.4C205.418 51.175 205.591 50.875 205.771 50.5V47.2375C205.081 47.2375 204.421 47.275 203.791 47.35C203.326 47.41 203.011 47.4475 202.846 47.4625C202.771 47.6275 202.696 47.8525 202.621 48.1375C202.471 48.7075 202.396 49.27 202.396 49.825C202.396 50.665 202.523 51.2875 202.778 51.6925C203.033 52.0975 203.356 52.3 203.746 52.3ZM218.156 53.0875C216.236 53.0875 214.744 52.5625 213.679 51.5125C212.614 50.4475 212.081 48.985 212.081 47.125C212.081 45.265 212.614 43.81 213.679 42.76C214.744 41.695 216.236 41.1625 218.156 41.1625C219.536 41.1625 220.571 41.4025 221.261 41.8825C221.966 42.3625 222.319 42.9475 222.319 43.6375C222.319 44.1475 222.161 44.56 221.846 44.875C221.546 45.175 221.141 45.325 220.631 45.325C220.421 45.325 220.211 45.31 220.001 45.28L219.731 45.2125V41.8375L219.416 41.725C219.191 41.65 218.921 41.6125 218.606 41.6125C217.751 41.6125 217.084 42.0175 216.604 42.8275C216.139 43.6375 215.906 45.07 215.906 47.125C215.906 49.12 216.139 50.5225 216.604 51.3325C217.084 52.1275 217.751 52.525 218.606 52.525C219.191 52.525 219.731 52.39 220.226 52.12C220.736 51.835 221.134 51.4675 221.419 51.0175C221.719 50.5525 221.869 50.08 221.869 49.6H222.431C222.431 50.2 222.251 50.77 221.891 51.31C221.531 51.85 221.029 52.285 220.384 52.615C219.739 52.93 218.996 53.0875 218.156 53.0875ZM226.15 52.4125L227.5 52.075V42.0625H225.812C225.812 42.8875 225.565 43.72 225.07 44.56C224.875 44.875 224.635 45.1675 224.35 45.4375H223.675V41.5H234.925V45.4375H234.25C233.965 45.1825 233.717 44.89 233.507 44.56C233.027 43.75 232.787 42.9175 232.787 42.0625H231.1V52.075L232.45 52.4125V52.75H226.15V52.4125ZM236.383 52.75V52.4125L237.733 52.075V42.175L236.383 41.8375V41.5H242.683V41.8375L241.333 42.175V46.7875H244.708V42.175L243.358 41.8375V41.5H249.658V41.8375L248.308 42.175V52.075L249.658 52.4125V52.75H243.358V52.4125L244.708 52.075V47.35H241.333V52.075L242.683 52.4125V52.75H236.383ZM251.456 52.4125L252.806 52.075V42.175L251.456 41.8375V41.5H257.756V41.8375L256.406 42.175V46H257.531C261.431 46 263.381 47.125 263.381 49.375C263.381 51.625 261.431 52.75 257.531 52.75H251.456V52.4125ZM263.831 52.75V52.4125L265.181 52.075V42.175L263.831 41.8375V41.5H270.131V41.8375L268.781 42.175V52.075L270.131 52.4125V52.75H263.831ZM257.531 52.1875C258.191 52.1875 258.709 51.955 259.084 51.49C259.474 51.01 259.669 50.305 259.669 49.375C259.669 48.445 259.474 47.7475 259.084 47.2825C258.709 46.8025 258.191 46.5625 257.531 46.5625H256.406V52.1875H257.531ZM278.01 53.0875C276.09 53.0875 274.597 52.5625 273.532 51.5125C272.467 50.4475 271.935 48.985 271.935 47.125C271.935 45.91 272.167 44.8525 272.632 43.9525C273.097 43.0525 273.742 42.3625 274.567 41.8825C275.407 41.4025 276.367 41.1625 277.447 41.1625C278.527 41.1625 279.472 41.365 280.282 41.77C281.107 42.175 281.737 42.7225 282.172 43.4125C282.622 44.0875 282.847 44.8375 282.847 45.6625C282.847 46.0375 282.81 46.36 282.735 46.63L282.622 47.0125C281.977 47.1475 281.28 47.26 280.53 47.35C278.955 47.575 277.365 47.6875 275.76 47.6875C275.76 49.4275 276 50.6725 276.48 51.4225C276.96 52.1575 277.62 52.525 278.46 52.525C279.045 52.525 279.585 52.39 280.08 52.12C280.59 51.835 280.987 51.4675 281.272 51.0175C281.572 50.5525 281.722 50.08 281.722 49.6H282.285C282.285 50.2 282.105 50.77 281.745 51.31C281.385 51.85 280.882 52.285 280.237 52.615C279.592 52.93 278.85 53.0875 278.01 53.0875ZM275.76 47.125C276.72 47.125 277.5 47.0875 278.1 47.0125C278.355 46.9975 278.625 46.96 278.91 46.9C278.925 46.825 278.962 46.66 279.022 46.405C279.097 46.03 279.135 45.6325 279.135 45.2125C279.135 43.9675 278.97 43.06 278.64 42.49C278.31 41.905 277.912 41.6125 277.447 41.6125C276.322 41.6125 275.76 43.45 275.76 47.125ZM172.113 78.75V78.4125L173.463 78.075V68.175L172.113 67.8375V67.5H178.413V67.8375L177.063 68.175V72.7875H180.438V68.175L179.088 67.8375V67.5H185.388V67.8375L184.038 68.175V78.075L185.388 78.4125V78.75H179.088V78.4125L180.438 78.075V73.35H177.063V78.075L178.413 78.4125V78.75H172.113ZM191.574 79.0875C190.239 79.0875 189.211 78.8025 188.491 78.2325C187.771 77.6625 187.411 76.935 187.411 76.05C187.411 75.465 187.539 74.8875 187.794 74.3175C187.899 74.0475 188.034 73.8 188.199 73.575C188.814 73.425 189.481 73.29 190.201 73.17C191.821 72.9 193.254 72.735 194.499 72.675V72C194.499 70.335 194.296 69.1875 193.891 68.5575C193.486 67.9275 192.864 67.6125 192.024 67.6125C191.709 67.6125 191.439 67.65 191.214 67.725L190.899 67.8375V71.2125L190.606 71.28C190.366 71.31 190.164 71.325 189.999 71.325C189.489 71.325 189.076 71.175 188.761 70.875C188.461 70.56 188.311 70.1475 188.311 69.6375C188.311 68.9475 188.656 68.3625 189.346 67.8825C190.051 67.4025 191.094 67.1625 192.474 67.1625C193.644 67.1625 194.649 67.3725 195.489 67.7925C196.344 68.1975 196.989 68.7675 197.424 69.5025C197.874 70.2225 198.099 71.055 198.099 72V78.075L199.449 78.4125V78.75H197.424C196.524 78.75 195.826 78.4725 195.331 77.9175C195.121 77.6925 194.956 77.4075 194.836 77.0625C194.626 77.4375 194.379 77.775 194.094 78.075C193.419 78.75 192.579 79.0875 191.574 79.0875ZM192.474 78.3C193.029 78.3 193.531 78 193.981 77.4C194.146 77.175 194.319 76.875 194.499 76.5V73.2375C193.809 73.2375 193.149 73.275 192.519 73.35C192.054 73.41 191.739 73.4475 191.574 73.4625C191.499 73.6275 191.424 73.8525 191.349 74.1375C191.199 74.7075 191.124 75.27 191.124 75.825C191.124 76.665 191.251 77.2875 191.506 77.6925C191.761 78.0975 192.084 78.3 192.474 78.3ZM200.809 78.75V78.4125L202.159 78.075V68.175L200.809 67.8375V67.5H214.084V67.8375L212.734 68.175V78.075L214.084 78.4125V78.75H207.784V78.4125L209.134 78.075V68.0625H205.759V78.075L207.109 78.4125V78.75H200.809ZM216.895 79.0875C216.22 79.0875 215.695 78.9075 215.32 78.5475C214.945 78.1875 214.757 77.6925 214.757 77.0625C214.757 76.5675 214.922 76.1475 215.252 75.8025C215.597 75.4425 215.995 75.2625 216.445 75.2625C216.565 75.2625 216.685 75.2775 216.805 75.3075C216.925 75.3225 217.007 75.33 217.052 75.33L217.345 75.375V78.4125C217.705 78.2475 218.02 77.9175 218.29 77.4225C218.56 76.9275 218.732 76.095 218.807 74.925L219.257 68.2875L217.682 67.8375V67.5H228.145V67.8375L226.795 68.175V78.075L228.145 78.4125V78.75H221.845V78.4125L223.195 78.075V68.0625H219.932L219.482 74.925C219.392 76.35 219.107 77.4 218.627 78.075C218.147 78.75 217.57 79.0875 216.895 79.0875ZM229.945 78.4125L231.295 78.075V68.175L229.945 67.8375V67.5H236.245V67.8375L234.895 68.175V72H236.02C239.92 72 241.87 73.125 241.87 75.375C241.87 77.625 239.92 78.75 236.02 78.75H229.945V78.4125ZM242.32 78.75V78.4125L243.67 78.075V68.175L242.32 67.8375V67.5H248.62V67.8375L247.27 68.175V78.075L248.62 78.4125V78.75H242.32ZM236.02 78.1875C236.68 78.1875 237.197 77.955 237.572 77.49C237.962 77.01 238.157 76.305 238.157 75.375C238.157 74.445 237.962 73.7475 237.572 73.2825C237.197 72.8025 236.68 72.5625 236.02 72.5625H234.895V78.1875H236.02ZM250.423 78.4125L251.773 78.075V68.175L250.423 67.8375V67.5H256.161C257.466 67.5 258.538 67.635 259.378 67.905C260.233 68.175 260.848 68.5275 261.223 68.9625C261.598 69.3825 261.786 69.8325 261.786 70.3125C261.786 70.9125 261.591 71.4 261.201 71.775C260.826 72.15 260.346 72.42 259.761 72.585C259.131 72.78 258.456 72.885 257.736 72.9V73.0125C258.621 73.0275 259.408 73.14 260.098 73.35C260.788 73.575 261.351 73.875 261.786 74.25C262.236 74.61 262.461 75.0975 262.461 75.7125C262.461 76.5975 261.996 77.325 261.066 77.895C260.151 78.465 258.666 78.75 256.611 78.75H250.423V78.4125ZM256.161 72.675C256.686 72.675 257.136 72.4575 257.511 72.0225C257.886 71.5875 258.073 71.0175 258.073 70.3125C258.073 69.6525 257.886 69.1125 257.511 68.6925C257.136 68.2725 256.686 68.0625 256.161 68.0625H255.373V72.675H256.161ZM256.611 78.1875C257.256 78.1875 257.773 77.97 258.163 77.535C258.553 77.1 258.748 76.4925 258.748 75.7125C258.748 74.9325 258.553 74.325 258.163 73.89C257.773 73.455 257.256 73.2375 256.611 73.2375H255.373V78.1875H256.611ZM264.046 78.4125L265.396 78.075V68.175L264.046 67.8375V67.5H270.346V67.8375L268.996 68.175V72H270.121C274.021 72 275.971 73.125 275.971 75.375C275.971 77.625 274.021 78.75 270.121 78.75H264.046V78.4125ZM276.421 78.75V78.4125L277.771 78.075V68.175L276.421 67.8375V67.5H282.721V67.8375L281.371 68.175V78.075L282.721 78.4125V78.75H276.421ZM270.121 78.1875C270.781 78.1875 271.299 77.955 271.674 77.49C272.064 77.01 272.259 76.305 272.259 75.375C272.259 74.445 272.064 73.7475 271.674 73.2825C271.299 72.8025 270.781 72.5625 270.121 72.5625H268.996V78.1875H270.121Z" fill="#26243E"/>
</svg>
