<svg width="304" height="205" viewBox="0 0 304 205" fill="none" xmlns="http://www.w3.org/2000/svg">
<rect x="4.75" y="4.49988" width="294.75" height="195.75" fill="#F8F8F8" stroke="#C95853" stroke-width="9"/>
<path d="M181.607 174.074C177.555 174.074 174.403 172.994 172.151 170.832C169.9 168.671 168.774 165.699 168.774 161.917C168.774 158.945 169.765 156.423 171.746 154.352C173.817 152.191 176.204 151.11 178.905 151.11C179.626 151.11 180.346 151.2 181.067 151.38C181.787 151.47 182.283 151.515 182.553 151.515L184.309 151.785V170.022C186.47 169.031 188.361 167.05 189.982 164.078C191.603 161.106 192.639 156.108 193.089 149.084L195.791 109.234L186.335 106.532V104.506H249.149V106.532L241.044 108.558V131.523H247.799C271.213 131.523 282.921 138.277 282.921 151.785C282.921 165.294 271.213 172.048 247.799 172.048H211.326V170.022L219.431 167.996V107.883H199.844L197.142 149.084C196.602 157.639 194.89 163.943 192.009 167.996C189.127 172.048 185.66 174.074 181.607 174.074ZM247.799 168.671C251.761 168.671 254.868 167.275 257.119 164.483C259.461 161.602 260.632 157.369 260.632 151.785C260.632 146.202 259.461 142.014 257.119 139.223C254.868 136.341 251.761 134.9 247.799 134.9H241.044V168.671H247.799Z" fill="#26243E"/>
<path d="M34.9076 174.074C30.9451 174.074 27.7031 172.949 25.1815 170.697C22.6599 168.356 21.3992 165.429 21.3992 161.917C21.3992 158.495 22.4348 155.748 24.5061 153.677C26.5774 151.515 29.144 150.435 32.2059 150.435C32.9264 150.435 33.6468 150.525 34.3673 150.705C35.0877 150.795 35.583 150.84 35.8532 150.84L37.6093 151.11V170.022C40.5811 169.121 43.1027 166.42 45.174 161.917C47.3354 157.324 48.6412 149.444 49.0915 138.277L51.7932 82.217L42.3372 79.5153V77.4891H111.906V79.5153L103.801 81.5416V115.313H112.581C127.53 115.313 138.247 117.744 144.731 122.607C151.215 127.38 154.457 134.405 154.457 143.68C154.457 152.956 151.215 160.026 144.731 164.889C138.247 169.662 127.53 172.048 112.581 172.048H73.4067V170.022L81.5117 167.996V80.8662H55.8457L53.144 138.277C52.4235 151.155 50.4423 160.341 47.2003 165.834C43.9583 171.328 39.8607 174.074 34.9076 174.074ZM112.581 168.671C118.255 168.671 122.803 166.555 126.225 162.322C129.737 157.999 131.493 151.785 131.493 143.68C131.493 135.575 129.737 129.407 126.225 125.174C122.803 120.851 118.255 118.69 112.581 118.69H103.801V168.671H112.581Z" fill="#26243E"/>
<path d="M63.3625 50.5874C61.4875 50.5874 60.0625 50.0999 59.0875 49.1249C58.1125 48.1499 57.625 46.7249 57.625 44.8499V43.4999C57.625 40.8299 58.0525 38.8874 58.9075 37.6724C59.7775 36.4424 61.0375 35.6849 62.6875 35.3999L67.8625 34.4999L68.2 33.3749H68.5375V35.3999C68.5375 36.0599 68.38 36.5699 68.065 36.9299C67.75 37.2899 67.27 37.5299 66.625 37.6499L61.45 38.5499C60.94 38.6399 60.4525 38.8874 59.9875 39.2924C59.5225 39.6824 59.14 40.2374 58.84 40.9574C58.555 41.6624 58.4125 42.5099 58.4125 43.4999C58.5625 42.9599 58.8625 42.4199 59.3125 41.8799C59.7775 41.3399 60.355 40.8974 61.045 40.5524C61.75 40.1924 62.5225 40.0124 63.3625 40.0124C65.2225 40.0124 66.64 40.4849 67.615 41.4299C68.605 42.3599 69.1 43.6499 69.1 45.2999C69.1 46.9499 68.605 48.2474 67.615 49.1924C66.64 50.1224 65.2225 50.5874 63.3625 50.5874ZM63.3625 50.1374C63.9025 50.1374 64.3525 49.7699 64.7125 49.0349C65.0875 48.2999 65.275 47.0549 65.275 45.2999C65.275 43.5449 65.0875 42.2999 64.7125 41.5649C64.3525 40.8299 63.9025 40.4624 63.3625 40.4624C62.8225 40.4624 62.365 40.8299 61.99 41.5649C61.63 42.2999 61.45 43.5449 61.45 45.2999C61.45 47.0549 61.63 48.2999 61.99 49.0349C62.365 49.7699 62.8225 50.1374 63.3625 50.1374ZM76.8537 50.5874C74.9937 50.5874 73.5312 50.0624 72.4662 49.0124C71.4162 47.9474 70.8912 46.4849 70.8912 44.6249C70.8912 42.7649 71.4162 41.3099 72.4662 40.2599C73.5312 39.1949 74.9937 38.6624 76.8537 38.6624C78.7137 38.6624 80.1687 39.1949 81.2187 40.2599C82.2837 41.3099 82.8162 42.7649 82.8162 44.6249C82.8162 46.4849 82.2837 47.9474 81.2187 49.0124C80.1687 50.0624 78.7137 50.5874 76.8537 50.5874ZM76.8537 50.1374C77.4537 50.1374 77.9562 49.7174 78.3612 48.8774C78.7812 48.0374 78.9912 46.6199 78.9912 44.6249C78.9912 42.6299 78.7812 41.2124 78.3612 40.3724C77.9562 39.5324 77.4537 39.1124 76.8537 39.1124C76.2537 39.1124 75.7437 39.5324 75.3237 40.3724C74.9187 41.2124 74.7162 42.6299 74.7162 44.6249C74.7162 46.6199 74.9187 48.0374 75.3237 48.8774C75.7437 49.7174 76.2537 50.1374 76.8537 50.1374ZM85.6366 50.5874C84.9616 50.5874 84.4366 50.4074 84.0616 50.0474C83.6866 49.6874 83.4991 49.1924 83.4991 48.5624C83.4991 48.0674 83.6641 47.6474 83.9941 47.3024C84.3391 46.9424 84.7366 46.7624 85.1866 46.7624C85.3066 46.7624 85.4266 46.7774 85.5466 46.8074C85.6666 46.8224 85.7491 46.8299 85.7941 46.8299L86.0866 46.8749V49.9124C86.4466 49.7474 86.7616 49.4174 87.0316 48.9224C87.3016 48.4274 87.4741 47.5949 87.5491 46.4249L87.9991 39.7874L86.4241 39.3374V38.9999H96.8866V39.3374L95.5366 39.6749V49.5749L96.8866 49.9124V50.2499H90.5866V49.9124L91.9366 49.5749V39.5624H88.6741L88.2241 46.4249C88.1341 47.8499 87.8491 48.8999 87.3691 49.5749C86.8891 50.2499 86.3116 50.5874 85.6366 50.5874ZM104.762 50.5874C102.842 50.5874 101.349 50.0624 100.284 49.0124C99.2191 47.9474 98.6866 46.4849 98.6866 44.6249C98.6866 43.4099 98.9191 42.3524 99.3841 41.4524C99.8491 40.5524 100.494 39.8624 101.319 39.3824C102.159 38.9024 103.119 38.6624 104.199 38.6624C105.279 38.6624 106.224 38.8649 107.034 39.2699C107.859 39.6749 108.489 40.2224 108.924 40.9124C109.374 41.5874 109.599 42.3374 109.599 43.1624C109.599 43.5374 109.562 43.8599 109.487 44.1299L109.374 44.5124C108.729 44.6474 108.032 44.7599 107.282 44.8499C105.707 45.0749 104.117 45.1874 102.512 45.1874C102.512 46.9274 102.752 48.1724 103.232 48.9224C103.712 49.6574 104.372 50.0249 105.212 50.0249C105.797 50.0249 106.337 49.8899 106.832 49.6199C107.342 49.3349 107.739 48.9674 108.024 48.5174C108.324 48.0524 108.474 47.5799 108.474 47.0999H109.037C109.037 47.6999 108.857 48.2699 108.497 48.8099C108.137 49.3499 107.634 49.7849 106.989 50.1149C106.344 50.4299 105.602 50.5874 104.762 50.5874ZM102.512 44.6249C103.472 44.6249 104.252 44.5874 104.852 44.5124C105.107 44.4974 105.377 44.4599 105.662 44.3999C105.677 44.3249 105.714 44.1599 105.774 43.9049C105.849 43.5299 105.887 43.1324 105.887 42.7124C105.887 41.4674 105.722 40.5599 105.392 39.9899C105.062 39.4049 104.664 39.1124 104.199 39.1124C103.074 39.1124 102.512 40.9499 102.512 44.6249ZM117.352 50.5874C115.432 50.5874 113.939 50.0624 112.874 49.0124C111.809 47.9474 111.277 46.4849 111.277 44.6249C111.277 43.4099 111.509 42.3524 111.974 41.4524C112.439 40.5524 113.084 39.8624 113.909 39.3824C114.749 38.9024 115.709 38.6624 116.789 38.6624C117.869 38.6624 118.814 38.8649 119.624 39.2699C120.449 39.6749 121.079 40.2224 121.514 40.9124C121.964 41.5874 122.189 42.3374 122.189 43.1624C122.189 43.5374 122.152 43.8599 122.077 44.1299L121.964 44.5124C121.319 44.6474 120.622 44.7599 119.872 44.8499C118.297 45.0749 116.707 45.1874 115.102 45.1874C115.102 46.9274 115.342 48.1724 115.822 48.9224C116.302 49.6574 116.962 50.0249 117.802 50.0249C118.387 50.0249 118.927 49.8899 119.422 49.6199C119.932 49.3349 120.329 48.9674 120.614 48.5174C120.914 48.0524 121.064 47.5799 121.064 47.0999H121.627C121.627 47.6999 121.447 48.2699 121.087 48.8099C120.727 49.3499 120.224 49.7849 119.579 50.1149C118.934 50.4299 118.192 50.5874 117.352 50.5874ZM115.102 44.6249C116.062 44.6249 116.842 44.5874 117.442 44.5124C117.697 44.4974 117.967 44.4599 118.252 44.3999C118.267 44.3249 118.304 44.1599 118.364 43.9049C118.439 43.5299 118.477 43.1324 118.477 42.7124C118.477 41.4674 118.312 40.5599 117.982 39.9899C117.652 39.4049 117.254 39.1124 116.789 39.1124C115.664 39.1124 115.102 40.9499 115.102 44.6249ZM130.848 50.2499V49.9124L132.423 49.4624V37.1099L130.061 38.7749L129.611 38.2124L133.706 34.4999H136.136V49.4624L137.711 49.9124V50.2499H130.848ZM145.71 50.5874C144.495 50.5874 143.392 50.2649 142.402 49.6199C141.412 48.9749 140.625 48.0374 140.04 46.8074C139.47 45.5624 139.185 44.0849 139.185 42.3749C139.185 40.6649 139.47 39.1949 140.04 37.9649C140.625 36.7199 141.412 35.7749 142.402 35.1299C143.392 34.4849 144.495 34.1624 145.71 34.1624C146.925 34.1624 148.027 34.4849 149.017 35.1299C150.007 35.7749 150.787 36.7199 151.357 37.9649C151.942 39.1949 152.235 40.6649 152.235 42.3749C152.235 44.0849 151.942 45.5624 151.357 46.8074C150.787 48.0374 150.007 48.9749 149.017 49.6199C148.027 50.2649 146.925 50.5874 145.71 50.5874ZM145.71 50.1374C147.435 50.1374 148.297 47.5499 148.297 42.3749C148.297 37.1999 147.435 34.6124 145.71 34.6124C143.985 34.6124 143.122 37.1999 143.122 42.3749C143.122 47.5499 143.985 50.1374 145.71 50.1374ZM161.464 50.5874C160.789 50.5874 160.264 50.4074 159.889 50.0474C159.514 49.6874 159.327 49.1924 159.327 48.5624C159.327 48.0674 159.492 47.6474 159.822 47.3024C160.167 46.9424 160.564 46.7624 161.014 46.7624C161.134 46.7624 161.254 46.7774 161.374 46.8074C161.494 46.8224 161.577 46.8299 161.622 46.8299L161.914 46.8749V49.9124C162.274 49.7474 162.589 49.4174 162.859 48.9224C163.129 48.4274 163.302 47.5949 163.377 46.4249L163.827 39.7874L162.252 39.3374V38.9999H172.714V39.3374L171.364 39.6749V49.5749L172.714 49.9124V50.2499H166.414V49.9124L167.764 49.5749V39.5624H164.502L164.052 46.4249C163.962 47.8499 163.677 48.8999 163.197 49.5749C162.717 50.2499 162.139 50.5874 161.464 50.5874ZM174.514 50.2499V49.9124L175.864 49.5749V39.6749L174.514 39.3374V38.9999H180.814V39.3374L179.464 39.6749V47.0999L183.064 40.9124V39.6749L181.714 39.3374V38.9999H188.014V39.3374L186.664 39.6749V49.5749L188.014 49.9124V50.2499H181.714V49.9124L183.064 49.5749V42.1499L179.464 48.3374V49.5749L180.814 49.9124V50.2499H174.514ZM189.807 49.9124L191.157 49.5749V39.6749L189.807 39.3374V38.9999H200.27V42.9374H199.595C199.31 42.6824 199.062 42.3899 198.852 42.0599C198.372 41.2499 198.132 40.4174 198.132 39.5624H194.757V49.5749L196.107 49.9124V50.2499H189.807V49.9124ZM205.686 50.5874C204.351 50.5874 203.324 50.3024 202.604 49.7324C201.884 49.1624 201.524 48.4349 201.524 47.5499C201.524 46.9649 201.651 46.3874 201.906 45.8174C202.011 45.5474 202.146 45.2999 202.311 45.0749C202.926 44.9249 203.594 44.7899 204.314 44.6699C205.934 44.3999 207.366 44.2349 208.611 44.1749V43.4999C208.611 41.8349 208.409 40.6874 208.004 40.0574C207.599 39.4274 206.976 39.1124 206.136 39.1124C205.821 39.1124 205.551 39.1499 205.326 39.2249L205.011 39.3374V42.7124L204.719 42.7799C204.479 42.8099 204.276 42.8249 204.111 42.8249C203.601 42.8249 203.189 42.6749 202.874 42.3749C202.574 42.0599 202.424 41.6474 202.424 41.1374C202.424 40.4474 202.769 39.8624 203.459 39.3824C204.164 38.9024 205.206 38.6624 206.586 38.6624C207.756 38.6624 208.761 38.8724 209.601 39.2924C210.456 39.6974 211.101 40.2674 211.536 41.0024C211.986 41.7224 212.211 42.5549 212.211 43.4999V49.5749L213.561 49.9124V50.2499H211.536C210.636 50.2499 209.939 49.9724 209.444 49.4174C209.234 49.1924 209.069 48.9074 208.949 48.5624C208.739 48.9374 208.491 49.2749 208.206 49.5749C207.531 50.2499 206.691 50.5874 205.686 50.5874ZM206.586 49.7999C207.141 49.7999 207.644 49.4999 208.094 48.8999C208.259 48.6749 208.431 48.3749 208.611 47.9999V44.7374C207.921 44.7374 207.261 44.7749 206.631 44.8499C206.166 44.9099 205.851 44.9474 205.686 44.9624C205.611 45.1274 205.536 45.3524 205.461 45.6374C205.311 46.2074 205.236 46.7699 205.236 47.3249C205.236 48.1649 205.364 48.7874 205.619 49.1924C205.874 49.5974 206.196 49.7999 206.586 49.7999ZM217.059 49.9124L218.409 49.5749V39.5624H216.722C216.722 40.3874 216.474 41.2199 215.979 42.0599C215.784 42.3749 215.544 42.6674 215.259 42.9374H214.584V38.9999H225.834V42.9374H225.159C224.874 42.6824 224.627 42.3899 224.417 42.0599C223.937 41.2499 223.697 40.4174 223.697 39.5624H222.009V49.5749L223.359 49.9124V50.2499H217.059V49.9124ZM229.768 55.0874C229.093 55.0874 228.568 54.9074 228.193 54.5474C227.818 54.1874 227.63 53.6924 227.63 53.0624C227.63 52.4924 227.78 52.0499 228.08 51.7349C228.395 51.4199 228.808 51.2624 229.318 51.2624C229.438 51.2624 229.558 51.2699 229.678 51.2849C229.798 51.3149 229.88 51.3299 229.925 51.3299L230.218 51.3749V54.4124C230.653 54.3374 231.035 54.0974 231.365 53.6924C231.695 53.2874 232.063 52.5899 232.468 51.5999L232.918 50.4749L227.068 39.6749L225.943 39.3374V38.9999H228.755C229.535 38.9999 230.15 39.1649 230.6 39.4949C231.065 39.8099 231.463 40.2824 231.793 40.9124L234.605 46.1099L236.968 40.0124L235.28 39.3374V38.9999H239.443V39.3374L237.643 40.0124L233.143 51.5999C232.663 52.8299 232.153 53.7149 231.613 54.2549C231.073 54.8099 230.458 55.0874 229.768 55.0874ZM239.658 54.4124L241.008 54.0749V39.6749L239.658 39.3374V38.9999H241.683C242.568 38.9999 243.265 39.2849 243.775 39.8549C243.97 40.0799 244.135 40.3574 244.27 40.6874C244.465 40.2974 244.713 39.9599 245.013 39.6749C245.688 38.9999 246.528 38.6624 247.533 38.6624C248.418 38.6624 249.205 38.8949 249.895 39.3599C250.585 39.8099 251.133 40.4849 251.538 41.3849C251.943 42.2699 252.145 43.3499 252.145 44.6249C252.145 46.5449 251.695 48.0224 250.795 49.0574C249.91 50.0774 248.71 50.5874 247.195 50.5874C246.475 50.5874 245.845 50.4374 245.305 50.1374C245.08 50.0324 244.848 49.8824 244.608 49.6874V54.0749L245.958 54.4124V54.7499H239.658V54.4124ZM246.295 49.9124C246.94 49.9124 247.435 49.5374 247.78 48.7874C248.14 48.0374 248.32 46.6499 248.32 44.6249C248.32 42.6899 248.155 41.3474 247.825 40.5974C247.51 39.8324 247.113 39.4499 246.633 39.4499C246.063 39.4499 245.553 39.7499 245.103 40.3499C244.908 40.6049 244.743 40.9049 244.608 41.2499V49.0124C244.818 49.2224 244.983 49.3724 245.103 49.4624C245.508 49.7624 245.905 49.9124 246.295 49.9124Z" fill="black"/>
</svg>
