<svg width="350" height="250" viewBox="0 0 350 250" fill="none" xmlns="http://www.w3.org/2000/svg">
<rect x="5.6875" y="5.31238" width="338.625" height="218.25" fill="#F8F8F8" stroke="#4F8A60" stroke-width="10.125"/>
<path d="M178.065 67.6722C178.065 90.5325 159.533 109.064 136.672 109.064C113.812 109.064 95.2802 90.5325 95.2802 67.6722C95.2802 44.8119 113.812 26.2799 136.672 26.2799C159.533 26.2799 178.065 44.8119 178.065 67.6722Z" fill="#E9B7AA" fill-opacity="0.3" stroke="#E9B7AA" stroke-width="2.56034"/>
<path d="M32.6681 195.424L45.4698 192.224V55.6723L32.6681 52.4719V49.2714H145.75V87.6766H139.349C136.647 85.543 134.3 82.8404 132.308 79.5688C127.756 71.8878 125.481 63.5667 125.481 54.6055H80.6746V111.146H92.4095C115.879 111.146 132.735 114.916 142.976 122.455C153.36 129.993 158.552 140.804 158.552 154.886C158.552 168.968 153.36 179.778 142.976 187.317C132.735 194.855 115.879 198.625 92.4095 198.625H32.6681V195.424ZM92.4095 193.291C101.371 193.291 108.554 190.019 113.959 183.476C119.506 176.791 122.28 167.261 122.28 154.886C122.28 142.511 119.506 133.052 113.959 126.508C108.554 119.823 101.371 116.48 92.4095 116.48H80.6746V193.291H92.4095Z" fill="#26243E"/>
<path d="M196.15 105.287L197.5 104.95V95.0499L196.15 94.7124V94.3749H201.888C203.193 94.3749 204.265 94.5099 205.105 94.7799C205.96 95.0499 206.575 95.4024 206.95 95.8374C207.325 96.2574 207.513 96.7074 207.513 97.1874C207.513 97.7874 207.318 98.2749 206.928 98.6499C206.553 99.0249 206.073 99.2949 205.488 99.4599C204.858 99.6549 204.183 99.7599 203.463 99.7749V99.8874C204.348 99.9024 205.135 100.015 205.825 100.225C206.515 100.45 207.078 100.75 207.513 101.125C207.963 101.485 208.188 101.972 208.188 102.587C208.188 103.472 207.723 104.2 206.793 104.77C205.878 105.34 204.393 105.625 202.338 105.625H196.15V105.287ZM201.888 99.5499C202.413 99.5499 202.863 99.3324 203.238 98.8974C203.613 98.4624 203.8 97.8924 203.8 97.1874C203.8 96.5274 203.613 95.9874 203.238 95.5674C202.863 95.1474 202.413 94.9374 201.888 94.9374H201.1V99.5499H201.888ZM202.338 105.062C202.983 105.062 203.5 104.845 203.89 104.41C204.28 103.975 204.475 103.367 204.475 102.587C204.475 101.807 204.28 101.2 203.89 100.765C203.5 100.33 202.983 100.112 202.338 100.112H201.1V105.062H202.338ZM209.773 105.287L211.123 104.95V95.0499L209.773 94.7124V94.3749H216.073V94.7124L214.723 95.0499V98.8749H215.848C219.748 98.8749 221.698 99.9999 221.698 102.25C221.698 104.5 219.748 105.625 215.848 105.625H209.773V105.287ZM222.148 105.625V105.287L223.498 104.95V95.0499L222.148 94.7124V94.3749H228.448V94.7124L227.098 95.0499V104.95L228.448 105.287V105.625H222.148ZM215.848 105.062C216.508 105.062 217.026 104.83 217.401 104.365C217.791 103.885 217.986 103.18 217.986 102.25C217.986 101.32 217.791 100.622 217.401 100.157C217.026 99.6774 216.508 99.4374 215.848 99.4374H214.723V105.062H215.848ZM230.252 105.625V105.287L231.602 104.95V95.0499L230.252 94.7124V94.3749H243.527V94.7124L242.177 95.0499V104.95L243.527 105.287V105.625H237.227V105.287L238.577 104.95V94.9374H235.202V104.95L236.552 105.287V105.625H230.252ZM247.8 110.462C247.125 110.462 246.6 110.282 246.225 109.922C245.85 109.562 245.662 109.067 245.662 108.437C245.662 107.867 245.812 107.425 246.112 107.11C246.427 106.795 246.84 106.637 247.35 106.637C247.47 106.637 247.59 106.645 247.71 106.66C247.83 106.69 247.912 106.705 247.957 106.705L248.25 106.75V109.787C248.685 109.712 249.067 109.472 249.397 109.067C249.727 108.662 250.095 107.965 250.5 106.975L250.95 105.85L245.1 95.0499L243.975 94.7124V94.3749H246.787C247.567 94.3749 248.182 94.5399 248.632 94.8699C249.097 95.1849 249.495 95.6574 249.825 96.2874L252.637 101.485L255 95.3874L253.312 94.7124V94.3749H257.475V94.7124L255.675 95.3874L251.175 106.975C250.695 108.205 250.185 109.09 249.645 109.63C249.105 110.185 248.49 110.462 247.8 110.462ZM257.915 105.287L259.265 104.95V95.0499L257.915 94.7124V94.3749H264.215V94.7124L262.865 95.0499V99.4374H263.653C264.088 99.4374 264.463 99.3024 264.778 99.0324C265.093 98.7474 265.318 98.3949 265.453 97.9749L266.015 95.9499C266.375 94.7499 267.05 94.1499 268.04 94.1499C268.715 94.1499 269.24 94.3299 269.615 94.6899C269.99 95.0499 270.178 95.5449 270.178 96.1749C270.178 96.7449 270.02 97.1874 269.705 97.5024C269.405 97.8174 269 97.9749 268.49 97.9749C268.28 97.9749 268.07 97.9599 267.86 97.9299L267.59 97.8624V94.8249C267.14 94.9449 266.84 95.3199 266.69 95.9499L266.128 97.9749C265.978 98.4999 265.73 98.9199 265.385 99.2349C265.265 99.3549 265.1 99.4599 264.89 99.5499H265.565C266.45 99.5499 267.14 99.7299 267.635 100.09C268.145 100.435 268.505 100.892 268.715 101.462L269.84 104.95L270.965 105.287V105.625H268.603C267.808 105.625 267.163 105.445 266.668 105.085C266.188 104.725 265.858 104.267 265.678 103.712L264.44 99.9999H262.865V104.95L264.215 105.287V105.625H257.915V105.287ZM272.99 105.962C272.315 105.962 271.79 105.782 271.415 105.422C271.04 105.062 270.853 104.567 270.853 103.937C270.853 103.442 271.018 103.022 271.348 102.677C271.693 102.317 272.09 102.137 272.54 102.137C272.66 102.137 272.78 102.152 272.9 102.182C273.02 102.197 273.103 102.205 273.148 102.205L273.44 102.25V105.287C273.8 105.122 274.115 104.792 274.385 104.297C274.655 103.802 274.828 102.97 274.903 101.8L275.353 95.1624L273.778 94.7124V94.3749H284.24V94.7124L282.89 95.0499V104.95L284.24 105.287V105.625H277.94V105.287L279.29 104.95V94.9374H276.028L275.578 101.8C275.488 103.225 275.203 104.275 274.723 104.95C274.243 105.625 273.665 105.962 272.99 105.962ZM286.04 105.287L287.39 104.95V95.0499L286.04 94.7124V94.3749H292.34V94.7124L290.99 95.0499V98.8749H292.115C296.015 98.8749 297.965 99.9999 297.965 102.25C297.965 104.5 296.015 105.625 292.115 105.625H286.04V105.287ZM298.415 105.625V105.287L299.765 104.95V95.0499L298.415 94.7124V94.3749H304.715V94.7124L303.365 95.0499V104.95L304.715 105.287V105.625H298.415ZM292.115 105.062C292.775 105.062 293.293 104.83 293.668 104.365C294.058 103.885 294.253 103.18 294.253 102.25C294.253 101.32 294.058 100.622 293.668 100.157C293.293 99.6774 292.775 99.4374 292.115 99.4374H290.99V105.062H292.115ZM312.594 105.962C310.674 105.962 309.181 105.437 308.116 104.387C307.051 103.322 306.519 101.86 306.519 99.9999C306.519 98.7849 306.751 97.7274 307.216 96.8274C307.681 95.9274 308.326 95.2374 309.151 94.7574C309.991 94.2774 310.951 94.0374 312.031 94.0374C313.111 94.0374 314.056 94.2399 314.866 94.6449C315.691 95.0499 316.321 95.5974 316.756 96.2874C317.206 96.9624 317.431 97.7124 317.431 98.5374C317.431 98.9124 317.394 99.2349 317.319 99.5049L317.206 99.8874C316.561 100.022 315.864 100.135 315.114 100.225C313.539 100.45 311.949 100.562 310.344 100.562C310.344 102.302 310.584 103.547 311.064 104.297C311.544 105.032 312.204 105.4 313.044 105.4C313.629 105.4 314.169 105.265 314.664 104.995C315.174 104.71 315.571 104.342 315.856 103.892C316.156 103.427 316.306 102.955 316.306 102.475H316.869C316.869 103.075 316.689 103.645 316.329 104.185C315.969 104.725 315.466 105.16 314.821 105.49C314.176 105.805 313.434 105.962 312.594 105.962ZM310.344 99.9999C311.304 99.9999 312.084 99.9624 312.684 99.8874C312.939 99.8724 313.209 99.8349 313.494 99.7749C313.509 99.6999 313.546 99.5349 313.606 99.2799C313.681 98.9049 313.719 98.5074 313.719 98.0874C313.719 96.8424 313.554 95.9349 313.224 95.3649C312.894 94.7799 312.496 94.4874 312.031 94.4874C310.906 94.4874 310.344 96.3249 310.344 99.9999ZM200.65 131.962C199.675 131.962 198.828 131.805 198.108 131.49C197.403 131.16 196.863 130.732 196.488 130.207C196.113 129.667 195.925 129.09 195.925 128.475H196.488C196.488 128.97 196.645 129.442 196.96 129.892C197.275 130.342 197.71 130.71 198.265 130.995C198.835 131.265 199.48 131.4 200.2 131.4C201.925 131.4 202.788 130.5 202.788 128.7C202.788 127.83 202.593 127.162 202.203 126.697C201.813 126.232 201.295 126 200.65 126H199.188V125.437H200.2C200.845 125.437 201.363 125.22 201.753 124.785C202.143 124.35 202.338 123.742 202.338 122.962C202.338 122.182 202.143 121.575 201.753 121.14C201.363 120.705 200.845 120.487 200.2 120.487C199.825 120.487 199.503 120.525 199.233 120.6L198.85 120.712V124.087L198.557 124.155C198.318 124.185 198.115 124.2 197.95 124.2C197.44 124.2 197.028 124.05 196.713 123.75C196.413 123.435 196.263 123.022 196.263 122.512C196.263 121.822 196.623 121.237 197.343 120.757C198.078 120.277 199.18 120.037 200.65 120.037C201.895 120.037 202.923 120.172 203.733 120.442C204.543 120.712 205.128 121.072 205.488 121.522C205.863 121.957 206.05 122.437 206.05 122.962C206.05 123.592 205.855 124.087 205.465 124.447C205.09 124.807 204.588 125.1 203.958 125.325C203.343 125.535 202.653 125.647 201.888 125.662V125.775C202.683 125.79 203.448 125.91 204.183 126.135C204.858 126.345 205.413 126.66 205.848 127.08C206.283 127.485 206.5 128.025 206.5 128.7C206.5 129.69 206.043 130.485 205.128 131.085C204.213 131.67 202.72 131.962 200.65 131.962ZM212.469 131.962C211.134 131.962 210.106 131.677 209.386 131.107C208.666 130.537 208.306 129.81 208.306 128.925C208.306 128.34 208.434 127.762 208.689 127.192C208.794 126.922 208.929 126.675 209.094 126.45C209.709 126.3 210.376 126.165 211.096 126.045C212.716 125.775 214.149 125.61 215.394 125.55V124.875C215.394 123.21 215.191 122.062 214.786 121.432C214.381 120.802 213.759 120.487 212.919 120.487C212.604 120.487 212.334 120.525 212.109 120.6L211.794 120.712V124.087L211.501 124.155C211.261 124.185 211.059 124.2 210.894 124.2C210.384 124.2 209.971 124.05 209.656 123.75C209.356 123.435 209.206 123.022 209.206 122.512C209.206 121.822 209.551 121.237 210.241 120.757C210.946 120.277 211.989 120.037 213.369 120.037C214.539 120.037 215.544 120.247 216.384 120.667C217.239 121.072 217.884 121.642 218.319 122.377C218.769 123.097 218.994 123.93 218.994 124.875V130.95L220.344 131.287V131.625H218.319C217.419 131.625 216.721 131.347 216.226 130.792C216.016 130.567 215.851 130.282 215.731 129.937C215.521 130.312 215.274 130.65 214.989 130.95C214.314 131.625 213.474 131.962 212.469 131.962ZM213.369 131.175C213.924 131.175 214.426 130.875 214.876 130.275C215.041 130.05 215.214 129.75 215.394 129.375V126.112C214.704 126.112 214.044 126.15 213.414 126.225C212.949 126.285 212.634 126.322 212.469 126.337C212.394 126.502 212.319 126.727 212.244 127.012C212.094 127.582 212.019 128.145 212.019 128.7C212.019 129.54 212.146 130.162 212.401 130.567C212.656 130.972 212.979 131.175 213.369 131.175ZM227.779 131.962C225.859 131.962 224.367 131.437 223.302 130.387C222.237 129.322 221.704 127.86 221.704 126C221.704 124.14 222.237 122.685 223.302 121.635C224.367 120.57 225.859 120.037 227.779 120.037C229.159 120.037 230.194 120.277 230.884 120.757C231.589 121.237 231.942 121.822 231.942 122.512C231.942 123.022 231.784 123.435 231.469 123.75C231.169 124.05 230.764 124.2 230.254 124.2C230.044 124.2 229.834 124.185 229.624 124.155L229.354 124.087V120.712L229.039 120.6C228.814 120.525 228.544 120.487 228.229 120.487C227.374 120.487 226.707 120.892 226.227 121.702C225.762 122.512 225.529 123.945 225.529 126C225.529 127.995 225.762 129.397 226.227 130.207C226.707 131.002 227.374 131.4 228.229 131.4C228.814 131.4 229.354 131.265 229.849 130.995C230.359 130.71 230.757 130.342 231.042 129.892C231.342 129.427 231.492 128.955 231.492 128.475H232.054C232.054 129.075 231.874 129.645 231.514 130.185C231.154 130.725 230.652 131.16 230.007 131.49C229.362 131.805 228.619 131.962 227.779 131.962ZM239.491 131.962C237.571 131.962 236.078 131.437 235.013 130.387C233.948 129.322 233.416 127.86 233.416 126C233.416 124.785 233.648 123.727 234.113 122.827C234.578 121.927 235.223 121.237 236.048 120.757C236.888 120.277 237.848 120.037 238.928 120.037C240.008 120.037 240.953 120.24 241.763 120.645C242.588 121.05 243.218 121.597 243.653 122.287C244.103 122.962 244.328 123.712 244.328 124.537C244.328 124.912 244.291 125.235 244.216 125.505L244.103 125.887C243.458 126.022 242.761 126.135 242.011 126.225C240.436 126.45 238.846 126.562 237.241 126.562C237.241 128.302 237.481 129.547 237.961 130.297C238.441 131.032 239.101 131.4 239.941 131.4C240.526 131.4 241.066 131.265 241.561 130.995C242.071 130.71 242.468 130.342 242.753 129.892C243.053 129.427 243.203 128.955 243.203 128.475H243.766C243.766 129.075 243.586 129.645 243.226 130.185C242.866 130.725 242.363 131.16 241.718 131.49C241.073 131.805 240.331 131.962 239.491 131.962ZM237.241 126C238.201 126 238.981 125.962 239.581 125.887C239.836 125.872 240.106 125.835 240.391 125.775C240.406 125.7 240.443 125.535 240.503 125.28C240.578 124.905 240.616 124.507 240.616 124.087C240.616 122.842 240.451 121.935 240.121 121.365C239.791 120.78 239.393 120.487 238.928 120.487C237.803 120.487 237.241 122.325 237.241 126ZM252.193 131.287L253.543 130.95V127.012C253.243 127.192 252.876 127.335 252.441 127.44C252.021 127.53 251.601 127.575 251.181 127.575C249.711 127.575 248.608 127.282 247.873 126.697C247.153 126.112 246.793 125.317 246.793 124.312V121.05L245.443 120.712V120.375H251.743V120.712L250.393 121.05V124.312C250.393 125.287 250.536 125.985 250.821 126.405C251.121 126.81 251.541 127.012 252.081 127.012C252.681 127.012 253.168 126.825 253.543 126.45V121.05L252.193 120.712V120.375H258.493V120.712L257.143 121.05V130.95L258.493 131.287V131.625H252.193V131.287ZM260.288 131.287L261.638 130.95V121.05L260.288 120.712V120.375H266.588V120.712L265.238 121.05V125.437H266.026C266.461 125.437 266.836 125.302 267.151 125.032C267.466 124.747 267.691 124.395 267.826 123.975L268.388 121.95C268.748 120.75 269.423 120.15 270.413 120.15C271.088 120.15 271.613 120.33 271.988 120.69C272.363 121.05 272.551 121.545 272.551 122.175C272.551 122.745 272.393 123.187 272.078 123.502C271.778 123.817 271.373 123.975 270.863 123.975C270.653 123.975 270.443 123.96 270.233 123.93L269.963 123.862V120.825C269.513 120.945 269.213 121.32 269.063 121.95L268.501 123.975C268.351 124.5 268.103 124.92 267.758 125.235C267.638 125.355 267.473 125.46 267.263 125.55H267.938C268.823 125.55 269.513 125.73 270.008 126.09C270.518 126.435 270.878 126.892 271.088 127.462L272.213 130.95L273.338 131.287V131.625H270.976C270.181 131.625 269.536 131.445 269.041 131.085C268.561 130.725 268.231 130.267 268.051 129.712L266.813 126H265.238V130.95L266.588 131.287V131.625H260.288V131.287ZM274.351 131.625V131.287L275.701 130.95V121.05L274.351 120.712V120.375H280.651V120.712L279.301 121.05V128.475L282.901 122.287V121.05L281.551 120.712V120.375H287.851V120.712L286.501 121.05V130.95L287.851 131.287V131.625H281.551V131.287L282.901 130.95V123.525L279.301 129.712V130.95L280.651 131.287V131.625H274.351Z" fill="#26243E"/>
</svg>
