<svg width="226" height="357" viewBox="0 0 226 357" fill="none" xmlns="http://www.w3.org/2000/svg">
<rect x="7" y="53.9999" width="211.5" height="295.875" fill="#F8F8F8" stroke="#4F8A60" stroke-width="13.5"/>
<path d="M49.525 262.875V262.537L50.875 262.2V252.3L49.525 251.962V251.625H55.825V251.962L54.475 252.3V259.725L58.075 253.537V252.3L56.725 251.962V251.625H63.025V251.962L61.675 252.3V262.2L63.025 262.537V262.875H56.725V262.537L58.075 262.2V254.775L54.475 260.962V262.2L55.825 262.537V262.875H49.525ZM69.318 263.212C68.343 263.212 67.4955 263.055 66.7755 262.74C66.0705 262.41 65.5305 261.982 65.1555 261.457C64.7805 260.917 64.593 260.34 64.593 259.725H65.1555C65.1555 260.22 65.313 260.692 65.628 261.142C65.943 261.592 66.378 261.96 66.933 262.245C67.503 262.515 68.148 262.65 68.868 262.65C70.593 262.65 71.4555 261.75 71.4555 259.95C71.4555 259.08 71.2605 258.412 70.8705 257.947C70.4805 257.482 69.963 257.25 69.318 257.25H67.8555V256.687H68.868C69.513 256.687 70.0305 256.47 70.4205 256.035C70.8105 255.6 71.0055 254.992 71.0055 254.212C71.0055 253.432 70.8105 252.825 70.4205 252.39C70.0305 251.955 69.513 251.737 68.868 251.737C68.493 251.737 68.1705 251.775 67.9005 251.85L67.518 251.962V255.337L67.2255 255.405C66.9855 255.435 66.783 255.45 66.618 255.45C66.108 255.45 65.6955 255.3 65.3805 255C65.0805 254.685 64.9305 254.272 64.9305 253.762C64.9305 253.072 65.2905 252.487 66.0105 252.007C66.7455 251.527 67.848 251.287 69.318 251.287C70.563 251.287 71.5905 251.422 72.4005 251.692C73.2105 251.962 73.7955 252.322 74.1555 252.772C74.5305 253.207 74.718 253.687 74.718 254.212C74.718 254.842 74.523 255.337 74.133 255.697C73.758 256.057 73.2555 256.35 72.6255 256.575C72.0105 256.785 71.3205 256.897 70.5555 256.912V257.025C71.3505 257.04 72.1155 257.16 72.8505 257.385C73.5255 257.595 74.0805 257.91 74.5155 258.33C74.9505 258.735 75.168 259.275 75.168 259.95C75.168 260.94 74.7105 261.735 73.7955 262.335C72.8805 262.92 71.388 263.212 69.318 263.212ZM75.9616 262.537L77.0866 262.2L77.9866 259.5C78.2266 258.78 78.8641 258.255 79.8991 257.925C80.3191 257.805 80.8066 257.73 81.3616 257.7V257.587C80.6716 257.572 79.9966 257.452 79.3366 257.227C77.9866 256.747 77.3116 255.93 77.3116 254.775C77.3116 253.845 77.7691 253.087 78.6841 252.502C79.6141 251.917 81.1066 251.625 83.1616 251.625H89.1241V251.962L87.7741 252.3V262.2L89.1241 262.537V262.875H82.8241V262.537L84.1741 262.2V257.925H82.3741L81.3616 261.075C81.1966 261.57 80.8741 261.997 80.3941 262.357C79.9291 262.702 79.3516 262.875 78.6616 262.875H75.9616V262.537ZM84.1741 257.362V252.187H83.1616C82.5166 252.187 81.9991 252.412 81.6091 252.862C81.2191 253.297 81.0241 253.935 81.0241 254.775C81.0241 255.615 81.2191 256.26 81.6091 256.71C81.9991 257.145 82.5166 257.362 83.1616 257.362H84.1741ZM110.271 266.587C109.881 266.332 109.559 266.025 109.304 265.665C108.674 264.855 108.359 263.925 108.359 262.875H90.9215V262.537L92.2715 262.2V252.3L90.9215 251.962V251.625H97.109V251.962L95.8715 252.3V262.312H98.7965V252.3L97.559 251.962V251.625H103.634V251.962L102.396 252.3V262.312H105.321V252.3L104.084 251.962V251.625H110.271V251.962L108.921 252.3V262.312H110.946V266.587H110.271ZM112.191 262.875V262.537L113.541 262.2V252.3L112.191 251.962V251.625H118.491V251.962L117.141 252.3V256.912H120.516V252.3L119.166 251.962V251.625H125.466V251.962L124.116 252.3V262.2L125.466 262.537V262.875H119.166V262.537L120.516 262.2V257.475H117.141V262.2L118.491 262.537V262.875H112.191ZM127.264 262.537L128.614 262.2V252.3L127.264 251.962V251.625H133.564V251.962L132.214 252.3V256.125H133.339C137.239 256.125 139.189 257.25 139.189 259.5C139.189 261.75 137.239 262.875 133.339 262.875H127.264V262.537ZM139.639 262.875V262.537L140.989 262.2V252.3L139.639 251.962V251.625H145.939V251.962L144.589 252.3V262.2L145.939 262.537V262.875H139.639ZM133.339 262.312C133.999 262.312 134.517 262.08 134.892 261.615C135.282 261.135 135.477 260.43 135.477 259.5C135.477 258.57 135.282 257.872 134.892 257.407C134.517 256.927 133.999 256.687 133.339 256.687H132.214V262.312H133.339ZM153.818 263.212C151.898 263.212 150.405 262.687 149.34 261.637C148.275 260.572 147.743 259.11 147.743 257.25C147.743 256.035 147.975 254.977 148.44 254.077C148.905 253.177 149.55 252.487 150.375 252.007C151.215 251.527 152.175 251.287 153.255 251.287C154.335 251.287 155.28 251.49 156.09 251.895C156.915 252.3 157.545 252.847 157.98 253.537C158.43 254.212 158.655 254.962 158.655 255.787C158.655 256.162 158.618 256.485 158.543 256.755L158.43 257.137C157.785 257.272 157.088 257.385 156.338 257.475C154.763 257.7 153.173 257.812 151.568 257.812C151.568 259.552 151.808 260.797 152.288 261.547C152.768 262.282 153.428 262.65 154.268 262.65C154.853 262.65 155.393 262.515 155.888 262.245C156.398 261.96 156.795 261.592 157.08 261.142C157.38 260.677 157.53 260.205 157.53 259.725H158.093C158.093 260.325 157.913 260.895 157.553 261.435C157.193 261.975 156.69 262.41 156.045 262.74C155.4 263.055 154.658 263.212 153.818 263.212ZM151.568 257.25C152.528 257.25 153.308 257.212 153.908 257.137C154.163 257.122 154.433 257.085 154.718 257.025C154.733 256.95 154.77 256.785 154.83 256.53C154.905 256.155 154.943 255.757 154.943 255.337C154.943 254.092 154.778 253.185 154.448 252.615C154.118 252.03 153.72 251.737 153.255 251.737C152.13 251.737 151.568 253.575 151.568 257.25ZM49.525 288.537L50.875 288.2V278.3L49.525 277.962V277.625H55.2625C56.5675 277.625 57.64 277.76 58.48 278.03C59.335 278.3 59.95 278.652 60.325 279.087C60.7 279.507 60.8875 279.957 60.8875 280.437C60.8875 281.037 60.6925 281.525 60.3025 281.9C59.9275 282.275 59.4475 282.545 58.8625 282.71C58.2325 282.905 57.5575 283.01 56.8375 283.025V283.137C57.7225 283.152 58.51 283.265 59.2 283.475C59.89 283.7 60.4525 284 60.8875 284.375C61.3375 284.735 61.5625 285.222 61.5625 285.837C61.5625 286.722 61.0975 287.45 60.1675 288.02C59.2525 288.59 57.7675 288.875 55.7125 288.875H49.525V288.537ZM55.2625 282.8C55.7875 282.8 56.2375 282.582 56.6125 282.147C56.9875 281.712 57.175 281.142 57.175 280.437C57.175 279.777 56.9875 279.237 56.6125 278.817C56.2375 278.397 55.7875 278.187 55.2625 278.187H54.475V282.8H55.2625ZM55.7125 288.312C56.3575 288.312 56.875 288.095 57.265 287.66C57.655 287.225 57.85 286.617 57.85 285.837C57.85 285.057 57.655 284.45 57.265 284.015C56.875 283.58 56.3575 283.362 55.7125 283.362H54.475V288.312H55.7125ZM63.148 288.537L64.498 288.2V278.3L63.148 277.962V277.625H69.448V277.962L68.098 278.3V282.125H69.223C73.123 282.125 75.073 283.25 75.073 285.5C75.073 287.75 73.123 288.875 69.223 288.875H63.148V288.537ZM75.523 288.875V288.537L76.873 288.2V278.3L75.523 277.962V277.625H81.823V277.962L80.473 278.3V288.2L81.823 288.537V288.875H75.523ZM69.223 288.312C69.883 288.312 70.4005 288.08 70.7755 287.615C71.1655 287.135 71.3605 286.43 71.3605 285.5C71.3605 284.57 71.1655 283.872 70.7755 283.407C70.4005 282.927 69.883 282.687 69.223 282.687H68.098V288.312H69.223ZM83.6266 288.875V288.537L84.9766 288.2V278.3L83.6266 277.962V277.625H89.9266V277.962L88.5766 278.3V282.912H91.9516V278.3L90.6016 277.962V277.625H96.9016V277.962L95.5516 278.3V288.2L96.9016 288.537V288.875H90.6016V288.537L91.9516 288.2V283.475H88.5766V288.2L89.9266 288.537V288.875H83.6266ZM104.662 289.212C102.802 289.212 101.34 288.687 100.275 287.637C99.2248 286.572 98.6998 285.11 98.6998 283.25C98.6998 281.39 99.2248 279.935 100.275 278.885C101.34 277.82 102.802 277.287 104.662 277.287C106.522 277.287 107.977 277.82 109.027 278.885C110.092 279.935 110.625 281.39 110.625 283.25C110.625 285.11 110.092 286.572 109.027 287.637C107.977 288.687 106.522 289.212 104.662 289.212ZM104.662 288.762C105.262 288.762 105.765 288.342 106.17 287.502C106.59 286.662 106.8 285.245 106.8 283.25C106.8 281.255 106.59 279.837 106.17 278.997C105.765 278.157 105.262 277.737 104.662 277.737C104.062 277.737 103.552 278.157 103.132 278.997C102.727 279.837 102.525 281.255 102.525 283.25C102.525 285.245 102.727 286.662 103.132 287.502C103.552 288.342 104.062 288.762 104.662 288.762ZM118.508 289.212C116.588 289.212 115.095 288.687 114.03 287.637C112.965 286.572 112.433 285.11 112.433 283.25C112.433 281.39 112.965 279.935 114.03 278.885C115.095 277.82 116.588 277.287 118.508 277.287C119.888 277.287 120.923 277.527 121.613 278.007C122.318 278.487 122.67 279.072 122.67 279.762C122.67 280.272 122.513 280.685 122.198 281C121.898 281.3 121.493 281.45 120.983 281.45C120.773 281.45 120.563 281.435 120.353 281.405L120.083 281.337V277.962L119.768 277.85C119.543 277.775 119.273 277.737 118.958 277.737C118.103 277.737 117.435 278.142 116.955 278.952C116.49 279.762 116.258 281.195 116.258 283.25C116.258 285.245 116.49 286.647 116.955 287.457C117.435 288.252 118.103 288.65 118.958 288.65C119.543 288.65 120.083 288.515 120.578 288.245C121.088 287.96 121.485 287.592 121.77 287.142C122.07 286.677 122.22 286.205 122.22 285.725H122.783C122.783 286.325 122.603 286.895 122.243 287.435C121.883 287.975 121.38 288.41 120.735 288.74C120.09 289.055 119.348 289.212 118.508 289.212ZM124.364 288.875V288.537L125.714 288.2V278.3L124.364 277.962V277.625H130.664V277.962L129.314 278.3V282.912H132.689V278.3L131.339 277.962V277.625H137.639V277.962L136.289 278.3V288.2L137.639 288.537V288.875H131.339V288.537L132.689 288.2V283.475H129.314V288.2L130.664 288.537V288.875H124.364ZM139.437 288.537L140.787 288.2V278.3L139.437 277.962V277.625H145.737V277.962L144.387 278.3V282.125H145.512C149.412 282.125 151.362 283.25 151.362 285.5C151.362 287.75 149.412 288.875 145.512 288.875H139.437V288.537ZM151.812 288.875V288.537L153.162 288.2V278.3L151.812 277.962V277.625H158.112V277.962L156.762 278.3V288.2L158.112 288.537V288.875H151.812ZM145.512 288.312C146.172 288.312 146.69 288.08 147.065 287.615C147.455 287.135 147.65 286.43 147.65 285.5C147.65 284.57 147.455 283.872 147.065 283.407C146.69 282.927 146.172 282.687 145.512 282.687H144.387V288.312H145.512ZM165.991 289.212C164.071 289.212 162.578 288.687 161.513 287.637C160.448 286.572 159.916 285.11 159.916 283.25C159.916 282.035 160.148 280.977 160.613 280.077C161.078 279.177 161.723 278.487 162.548 278.007C163.388 277.527 164.348 277.287 165.428 277.287C166.508 277.287 167.453 277.49 168.263 277.895C169.088 278.3 169.718 278.847 170.153 279.537C170.603 280.212 170.828 280.962 170.828 281.787C170.828 282.162 170.791 282.485 170.716 282.755L170.603 283.137C169.958 283.272 169.261 283.385 168.511 283.475C166.936 283.7 165.346 283.812 163.741 283.812C163.741 285.552 163.981 286.797 164.461 287.547C164.941 288.282 165.601 288.65 166.441 288.65C167.026 288.65 167.566 288.515 168.061 288.245C168.571 287.96 168.968 287.592 169.253 287.142C169.553 286.677 169.703 286.205 169.703 285.725H170.266C170.266 286.325 170.086 286.895 169.726 287.435C169.366 287.975 168.863 288.41 168.218 288.74C167.573 289.055 166.831 289.212 165.991 289.212ZM163.741 283.25C164.701 283.25 165.481 283.212 166.081 283.137C166.336 283.122 166.606 283.085 166.891 283.025C166.906 282.95 166.943 282.785 167.003 282.53C167.078 282.155 167.116 281.757 167.116 281.337C167.116 280.092 166.951 279.185 166.621 278.615C166.291 278.03 165.893 277.737 165.428 277.737C164.303 277.737 163.741 279.575 163.741 283.25ZM53.575 315.212C52.735 315.212 51.9925 315.055 51.3475 314.74C50.7025 314.41 50.2 313.975 49.84 313.435C49.48 312.895 49.3 312.325 49.3 311.725H49.8625C49.8625 312.205 50.005 312.677 50.29 313.142C50.59 313.592 50.9875 313.96 51.4825 314.245C51.9925 314.515 52.54 314.65 53.125 314.65C53.935 314.65 54.5725 314.29 55.0375 313.57C55.5025 312.835 55.765 311.545 55.825 309.7H54.1375C54.0475 310.03 53.8675 310.427 53.5975 310.892C53.5225 311.012 53.455 311.11 53.395 311.185C53.335 311.26 53.2825 311.327 53.2375 311.387H52.675V307.45H53.2375L53.5975 307.967C53.8825 308.432 54.0625 308.822 54.1375 309.137H55.825C55.825 307.142 55.585 305.747 55.105 304.952C54.64 304.142 53.98 303.737 53.125 303.737C52.81 303.737 52.54 303.775 52.315 303.85L52 303.962V307.337L51.7075 307.405C51.4675 307.435 51.265 307.45 51.1 307.45C50.59 307.45 50.1775 307.3 49.8625 307C49.5625 306.685 49.4125 306.272 49.4125 305.762C49.4125 305.072 49.7575 304.487 50.4475 304.007C51.1525 303.527 52.195 303.287 53.575 303.287C55.48 303.287 56.965 303.82 58.03 304.885C59.11 305.935 59.65 307.39 59.65 309.25C59.65 311.11 59.11 312.572 58.03 313.637C56.965 314.687 55.48 315.212 53.575 315.212ZM62.4687 315.212C61.7937 315.212 61.2687 315.032 60.8937 314.672C60.5187 314.312 60.3312 313.817 60.3312 313.187C60.3312 312.692 60.4962 312.272 60.8262 311.927C61.1712 311.567 61.5687 311.387 62.0187 311.387C62.1387 311.387 62.2587 311.402 62.3787 311.432C62.4987 311.447 62.5812 311.455 62.6262 311.455L62.9187 311.5V314.537C63.2787 314.372 63.5937 314.042 63.8637 313.547C64.1337 313.052 64.3062 312.22 64.3812 311.05L64.8312 304.412L63.2562 303.962V303.625H73.7187V303.962L72.3687 304.3V314.2L73.7187 314.537V314.875H67.4187V314.537L68.7687 314.2V304.187H65.5062L65.0562 311.05C64.9662 312.475 64.6812 313.525 64.2012 314.2C63.7212 314.875 63.1437 315.212 62.4687 315.212ZM81.5937 315.212C79.6737 315.212 78.1812 314.687 77.1162 313.637C76.0512 312.572 75.5187 311.11 75.5187 309.25C75.5187 308.035 75.7512 306.977 76.2162 306.077C76.6812 305.177 77.3262 304.487 78.1512 304.007C78.9912 303.527 79.9512 303.287 81.0312 303.287C82.1112 303.287 83.0562 303.49 83.8662 303.895C84.6912 304.3 85.3212 304.847 85.7562 305.537C86.2062 306.212 86.4312 306.962 86.4312 307.787C86.4312 308.162 86.3937 308.485 86.3187 308.755L86.2062 309.137C85.5612 309.272 84.8637 309.385 84.1137 309.475C82.5387 309.7 80.9487 309.812 79.3437 309.812C79.3437 311.552 79.5837 312.797 80.0637 313.547C80.5437 314.282 81.2037 314.65 82.0437 314.65C82.6287 314.65 83.1687 314.515 83.6637 314.245C84.1737 313.96 84.5712 313.592 84.8562 313.142C85.1562 312.677 85.3062 312.205 85.3062 311.725H85.8687C85.8687 312.325 85.6887 312.895 85.3287 313.435C84.9687 313.975 84.4662 314.41 83.8212 314.74C83.1762 315.055 82.4337 315.212 81.5937 315.212ZM79.3437 309.25C80.3037 309.25 81.0837 309.212 81.6837 309.137C81.9387 309.122 82.2087 309.085 82.4937 309.025C82.5087 308.95 82.5462 308.785 82.6062 308.53C82.6812 308.155 82.7187 307.757 82.7187 307.337C82.7187 306.092 82.5537 305.185 82.2237 304.615C81.8937 304.03 81.4962 303.737 81.0312 303.737C79.9062 303.737 79.3437 305.575 79.3437 309.25ZM90.134 306.325V313.862L91.934 314.537V314.875H87.659V314.537L89.459 313.862V304.3L87.884 303.962V303.625H90.9215C91.6565 303.625 92.249 303.782 92.699 304.097C93.149 304.412 93.5315 304.855 93.8465 305.425L96.9065 310.847L99.359 305.425C99.644 304.825 100.004 304.375 100.439 304.075C100.874 303.775 101.489 303.625 102.284 303.625H104.534V303.962L103.184 304.3V314.2L104.534 314.537V314.875H98.234V314.537L99.584 314.2V306.325L95.624 315.1H95.084L90.134 306.325ZM112.399 315.212C110.479 315.212 108.987 314.687 107.922 313.637C106.857 312.572 106.324 311.11 106.324 309.25C106.324 308.035 106.557 306.977 107.022 306.077C107.487 305.177 108.132 304.487 108.957 304.007C109.797 303.527 110.757 303.287 111.837 303.287C112.917 303.287 113.862 303.49 114.672 303.895C115.497 304.3 116.127 304.847 116.562 305.537C117.012 306.212 117.237 306.962 117.237 307.787C117.237 308.162 117.199 308.485 117.124 308.755L117.012 309.137C116.367 309.272 115.669 309.385 114.919 309.475C113.344 309.7 111.754 309.812 110.149 309.812C110.149 311.552 110.389 312.797 110.869 313.547C111.349 314.282 112.009 314.65 112.849 314.65C113.434 314.65 113.974 314.515 114.469 314.245C114.979 313.96 115.377 313.592 115.662 313.142C115.962 312.677 116.112 312.205 116.112 311.725H116.674C116.674 312.325 116.494 312.895 116.134 313.435C115.774 313.975 115.272 314.41 114.627 314.74C113.982 315.055 113.239 315.212 112.399 315.212ZM110.149 309.25C111.109 309.25 111.889 309.212 112.489 309.137C112.744 309.122 113.014 309.085 113.299 309.025C113.314 308.95 113.352 308.785 113.412 308.53C113.487 308.155 113.524 307.757 113.524 307.337C113.524 306.092 113.359 305.185 113.029 304.615C112.699 304.03 112.302 303.737 111.837 303.737C110.712 303.737 110.149 305.575 110.149 309.25ZM118.915 314.875V314.537L120.265 314.2V304.3L118.915 303.962V303.625H125.215V303.962L123.865 304.3V308.912H127.24V304.3L125.89 303.962V303.625H132.19V303.962L130.84 304.3V314.2L132.19 314.537V314.875H125.89V314.537L127.24 314.2V309.475H123.865V314.2L125.215 314.537V314.875H118.915ZM136.125 314.537L137.475 314.2V304.187H135.788C135.788 305.012 135.54 305.845 135.045 306.685C134.85 307 134.61 307.292 134.325 307.562H133.65V303.625H144.9V307.562H144.225C143.94 307.307 143.693 307.015 143.483 306.685C143.003 305.875 142.763 305.042 142.763 304.187H141.075V314.2L142.425 314.537V314.875H136.125V314.537ZM146.358 314.537L147.708 314.2V304.3L146.358 303.962V303.625H152.658V303.962L151.308 304.3V308.125H152.433C156.333 308.125 158.283 309.25 158.283 311.5C158.283 313.75 156.333 314.875 152.433 314.875H146.358V314.537ZM158.733 314.875V314.537L160.083 314.2V304.3L158.733 303.962V303.625H165.033V303.962L163.683 304.3V314.2L165.033 314.537V314.875H158.733ZM152.433 314.312C153.093 314.312 153.611 314.08 153.986 313.615C154.376 313.135 154.571 312.43 154.571 311.5C154.571 310.57 154.376 309.872 153.986 309.407C153.611 308.927 153.093 308.687 152.433 308.687H151.308V314.312H152.433Z" fill="#26243E"/>
<path d="M121.971 173.16C121.971 195.247 104.066 213.152 81.9787 213.152C59.8918 213.152 41.9869 195.247 41.9869 173.16C41.9869 151.073 59.8918 133.169 81.9787 133.169C104.066 133.169 121.971 151.073 121.971 173.16Z" fill="#E9B7AA" fill-opacity="0.3" stroke="#E9B7AA" stroke-width="2.47372"/>
<path d="M117.23 233.321C104.999 233.321 95.0355 232.221 87.3395 230.022C79.6434 227.824 74.0776 225.006 70.6418 221.571C67.3435 218.135 65.6944 214.493 65.6944 210.645C65.6944 205.972 67.0687 202.193 69.8173 199.307C72.7033 196.558 76.4826 195.184 81.1552 195.184C82.2546 195.184 84.2473 195.39 87.1333 195.803L89.4009 196.215V225.075C91.05 225.625 93.6612 226.312 97.2343 227.136C103.556 228.511 109.534 229.198 115.169 229.198C131.935 229.198 144.166 226.793 151.862 221.983C159.696 217.31 163.613 211.47 163.613 204.461C163.613 195.528 155.367 191.061 138.875 191.061H99.7081C89.4009 191.061 81.4987 188.931 76.0016 184.671C70.5044 180.411 67.7558 174.982 67.7558 168.386C67.7558 161.789 70.9854 155.948 77.4446 150.863C80.0557 148.939 83.354 147.221 87.3395 145.71C82.2546 142.549 78.544 138.838 76.2077 134.578C74.0088 130.18 72.9094 124.958 72.9094 118.911C72.9094 108.741 76.7574 100.564 84.4534 94.38C92.1495 88.0583 103.419 84.8974 118.261 84.8974C124.72 84.8974 130.63 85.5846 135.989 86.9588C141.486 88.1957 145.884 89.9136 149.182 92.1124C150.282 89.7761 151.725 87.7147 153.512 85.9281C157.634 81.8053 162.719 79.7438 168.766 79.7438C173.439 79.7438 177.355 81.393 180.516 84.6913C183.677 87.8521 185.258 92.0437 185.258 97.266C185.258 101.251 184.158 104.481 181.959 106.955C179.898 109.428 177.218 110.665 173.92 110.665C172.408 110.665 170.69 110.528 168.766 110.253L166.705 109.635V84.8974C163.132 84.8974 159.765 86.6153 156.604 90.051C155.367 91.2879 154.267 93.0057 153.305 95.2046C160.177 101.251 163.613 109.154 163.613 118.911C163.613 129.081 159.765 137.327 152.069 143.648C144.372 149.833 133.103 152.925 118.261 152.925C108.366 152.925 99.4332 151.207 91.4623 147.771L87.3395 149.833C85.9652 150.657 84.9344 151.482 84.2473 152.306C83.5602 152.993 83.2166 153.887 83.2166 154.986C83.2166 157.322 84.3847 159.109 86.721 160.346C89.1947 161.583 93.5238 162.201 99.7081 162.201H138.875C149.183 162.201 157.222 165.225 162.994 171.272C168.904 177.181 171.858 185.495 171.858 196.215C171.858 207.209 167.254 216.142 158.047 223.014C148.976 229.885 135.371 233.321 117.23 233.321ZM118.261 148.802C122.796 148.802 126.301 146.603 128.774 142.205C131.385 137.808 132.691 130.043 132.691 118.911C132.691 107.779 131.385 100.015 128.774 95.6169C126.301 91.2192 122.796 89.0203 118.261 89.0203C113.726 89.0203 110.153 91.2192 107.542 95.6169C105.068 100.015 103.831 107.779 103.831 118.911C103.831 130.043 105.068 137.808 107.542 142.205C110.153 146.603 113.726 148.802 118.261 148.802Z" fill="#26243E"/>
</svg>
