<svg width="369" height="547" viewBox="0 0 369 547" fill="none" xmlns="http://www.w3.org/2000/svg">
<rect x="8.6875" y="9.06232" width="351" height="528.75" fill="#C4D8CB" stroke="#26243E" stroke-width="16.875"/>
<path d="M291.062 266.125C291.062 296.259 266.634 320.687 236.5 320.687C206.366 320.687 181.938 296.259 181.938 266.125C181.938 235.991 206.366 211.562 236.5 211.562C266.634 211.562 291.062 235.991 291.062 266.125Z" fill="#E9B7AA" fill-opacity="0.3" stroke="#E9B7AA" stroke-width="3.375"/>
<path d="M143.406 288.281L160.281 284.062V268.594C139.844 267.656 122.312 263.719 107.687 256.781C93.0624 249.656 81.9999 240.469 74.4999 229.219C66.9999 217.781 63.2499 205.125 63.2499 191.25C63.2499 177.375 66.9999 164.812 74.4999 153.562C81.9999 142.125 93.0624 132.937 107.687 126C122.312 118.875 139.844 114.844 160.281 113.906V99.8437L143.406 95.6249V91.4062H223.562V95.6249L206.687 99.8437V113.906C227.125 114.844 244.656 118.875 259.281 126C273.906 132.937 284.969 142.125 292.469 153.562C299.969 164.812 303.719 177.375 303.719 191.25C303.719 205.125 299.969 217.781 292.469 229.219C284.969 240.469 273.906 249.656 259.281 256.781C244.656 263.719 227.125 267.656 206.687 268.594V284.062L223.562 288.281V292.5H143.406V288.281ZM160.281 119.531C146.594 121.219 135.156 128.156 125.969 140.344C116.969 152.344 112.469 169.312 112.469 191.25C112.469 213.187 116.969 230.25 125.969 242.437C135.156 254.437 146.594 261.281 160.281 262.969V119.531ZM206.687 262.969C220.375 261.281 231.719 254.437 240.719 242.437C249.906 230.25 254.5 213.187 254.5 191.25C254.5 169.312 249.906 152.344 240.719 140.344C231.719 128.156 220.375 121.219 206.687 119.531V262.969Z" fill="#26243E"/>
<path d="M183.625 52.3749V333.625" stroke="#E9B7AA" stroke-width="5.625"/>
<path d="M42.9999 193H324.25" stroke="#E9B7AA" stroke-width="5.625"/>
<path d="M42.55 388.825V396.362L44.35 397.037V397.375H40.075V397.037L41.875 396.362V386.8L40.3 386.462V386.125H43.3375C44.0725 386.125 44.665 386.282 45.115 386.597C45.565 386.912 45.9475 387.355 46.2625 387.925L49.3225 393.347L51.775 387.925C52.06 387.325 52.42 386.875 52.855 386.575C53.29 386.275 53.905 386.125 54.7 386.125H56.95V386.462L55.6 386.8V396.7L56.95 397.037V397.375H50.65V397.037L52 396.7V388.825L48.04 397.6H47.5L42.55 388.825ZM63.1278 397.712C61.7928 397.712 60.7653 397.427 60.0453 396.857C59.3253 396.287 58.9653 395.56 58.9653 394.675C58.9653 394.09 59.0928 393.512 59.3478 392.942C59.4528 392.672 59.5878 392.425 59.7528 392.2C60.3678 392.05 61.0353 391.915 61.7553 391.795C63.3753 391.525 64.8078 391.36 66.0528 391.3V390.625C66.0528 388.96 65.8503 387.812 65.4453 387.182C65.0403 386.552 64.4178 386.237 63.5778 386.237C63.2628 386.237 62.9928 386.275 62.7678 386.35L62.4528 386.462V389.837L62.1603 389.905C61.9203 389.935 61.7178 389.95 61.5528 389.95C61.0428 389.95 60.6303 389.8 60.3153 389.5C60.0153 389.185 59.8653 388.772 59.8653 388.262C59.8653 387.572 60.2103 386.987 60.9003 386.507C61.6053 386.027 62.6478 385.787 64.0278 385.787C65.1978 385.787 66.2028 385.997 67.0428 386.417C67.8978 386.822 68.5428 387.392 68.9778 388.127C69.4278 388.847 69.6528 389.68 69.6528 390.625V396.7L71.0028 397.037V397.375H68.9778C68.0778 397.375 67.3803 397.097 66.8853 396.542C66.6753 396.317 66.5103 396.032 66.3903 395.687C66.1803 396.062 65.9328 396.4 65.6478 396.7C64.9728 397.375 64.1328 397.712 63.1278 397.712ZM64.0278 396.925C64.5828 396.925 65.0853 396.625 65.5353 396.025C65.7003 395.8 65.8728 395.5 66.0528 395.125V391.862C65.3628 391.862 64.7028 391.9 64.0728 391.975C63.6078 392.035 63.2928 392.072 63.1278 392.087C63.0528 392.252 62.9778 392.477 62.9028 392.762C62.7528 393.332 62.6778 393.895 62.6778 394.45C62.6778 395.29 62.8053 395.912 63.0603 396.317C63.3153 396.722 63.6378 396.925 64.0278 396.925ZM72.3634 397.037L73.7134 396.7V386.8L72.3634 386.462V386.125H78.6634V386.462L77.3134 386.8V391.187H78.1009C78.5359 391.187 78.9109 391.052 79.2259 390.782C79.5409 390.497 79.7659 390.145 79.9009 389.725L80.4634 387.7C80.8234 386.5 81.4984 385.9 82.4884 385.9C83.1634 385.9 83.6884 386.08 84.0634 386.44C84.4384 386.8 84.6259 387.295 84.6259 387.925C84.6259 388.495 84.4684 388.937 84.1534 389.252C83.8534 389.567 83.4484 389.725 82.9384 389.725C82.7284 389.725 82.5184 389.71 82.3084 389.68L82.0384 389.612V386.575C81.5884 386.695 81.2884 387.07 81.1384 387.7L80.5759 389.725C80.4259 390.25 80.1784 390.67 79.8334 390.985C79.7134 391.105 79.5484 391.21 79.3384 391.3H80.0134C80.8984 391.3 81.5884 391.48 82.0834 391.84C82.5934 392.185 82.9534 392.642 83.1634 393.212L84.2884 396.7L85.4134 397.037V397.375H83.0509C82.2559 397.375 81.6109 397.195 81.1159 396.835C80.6359 396.475 80.3059 396.017 80.1259 395.462L78.8884 391.75H77.3134V396.7L78.6634 397.037V397.375H72.3634V397.037ZM92.5009 397.712C90.5809 397.712 89.0884 397.187 88.0234 396.137C86.9584 395.072 86.4259 393.61 86.4259 391.75C86.4259 389.89 86.9584 388.435 88.0234 387.385C89.0884 386.32 90.5809 385.787 92.5009 385.787C93.8809 385.787 94.9159 386.027 95.6059 386.507C96.3109 386.987 96.6634 387.572 96.6634 388.262C96.6634 388.772 96.5059 389.185 96.1909 389.5C95.8909 389.8 95.4859 389.95 94.9759 389.95C94.7659 389.95 94.5559 389.935 94.3459 389.905L94.0759 389.837V386.462L93.7609 386.35C93.5359 386.275 93.2659 386.237 92.9509 386.237C92.0959 386.237 91.4284 386.642 90.9484 387.452C90.4834 388.262 90.2509 389.695 90.2509 391.75C90.2509 393.745 90.4834 395.147 90.9484 395.957C91.4284 396.752 92.0959 397.15 92.9509 397.15C93.5359 397.15 94.0759 397.015 94.5709 396.745C95.0809 396.46 95.4784 396.092 95.7634 395.642C96.0634 395.177 96.2134 394.705 96.2134 394.225H96.7759C96.7759 394.825 96.5959 395.395 96.2359 395.935C95.8759 396.475 95.3734 396.91 94.7284 397.24C94.0834 397.555 93.3409 397.712 92.5009 397.712ZM98.357 397.375V397.037L99.707 396.7V386.8L98.357 386.462V386.125H104.657V386.462L103.307 386.8V394.225L106.907 388.037V386.8L105.557 386.462V386.125H111.857V386.462L110.507 386.8V396.7L111.857 397.037V397.375H105.557V397.037L106.907 396.7V389.275L103.307 395.462V396.7L104.657 397.037V397.375H98.357ZM115.675 388.825V396.362L117.475 397.037V397.375H113.2V397.037L115 396.362V386.8L113.425 386.462V386.125H116.463C117.198 386.125 117.79 386.282 118.24 386.597C118.69 386.912 119.073 387.355 119.388 387.925L122.448 393.347L124.9 387.925C125.185 387.325 125.545 386.875 125.98 386.575C126.415 386.275 127.03 386.125 127.825 386.125H130.075V386.462L128.725 386.8V396.7L130.075 397.037V397.375H123.775V397.037L125.125 396.7V388.825L121.165 397.6H120.625L115.675 388.825ZM136.253 397.712C134.918 397.712 133.89 397.427 133.17 396.857C132.45 396.287 132.09 395.56 132.09 394.675C132.09 394.09 132.218 393.512 132.473 392.942C132.578 392.672 132.713 392.425 132.878 392.2C133.493 392.05 134.16 391.915 134.88 391.795C136.5 391.525 137.933 391.36 139.178 391.3V390.625C139.178 388.96 138.975 387.812 138.57 387.182C138.165 386.552 137.543 386.237 136.703 386.237C136.388 386.237 136.118 386.275 135.893 386.35L135.578 386.462V389.837L135.285 389.905C135.045 389.935 134.843 389.95 134.678 389.95C134.168 389.95 133.755 389.8 133.44 389.5C133.14 389.185 132.99 388.772 132.99 388.262C132.99 387.572 133.335 386.987 134.025 386.507C134.73 386.027 135.773 385.787 137.153 385.787C138.323 385.787 139.328 385.997 140.168 386.417C141.023 386.822 141.668 387.392 142.103 388.127C142.553 388.847 142.778 389.68 142.778 390.625V396.7L144.128 397.037V397.375H142.103C141.203 397.375 140.505 397.097 140.01 396.542C139.8 396.317 139.635 396.032 139.515 395.687C139.305 396.062 139.058 396.4 138.773 396.7C138.098 397.375 137.258 397.712 136.253 397.712ZM137.153 396.925C137.708 396.925 138.21 396.625 138.66 396.025C138.825 395.8 138.998 395.5 139.178 395.125V391.862C138.488 391.862 137.828 391.9 137.198 391.975C136.733 392.035 136.418 392.072 136.253 392.087C136.178 392.252 136.103 392.477 136.028 392.762C135.878 393.332 135.803 393.895 135.803 394.45C135.803 395.29 135.93 395.912 136.185 396.317C136.44 396.722 136.763 396.925 137.153 396.925ZM146.501 397.712C145.826 397.712 145.301 397.532 144.926 397.172C144.551 396.812 144.363 396.317 144.363 395.687C144.363 395.192 144.528 394.772 144.858 394.427C145.203 394.067 145.601 393.887 146.051 393.887C146.171 393.887 146.291 393.902 146.411 393.932C146.531 393.947 146.613 393.955 146.658 393.955L146.951 394V397.037C147.311 396.872 147.626 396.542 147.896 396.047C148.166 395.552 148.338 394.72 148.413 393.55L148.863 386.912L147.288 386.462V386.125H157.751V386.462L156.401 386.8V396.7L157.751 397.037V397.375H151.451V397.037L152.801 396.7V386.687H149.538L149.088 393.55C148.998 394.975 148.713 396.025 148.233 396.7C147.753 397.375 147.176 397.712 146.501 397.712ZM159.551 397.037L160.901 396.7V386.8L159.551 386.462V386.125H165.851V386.462L164.501 386.8V390.625H165.626C169.526 390.625 171.476 391.75 171.476 394C171.476 396.25 169.526 397.375 165.626 397.375H159.551V397.037ZM165.626 396.812C166.286 396.812 166.803 396.58 167.178 396.115C167.568 395.635 167.763 394.93 167.763 394C167.763 393.07 167.568 392.372 167.178 391.907C166.803 391.427 166.286 391.187 165.626 391.187H164.501V396.812H165.626ZM172.822 397.375V397.037L174.172 396.7V386.8L172.822 386.462V386.125H179.122V386.462L177.772 386.8V391.412H181.147V386.8L179.797 386.462V386.125H186.097V386.462L184.747 386.8V396.7L186.097 397.037V397.375H179.797V397.037L181.147 396.7V391.975H177.772V396.7L179.122 397.037V397.375H172.822ZM193.858 397.712C191.998 397.712 190.536 397.187 189.471 396.137C188.421 395.072 187.896 393.61 187.896 391.75C187.896 389.89 188.421 388.435 189.471 387.385C190.536 386.32 191.998 385.787 193.858 385.787C195.718 385.787 197.173 386.32 198.223 387.385C199.288 388.435 199.821 389.89 199.821 391.75C199.821 393.61 199.288 395.072 198.223 396.137C197.173 397.187 195.718 397.712 193.858 397.712ZM193.858 397.262C194.458 397.262 194.961 396.842 195.366 396.002C195.786 395.162 195.996 393.745 195.996 391.75C195.996 389.755 195.786 388.337 195.366 387.497C194.961 386.657 194.458 386.237 193.858 386.237C193.258 386.237 192.748 386.657 192.328 387.497C191.923 388.337 191.721 389.755 191.721 391.75C191.721 393.745 191.923 395.162 192.328 396.002C192.748 396.842 193.258 397.262 193.858 397.262ZM46.6 423.712C44.68 423.712 43.1875 423.187 42.1225 422.137C41.0575 421.072 40.525 419.61 40.525 417.75C40.525 415.89 41.0575 414.435 42.1225 413.385C43.1875 412.32 44.68 411.787 46.6 411.787C47.98 411.787 49.015 412.027 49.705 412.507C50.41 412.987 50.7625 413.572 50.7625 414.262C50.7625 414.772 50.605 415.185 50.29 415.5C49.99 415.8 49.585 415.95 49.075 415.95C48.865 415.95 48.655 415.935 48.445 415.905L48.175 415.837V412.462L47.86 412.35C47.635 412.275 47.365 412.237 47.05 412.237C46.195 412.237 45.5275 412.642 45.0475 413.452C44.5825 414.262 44.35 415.695 44.35 417.75C44.35 419.745 44.5825 421.147 45.0475 421.957C45.5275 422.752 46.195 423.15 47.05 423.15C47.635 423.15 48.175 423.015 48.67 422.745C49.18 422.46 49.5775 422.092 49.8625 421.642C50.1625 421.177 50.3125 420.705 50.3125 420.225H50.875C50.875 420.825 50.695 421.395 50.335 421.935C49.975 422.475 49.4725 422.91 48.8275 423.24C48.1825 423.555 47.44 423.712 46.6 423.712ZM52.4562 423.375V423.037L53.8062 422.7V412.8L52.4562 412.462V412.125H58.7562V412.462L57.4062 412.8V420.225L61.0062 414.037V412.8L59.6562 412.462V412.125H65.9562V412.462L64.6062 412.8V422.7L65.9562 423.037V423.375H59.6562V423.037L61.0062 422.7V415.275L57.4062 421.462V422.7L58.7562 423.037V423.375H52.4562ZM69.7741 414.825V422.362L71.5741 423.037V423.375H67.2991V423.037L69.0991 422.362V412.8L67.5241 412.462V412.125H70.5616C71.2966 412.125 71.8891 412.282 72.3391 412.597C72.7891 412.912 73.1716 413.355 73.4866 413.925L76.5466 419.347L78.9991 413.925C79.2841 413.325 79.6441 412.875 80.0791 412.575C80.5141 412.275 81.1291 412.125 81.9241 412.125H84.1741V412.462L82.8241 412.8V422.7L84.1741 423.037V423.375H77.8741V423.037L79.2241 422.7V414.825L75.2641 423.6H74.7241L69.7741 414.825ZM87.9895 414.825V422.362L89.7895 423.037V423.375H85.5145V423.037L87.3145 422.362V412.8L85.7395 412.462V412.125H88.777C89.512 412.125 90.1045 412.282 90.5545 412.597C91.0045 412.912 91.387 413.355 91.702 413.925L94.762 419.347L97.2145 413.925C97.4995 413.325 97.8595 412.875 98.2945 412.575C98.7295 412.275 99.3445 412.125 100.139 412.125H102.389V412.462L101.039 412.8V422.7L102.389 423.037V423.375H96.0895V423.037L97.4395 422.7V414.825L93.4795 423.6H92.9395L87.9895 414.825ZM110.255 423.712C108.335 423.712 106.842 423.187 105.777 422.137C104.712 421.072 104.18 419.61 104.18 417.75C104.18 416.535 104.412 415.477 104.877 414.577C105.342 413.677 105.987 412.987 106.812 412.507C107.652 412.027 108.612 411.787 109.692 411.787C110.772 411.787 111.717 411.99 112.527 412.395C113.352 412.8 113.982 413.347 114.417 414.037C114.867 414.712 115.092 415.462 115.092 416.287C115.092 416.662 115.055 416.985 114.98 417.255L114.867 417.637C114.222 417.772 113.525 417.885 112.775 417.975C111.2 418.2 109.61 418.312 108.005 418.312C108.005 420.052 108.245 421.297 108.725 422.047C109.205 422.782 109.865 423.15 110.705 423.15C111.29 423.15 111.83 423.015 112.325 422.745C112.835 422.46 113.232 422.092 113.517 421.642C113.817 421.177 113.967 420.705 113.967 420.225H114.53C114.53 420.825 114.35 421.395 113.99 421.935C113.63 422.475 113.127 422.91 112.482 423.24C111.837 423.555 111.095 423.712 110.255 423.712ZM108.005 417.75C108.965 417.75 109.745 417.712 110.345 417.637C110.6 417.622 110.87 417.585 111.155 417.525C111.17 417.45 111.207 417.285 111.267 417.03C111.342 416.655 111.38 416.257 111.38 415.837C111.38 414.592 111.215 413.685 110.885 413.115C110.555 412.53 110.157 412.237 109.692 412.237C108.567 412.237 108.005 414.075 108.005 417.75ZM118.908 423.037L120.258 422.7V412.687H118.57C118.57 413.512 118.323 414.345 117.828 415.185C117.633 415.5 117.393 415.792 117.108 416.062H116.433V412.125H127.683V416.062H127.008C126.723 415.807 126.475 415.515 126.265 415.185C125.785 414.375 125.545 413.542 125.545 412.687H123.858V422.7L125.208 423.037V423.375H118.908V423.037ZM128.916 427.537L130.266 427.2V412.8L128.916 412.462V412.125H130.941C131.826 412.125 132.523 412.41 133.033 412.98C133.228 413.205 133.393 413.482 133.528 413.812C133.723 413.422 133.971 413.085 134.271 412.8C134.946 412.125 135.786 411.787 136.791 411.787C137.676 411.787 138.463 412.02 139.153 412.485C139.843 412.935 140.391 413.61 140.796 414.51C141.201 415.395 141.403 416.475 141.403 417.75C141.403 419.67 140.953 421.147 140.053 422.182C139.168 423.202 137.968 423.712 136.453 423.712C135.733 423.712 135.103 423.562 134.563 423.262C134.338 423.157 134.106 423.007 133.866 422.812V427.2L135.216 427.537V427.875H128.916V427.537ZM135.553 423.037C136.198 423.037 136.693 422.662 137.038 421.912C137.398 421.162 137.578 419.775 137.578 417.75C137.578 415.815 137.413 414.472 137.083 413.722C136.768 412.957 136.371 412.575 135.891 412.575C135.321 412.575 134.811 412.875 134.361 413.475C134.166 413.73 134.001 414.03 133.866 414.375V422.137C134.076 422.347 134.241 422.497 134.361 422.587C134.766 422.887 135.163 423.037 135.553 423.037ZM143.203 423.375V423.037L144.553 422.7V412.8L143.203 412.462V412.125H149.503V412.462L148.153 412.8V420.225L151.753 414.037V412.8L150.403 412.462V412.125H156.703V412.462L155.353 412.8V422.7L156.703 423.037V423.375H150.403V423.037L151.753 422.7V415.275L148.153 421.462V422.7L149.503 423.037V423.375H143.203ZM164.684 423.037L166.034 422.7V418.762C165.734 418.942 165.366 419.085 164.931 419.19C164.511 419.28 164.091 419.325 163.671 419.325C162.201 419.325 161.099 419.032 160.364 418.447C159.644 417.862 159.284 417.067 159.284 416.062V412.8L157.934 412.462V412.125H164.234V412.462L162.884 412.8V416.062C162.884 417.037 163.026 417.735 163.311 418.155C163.611 418.56 164.031 418.762 164.571 418.762C165.171 418.762 165.659 418.575 166.034 418.2V412.8L164.684 412.462V412.125H170.984V412.462L169.634 412.8V422.7L170.984 423.037V423.375H164.684V423.037ZM172.778 423.375V423.037L174.128 422.7V412.8L172.778 412.462V412.125H179.078V412.462L177.728 412.8V417.412H181.103V412.8L179.753 412.462V412.125H186.053V412.462L184.703 412.8V422.7L186.053 423.037V423.375H179.753V423.037L181.103 422.7V417.975H177.728V422.7L179.078 423.037V423.375H172.778ZM192.239 423.712C190.904 423.712 189.877 423.427 189.157 422.857C188.437 422.287 188.077 421.56 188.077 420.675C188.077 420.09 188.204 419.512 188.459 418.942C188.564 418.672 188.699 418.425 188.864 418.2C189.479 418.05 190.147 417.915 190.867 417.795C192.487 417.525 193.919 417.36 195.164 417.3V416.625C195.164 414.96 194.962 413.812 194.557 413.182C194.152 412.552 193.529 412.237 192.689 412.237C192.374 412.237 192.104 412.275 191.879 412.35L191.564 412.462V415.837L191.272 415.905C191.032 415.935 190.829 415.95 190.664 415.95C190.154 415.95 189.742 415.8 189.427 415.5C189.127 415.185 188.977 414.772 188.977 414.262C188.977 413.572 189.322 412.987 190.012 412.507C190.717 412.027 191.759 411.787 193.139 411.787C194.309 411.787 195.314 411.997 196.154 412.417C197.009 412.822 197.654 413.392 198.089 414.127C198.539 414.847 198.764 415.68 198.764 416.625V422.7L200.114 423.037V423.375H198.089C197.189 423.375 196.492 423.097 195.997 422.542C195.787 422.317 195.622 422.032 195.502 421.687C195.292 422.062 195.044 422.4 194.759 422.7C194.084 423.375 193.244 423.712 192.239 423.712ZM193.139 422.925C193.694 422.925 194.197 422.625 194.647 422.025C194.812 421.8 194.984 421.5 195.164 421.125V417.862C194.474 417.862 193.814 417.9 193.184 417.975C192.719 418.035 192.404 418.072 192.239 418.087C192.164 418.252 192.089 418.477 192.014 418.762C191.864 419.332 191.789 419.895 191.789 420.45C191.789 421.29 191.917 421.912 192.172 422.317C192.427 422.722 192.749 422.925 193.139 422.925ZM200.687 423.037L201.812 422.7L202.712 420C202.952 419.28 203.59 418.755 204.625 418.425C205.045 418.305 205.532 418.23 206.087 418.2V418.087C205.397 418.072 204.722 417.952 204.062 417.727C202.712 417.247 202.037 416.43 202.037 415.275C202.037 414.345 202.495 413.587 203.41 413.002C204.34 412.417 205.832 412.125 207.887 412.125H213.85V412.462L212.5 412.8V422.7L213.85 423.037V423.375H207.55V423.037L208.9 422.7V418.425H207.1L206.087 421.575C205.922 422.07 205.6 422.497 205.12 422.857C204.655 423.202 204.077 423.375 203.387 423.375H200.687V423.037ZM208.9 417.862V412.687H207.887C207.242 412.687 206.725 412.912 206.335 413.362C205.945 413.797 205.75 414.435 205.75 415.275C205.75 416.115 205.945 416.76 206.335 417.21C206.725 417.645 207.242 417.862 207.887 417.862H208.9ZM221.953 423.037L223.303 422.7V412.8L221.953 412.462V412.125H232.416V416.062H231.741C231.456 415.807 231.208 415.515 230.998 415.185C230.518 414.375 230.278 413.542 230.278 412.687H226.903V422.7L228.253 423.037V423.375H221.953V423.037ZM233.659 427.537L235.009 427.2V412.8L233.659 412.462V412.125H235.684C236.569 412.125 237.267 412.41 237.777 412.98C237.972 413.205 238.137 413.482 238.272 413.812C238.467 413.422 238.714 413.085 239.014 412.8C239.689 412.125 240.529 411.787 241.534 411.787C242.419 411.787 243.207 412.02 243.897 412.485C244.587 412.935 245.134 413.61 245.539 414.51C245.944 415.395 246.147 416.475 246.147 417.75C246.147 419.67 245.697 421.147 244.797 422.182C243.912 423.202 242.712 423.712 241.197 423.712C240.477 423.712 239.847 423.562 239.307 423.262C239.082 423.157 238.849 423.007 238.609 422.812V427.2L239.959 427.537V427.875H233.659V427.537ZM240.297 423.037C240.942 423.037 241.437 422.662 241.782 421.912C242.142 421.162 242.322 419.775 242.322 417.75C242.322 415.815 242.157 414.472 241.827 413.722C241.512 412.957 241.114 412.575 240.634 412.575C240.064 412.575 239.554 412.875 239.104 413.475C238.909 413.73 238.744 414.03 238.609 414.375V422.137C238.819 422.347 238.984 422.497 239.104 422.587C239.509 422.887 239.907 423.037 240.297 423.037ZM252.334 423.712C250.999 423.712 249.972 423.427 249.252 422.857C248.532 422.287 248.172 421.56 248.172 420.675C248.172 420.09 248.299 419.512 248.554 418.942C248.659 418.672 248.794 418.425 248.959 418.2C249.574 418.05 250.242 417.915 250.962 417.795C252.582 417.525 254.014 417.36 255.259 417.3V416.625C255.259 414.96 255.057 413.812 254.652 413.182C254.247 412.552 253.624 412.237 252.784 412.237C252.469 412.237 252.199 412.275 251.974 412.35L251.659 412.462V415.837L251.367 415.905C251.127 415.935 250.924 415.95 250.759 415.95C250.249 415.95 249.837 415.8 249.522 415.5C249.222 415.185 249.072 414.772 249.072 414.262C249.072 413.572 249.417 412.987 250.107 412.507C250.812 412.027 251.854 411.787 253.234 411.787C254.404 411.787 255.409 411.997 256.249 412.417C257.104 412.822 257.749 413.392 258.184 414.127C258.634 414.847 258.859 415.68 258.859 416.625V422.7L260.209 423.037V423.375H258.184C257.284 423.375 256.587 423.097 256.092 422.542C255.882 422.317 255.717 422.032 255.597 421.687C255.387 422.062 255.139 422.4 254.854 422.7C254.179 423.375 253.339 423.712 252.334 423.712ZM253.234 422.925C253.789 422.925 254.292 422.625 254.742 422.025C254.907 421.8 255.079 421.5 255.259 421.125V417.862C254.569 417.862 253.909 417.9 253.279 417.975C252.814 418.035 252.499 418.072 252.334 418.087C252.259 418.252 252.184 418.477 252.109 418.762C251.959 419.332 251.884 419.895 251.884 420.45C251.884 421.29 252.012 421.912 252.267 422.317C252.522 422.722 252.844 422.925 253.234 422.925ZM266.632 427.537L267.982 427.2V423.487C266.632 423.457 265.455 423.187 264.45 422.677C263.445 422.167 262.672 421.485 262.132 420.63C261.607 419.76 261.345 418.8 261.345 417.75C261.345 416.7 261.607 415.747 262.132 414.892C262.672 414.022 263.445 413.332 264.45 412.822C265.455 412.312 266.632 412.042 267.982 412.012V408.3L266.632 407.962V407.625H269.557C270.907 407.625 271.582 408.3 271.582 409.65V412.012C272.932 412.042 274.11 412.312 275.115 412.822C276.12 413.332 276.885 414.022 277.41 414.892C277.95 415.747 278.22 416.7 278.22 417.75C278.22 418.8 277.95 419.76 277.41 420.63C276.885 421.485 276.12 422.167 275.115 422.677C274.11 423.187 272.932 423.457 271.582 423.487V427.2L272.932 427.537V427.875H266.632V427.537ZM267.982 412.462C267.157 412.522 266.482 412.972 265.957 413.812C265.432 414.652 265.17 415.965 265.17 417.75C265.17 419.535 265.432 420.847 265.957 421.687C266.482 422.527 267.157 422.977 267.982 423.037V412.462ZM271.582 423.037C272.407 422.977 273.082 422.527 273.607 421.687C274.132 420.847 274.395 419.535 274.395 417.75C274.395 415.965 274.132 414.652 273.607 413.812C273.082 412.972 272.407 412.522 271.582 412.462V423.037ZM279.785 423.375V423.037L281.135 422.7V412.8L279.785 412.462V412.125H286.085V412.462L284.735 412.8V420.225L288.335 414.037V412.8L286.985 412.462V412.125H293.285V412.462L291.935 412.8V422.7L293.285 423.037V423.375H286.985V423.037L288.335 422.7V415.275L284.735 421.462V422.7L286.085 423.037V423.375H279.785ZM295.078 423.037L296.428 422.7V412.8L295.078 412.462V412.125H301.378V412.462L300.028 412.8V417.187H300.816C301.251 417.187 301.626 417.052 301.941 416.782C302.256 416.497 302.481 416.145 302.616 415.725L303.178 413.7C303.538 412.5 304.213 411.9 305.203 411.9C305.878 411.9 306.403 412.08 306.778 412.44C307.153 412.8 307.341 413.295 307.341 413.925C307.341 414.495 307.183 414.937 306.868 415.252C306.568 415.567 306.163 415.725 305.653 415.725C305.443 415.725 305.233 415.71 305.023 415.68L304.753 415.612V412.575C304.303 412.695 304.003 413.07 303.853 413.7L303.291 415.725C303.141 416.25 302.893 416.67 302.548 416.985C302.428 417.105 302.263 417.21 302.053 417.3H302.728C303.613 417.3 304.303 417.48 304.798 417.84C305.308 418.185 305.668 418.642 305.878 419.212L307.003 422.7L308.128 423.037V423.375H305.766C304.971 423.375 304.326 423.195 303.831 422.835C303.351 422.475 303.021 422.017 302.841 421.462L301.603 417.75H300.028V422.7L301.378 423.037V423.375H295.078V423.037ZM313.528 423.712C312.193 423.712 311.166 423.427 310.446 422.857C309.726 422.287 309.366 421.56 309.366 420.675C309.366 420.09 309.493 419.512 309.748 418.942C309.853 418.672 309.988 418.425 310.153 418.2C310.768 418.05 311.436 417.915 312.156 417.795C313.776 417.525 315.208 417.36 316.453 417.3V416.625C316.453 414.96 316.251 413.812 315.846 413.182C315.441 412.552 314.818 412.237 313.978 412.237C313.663 412.237 313.393 412.275 313.168 412.35L312.853 412.462V415.837L312.561 415.905C312.321 415.935 312.118 415.95 311.953 415.95C311.443 415.95 311.031 415.8 310.716 415.5C310.416 415.185 310.266 414.772 310.266 414.262C310.266 413.572 310.611 412.987 311.301 412.507C312.006 412.027 313.048 411.787 314.428 411.787C315.598 411.787 316.603 411.997 317.443 412.417C318.298 412.822 318.943 413.392 319.378 414.127C319.828 414.847 320.053 415.68 320.053 416.625V422.7L321.403 423.037V423.375H319.378C318.478 423.375 317.781 423.097 317.286 422.542C317.076 422.317 316.911 422.032 316.791 421.687C316.581 422.062 316.333 422.4 316.048 422.7C315.373 423.375 314.533 423.712 313.528 423.712ZM314.428 422.925C314.983 422.925 315.486 422.625 315.936 422.025C316.101 421.8 316.273 421.5 316.453 421.125V417.862C315.763 417.862 315.103 417.9 314.473 417.975C314.008 418.035 313.693 418.072 313.528 418.087C313.453 418.252 313.378 418.477 313.303 418.762C313.153 419.332 313.078 419.895 313.078 420.45C313.078 421.29 313.206 421.912 313.461 422.317C313.716 422.722 314.038 422.925 314.428 422.925Z" fill="#26243E"/>
<path d="M46.6 466.337C44.68 466.337 43.1875 465.812 42.1225 464.762C41.0575 463.697 40.525 462.235 40.525 460.375C40.525 458.515 41.0575 457.06 42.1225 456.01C43.1875 454.945 44.68 454.412 46.6 454.412C47.98 454.412 49.015 454.652 49.705 455.132C50.41 455.612 50.7625 456.197 50.7625 456.887C50.7625 457.397 50.605 457.81 50.29 458.125C49.99 458.425 49.585 458.575 49.075 458.575C48.865 458.575 48.655 458.56 48.445 458.53L48.175 458.462V455.087L47.86 454.975C47.635 454.9 47.365 454.862 47.05 454.862C46.195 454.862 45.5275 455.267 45.0475 456.077C44.5825 456.887 44.35 458.32 44.35 460.375C44.35 462.37 44.5825 463.772 45.0475 464.582C45.5275 465.377 46.195 465.775 47.05 465.775C47.635 465.775 48.175 465.64 48.67 465.37C49.18 465.085 49.5775 464.717 49.8625 464.267C50.1625 463.802 50.3125 463.33 50.3125 462.85H50.875C50.875 463.45 50.695 464.02 50.335 464.56C49.975 465.1 49.4725 465.535 48.8275 465.865C48.1825 466.18 47.44 466.337 46.6 466.337ZM52.4562 466V465.662L53.8062 465.325V455.425L52.4562 455.087V454.75H58.7562V455.087L57.4062 455.425V462.85L61.0062 456.662V455.425L59.6562 455.087V454.75H65.9562V455.087L64.6062 455.425V465.325L65.9562 465.662V466H59.6562V465.662L61.0062 465.325V457.9L57.4062 464.087V465.325L58.7562 465.662V466H52.4562ZM68.7616 466.337C68.0866 466.337 67.5616 466.157 67.1866 465.797C66.8116 465.437 66.6241 464.942 66.6241 464.312C66.6241 463.817 66.7891 463.397 67.1191 463.052C67.4641 462.692 67.8616 462.512 68.3116 462.512C68.4316 462.512 68.5516 462.527 68.6716 462.557C68.7916 462.572 68.8741 462.58 68.9191 462.58L69.2116 462.625V465.662C69.5716 465.497 69.8866 465.167 70.1566 464.672C70.4266 464.177 70.5991 463.345 70.6741 462.175L71.1241 455.537L69.5491 455.087V454.75H80.0116V455.087L78.6616 455.425V465.325L80.0116 465.662V466H73.7116V465.662L75.0616 465.325V455.312H71.7991L71.3491 462.175C71.2591 463.6 70.9741 464.65 70.4941 465.325C70.0141 466 69.4366 466.337 68.7616 466.337ZM81.8116 465.662L83.1616 465.325V455.425L81.8116 455.087V454.75H88.1116V455.087L86.7616 455.425V459.25H87.8866C91.7866 459.25 93.7366 460.375 93.7366 462.625C93.7366 464.875 91.7866 466 87.8866 466H81.8116V465.662ZM87.8866 465.437C88.5466 465.437 89.0641 465.205 89.4391 464.74C89.8291 464.26 90.0241 463.555 90.0241 462.625C90.0241 461.695 89.8291 460.997 89.4391 460.532C89.0641 460.052 88.5466 459.812 87.8866 459.812H86.7616V465.437H87.8866ZM95.0831 466V465.662L96.4331 465.325V455.425L95.0831 455.087V454.75H101.383V455.087L100.033 455.425V460.037H103.408V455.425L102.058 455.087V454.75H108.358V455.087L107.008 455.425V465.325L108.358 465.662V466H102.058V465.662L103.408 465.325V460.6H100.033V465.325L101.383 465.662V466H95.0831ZM110.156 465.662L111.506 465.325V455.425L110.156 455.087V454.75H116.456V455.087L115.106 455.425V459.25H116.231C120.131 459.25 122.081 460.375 122.081 462.625C122.081 464.875 120.131 466 116.231 466H110.156V465.662ZM122.531 466V465.662L123.881 465.325V455.425L122.531 455.087V454.75H128.831V455.087L127.481 455.425V465.325L128.831 465.662V466H122.531ZM116.231 465.437C116.891 465.437 117.409 465.205 117.784 464.74C118.174 464.26 118.369 463.555 118.369 462.625C118.369 461.695 118.174 460.997 117.784 460.532C117.409 460.052 116.891 459.812 116.231 459.812H115.106V465.437H116.231ZM137.385 453.175C136.23 453.175 135.375 452.995 134.82 452.635C134.28 452.275 134.01 451.817 134.01 451.262C134.01 450.872 134.137 450.55 134.392 450.295C134.647 450.04 134.97 449.912 135.36 449.912C135.39 449.912 135.562 449.935 135.877 449.98L136.147 450.025V452.5C136.162 452.5 136.267 452.537 136.462 452.612C136.672 452.687 136.98 452.725 137.385 452.725C137.79 452.725 138.09 452.687 138.285 452.612C138.495 452.537 138.607 452.5 138.622 452.5V450.025L138.892 449.98C139.207 449.935 139.38 449.912 139.41 449.912C139.8 449.912 140.122 450.04 140.377 450.295C140.632 450.55 140.76 450.872 140.76 451.262C140.76 451.817 140.482 452.275 139.927 452.635C139.387 452.995 138.54 453.175 137.385 453.175ZM130.635 466V465.662L131.985 465.325V455.425L130.635 455.087V454.75H136.935V455.087L135.585 455.425V462.85L139.185 456.662V455.425L137.835 455.087V454.75H144.135V455.087L142.785 455.425V465.325L144.135 465.662V466H137.835V465.662L139.185 465.325V457.9L135.585 464.087V465.325L136.935 465.662V466H130.635ZM152.234 465.662L153.584 465.325V455.425L152.234 455.087V454.75H158.534V455.087L157.184 455.425V459.812H157.971C158.406 459.812 158.781 459.677 159.096 459.407C159.411 459.122 159.636 458.77 159.771 458.35L160.334 456.325C160.694 455.125 161.369 454.525 162.359 454.525C163.034 454.525 163.559 454.705 163.934 455.065C164.309 455.425 164.496 455.92 164.496 456.55C164.496 457.12 164.339 457.562 164.024 457.877C163.724 458.192 163.319 458.35 162.809 458.35C162.599 458.35 162.389 458.335 162.179 458.305L161.909 458.237V455.2C161.459 455.32 161.159 455.695 161.009 456.325L160.446 458.35C160.296 458.875 160.049 459.295 159.704 459.61C159.584 459.73 159.419 459.835 159.209 459.925H159.884C160.769 459.925 161.459 460.105 161.954 460.465C162.464 460.81 162.824 461.267 163.034 461.837L164.159 465.325L165.284 465.662V466H162.921C162.126 466 161.481 465.82 160.986 465.46C160.506 465.1 160.176 464.642 159.996 464.087L158.759 460.375H157.184V465.325L158.534 465.662V466H152.234V465.662ZM172.259 466.337C170.399 466.337 168.936 465.812 167.871 464.762C166.821 463.697 166.296 462.235 166.296 460.375C166.296 458.515 166.821 457.06 167.871 456.01C168.936 454.945 170.399 454.412 172.259 454.412C174.119 454.412 175.574 454.945 176.624 456.01C177.689 457.06 178.221 458.515 178.221 460.375C178.221 462.235 177.689 463.697 176.624 464.762C175.574 465.812 174.119 466.337 172.259 466.337ZM172.259 465.887C172.859 465.887 173.361 465.467 173.766 464.627C174.186 463.787 174.396 462.37 174.396 460.375C174.396 458.38 174.186 456.962 173.766 456.122C173.361 455.282 172.859 454.862 172.259 454.862C171.659 454.862 171.149 455.282 170.729 456.122C170.324 456.962 170.121 458.38 170.121 460.375C170.121 462.37 170.324 463.787 170.729 464.627C171.149 465.467 171.659 465.887 172.259 465.887ZM180.029 466V465.662L181.379 465.325V455.425L180.029 455.087V454.75H186.329V455.087L184.979 455.425V460.037H188.354V455.425L187.004 455.087V454.75H193.304V455.087L191.954 455.425V465.325L193.304 465.662V466H187.004V465.662L188.354 465.325V460.6H184.979V465.325L186.329 465.662V466H180.029ZM197.24 465.662L198.59 465.325V455.312H196.903C196.903 456.137 196.655 456.97 196.16 457.81C195.965 458.125 195.725 458.417 195.44 458.687H194.765V454.75H206.015V458.687H205.34C205.055 458.432 204.808 458.14 204.598 457.81C204.118 457 203.878 456.167 203.878 455.312H202.19V465.325L203.54 465.662V466H197.24V465.662ZM207.248 470.162L208.598 469.825V455.425L207.248 455.087V454.75H209.273C210.158 454.75 210.856 455.035 211.366 455.605C211.561 455.83 211.726 456.107 211.861 456.437C212.056 456.047 212.303 455.71 212.603 455.425C213.278 454.75 214.118 454.412 215.123 454.412C216.008 454.412 216.796 454.645 217.486 455.11C218.176 455.56 218.723 456.235 219.128 457.135C219.533 458.02 219.736 459.1 219.736 460.375C219.736 462.295 219.286 463.772 218.386 464.807C217.501 465.827 216.301 466.337 214.786 466.337C214.066 466.337 213.436 466.187 212.896 465.887C212.671 465.782 212.438 465.632 212.198 465.437V469.825L213.548 470.162V470.5H207.248V470.162ZM213.886 465.662C214.531 465.662 215.026 465.287 215.371 464.537C215.731 463.787 215.911 462.4 215.911 460.375C215.911 458.44 215.746 457.097 215.416 456.347C215.101 455.582 214.703 455.2 214.223 455.2C213.653 455.2 213.143 455.5 212.693 456.1C212.498 456.355 212.333 456.655 212.198 457V464.762C212.408 464.972 212.573 465.122 212.693 465.212C213.098 465.512 213.496 465.662 213.886 465.662ZM225.923 466.337C224.588 466.337 223.561 466.052 222.841 465.482C222.121 464.912 221.761 464.185 221.761 463.3C221.761 462.715 221.888 462.137 222.143 461.567C222.248 461.297 222.383 461.05 222.548 460.825C223.163 460.675 223.831 460.54 224.551 460.42C226.171 460.15 227.603 459.985 228.848 459.925V459.25C228.848 457.585 228.646 456.437 228.241 455.807C227.836 455.177 227.213 454.862 226.373 454.862C226.058 454.862 225.788 454.9 225.563 454.975L225.248 455.087V458.462L224.956 458.53C224.716 458.56 224.513 458.575 224.348 458.575C223.838 458.575 223.426 458.425 223.111 458.125C222.811 457.81 222.661 457.397 222.661 456.887C222.661 456.197 223.006 455.612 223.696 455.132C224.401 454.652 225.443 454.412 226.823 454.412C227.993 454.412 228.998 454.622 229.838 455.042C230.693 455.447 231.338 456.017 231.773 456.752C232.223 457.472 232.448 458.305 232.448 459.25V465.325L233.798 465.662V466H231.773C230.873 466 230.176 465.722 229.681 465.167C229.471 464.942 229.306 464.657 229.186 464.312C228.976 464.687 228.728 465.025 228.443 465.325C227.768 466 226.928 466.337 225.923 466.337ZM226.823 465.55C227.378 465.55 227.881 465.25 228.331 464.65C228.496 464.425 228.668 464.125 228.848 463.75V460.487C228.158 460.487 227.498 460.525 226.868 460.6C226.403 460.66 226.088 460.697 225.923 460.712C225.848 460.877 225.773 461.102 225.698 461.387C225.548 461.957 225.473 462.52 225.473 463.075C225.473 463.915 225.601 464.537 225.856 464.942C226.111 465.347 226.433 465.55 226.823 465.55ZM241.234 466.337C239.314 466.337 237.821 465.812 236.756 464.762C235.691 463.697 235.159 462.235 235.159 460.375C235.159 458.515 235.691 457.06 236.756 456.01C237.821 454.945 239.314 454.412 241.234 454.412C242.614 454.412 243.649 454.652 244.339 455.132C245.044 455.612 245.396 456.197 245.396 456.887C245.396 457.397 245.239 457.81 244.924 458.125C244.624 458.425 244.219 458.575 243.709 458.575C243.499 458.575 243.289 458.56 243.079 458.53L242.809 458.462V455.087L242.494 454.975C242.269 454.9 241.999 454.862 241.684 454.862C240.829 454.862 240.161 455.267 239.681 456.077C239.216 456.887 238.984 458.32 238.984 460.375C238.984 462.37 239.216 463.772 239.681 464.582C240.161 465.377 240.829 465.775 241.684 465.775C242.269 465.775 242.809 465.64 243.304 465.37C243.814 465.085 244.211 464.717 244.496 464.267C244.796 463.802 244.946 463.33 244.946 462.85H245.509C245.509 463.45 245.329 464.02 244.969 464.56C244.609 465.1 244.106 465.535 243.461 465.865C242.816 466.18 242.074 466.337 241.234 466.337ZM249.227 465.662L250.577 465.325V455.312H248.89C248.89 456.137 248.642 456.97 248.147 457.81C247.952 458.125 247.712 458.417 247.427 458.687H246.752V454.75H258.002V458.687H257.327C257.042 458.432 256.795 458.14 256.585 457.81C256.105 457 255.865 456.167 255.865 455.312H254.177V465.325L255.527 465.662V466H249.227V465.662ZM42.6625 491.662L44.0125 491.325V481.312H42.325C42.325 482.137 42.0775 482.97 41.5825 483.81C41.3875 484.125 41.1475 484.417 40.8625 484.687H40.1875V480.75H51.4375V484.687H50.7625C50.4775 484.432 50.23 484.14 50.02 483.81C49.54 483 49.3 482.167 49.3 481.312H47.6125V491.325L48.9625 491.662V492H42.6625V491.662ZM58.8581 492.337C56.9981 492.337 55.5356 491.812 54.4706 490.762C53.4206 489.697 52.8956 488.235 52.8956 486.375C52.8956 484.515 53.4206 483.06 54.4706 482.01C55.5356 480.945 56.9981 480.412 58.8581 480.412C60.7181 480.412 62.1731 480.945 63.2231 482.01C64.2881 483.06 64.8206 484.515 64.8206 486.375C64.8206 488.235 64.2881 489.697 63.2231 490.762C62.1731 491.812 60.7181 492.337 58.8581 492.337ZM58.8581 491.887C59.4581 491.887 59.9606 491.467 60.3656 490.627C60.7856 489.787 60.9956 488.37 60.9956 486.375C60.9956 484.38 60.7856 482.962 60.3656 482.122C59.9606 481.282 59.4581 480.862 58.8581 480.862C58.2581 480.862 57.7481 481.282 57.3281 482.122C56.9231 482.962 56.7206 484.38 56.7206 486.375C56.7206 488.37 56.9231 489.787 57.3281 490.627C57.7481 491.467 58.2581 491.887 58.8581 491.887ZM67.641 492.337C66.966 492.337 66.441 492.157 66.066 491.797C65.691 491.437 65.5035 490.942 65.5035 490.312C65.5035 489.817 65.6685 489.397 65.9985 489.052C66.3435 488.692 66.741 488.512 67.191 488.512C67.311 488.512 67.431 488.527 67.551 488.557C67.671 488.572 67.7535 488.58 67.7985 488.58L68.091 488.625V491.662C68.451 491.497 68.766 491.167 69.036 490.672C69.306 490.177 69.4785 489.345 69.5535 488.175L70.0035 481.537L68.4285 481.087V480.75H78.891V481.087L77.541 481.425V491.325L78.891 491.662V492H72.591V491.662L73.941 491.325V481.312H70.6785L70.2285 488.175C70.1385 489.6 69.8535 490.65 69.3735 491.325C68.8935 492 68.316 492.337 67.641 492.337ZM100.041 495.712C99.651 495.457 99.3285 495.15 99.0735 494.79C98.4435 493.98 98.1285 493.05 98.1285 492H80.691V491.662L82.041 491.325V481.425L80.691 481.087V480.75H86.8785V481.087L85.641 481.425V491.437H88.566V481.425L87.3285 481.087V480.75H93.4035V481.087L92.166 481.425V491.437H95.091V481.425L93.8535 481.087V480.75H100.041V481.087L98.691 481.425V491.437H100.716V495.712H100.041ZM101.961 492V491.662L103.311 491.325V481.425L101.961 481.087V480.75H108.261V481.087L106.911 481.425V488.85L110.511 482.662V481.425L109.161 481.087V480.75H115.461V481.087L114.111 481.425V491.325L115.461 491.662V492H109.161V491.662L110.511 491.325V483.9L106.911 490.087V491.325L108.261 491.662V492H101.961ZM117.254 492V491.662L118.604 491.325V481.425L117.254 481.087V480.75H123.554V481.087L122.204 481.425V486.037H125.579V481.425L124.229 481.087V480.75H130.529V481.087L129.179 481.425V491.325L130.529 491.662V492H124.229V491.662L125.579 491.325V486.6H122.204V491.325L123.554 491.662V492H117.254Z" fill="#26243E"/>
</svg>
