<svg width="487" height="394" viewBox="0 0 487 394" fill="none" xmlns="http://www.w3.org/2000/svg">
<rect x="12.518" y="12.5178" width="461.436" height="357.545" fill="#F8F8F8" stroke="#C95853" stroke-width="24.2861"/>
<path d="M398.111 161.452C398.111 190.642 374.448 214.305 345.258 214.305C316.068 214.305 292.404 190.642 292.404 161.452C292.404 132.262 316.068 108.599 345.258 108.599C374.448 108.599 398.111 132.262 398.111 161.452Z" fill="#E9B7AA" fill-opacity="0.3" stroke="#E9B7AA" stroke-width="3.26928"/>
<path d="M225.929 221.389C225.929 250.579 202.266 274.242 173.076 274.242C143.886 274.242 120.222 250.579 120.222 221.389C120.222 192.198 143.886 168.535 173.076 168.535C202.266 168.535 225.929 192.198 225.929 221.389Z" fill="#E9B7AA" fill-opacity="0.3" stroke="#E9B7AA" stroke-width="3.26928"/>
<path d="M89.4369 323.543L103.059 319.457L127.579 247.26C132.664 231.822 146.286 224.103 168.445 224.103H174.983C174.438 224.103 173.076 223.195 170.897 221.378C168.717 219.38 166.356 216.384 163.813 212.388C161.27 208.21 159.182 203.034 157.547 196.859L148.012 161.442C146.559 156.174 144.47 151.906 141.745 148.637C139.021 145.186 136.115 143.097 133.027 142.371V180.512L129.486 181.33C126.58 181.693 124.128 181.875 122.13 181.875C115.954 181.875 110.778 179.786 106.601 175.608C102.423 171.249 100.335 165.619 100.335 158.717C100.335 151.634 102.877 145.822 107.963 141.281C113.048 136.559 119.587 134.198 127.579 134.198C134.48 134.198 140.383 136.65 145.287 141.553C150.373 146.457 154.005 153.087 156.185 161.442L165.72 196.859C170.261 214.113 179.342 222.741 192.964 222.741H205.224V145.095L188.878 141.009V136.922H266.523V141.009L250.177 145.095V222.741H262.436C276.058 222.741 285.14 214.113 289.68 196.859L299.216 161.442C301.395 153.087 304.937 146.457 309.841 141.553C314.926 136.65 320.92 134.198 327.822 134.198C335.814 134.198 342.352 136.559 347.438 141.281C352.523 145.822 355.066 151.634 355.066 158.717C355.066 165.619 352.977 171.249 348.8 175.608C344.622 179.786 339.446 181.875 333.271 181.875C330.728 181.875 328.185 181.693 325.642 181.33L322.373 180.512V142.371C319.286 143.097 316.38 145.186 313.655 148.637C310.931 151.906 308.842 156.174 307.389 161.442L297.854 196.859C295.129 206.848 291.497 214.113 286.956 218.654C284.958 220.834 282.688 222.65 280.145 224.103H286.956C309.114 224.103 322.736 231.822 327.822 247.26L352.342 319.457L365.964 323.543V327.63H333.271C323.645 327.63 316.198 325.632 310.931 321.636C305.664 317.641 301.759 311.919 299.216 304.473L273.334 229.552H250.177V319.457L266.523 323.543V327.63H188.878V323.543L205.224 319.457V229.552H182.067L156.185 304.473C153.642 311.919 149.737 317.641 144.47 321.636C139.203 325.632 131.756 327.63 122.13 327.63H89.4369V323.543Z" fill="#26243E"/>
<path d="M43.101 75.0064L44.451 74.6689V64.7689L43.101 64.4314V64.0939H49.401V64.4314L48.051 64.7689V69.1564H48.8385C49.2735 69.1564 49.6485 69.0214 49.9635 68.7514C50.2785 68.4664 50.5035 68.1139 50.6385 67.6939L51.201 65.6689C51.561 64.4689 52.236 63.8689 53.226 63.8689C53.901 63.8689 54.426 64.0489 54.801 64.4089C55.176 64.7689 55.3635 65.2639 55.3635 65.8939C55.3635 66.4639 55.206 66.9064 54.891 67.2214C54.591 67.5364 54.186 67.6939 53.676 67.6939C53.466 67.6939 53.256 67.6789 53.046 67.6489L52.776 67.5814V64.5439C52.326 64.6639 52.026 65.0389 51.876 65.6689L51.3135 67.6939C51.1635 68.2189 50.916 68.6389 50.571 68.9539C50.451 69.0739 50.286 69.1789 50.076 69.2689H50.751C51.636 69.2689 52.326 69.4489 52.821 69.8089C53.331 70.1539 53.691 70.6114 53.901 71.1814L55.026 74.6689L56.151 75.0064V75.3439H53.7885C52.9935 75.3439 52.3485 75.1639 51.8535 74.8039C51.3735 74.4439 51.0435 73.9864 50.8635 73.4314L49.626 69.7189H48.051V74.6689L49.401 75.0064V75.3439H43.101V75.0064ZM63.126 75.6814C61.266 75.6814 59.8035 75.1564 58.7385 74.1064C57.6885 73.0414 57.1635 71.5789 57.1635 69.7189C57.1635 67.8589 57.6885 66.4039 58.7385 65.3539C59.8035 64.2889 61.266 63.7564 63.126 63.7564C64.986 63.7564 66.441 64.2889 67.491 65.3539C68.556 66.4039 69.0885 67.8589 69.0885 69.7189C69.0885 71.5789 68.556 73.0414 67.491 74.1064C66.441 75.1564 64.986 75.6814 63.126 75.6814ZM63.126 75.2314C63.726 75.2314 64.2285 74.8114 64.6335 73.9714C65.0535 73.1314 65.2635 71.7139 65.2635 69.7189C65.2635 67.7239 65.0535 66.3064 64.6335 65.4664C64.2285 64.6264 63.726 64.2064 63.126 64.2064C62.526 64.2064 62.016 64.6264 61.596 65.4664C61.191 66.3064 60.9885 67.7239 60.9885 69.7189C60.9885 71.7139 61.191 73.1314 61.596 73.9714C62.016 74.8114 62.526 75.2314 63.126 75.2314ZM70.8964 75.3439V75.0064L72.2464 74.6689V64.7689L70.8964 64.4314V64.0939H77.1964V64.4314L75.8464 64.7689V69.3814H79.2214V64.7689L77.8714 64.4314V64.0939H84.1714V64.4314L82.8214 64.7689V74.6689L84.1714 75.0064V75.3439H77.8714V75.0064L79.2214 74.6689V69.9439H75.8464V74.6689L77.1964 75.0064V75.3439H70.8964ZM88.1072 75.0064L89.4572 74.6689V64.6564H87.7697C87.7697 65.4814 87.5222 66.3139 87.0272 67.1539C86.8322 67.4689 86.5922 67.7614 86.3072 68.0314H85.6322V64.0939H96.8822V68.0314H96.2072C95.9222 67.7764 95.6747 67.4839 95.4647 67.1539C94.9847 66.3439 94.7447 65.5114 94.7447 64.6564H93.0572V74.6689L94.4072 75.0064V75.3439H88.1072V75.0064ZM98.1153 79.5064L99.4653 79.1689V64.7689L98.1153 64.4314V64.0939H100.14C101.025 64.0939 101.723 64.3789 102.233 64.9489C102.428 65.1739 102.593 65.4514 102.728 65.7814C102.923 65.3914 103.17 65.0539 103.47 64.7689C104.145 64.0939 104.985 63.7564 105.99 63.7564C106.875 63.7564 107.663 63.9889 108.353 64.4539C109.043 64.9039 109.59 65.5789 109.995 66.4789C110.4 67.3639 110.603 68.4439 110.603 69.7189C110.603 71.6389 110.153 73.1164 109.253 74.1514C108.368 75.1714 107.168 75.6814 105.653 75.6814C104.933 75.6814 104.303 75.5314 103.763 75.2314C103.538 75.1264 103.305 74.9764 103.065 74.7814V79.1689L104.415 79.5064V79.8439H98.1153V79.5064ZM104.753 75.0064C105.398 75.0064 105.893 74.6314 106.238 73.8814C106.598 73.1314 106.778 71.7439 106.778 69.7189C106.778 67.7839 106.613 66.4414 106.283 65.6914C105.968 64.9264 105.57 64.5439 105.09 64.5439C104.52 64.5439 104.01 64.8439 103.56 65.4439C103.365 65.6989 103.2 65.9989 103.065 66.3439V74.1064C103.275 74.3164 103.44 74.4664 103.56 74.5564C103.965 74.8564 104.363 75.0064 104.753 75.0064ZM116.79 75.6814C115.455 75.6814 114.428 75.3964 113.708 74.8264C112.988 74.2564 112.628 73.5289 112.628 72.6439C112.628 72.0589 112.755 71.4814 113.01 70.9114C113.115 70.6414 113.25 70.3939 113.415 70.1689C114.03 70.0189 114.698 69.8839 115.418 69.7639C117.038 69.4939 118.47 69.3289 119.715 69.2689V68.5939C119.715 66.9289 119.513 65.7814 119.108 65.1514C118.703 64.5214 118.08 64.2064 117.24 64.2064C116.925 64.2064 116.655 64.2439 116.43 64.3189L116.115 64.4314V67.8064L115.823 67.8739C115.583 67.9039 115.38 67.9189 115.215 67.9189C114.705 67.9189 114.293 67.7689 113.978 67.4689C113.678 67.1539 113.528 66.7414 113.528 66.2314C113.528 65.5414 113.873 64.9564 114.563 64.4764C115.268 63.9964 116.31 63.7564 117.69 63.7564C118.86 63.7564 119.865 63.9664 120.705 64.3864C121.56 64.7914 122.205 65.3614 122.64 66.0964C123.09 66.8164 123.315 67.6489 123.315 68.5939V74.6689L124.665 75.0064V75.3439H122.64C121.74 75.3439 121.043 75.0664 120.548 74.5114C120.338 74.2864 120.173 74.0014 120.053 73.6564C119.843 74.0314 119.595 74.3689 119.31 74.6689C118.635 75.3439 117.795 75.6814 116.79 75.6814ZM117.69 74.8939C118.245 74.8939 118.748 74.5939 119.198 73.9939C119.363 73.7689 119.535 73.4689 119.715 73.0939V69.8314C119.025 69.8314 118.365 69.8689 117.735 69.9439C117.27 70.0039 116.955 70.0414 116.79 70.0564C116.715 70.2214 116.64 70.4464 116.565 70.7314C116.415 71.3014 116.34 71.8639 116.34 72.4189C116.34 73.2589 116.468 73.8814 116.723 74.2864C116.978 74.6914 117.3 74.8939 117.69 74.8939ZM132.101 75.6814C130.181 75.6814 128.688 75.1564 127.623 74.1064C126.558 73.0414 126.026 71.5789 126.026 69.7189C126.026 67.8589 126.558 66.4039 127.623 65.3539C128.688 64.2889 130.181 63.7564 132.101 63.7564C133.481 63.7564 134.516 63.9964 135.206 64.4764C135.911 64.9564 136.263 65.5414 136.263 66.2314C136.263 66.7414 136.106 67.1539 135.791 67.4689C135.491 67.7689 135.086 67.9189 134.576 67.9189C134.366 67.9189 134.156 67.9039 133.946 67.8739L133.676 67.8064V64.4314L133.361 64.3189C133.136 64.2439 132.866 64.2064 132.551 64.2064C131.696 64.2064 131.028 64.6114 130.548 65.4214C130.083 66.2314 129.851 67.6639 129.851 69.7189C129.851 71.7139 130.083 73.1164 130.548 73.9264C131.028 74.7214 131.696 75.1189 132.551 75.1189C133.136 75.1189 133.676 74.9839 134.171 74.7139C134.681 74.4289 135.078 74.0614 135.363 73.6114C135.663 73.1464 135.813 72.6739 135.813 72.1939H136.376C136.376 72.7939 136.196 73.3639 135.836 73.9039C135.476 74.4439 134.973 74.8789 134.328 75.2089C133.683 75.5239 132.941 75.6814 132.101 75.6814ZM140.094 75.0064L141.444 74.6689V64.6564H139.757C139.757 65.4814 139.509 66.3139 139.014 67.1539C138.819 67.4689 138.579 67.7614 138.294 68.0314H137.619V64.0939H148.869V68.0314H148.194C147.909 67.7764 147.662 67.4839 147.452 67.1539C146.972 66.3439 146.732 65.5114 146.732 64.6564H145.044V74.6689L146.394 75.0064V75.3439H140.094V75.0064ZM150.328 75.3439V75.0064L151.678 74.6689V64.7689L150.328 64.4314V64.0939H156.628V64.4314L155.278 64.7689V69.3814H158.653V64.7689L157.303 64.4314V64.0939H163.603V64.4314L162.253 64.7689V74.6689L163.603 75.0064V75.3439H157.303V75.0064L158.653 74.6689V69.9439H155.278V74.6689L156.628 75.0064V75.3439H150.328ZM165.401 75.0064L166.751 74.6689V64.7689L165.401 64.4314V64.0939H171.701V64.4314L170.351 64.7689V68.5939H171.476C175.376 68.5939 177.326 69.7189 177.326 71.9689C177.326 74.2189 175.376 75.3439 171.476 75.3439H165.401V75.0064ZM177.776 75.3439V75.0064L179.126 74.6689V64.7689L177.776 64.4314V64.0939H184.076V64.4314L182.726 64.7689V74.6689L184.076 75.0064V75.3439H177.776ZM171.476 74.7814C172.136 74.7814 172.653 74.5489 173.028 74.0839C173.418 73.6039 173.613 72.8989 173.613 71.9689C173.613 71.0389 173.418 70.3414 173.028 69.8764C172.653 69.3964 172.136 69.1564 171.476 69.1564H170.351V74.7814H171.476ZM191.954 75.6814C190.034 75.6814 188.542 75.1564 187.477 74.1064C186.412 73.0414 185.879 71.5789 185.879 69.7189C185.879 68.5039 186.112 67.4464 186.577 66.5464C187.042 65.6464 187.687 64.9564 188.512 64.4764C189.352 63.9964 190.312 63.7564 191.392 63.7564C192.472 63.7564 193.417 63.9589 194.227 64.3639C195.052 64.7689 195.682 65.3164 196.117 66.0064C196.567 66.6814 196.792 67.4314 196.792 68.2564C196.792 68.6314 196.754 68.9539 196.679 69.2239L196.567 69.6064C195.922 69.7414 195.224 69.8539 194.474 69.9439C192.899 70.1689 191.309 70.2814 189.704 70.2814C189.704 72.0214 189.944 73.2664 190.424 74.0164C190.904 74.7514 191.564 75.1189 192.404 75.1189C192.989 75.1189 193.529 74.9839 194.024 74.7139C194.534 74.4289 194.932 74.0614 195.217 73.6114C195.517 73.1464 195.667 72.6739 195.667 72.1939H196.229C196.229 72.7939 196.049 73.3639 195.689 73.9039C195.329 74.4439 194.827 74.8789 194.182 75.2089C193.537 75.5239 192.794 75.6814 191.954 75.6814ZM189.704 69.7189C190.664 69.7189 191.444 69.6814 192.044 69.6064C192.299 69.5914 192.569 69.5539 192.854 69.4939C192.869 69.4189 192.907 69.2539 192.967 68.9989C193.042 68.6239 193.079 68.2264 193.079 67.8064C193.079 66.5614 192.914 65.6539 192.584 65.0839C192.254 64.4989 191.857 64.2064 191.392 64.2064C190.267 64.2064 189.704 66.0439 189.704 69.7189ZM45.2385 101.006L46.5885 100.669V90.6564H44.901C44.901 91.4814 44.6535 92.3139 44.1585 93.1539C43.9635 93.4689 43.7235 93.7614 43.4385 94.0314H42.7635V90.0939H54.0135V94.0314H53.3385C53.0535 93.7764 52.806 93.4839 52.596 93.1539C52.116 92.3439 51.876 91.5114 51.876 90.6564H50.1885V100.669L51.5385 101.006V101.344H45.2385V101.006ZM61.4341 101.681C59.5741 101.681 58.1116 101.156 57.0466 100.106C55.9966 99.0414 55.4716 97.5789 55.4716 95.7189C55.4716 93.8589 55.9966 92.4039 57.0466 91.3539C58.1116 90.2889 59.5741 89.7564 61.4341 89.7564C63.2941 89.7564 64.7491 90.2889 65.7991 91.3539C66.8641 92.4039 67.3966 93.8589 67.3966 95.7189C67.3966 97.5789 66.8641 99.0414 65.7991 100.106C64.7491 101.156 63.2941 101.681 61.4341 101.681ZM61.4341 101.231C62.0341 101.231 62.5366 100.811 62.9416 99.9714C63.3616 99.1314 63.5716 97.7139 63.5716 95.7189C63.5716 93.7239 63.3616 92.3064 62.9416 91.4664C62.5366 90.6264 62.0341 90.2064 61.4341 90.2064C60.8341 90.2064 60.3241 90.6264 59.9041 91.4664C59.4991 92.3064 59.2966 93.7239 59.2966 95.7189C59.2966 97.7139 59.4991 99.1314 59.9041 99.9714C60.3241 100.811 60.8341 101.231 61.4341 101.231ZM70.217 101.681C69.542 101.681 69.017 101.501 68.642 101.141C68.267 100.781 68.0795 100.286 68.0795 99.6564C68.0795 99.1614 68.2445 98.7414 68.5745 98.3964C68.9195 98.0364 69.317 97.8564 69.767 97.8564C69.887 97.8564 70.007 97.8714 70.127 97.9014C70.247 97.9164 70.3295 97.9239 70.3745 97.9239L70.667 97.9689V101.006C71.027 100.841 71.342 100.511 71.612 100.016C71.882 99.5214 72.0545 98.6889 72.1295 97.5189L72.5795 90.8814L71.0045 90.4314V90.0939H81.467V90.4314L80.117 90.7689V100.669L81.467 101.006V101.344H75.167V101.006L76.517 100.669V90.6564H73.2545L72.8045 97.5189C72.7145 98.9439 72.4295 99.9939 71.9495 100.669C71.4695 101.344 70.892 101.681 70.217 101.681ZM102.617 105.056C102.227 104.801 101.905 104.494 101.65 104.134C101.02 103.324 100.705 102.394 100.705 101.344H83.267V101.006L84.617 100.669V90.7689L83.267 90.4314V90.0939H89.4545V90.4314L88.217 90.7689V100.781H91.142V90.7689L89.9045 90.4314V90.0939H95.9795V90.4314L94.742 90.7689V100.781H97.667V90.7689L96.4295 90.4314V90.0939H102.617V90.4314L101.267 90.7689V100.781H103.292V105.056H102.617ZM104.537 101.344V101.006L105.887 100.669V90.7689L104.537 90.4314V90.0939H110.837V90.4314L109.487 90.7689V98.1939L113.087 92.0064V90.7689L111.737 90.4314V90.0939H118.037V90.4314L116.687 90.7689V100.669L118.037 101.006V101.344H111.737V101.006L113.087 100.669V93.2439L109.487 99.4314V100.669L110.837 101.006V101.344H104.537ZM119.83 101.344V101.006L121.18 100.669V90.7689L119.83 90.4314V90.0939H126.13V90.4314L124.78 90.7689V95.3814H128.155V90.7689L126.805 90.4314V90.0939H133.105V90.4314L131.755 90.7689V100.669L133.105 101.006V101.344H126.805V101.006L128.155 100.669V95.9439H124.78V100.669L126.13 101.006V101.344H119.83ZM134.903 101.006L136.253 100.669V90.7689L134.903 90.4314V90.0939H141.203V90.4314L139.853 90.7689V94.5939H140.978C144.878 94.5939 146.828 95.7189 146.828 97.9689C146.828 100.219 144.878 101.344 140.978 101.344H134.903V101.006ZM147.278 101.344V101.006L148.628 100.669V90.7689L147.278 90.4314V90.0939H153.578V90.4314L152.228 90.7689V100.669L153.578 101.006V101.344H147.278ZM140.978 100.781C141.638 100.781 142.155 100.549 142.53 100.084C142.92 99.6039 143.115 98.8989 143.115 97.9689C143.115 97.0389 142.92 96.3414 142.53 95.8764C142.155 95.3964 141.638 95.1564 140.978 95.1564H139.853V100.781H140.978Z" fill="#26243E"/>
<path d="M322.763 60.8399C320.843 60.8399 319.35 60.3149 318.285 59.2649C317.22 58.1999 316.688 56.7374 316.688 54.8774C316.688 53.0174 317.22 51.5624 318.285 50.5124C319.35 49.4474 320.843 48.9149 322.763 48.9149C324.143 48.9149 325.178 49.1549 325.868 49.6349C326.573 50.1149 326.925 50.6999 326.925 51.3899C326.925 51.8999 326.768 52.3124 326.453 52.6274C326.153 52.9274 325.748 53.0774 325.238 53.0774C325.028 53.0774 324.818 53.0624 324.608 53.0324L324.338 52.9649V49.5899L324.023 49.4774C323.798 49.4024 323.528 49.3649 323.213 49.3649C322.358 49.3649 321.69 49.7699 321.21 50.5799C320.745 51.3899 320.513 52.8224 320.513 54.8774C320.513 56.8724 320.745 58.2749 321.21 59.0849C321.69 59.8799 322.358 60.2774 323.213 60.2774C323.798 60.2774 324.338 60.1424 324.833 59.8724C325.343 59.5874 325.74 59.2199 326.025 58.7699C326.325 58.3049 326.475 57.8324 326.475 57.3524H327.038C327.038 57.9524 326.858 58.5224 326.498 59.0624C326.138 59.6024 325.635 60.0374 324.99 60.3674C324.345 60.6824 323.603 60.8399 322.763 60.8399ZM328.394 64.6649L329.744 64.3274V49.9274L328.394 49.5899V49.2524H330.419C331.304 49.2524 332.001 49.5374 332.511 50.1074C332.706 50.3324 332.871 50.6099 333.006 50.9399C333.201 50.5499 333.449 50.2124 333.749 49.9274C334.424 49.2524 335.264 48.9149 336.269 48.9149C337.154 48.9149 337.941 49.1474 338.631 49.6124C339.321 50.0624 339.869 50.7374 340.274 51.6374C340.679 52.5224 340.881 53.6024 340.881 54.8774C340.881 56.7974 340.431 58.2749 339.531 59.3099C338.646 60.3299 337.446 60.8399 335.931 60.8399C335.211 60.8399 334.581 60.6899 334.041 60.3899C333.816 60.2849 333.584 60.1349 333.344 59.9399V64.3274L334.694 64.6649V65.0024H328.394V64.6649ZM335.031 60.1649C335.676 60.1649 336.171 59.7899 336.516 59.0399C336.876 58.2899 337.056 56.9024 337.056 54.8774C337.056 52.9424 336.891 51.5999 336.561 50.8499C336.246 50.0849 335.849 49.7024 335.369 49.7024C334.799 49.7024 334.289 50.0024 333.839 50.6024C333.644 50.8574 333.479 51.1574 333.344 51.5024V59.2649C333.554 59.4749 333.719 59.6249 333.839 59.7149C334.244 60.0149 334.641 60.1649 335.031 60.1649ZM348.756 60.8399C346.836 60.8399 345.344 60.3149 344.279 59.2649C343.214 58.1999 342.681 56.7374 342.681 54.8774C342.681 53.6624 342.914 52.6049 343.379 51.7049C343.844 50.8049 344.489 50.1149 345.314 49.6349C346.154 49.1549 347.114 48.9149 348.194 48.9149C349.274 48.9149 350.219 49.1174 351.029 49.5224C351.854 49.9274 352.484 50.4749 352.919 51.1649C353.369 51.8399 353.594 52.5899 353.594 53.4149C353.594 53.7899 353.556 54.1124 353.481 54.3824L353.369 54.7649C352.724 54.8999 352.026 55.0124 351.276 55.1024C349.701 55.3274 348.111 55.4399 346.506 55.4399C346.506 57.1799 346.746 58.4249 347.226 59.1749C347.706 59.9099 348.366 60.2774 349.206 60.2774C349.791 60.2774 350.331 60.1424 350.826 59.8724C351.336 59.5874 351.734 59.2199 352.019 58.7699C352.319 58.3049 352.469 57.8324 352.469 57.3524H353.031C353.031 57.9524 352.851 58.5224 352.491 59.0624C352.131 59.6024 351.629 60.0374 350.984 60.3674C350.339 60.6824 349.596 60.8399 348.756 60.8399ZM346.506 54.8774C347.466 54.8774 348.246 54.8399 348.846 54.7649C349.101 54.7499 349.371 54.7124 349.656 54.6524C349.671 54.5774 349.709 54.4124 349.769 54.1574C349.844 53.7824 349.881 53.3849 349.881 52.9649C349.881 51.7199 349.716 50.8124 349.386 50.2424C349.056 49.6574 348.659 49.3649 348.194 49.3649C347.069 49.3649 346.506 51.2024 346.506 54.8774ZM359.552 60.8399C358.577 60.8399 357.729 60.6824 357.009 60.3674C356.304 60.0374 355.764 59.6099 355.389 59.0849C355.014 58.5449 354.827 57.9674 354.827 57.3524H355.389C355.389 57.8474 355.547 58.3199 355.862 58.7699C356.177 59.2199 356.612 59.5874 357.167 59.8724C357.737 60.1424 358.382 60.2774 359.102 60.2774C360.827 60.2774 361.689 59.3774 361.689 57.5774C361.689 56.7074 361.494 56.0399 361.104 55.5749C360.714 55.1099 360.197 54.8774 359.552 54.8774H358.089V54.3149H359.102C359.747 54.3149 360.264 54.0974 360.654 53.6624C361.044 53.2274 361.239 52.6199 361.239 51.8399C361.239 51.0599 361.044 50.4524 360.654 50.0174C360.264 49.5824 359.747 49.3649 359.102 49.3649C358.727 49.3649 358.404 49.4024 358.134 49.4774L357.752 49.5899V52.9649L357.459 53.0324C357.219 53.0624 357.017 53.0774 356.852 53.0774C356.342 53.0774 355.929 52.9274 355.614 52.6274C355.314 52.3124 355.164 51.8999 355.164 51.3899C355.164 50.6999 355.524 50.1149 356.244 49.6349C356.979 49.1549 358.082 48.9149 359.552 48.9149C360.797 48.9149 361.824 49.0499 362.634 49.3199C363.444 49.5899 364.029 49.9499 364.389 50.3999C364.764 50.8349 364.952 51.3149 364.952 51.8399C364.952 52.4699 364.757 52.9649 364.367 53.3249C363.992 53.6849 363.489 53.9774 362.859 54.2024C362.244 54.4124 361.554 54.5249 360.789 54.5399V54.6524C361.584 54.6674 362.349 54.7874 363.084 55.0124C363.759 55.2224 364.314 55.5374 364.749 55.9574C365.184 56.3624 365.402 56.9024 365.402 57.5774C365.402 58.5674 364.944 59.3624 364.029 59.9624C363.114 60.5474 361.622 60.8399 359.552 60.8399ZM371.371 60.8399C370.036 60.8399 369.008 60.5549 368.288 59.9849C367.568 59.4149 367.208 58.6874 367.208 57.8024C367.208 57.2174 367.336 56.6399 367.591 56.0699C367.696 55.7999 367.831 55.5524 367.996 55.3274C368.611 55.1774 369.278 55.0424 369.998 54.9224C371.618 54.6524 373.051 54.4874 374.296 54.4274V53.7524C374.296 52.0874 374.093 50.9399 373.688 50.3099C373.283 49.6799 372.661 49.3649 371.821 49.3649C371.506 49.3649 371.236 49.4024 371.011 49.4774L370.696 49.5899V52.9649L370.403 53.0324C370.163 53.0624 369.961 53.0774 369.796 53.0774C369.286 53.0774 368.873 52.9274 368.558 52.6274C368.258 52.3124 368.108 51.8999 368.108 51.3899C368.108 50.6999 368.453 50.1149 369.143 49.6349C369.848 49.1549 370.891 48.9149 372.271 48.9149C373.441 48.9149 374.446 49.1249 375.286 49.5449C376.141 49.9499 376.786 50.5199 377.221 51.2549C377.671 51.9749 377.896 52.8074 377.896 53.7524V59.8274L379.246 60.1649V60.5024H377.221C376.321 60.5024 375.623 60.2249 375.128 59.6699C374.918 59.4449 374.753 59.1599 374.633 58.8149C374.423 59.1899 374.176 59.5274 373.891 59.8274C373.216 60.5024 372.376 60.8399 371.371 60.8399ZM372.271 60.0524C372.826 60.0524 373.328 59.7524 373.778 59.1524C373.943 58.9274 374.116 58.6274 374.296 58.2524V54.9899C373.606 54.9899 372.946 55.0274 372.316 55.1024C371.851 55.1624 371.536 55.1999 371.371 55.2149C371.296 55.3799 371.221 55.6049 371.146 55.8899C370.996 56.4599 370.921 57.0224 370.921 57.5774C370.921 58.4174 371.048 59.0399 371.303 59.4449C371.558 59.8499 371.881 60.0524 372.271 60.0524ZM380.606 60.5024V60.1649L381.956 59.8274V49.9274L380.606 49.5899V49.2524H386.906V49.5899L385.556 49.9274V54.5399H388.931V49.9274L387.581 49.5899V49.2524H393.881V49.5899L392.531 49.9274V59.8274L393.881 60.1649V60.5024H387.581V60.1649L388.931 59.8274V55.1024H385.556V59.8274L386.906 60.1649V60.5024H380.606ZM395.679 60.5024V60.1649L397.029 59.8274V49.9274L395.679 49.5899V49.2524H401.979V49.5899L400.629 49.9274V54.5399H404.004V49.9274L402.654 49.5899V49.2524H408.954V49.5899L407.604 49.9274V59.8274L408.954 60.1649V60.5024H402.654V60.1649L404.004 59.8274V55.1024H400.629V59.8274L401.979 60.1649V60.5024H395.679ZM410.753 60.1649L412.103 59.8274V49.9274L410.753 49.5899V49.2524H417.053V49.5899L415.703 49.9274V53.7524H416.828C420.728 53.7524 422.678 54.8774 422.678 57.1274C422.678 59.3774 420.728 60.5024 416.828 60.5024H410.753V60.1649ZM423.128 60.5024V60.1649L424.478 59.8274V49.9274L423.128 49.5899V49.2524H429.428V49.5899L428.078 49.9274V59.8274L429.428 60.1649V60.5024H423.128ZM416.828 59.9399C417.488 59.9399 418.005 59.7074 418.38 59.2424C418.77 58.7624 418.965 58.0574 418.965 57.1274C418.965 56.1974 418.77 55.4999 418.38 55.0349C418.005 54.5549 417.488 54.3149 416.828 54.3149H415.703V59.9399H416.828ZM437.306 60.8399C435.386 60.8399 433.894 60.3149 432.829 59.2649C431.764 58.1999 431.231 56.7374 431.231 54.8774C431.231 53.6624 431.464 52.6049 431.929 51.7049C432.394 50.8049 433.039 50.1149 433.864 49.6349C434.704 49.1549 435.664 48.9149 436.744 48.9149C437.824 48.9149 438.769 49.1174 439.579 49.5224C440.404 49.9274 441.034 50.4749 441.469 51.1649C441.919 51.8399 442.144 52.5899 442.144 53.4149C442.144 53.7899 442.106 54.1124 442.031 54.3824L441.919 54.7649C441.274 54.8999 440.576 55.0124 439.826 55.1024C438.251 55.3274 436.661 55.4399 435.056 55.4399C435.056 57.1799 435.296 58.4249 435.776 59.1749C436.256 59.9099 436.916 60.2774 437.756 60.2774C438.341 60.2774 438.881 60.1424 439.376 59.8724C439.886 59.5874 440.284 59.2199 440.569 58.7699C440.869 58.3049 441.019 57.8324 441.019 57.3524H441.581C441.581 57.9524 441.401 58.5224 441.041 59.0624C440.681 59.6024 440.179 60.0374 439.534 60.3674C438.889 60.6824 438.146 60.8399 437.306 60.8399ZM435.056 54.8774C436.016 54.8774 436.796 54.8399 437.396 54.7649C437.651 54.7499 437.921 54.7124 438.206 54.6524C438.221 54.5774 438.259 54.4124 438.319 54.1574C438.394 53.7824 438.431 53.3849 438.431 52.9649C438.431 51.7199 438.266 50.8124 437.936 50.2424C437.606 49.6574 437.209 49.3649 436.744 49.3649C435.619 49.3649 435.056 51.2024 435.056 54.8774ZM371.707 86.1649L373.057 85.8274V75.9274L371.707 75.5899V75.2524H378.007V75.5899L376.657 75.9274V80.3149H377.445C377.88 80.3149 378.255 80.1799 378.57 79.9099C378.885 79.6249 379.11 79.2724 379.245 78.8524L379.807 76.8274C380.167 75.6274 380.842 75.0274 381.832 75.0274C382.507 75.0274 383.032 75.2074 383.407 75.5674C383.782 75.9274 383.97 76.4224 383.97 77.0524C383.97 77.6224 383.812 78.0649 383.497 78.3799C383.197 78.6949 382.792 78.8524 382.282 78.8524C382.072 78.8524 381.862 78.8374 381.652 78.8074L381.382 78.7399V75.7024C380.932 75.8224 380.632 76.1974 380.482 76.8274L379.92 78.8524C379.77 79.3774 379.522 79.7974 379.177 80.1124C379.057 80.2324 378.892 80.3374 378.682 80.4274H379.357C380.242 80.4274 380.932 80.6074 381.427 80.9674C381.937 81.3124 382.297 81.7699 382.507 82.3399L383.632 85.8274L384.757 86.1649V86.5024H382.395C381.6 86.5024 380.955 86.3224 380.46 85.9624C379.98 85.6024 379.65 85.1449 379.47 84.5899L378.232 80.8774H376.657V85.8274L378.007 86.1649V86.5024H371.707V86.1649ZM390.157 86.8399C388.822 86.8399 387.795 86.5549 387.075 85.9849C386.355 85.4149 385.995 84.6874 385.995 83.8024C385.995 83.2174 386.122 82.6399 386.377 82.0699C386.482 81.7999 386.617 81.5524 386.782 81.3274C387.397 81.1774 388.065 81.0424 388.785 80.9224C390.405 80.6524 391.837 80.4874 393.082 80.4274V79.7524C393.082 78.0874 392.88 76.9399 392.475 76.3099C392.07 75.6799 391.447 75.3649 390.607 75.3649C390.292 75.3649 390.022 75.4024 389.797 75.4774L389.482 75.5899V78.9649L389.19 79.0324C388.95 79.0624 388.747 79.0774 388.582 79.0774C388.072 79.0774 387.66 78.9274 387.345 78.6274C387.045 78.3124 386.895 77.8999 386.895 77.3899C386.895 76.6999 387.24 76.1149 387.93 75.6349C388.635 75.1549 389.677 74.9149 391.057 74.9149C392.227 74.9149 393.232 75.1249 394.072 75.5449C394.927 75.9499 395.572 76.5199 396.007 77.2549C396.457 77.9749 396.682 78.8074 396.682 79.7524V85.8274L398.032 86.1649V86.5024H396.007C395.107 86.5024 394.41 86.2249 393.915 85.6699C393.705 85.4449 393.54 85.1599 393.42 84.8149C393.21 85.1899 392.962 85.5274 392.677 85.8274C392.002 86.5024 391.162 86.8399 390.157 86.8399ZM391.057 86.0524C391.612 86.0524 392.115 85.7524 392.565 85.1524C392.73 84.9274 392.902 84.6274 393.082 84.2524V80.9899C392.392 80.9899 391.732 81.0274 391.102 81.1024C390.637 81.1624 390.322 81.1999 390.157 81.2149C390.082 81.3799 390.007 81.6049 389.932 81.8899C389.782 82.4599 389.707 83.0224 389.707 83.5774C389.707 84.4174 389.835 85.0399 390.09 85.4449C390.345 85.8499 390.667 86.0524 391.057 86.0524ZM399.393 86.5024V86.1649L400.743 85.8274V75.9274L399.393 75.5899V75.2524H412.668V75.5899L411.318 75.9274V85.8274L412.668 86.1649V86.5024H406.368V86.1649L407.718 85.8274V75.8149H404.343V85.8274L405.693 86.1649V86.5024H399.393ZM415.478 86.8399C414.803 86.8399 414.278 86.6599 413.903 86.2999C413.528 85.9399 413.341 85.4449 413.341 84.8149C413.341 84.3199 413.506 83.8999 413.836 83.5549C414.181 83.1949 414.578 83.0149 415.028 83.0149C415.148 83.0149 415.268 83.0299 415.388 83.0599C415.508 83.0749 415.591 83.0824 415.636 83.0824L415.928 83.1274V86.1649C416.288 85.9999 416.603 85.6699 416.873 85.1749C417.143 84.6799 417.316 83.8474 417.391 82.6774L417.841 76.0399L416.266 75.5899V75.2524H426.728V75.5899L425.378 75.9274V85.8274L426.728 86.1649V86.5024H420.428V86.1649L421.778 85.8274V75.8149H418.516L418.066 82.6774C417.976 84.1024 417.691 85.1524 417.211 85.8274C416.731 86.5024 416.153 86.8399 415.478 86.8399ZM428.528 86.5024V86.1649L429.878 85.8274V75.9274L428.528 75.5899V75.2524H434.828V75.5899L433.478 75.9274V83.3524L437.078 77.1649V75.9274L435.728 75.5899V75.2524H442.028V75.5899L440.678 75.9274V85.8274L442.028 86.1649V86.5024H435.728V86.1649L437.078 85.8274V78.4024L433.478 84.5899V85.8274L434.828 86.1649V86.5024H428.528Z" fill="#26243E"/>
</svg>
