<svg width="369" height="547" viewBox="0 0 369 547" fill="none" xmlns="http://www.w3.org/2000/svg">
<rect x="9.1875" y="9.06232" width="351" height="528.75" fill="#C4D8CB" stroke="#26243E" stroke-width="16.875"/>
<path d="M161.688 266.125C161.688 296.259 137.259 320.687 107.125 320.687C76.991 320.687 52.5625 296.259 52.5625 266.125C52.5625 235.991 76.991 211.562 107.125 211.562C137.259 211.562 161.688 235.991 161.688 266.125Z" fill="#E9B7AA" fill-opacity="0.3" stroke="#E9B7AA" stroke-width="3.375"/>
<path d="M242.062 212.125V493.375" stroke="#E9B7AA" stroke-width="5.625"/>
<path d="M241.781 454.219C225.656 454.219 211.125 450.375 198.188 442.687C185.438 435 175.313 423.75 167.813 408.937C160.313 394.125 156.375 376.406 156 355.781H132.094V441.562L148.969 445.781V450H68.8125V445.781L85.6875 441.562V261.562L68.8125 257.344V253.125H148.969V257.344L132.094 261.562V348.75H156C156.375 327.562 160.219 309.469 167.531 294.469C174.844 279.469 184.875 268.125 197.625 260.437C210.375 252.75 225.094 248.906 241.781 248.906C258.281 248.906 273 252.937 285.938 261C299.063 269.062 309.281 280.781 316.594 296.156C323.906 311.531 327.563 330 327.563 351.562C327.563 373.125 323.906 391.594 316.594 406.969C309.281 422.344 299.063 434.062 285.938 442.125C273 450.187 258.281 454.219 241.781 454.219ZM241.781 448.594C251.906 448.594 260.531 441.281 267.656 426.656C274.781 411.844 278.344 386.812 278.344 351.562C278.344 316.312 274.781 291.375 267.656 276.75C260.531 261.937 251.906 254.531 241.781 254.531C231.656 254.531 223.031 261.937 215.906 276.75C208.781 291.375 205.219 316.312 205.219 351.562C205.219 386.812 208.781 411.844 215.906 426.656C223.031 441.281 231.656 448.594 241.781 448.594Z" fill="#26243E"/>
<path d="M45.525 68.0874C44.55 68.0874 43.7025 67.9299 42.9825 67.6149C42.2775 67.2849 41.7375 66.8574 41.3625 66.3324C40.9875 65.7924 40.8 65.2149 40.8 64.5999H41.3625C41.3625 65.0949 41.52 65.5674 41.835 66.0174C42.15 66.4674 42.585 66.8349 43.14 67.1199C43.71 67.3899 44.355 67.5249 45.075 67.5249C46.8 67.5249 47.6625 66.6249 47.6625 64.8249C47.6625 63.9549 47.4675 63.2874 47.0775 62.8224C46.6875 62.3574 46.17 62.1249 45.525 62.1249H44.0625V61.5624H45.075C45.72 61.5624 46.2375 61.3449 46.6275 60.9099C47.0175 60.4749 47.2125 59.8674 47.2125 59.0874C47.2125 58.3074 47.0175 57.6999 46.6275 57.2649C46.2375 56.8299 45.72 56.6124 45.075 56.6124C44.7 56.6124 44.3775 56.6499 44.1075 56.7249L43.725 56.8374V60.2124L43.4325 60.2799C43.1925 60.3099 42.99 60.3249 42.825 60.3249C42.315 60.3249 41.9025 60.1749 41.5875 59.8749C41.2875 59.5599 41.1375 59.1474 41.1375 58.6374C41.1375 57.9474 41.4975 57.3624 42.2175 56.8824C42.9525 56.4024 44.055 56.1624 45.525 56.1624C46.77 56.1624 47.7975 56.2974 48.6075 56.5674C49.4175 56.8374 50.0025 57.1974 50.3625 57.6474C50.7375 58.0824 50.925 58.5624 50.925 59.0874C50.925 59.7174 50.73 60.2124 50.34 60.5724C49.965 60.9324 49.4625 61.2249 48.8325 61.4499C48.2175 61.6599 47.5275 61.7724 46.7625 61.7874V61.8999C47.5575 61.9149 48.3225 62.0349 49.0575 62.2599C49.7325 62.4699 50.2875 62.7849 50.7225 63.2049C51.1575 63.6099 51.375 64.1499 51.375 64.8249C51.375 65.8149 50.9175 66.6099 50.0025 67.2099C49.0875 67.7949 47.595 68.0874 45.525 68.0874ZM57.3437 68.0874C56.0087 68.0874 54.9812 67.8024 54.2612 67.2324C53.5412 66.6624 53.1812 65.9349 53.1812 65.0499C53.1812 64.4649 53.3087 63.8874 53.5637 63.3174C53.6687 63.0474 53.8037 62.7999 53.9687 62.5749C54.5837 62.4249 55.2512 62.2899 55.9712 62.1699C57.5912 61.8999 59.0237 61.7349 60.2687 61.6749V60.9999C60.2687 59.3349 60.0662 58.1874 59.6612 57.5574C59.2562 56.9274 58.6337 56.6124 57.7937 56.6124C57.4787 56.6124 57.2087 56.6499 56.9837 56.7249L56.6687 56.8374V60.2124L56.3762 60.2799C56.1362 60.3099 55.9337 60.3249 55.7687 60.3249C55.2587 60.3249 54.8462 60.1749 54.5312 59.8749C54.2312 59.5599 54.0812 59.1474 54.0812 58.6374C54.0812 57.9474 54.4262 57.3624 55.1162 56.8824C55.8212 56.4024 56.8637 56.1624 58.2437 56.1624C59.4137 56.1624 60.4187 56.3724 61.2587 56.7924C62.1137 57.1974 62.7587 57.7674 63.1937 58.5024C63.6437 59.2224 63.8687 60.0549 63.8687 60.9999V67.0749L65.2187 67.4124V67.7499H63.1937C62.2937 67.7499 61.5962 67.4724 61.1012 66.9174C60.8912 66.6924 60.7262 66.4074 60.6062 66.0624C60.3962 66.4374 60.1487 66.7749 59.8637 67.0749C59.1887 67.7499 58.3487 68.0874 57.3437 68.0874ZM58.2437 67.2999C58.7987 67.2999 59.3012 66.9999 59.7512 66.3999C59.9162 66.1749 60.0887 65.8749 60.2687 65.4999V62.2374C59.5787 62.2374 58.9187 62.2749 58.2887 62.3499C57.8237 62.4099 57.5087 62.4474 57.3437 62.4624C57.2687 62.6274 57.1937 62.8524 57.1187 63.1374C56.9687 63.7074 56.8937 64.2699 56.8937 64.8249C56.8937 65.6649 57.0212 66.2874 57.2762 66.6924C57.5312 67.0974 57.8537 67.2999 58.2437 67.2999ZM72.6542 68.0874C70.7342 68.0874 69.2417 67.5624 68.1767 66.5124C67.1117 65.4474 66.5792 63.9849 66.5792 62.1249C66.5792 60.2649 67.1117 58.8099 68.1767 57.7599C69.2417 56.6949 70.7342 56.1624 72.6542 56.1624C74.0342 56.1624 75.0692 56.4024 75.7592 56.8824C76.4642 57.3624 76.8167 57.9474 76.8167 58.6374C76.8167 59.1474 76.6592 59.5599 76.3442 59.8749C76.0442 60.1749 75.6392 60.3249 75.1292 60.3249C74.9192 60.3249 74.7092 60.3099 74.4992 60.2799L74.2292 60.2124V56.8374L73.9142 56.7249C73.6892 56.6499 73.4192 56.6124 73.1042 56.6124C72.2492 56.6124 71.5817 57.0174 71.1017 57.8274C70.6367 58.6374 70.4042 60.0699 70.4042 62.1249C70.4042 64.1199 70.6367 65.5224 71.1017 66.3324C71.5817 67.1274 72.2492 67.5249 73.1042 67.5249C73.6892 67.5249 74.2292 67.3899 74.7242 67.1199C75.2342 66.8349 75.6317 66.4674 75.9167 66.0174C76.2167 65.5524 76.3667 65.0799 76.3667 64.5999H76.9292C76.9292 65.1999 76.7492 65.7699 76.3892 66.3099C76.0292 66.8499 75.5267 67.2849 74.8817 67.6149C74.2367 67.9299 73.4942 68.0874 72.6542 68.0874ZM84.3656 68.0874C82.4456 68.0874 80.9531 67.5624 79.8881 66.5124C78.8231 65.4474 78.2906 63.9849 78.2906 62.1249C78.2906 60.9099 78.5231 59.8524 78.9881 58.9524C79.4531 58.0524 80.0981 57.3624 80.9231 56.8824C81.7631 56.4024 82.7231 56.1624 83.8031 56.1624C84.8831 56.1624 85.8281 56.3649 86.6381 56.7699C87.4631 57.1749 88.0931 57.7224 88.5281 58.4124C88.9781 59.0874 89.2031 59.8374 89.2031 60.6624C89.2031 61.0374 89.1656 61.3599 89.0906 61.6299L88.9781 62.0124C88.3331 62.1474 87.6356 62.2599 86.8856 62.3499C85.3106 62.5749 83.7206 62.6874 82.1156 62.6874C82.1156 64.4274 82.3556 65.6724 82.8356 66.4224C83.3156 67.1574 83.9756 67.5249 84.8156 67.5249C85.4006 67.5249 85.9406 67.3899 86.4356 67.1199C86.9456 66.8349 87.3431 66.4674 87.6281 66.0174C87.9281 65.5524 88.0781 65.0799 88.0781 64.5999H88.6406C88.6406 65.1999 88.4606 65.7699 88.1006 66.3099C87.7406 66.8499 87.2381 67.2849 86.5931 67.6149C85.9481 67.9299 85.2056 68.0874 84.3656 68.0874ZM82.1156 62.1249C83.0756 62.1249 83.8556 62.0874 84.4556 62.0124C84.7106 61.9974 84.9806 61.9599 85.2656 61.8999C85.2806 61.8249 85.3181 61.6599 85.3781 61.4049C85.4531 61.0299 85.4906 60.6324 85.4906 60.2124C85.4906 58.9674 85.3256 58.0599 84.9956 57.4899C84.6656 56.9049 84.2681 56.6124 83.8031 56.6124C82.6781 56.6124 82.1156 58.4499 82.1156 62.1249ZM97.0685 67.4124L98.4185 67.0749V63.1374C98.1185 63.3174 97.751 63.4599 97.316 63.5649C96.896 63.6549 96.476 63.6999 96.056 63.6999C94.586 63.6999 93.4835 63.4074 92.7485 62.8224C92.0285 62.2374 91.6685 61.4424 91.6685 60.4374V57.1749L90.3185 56.8374V56.4999H96.6185V56.8374L95.2685 57.1749V60.4374C95.2685 61.4124 95.411 62.1099 95.696 62.5299C95.996 62.9349 96.416 63.1374 96.956 63.1374C97.556 63.1374 98.0435 62.9499 98.4185 62.5749V57.1749L97.0685 56.8374V56.4999H103.368V56.8374L102.018 57.1749V67.0749L103.368 67.4124V67.7499H97.0685V67.4124ZM105.163 67.4124L106.513 67.0749V57.1749L105.163 56.8374V56.4999H111.463V56.8374L110.113 57.1749V61.5624H110.901C111.336 61.5624 111.711 61.4274 112.026 61.1574C112.341 60.8724 112.566 60.5199 112.701 60.0999L113.263 58.0749C113.623 56.8749 114.298 56.2749 115.288 56.2749C115.963 56.2749 116.488 56.4549 116.863 56.8149C117.238 57.1749 117.426 57.6699 117.426 58.2999C117.426 58.8699 117.268 59.3124 116.953 59.6274C116.653 59.9424 116.248 60.0999 115.738 60.0999C115.528 60.0999 115.318 60.0849 115.108 60.0549L114.838 59.9874V56.9499C114.388 57.0699 114.088 57.4449 113.938 58.0749L113.376 60.0999C113.226 60.6249 112.978 61.0449 112.633 61.3599C112.513 61.4799 112.348 61.5849 112.138 61.6749H112.813C113.698 61.6749 114.388 61.8549 114.883 62.2149C115.393 62.5599 115.753 63.0174 115.963 63.5874L117.088 67.0749L118.213 67.4124V67.7499H115.851C115.056 67.7499 114.411 67.5699 113.916 67.2099C113.436 66.8499 113.106 66.3924 112.926 65.8374L111.688 62.1249H110.113V67.0749L111.463 67.4124V67.7499H105.163V67.4124ZM119.226 67.7499V67.4124L120.576 67.0749V57.1749L119.226 56.8374V56.4999H125.526V56.8374L124.176 57.1749V64.5999L127.776 58.4124V57.1749L126.426 56.8374V56.4999H132.726V56.8374L131.376 57.1749V67.0749L132.726 67.4124V67.7499H126.426V67.4124L127.776 67.0749V59.6499L124.176 65.8374V67.0749L125.526 67.4124V67.7499H119.226ZM140.825 67.7499V67.4124L142.175 67.0749V57.1749L140.825 56.8374V56.4999H154.1V56.8374L152.75 57.1749V67.0749L154.1 67.4124V67.7499H147.8V67.4124L149.15 67.0749V57.0624H145.775V67.0749L147.125 67.4124V67.7499H140.825ZM155.673 71.9124L157.023 71.5749V57.1749L155.673 56.8374V56.4999H157.698C158.583 56.4999 159.281 56.7849 159.791 57.3549C159.986 57.5799 160.151 57.8574 160.286 58.1874C160.481 57.7974 160.728 57.4599 161.028 57.1749C161.703 56.4999 162.543 56.1624 163.548 56.1624C164.433 56.1624 165.221 56.3949 165.911 56.8599C166.601 57.3099 167.148 57.9849 167.553 58.8849C167.958 59.7699 168.161 60.8499 168.161 62.1249C168.161 64.0449 167.711 65.5224 166.811 66.5574C165.926 67.5774 164.726 68.0874 163.211 68.0874C162.491 68.0874 161.861 67.9374 161.321 67.6374C161.096 67.5324 160.863 67.3824 160.623 67.1874V71.5749L161.973 71.9124V72.2499H155.673V71.9124ZM162.311 67.4124C162.956 67.4124 163.451 67.0374 163.796 66.2874C164.156 65.5374 164.336 64.1499 164.336 62.1249C164.336 60.1899 164.171 58.8474 163.841 58.0974C163.526 57.3324 163.128 56.9499 162.648 56.9499C162.078 56.9499 161.568 57.2499 161.118 57.8499C160.923 58.1049 160.758 58.4049 160.623 58.7499V66.5124C160.833 66.7224 160.998 66.8724 161.118 66.9624C161.523 67.2624 161.921 67.4124 162.311 67.4124ZM169.173 67.4124L170.298 67.0749L171.198 64.3749C171.438 63.6549 172.076 63.1299 173.111 62.7999C173.531 62.6799 174.018 62.6049 174.573 62.5749V62.4624C173.883 62.4474 173.208 62.3274 172.548 62.1024C171.198 61.6224 170.523 60.8049 170.523 59.6499C170.523 58.7199 170.981 57.9624 171.896 57.3774C172.826 56.7924 174.318 56.4999 176.373 56.4999H182.336V56.8374L180.986 57.1749V67.0749L182.336 67.4124V67.7499H176.036V67.4124L177.386 67.0749V62.7999H175.586L174.573 65.9499C174.408 66.4449 174.086 66.8724 173.606 67.2324C173.141 67.5774 172.563 67.7499 171.873 67.7499H169.173V67.4124ZM177.386 62.2374V57.0624H176.373C175.728 57.0624 175.211 57.2874 174.821 57.7374C174.431 58.1724 174.236 58.8099 174.236 59.6499C174.236 60.4899 174.431 61.1349 174.821 61.5849C175.211 62.0199 175.728 62.2374 176.373 62.2374H177.386ZM186.158 59.1999V66.7374L187.958 67.4124V67.7499H183.683V67.4124L185.483 66.7374V57.1749L183.908 56.8374V56.4999H186.945C187.68 56.4999 188.273 56.6574 188.723 56.9724C189.173 57.2874 189.555 57.7299 189.87 58.2999L192.93 63.7224L195.383 58.2999C195.668 57.6999 196.028 57.2499 196.463 56.9499C196.898 56.6499 197.513 56.4999 198.308 56.4999H200.558V56.8374L199.208 57.1749V67.0749L200.558 67.4124V67.7499H194.258V67.4124L195.608 67.0749V59.1999L191.648 67.9749H191.108L186.158 59.1999ZM202.348 67.4124L203.698 67.0749V57.1749L202.348 56.8374V56.4999H208.648V56.8374L207.298 57.1749V60.9999H208.423C212.323 60.9999 214.273 62.1249 214.273 64.3749C214.273 66.6249 212.323 67.7499 208.423 67.7499H202.348V67.4124ZM214.723 67.7499V67.4124L216.073 67.0749V57.1749L214.723 56.8374V56.4999H221.023V56.8374L219.673 57.1749V67.0749L221.023 67.4124V67.7499H214.723ZM208.423 67.1874C209.083 67.1874 209.601 66.9549 209.976 66.4899C210.366 66.0099 210.561 65.3049 210.561 64.3749C210.561 63.4449 210.366 62.7474 209.976 62.2824C209.601 61.8024 209.083 61.5624 208.423 61.5624H207.298V67.1874H208.423ZM228.902 68.0874C226.982 68.0874 225.489 67.5624 224.424 66.5124C223.359 65.4474 222.827 63.9849 222.827 62.1249C222.827 60.9099 223.059 59.8524 223.524 58.9524C223.989 58.0524 224.634 57.3624 225.459 56.8824C226.299 56.4024 227.259 56.1624 228.339 56.1624C229.419 56.1624 230.364 56.3649 231.174 56.7699C231.999 57.1749 232.629 57.7224 233.064 58.4124C233.514 59.0874 233.739 59.8374 233.739 60.6624C233.739 61.0374 233.702 61.3599 233.627 61.6299L233.514 62.0124C232.869 62.1474 232.172 62.2599 231.422 62.3499C229.847 62.5749 228.257 62.6874 226.652 62.6874C226.652 64.4274 226.892 65.6724 227.372 66.4224C227.852 67.1574 228.512 67.5249 229.352 67.5249C229.937 67.5249 230.477 67.3899 230.972 67.1199C231.482 66.8349 231.879 66.4674 232.164 66.0174C232.464 65.5524 232.614 65.0799 232.614 64.5999H233.177C233.177 65.1999 232.997 65.7699 232.637 66.3099C232.277 66.8499 231.774 67.2849 231.129 67.6149C230.484 67.9299 229.742 68.0874 228.902 68.0874ZM226.652 62.1249C227.612 62.1249 228.392 62.0874 228.992 62.0124C229.247 61.9974 229.517 61.9599 229.802 61.8999C229.817 61.8249 229.854 61.6599 229.914 61.4049C229.989 61.0299 230.027 60.6324 230.027 60.2124C230.027 58.9674 229.862 58.0599 229.532 57.4899C229.202 56.9049 228.804 56.6124 228.339 56.6124C227.214 56.6124 226.652 58.4499 226.652 62.1249ZM236.092 70.1124C236.407 70.0074 236.722 69.8349 237.037 69.5949C237.682 69.1149 238.08 68.4624 238.23 67.6374L237.937 67.8174C237.742 67.9224 237.502 67.9749 237.217 67.9749C236.767 67.9749 236.37 67.8099 236.025 67.4799C235.695 67.1349 235.53 66.7374 235.53 66.2874C235.53 65.8374 235.695 65.4474 236.025 65.1174C236.37 64.7724 236.767 64.5999 237.217 64.5999C237.742 64.5999 238.17 64.7874 238.5 65.1624C238.845 65.5224 239.017 66.0099 239.017 66.6249C239.017 68.0049 238.567 69.0849 237.667 69.8649C237.277 70.2249 236.827 70.4949 236.317 70.6749L236.092 70.1124ZM246.563 67.4124L248.363 66.7374L251.153 63.1599L247.351 57.1749L246.226 56.8374V56.4999H249.263C249.983 56.4999 250.568 56.6649 251.018 56.9949C251.468 57.3099 251.896 57.7824 252.301 58.4124L253.448 60.2349L255.563 57.5124L253.876 56.8374V56.4999H258.151V56.8374L256.351 57.5124L253.786 60.7749L257.813 67.0749L258.938 67.4124V67.7499H255.901C255.181 67.7499 254.596 67.5924 254.146 67.2774C253.696 66.9624 253.268 66.4824 252.863 65.8374L251.513 63.7224L249.151 66.7374L250.838 67.4124V67.7499H246.563V67.4124ZM265.242 68.0874C263.382 68.0874 261.919 67.5624 260.854 66.5124C259.804 65.4474 259.279 63.9849 259.279 62.1249C259.279 60.2649 259.804 58.8099 260.854 57.7599C261.919 56.6949 263.382 56.1624 265.242 56.1624C267.102 56.1624 268.557 56.6949 269.607 57.7599C270.672 58.8099 271.204 60.2649 271.204 62.1249C271.204 63.9849 270.672 65.4474 269.607 66.5124C268.557 67.5624 267.102 68.0874 265.242 68.0874ZM265.242 67.6374C265.842 67.6374 266.344 67.2174 266.749 66.3774C267.169 65.5374 267.379 64.1199 267.379 62.1249C267.379 60.1299 267.169 58.7124 266.749 57.8724C266.344 57.0324 265.842 56.6124 265.242 56.6124C264.642 56.6124 264.132 57.0324 263.712 57.8724C263.307 58.7124 263.104 60.1299 263.104 62.1249C263.104 64.1199 263.307 65.5374 263.712 66.3774C264.132 67.2174 264.642 67.6374 265.242 67.6374ZM275.15 67.4124L276.5 67.0749V57.0624H274.812C274.812 57.8874 274.565 58.7199 274.07 59.5599C273.875 59.8749 273.635 60.1674 273.35 60.4374H272.675V56.4999H283.925V60.4374H283.25C282.965 60.1824 282.717 59.8899 282.507 59.5599C282.027 58.7499 281.787 57.9174 281.787 57.0624H280.1V67.0749L281.45 67.4124V67.7499H275.15V67.4124ZM284.376 67.4124L285.501 67.0749L286.401 64.3749C286.641 63.6549 287.278 63.1299 288.313 62.7999C288.733 62.6799 289.221 62.6049 289.776 62.5749V62.4624C289.086 62.4474 288.411 62.3274 287.751 62.1024C286.401 61.6224 285.726 60.8049 285.726 59.6499C285.726 58.7199 286.183 57.9624 287.098 57.3774C288.028 56.7924 289.521 56.4999 291.576 56.4999H297.538V56.8374L296.188 57.1749V67.0749L297.538 67.4124V67.7499H291.238V67.4124L292.588 67.0749V62.7999H290.788L289.776 65.9499C289.611 66.4449 289.288 66.8724 288.808 67.2324C288.343 67.5774 287.766 67.7499 287.076 67.7499H284.376V67.4124ZM292.588 62.2374V57.0624H291.576C290.931 57.0624 290.413 57.2874 290.023 57.7374C289.633 58.1724 289.438 58.8099 289.438 59.6499C289.438 60.4899 289.633 61.1349 290.023 61.5849C290.413 62.0199 290.931 62.2374 291.576 62.2374H292.588ZM305.642 67.7499V67.4124L306.992 67.0749V57.1749L305.642 56.8374V56.4999H311.942V56.8374L310.592 57.1749V64.5999L314.192 58.4124V57.1749L312.842 56.8374V56.4999H319.142V56.8374L317.792 57.1749V67.0749L319.142 67.4124V67.7499H312.842V67.4124L314.192 67.0749V59.6499L310.592 65.8374V67.0749L311.942 67.4124V67.7499H305.642ZM47.1 94.0874C45.18 94.0874 43.6875 93.5624 42.6225 92.5124C41.5575 91.4474 41.025 89.9849 41.025 88.1249C41.025 86.2649 41.5575 84.8099 42.6225 83.7599C43.6875 82.6949 45.18 82.1624 47.1 82.1624C48.48 82.1624 49.515 82.4024 50.205 82.8824C50.91 83.3624 51.2625 83.9474 51.2625 84.6374C51.2625 85.1474 51.105 85.5599 50.79 85.8749C50.49 86.1749 50.085 86.3249 49.575 86.3249C49.365 86.3249 49.155 86.3099 48.945 86.2799L48.675 86.2124V82.8374L48.36 82.7249C48.135 82.6499 47.865 82.6124 47.55 82.6124C46.695 82.6124 46.0275 83.0174 45.5475 83.8274C45.0825 84.6374 44.85 86.0699 44.85 88.1249C44.85 90.1199 45.0825 91.5224 45.5475 92.3324C46.0275 93.1274 46.695 93.5249 47.55 93.5249C48.135 93.5249 48.675 93.3899 49.17 93.1199C49.68 92.8349 50.0775 92.4674 50.3625 92.0174C50.6625 91.5524 50.8125 91.0799 50.8125 90.5999H51.375C51.375 91.1999 51.195 91.7699 50.835 92.3099C50.475 92.8499 49.9725 93.2849 49.3275 93.6149C48.6825 93.9299 47.94 94.0874 47.1 94.0874ZM58.9187 94.0874C57.0587 94.0874 55.5962 93.5624 54.5312 92.5124C53.4812 91.4474 52.9562 89.9849 52.9562 88.1249C52.9562 86.2649 53.4812 84.8099 54.5312 83.7599C55.5962 82.6949 57.0587 82.1624 58.9187 82.1624C60.7787 82.1624 62.2337 82.6949 63.2837 83.7599C64.3487 84.8099 64.8812 86.2649 64.8812 88.1249C64.8812 89.9849 64.3487 91.4474 63.2837 92.5124C62.2337 93.5624 60.7787 94.0874 58.9187 94.0874ZM58.9187 93.6374C59.5187 93.6374 60.0212 93.2174 60.4262 92.3774C60.8462 91.5374 61.0562 90.1199 61.0562 88.1249C61.0562 86.1299 60.8462 84.7124 60.4262 83.8724C60.0212 83.0324 59.5187 82.6124 58.9187 82.6124C58.3187 82.6124 57.8087 83.0324 57.3887 83.8724C56.9837 84.7124 56.7812 86.1299 56.7812 88.1249C56.7812 90.1199 56.9837 91.5374 57.3887 92.3774C57.8087 93.2174 58.3187 93.6374 58.9187 93.6374ZM79.0702 94.0874C77.1502 94.0874 75.6577 93.5624 74.5927 92.5124C73.5277 91.4474 72.9952 89.9849 72.9952 88.1249C72.9952 86.2649 73.5277 84.8099 74.5927 83.7599C75.6577 82.6949 77.1502 82.1624 79.0702 82.1624C80.4502 82.1624 81.4852 82.4024 82.1752 82.8824C82.8802 83.3624 83.2327 83.9474 83.2327 84.6374C83.2327 85.1474 83.0752 85.5599 82.7602 85.8749C82.4602 86.1749 82.0552 86.3249 81.5452 86.3249C81.3352 86.3249 81.1252 86.3099 80.9152 86.2799L80.6452 86.2124V82.8374L80.3302 82.7249C80.1052 82.6499 79.8352 82.6124 79.5202 82.6124C78.6652 82.6124 77.9977 83.0174 77.5177 83.8274C77.0527 84.6374 76.8202 86.0699 76.8202 88.1249C76.8202 90.1199 77.0527 91.5224 77.5177 92.3324C77.9977 93.1274 78.6652 93.5249 79.5202 93.5249C80.1052 93.5249 80.6452 93.3899 81.1402 93.1199C81.6502 92.8349 82.0477 92.4674 82.3327 92.0174C82.6327 91.5524 82.7827 91.0799 82.7827 90.5999H83.3452C83.3452 91.1999 83.1652 91.7699 82.8052 92.3099C82.4452 92.8499 81.9427 93.2849 81.2977 93.6149C80.6527 93.9299 79.9102 94.0874 79.0702 94.0874ZM84.9264 93.4124L86.2764 93.0749V83.1749L84.9264 82.8374V82.4999H91.2264V82.8374L89.8764 83.1749V87.5624H90.6639C91.0989 87.5624 91.4739 87.4274 91.7889 87.1574C92.1039 86.8724 92.3289 86.5199 92.4639 86.0999L93.0264 84.0749C93.3864 82.8749 94.0614 82.2749 95.0514 82.2749C95.7264 82.2749 96.2514 82.4549 96.6264 82.8149C97.0014 83.1749 97.1889 83.6699 97.1889 84.2999C97.1889 84.8699 97.0314 85.3124 96.7164 85.6274C96.4164 85.9424 96.0114 86.0999 95.5014 86.0999C95.2914 86.0999 95.0814 86.0849 94.8714 86.0549L94.6014 85.9874V82.9499C94.1514 83.0699 93.8514 83.4449 93.7014 84.0749L93.1389 86.0999C92.9889 86.6249 92.7414 87.0449 92.3964 87.3599C92.2764 87.4799 92.1114 87.5849 91.9014 87.6749H92.5764C93.4614 87.6749 94.1514 87.8549 94.6464 88.2149C95.1564 88.5599 95.5164 89.0174 95.7264 89.5874L96.8514 93.0749L97.9764 93.4124V93.7499H95.6139C94.8189 93.7499 94.1739 93.5699 93.6789 93.2099C93.1989 92.8499 92.8689 92.3924 92.6889 91.8374L91.4514 88.1249H89.8764V93.0749L91.2264 93.4124V93.7499H84.9264V93.4124ZM98.7639 97.9124L100.114 97.5749V83.1749L98.7639 82.8374V82.4999H100.789C101.674 82.4999 102.371 82.7849 102.881 83.3549C103.076 83.5799 103.241 83.8574 103.376 84.1874C103.571 83.7974 103.819 83.4599 104.119 83.1749C104.794 82.4999 105.634 82.1624 106.639 82.1624C107.524 82.1624 108.311 82.3949 109.001 82.8599C109.691 83.3099 110.239 83.9849 110.644 84.8849C111.049 85.7699 111.251 86.8499 111.251 88.1249C111.251 90.0449 110.801 91.5224 109.901 92.5574C109.016 93.5774 107.816 94.0874 106.301 94.0874C105.581 94.0874 104.951 93.9374 104.411 93.6374C104.186 93.5324 103.954 93.3824 103.714 93.1874V97.5749L105.064 97.9124V98.2499H98.7639V97.9124ZM105.401 93.4124C106.046 93.4124 106.541 93.0374 106.886 92.2874C107.246 91.5374 107.426 90.1499 107.426 88.1249C107.426 86.1899 107.261 84.8474 106.931 84.0974C106.616 83.3324 106.219 82.9499 105.739 82.9499C105.169 82.9499 104.659 83.2499 104.209 83.8499C104.014 84.1049 103.849 84.4049 103.714 84.7499V92.5124C103.924 92.7224 104.089 92.8724 104.209 92.9624C104.614 93.2624 105.011 93.4124 105.401 93.4124ZM115.526 98.5874C114.851 98.5874 114.326 98.4074 113.951 98.0474C113.576 97.6874 113.389 97.1924 113.389 96.5624C113.389 95.9924 113.539 95.5499 113.839 95.2349C114.154 94.9199 114.566 94.7624 115.076 94.7624C115.196 94.7624 115.316 94.7699 115.436 94.7849C115.556 94.8149 115.639 94.8299 115.684 94.8299L115.976 94.8749V97.9124C116.411 97.8374 116.794 97.5974 117.124 97.1924C117.454 96.7874 117.821 96.0899 118.226 95.0999L118.676 93.9749L112.826 83.1749L111.701 82.8374V82.4999H114.514C115.294 82.4999 115.909 82.6649 116.359 82.9949C116.824 83.3099 117.221 83.7824 117.551 84.4124L120.364 89.6099L122.726 83.5124L121.039 82.8374V82.4999H125.201V82.8374L123.401 83.5124L118.901 95.0999C118.421 96.3299 117.911 97.2149 117.371 97.7549C116.831 98.3099 116.216 98.5874 115.526 98.5874ZM125.642 93.4124L126.992 93.0749V83.1749L125.642 82.8374V82.4999H136.104V86.4374H135.429C135.144 86.1824 134.897 85.8899 134.687 85.5599C134.207 84.7499 133.967 83.9174 133.967 83.0624H130.592V93.0749L131.942 93.4124V93.7499H125.642V93.4124ZM137.684 94.0874C137.009 94.0874 136.484 93.9074 136.109 93.5474C135.734 93.1874 135.547 92.6924 135.547 92.0624C135.547 91.5674 135.712 91.1474 136.042 90.8024C136.387 90.4424 136.784 90.2624 137.234 90.2624C137.354 90.2624 137.474 90.2774 137.594 90.3074C137.714 90.3224 137.797 90.3299 137.842 90.3299L138.134 90.3749V93.4124C138.494 93.2474 138.809 92.9174 139.079 92.4224C139.349 91.9274 139.522 91.0949 139.597 89.9249L140.047 83.2874L138.472 82.8374V82.4999H148.934V82.8374L147.584 83.1749V93.0749L148.934 93.4124V93.7499H142.634V93.4124L143.984 93.0749V83.0624H140.722L140.272 89.9249C140.182 91.3499 139.897 92.3999 139.417 93.0749C138.937 93.7499 138.359 94.0874 137.684 94.0874ZM156.809 94.0874C154.889 94.0874 153.397 93.5624 152.332 92.5124C151.267 91.4474 150.734 89.9849 150.734 88.1249C150.734 86.9099 150.967 85.8524 151.432 84.9524C151.897 84.0524 152.542 83.3624 153.367 82.8824C154.207 82.4024 155.167 82.1624 156.247 82.1624C157.327 82.1624 158.272 82.3649 159.082 82.7699C159.907 83.1749 160.537 83.7224 160.972 84.4124C161.422 85.0874 161.647 85.8374 161.647 86.6624C161.647 87.0374 161.609 87.3599 161.534 87.6299L161.422 88.0124C160.777 88.1474 160.079 88.2599 159.329 88.3499C157.754 88.5749 156.164 88.6874 154.559 88.6874C154.559 90.4274 154.799 91.6724 155.279 92.4224C155.759 93.1574 156.419 93.5249 157.259 93.5249C157.844 93.5249 158.384 93.3899 158.879 93.1199C159.389 92.8349 159.787 92.4674 160.072 92.0174C160.372 91.5524 160.522 91.0799 160.522 90.5999H161.084C161.084 91.1999 160.904 91.7699 160.544 92.3099C160.184 92.8499 159.682 93.2849 159.037 93.6149C158.392 93.9299 157.649 94.0874 156.809 94.0874ZM154.559 88.1249C155.519 88.1249 156.299 88.0874 156.899 88.0124C157.154 87.9974 157.424 87.9599 157.709 87.8999C157.724 87.8249 157.762 87.6599 157.822 87.4049C157.897 87.0299 157.934 86.6324 157.934 86.2124C157.934 84.9674 157.769 84.0599 157.439 83.4899C157.109 82.9049 156.712 82.6124 156.247 82.6124C155.122 82.6124 154.559 84.4499 154.559 88.1249ZM163.325 93.7499V93.4124L164.675 93.0749V83.1749L163.325 82.8374V82.4999H169.625V82.8374L168.275 83.1749V87.7874H171.65V83.1749L170.3 82.8374V82.4999H176.6V82.8374L175.25 83.1749V93.0749L176.6 93.4124V93.7499H170.3V93.4124L171.65 93.0749V88.3499H168.275V93.0749L169.625 93.4124V93.7499H163.325ZM178.398 93.7499V93.4124L179.748 93.0749V83.1749L178.398 82.8374V82.4999H184.698V82.8374L183.348 83.1749V90.5999L186.948 84.4124V83.1749L185.598 82.8374V82.4999H191.898V82.8374L190.548 83.1749V93.0749L191.898 93.4124V93.7499H185.598V93.4124L186.948 93.0749V85.6499L183.348 91.8374V93.0749L184.698 93.4124V93.7499H178.398ZM192.904 93.4124L194.029 93.0749L194.929 90.3749C195.169 89.6549 195.806 89.1299 196.841 88.7999C197.261 88.6799 197.749 88.6049 198.304 88.5749V88.4624C197.614 88.4474 196.939 88.3274 196.279 88.1024C194.929 87.6224 194.254 86.8049 194.254 85.6499C194.254 84.7199 194.711 83.9624 195.626 83.3774C196.556 82.7924 198.049 82.4999 200.104 82.4999H206.066V82.8374L204.716 83.1749V93.0749L206.066 93.4124V93.7499H199.766V93.4124L201.116 93.0749V88.7999H199.316L198.304 91.9499C198.139 92.4449 197.816 92.8724 197.336 93.2324C196.871 93.5774 196.294 93.7499 195.604 93.7499H192.904V93.4124ZM201.116 88.2374V83.0624H200.104C199.459 83.0624 198.941 83.2874 198.551 83.7374C198.161 84.1724 197.966 84.8099 197.966 85.6499C197.966 86.4899 198.161 87.1349 198.551 87.5849C198.941 88.0199 199.459 88.2374 200.104 88.2374H201.116ZM209.888 85.1999V92.7374L211.688 93.4124V93.7499H207.413V93.4124L209.213 92.7374V83.1749L207.638 82.8374V82.4999H210.676C211.411 82.4999 212.003 82.6574 212.453 82.9724C212.903 83.2874 213.286 83.7299 213.601 84.2999L216.661 89.7224L219.113 84.2999C219.398 83.6999 219.758 83.2499 220.193 82.9499C220.628 82.6499 221.243 82.4999 222.038 82.4999H224.288V82.8374L222.938 83.1749V93.0749L224.288 93.4124V93.7499H217.988V93.4124L219.338 93.0749V85.1999L215.378 93.9749H214.838L209.888 85.1999ZM226.079 93.7499V93.4124L227.429 93.0749V83.1749L226.079 82.8374V82.4999H232.379V82.8374L231.029 83.1749V90.5999L234.629 84.4124V83.1749L233.279 82.8374V82.4999H239.579V82.8374L238.229 83.1749V93.0749L239.579 93.4124V93.7499H233.279V93.4124L234.629 93.0749V85.6499L231.029 91.8374V93.0749L232.379 93.4124V93.7499H226.079Z" fill="#26243E"/>
<path d="M41.025 136.037L42.375 135.7V125.8L41.025 125.462V125.125H46.7625C48.0675 125.125 49.14 125.26 49.98 125.53C50.835 125.8 51.45 126.152 51.825 126.587C52.2 127.007 52.3875 127.457 52.3875 127.937C52.3875 128.537 52.1925 129.025 51.8025 129.4C51.4275 129.775 50.9475 130.045 50.3625 130.21C49.7325 130.405 49.0575 130.51 48.3375 130.525V130.637C49.2225 130.652 50.01 130.765 50.7 130.975C51.39 131.2 51.9525 131.5 52.3875 131.875C52.8375 132.235 53.0625 132.722 53.0625 133.337C53.0625 134.222 52.5975 134.95 51.6675 135.52C50.7525 136.09 49.2675 136.375 47.2125 136.375H41.025V136.037ZM46.7625 130.3C47.2875 130.3 47.7375 130.082 48.1125 129.647C48.4875 129.212 48.675 128.642 48.675 127.937C48.675 127.277 48.4875 126.737 48.1125 126.317C47.7375 125.897 47.2875 125.687 46.7625 125.687H45.975V130.3H46.7625ZM47.2125 135.812C47.8575 135.812 48.375 135.595 48.765 135.16C49.155 134.725 49.35 134.117 49.35 133.337C49.35 132.557 49.155 131.95 48.765 131.515C48.375 131.08 47.8575 130.862 47.2125 130.862H45.975V135.812H47.2125ZM60.723 136.712C58.803 136.712 57.3105 136.187 56.2455 135.137C55.1805 134.072 54.648 132.61 54.648 130.75C54.648 129.535 54.8805 128.477 55.3455 127.577C55.8105 126.677 56.4555 125.987 57.2805 125.507C58.1205 125.027 59.0805 124.787 60.1605 124.787C61.2405 124.787 62.1855 124.99 62.9955 125.395C63.8205 125.8 64.4505 126.347 64.8855 127.037C65.3355 127.712 65.5605 128.462 65.5605 129.287C65.5605 129.662 65.523 129.985 65.448 130.255L65.3355 130.637C64.6905 130.772 63.993 130.885 63.243 130.975C61.668 131.2 60.078 131.312 58.473 131.312C58.473 133.052 58.713 134.297 59.193 135.047C59.673 135.782 60.333 136.15 61.173 136.15C61.758 136.15 62.298 136.015 62.793 135.745C63.303 135.46 63.7005 135.092 63.9855 134.642C64.2855 134.177 64.4355 133.705 64.4355 133.225H64.998C64.998 133.825 64.818 134.395 64.458 134.935C64.098 135.475 63.5955 135.91 62.9505 136.24C62.3055 136.555 61.563 136.712 60.723 136.712ZM58.473 130.75C59.433 130.75 60.213 130.712 60.813 130.637C61.068 130.622 61.338 130.585 61.623 130.525C61.638 130.45 61.6755 130.285 61.7355 130.03C61.8105 129.655 61.848 129.257 61.848 128.837C61.848 127.592 61.683 126.685 61.353 126.115C61.023 125.53 60.6255 125.237 60.1605 125.237C59.0355 125.237 58.473 127.075 58.473 130.75ZM67.0134 140.537L68.3634 140.2V125.8L67.0134 125.462V125.125H69.0384C69.9234 125.125 70.6209 125.41 71.1309 125.98C71.3259 126.205 71.4909 126.482 71.6259 126.812C71.8209 126.422 72.0684 126.085 72.3684 125.8C73.0434 125.125 73.8834 124.787 74.8884 124.787C75.7734 124.787 76.5609 125.02 77.2509 125.485C77.9409 125.935 78.4884 126.61 78.8934 127.51C79.2984 128.395 79.5009 129.475 79.5009 130.75C79.5009 132.67 79.0509 134.147 78.1509 135.182C77.2659 136.202 76.0659 136.712 74.5509 136.712C73.8309 136.712 73.2009 136.562 72.6609 136.262C72.4359 136.157 72.2034 136.007 71.9634 135.812V140.2L73.3134 140.537V140.875H67.0134V140.537ZM73.6509 136.037C74.2959 136.037 74.7909 135.662 75.1359 134.912C75.4959 134.162 75.6759 132.775 75.6759 130.75C75.6759 128.815 75.5109 127.472 75.1809 126.722C74.8659 125.957 74.4684 125.575 73.9884 125.575C73.4184 125.575 72.9084 125.875 72.4584 126.475C72.2634 126.73 72.0984 127.03 71.9634 127.375V135.137C72.1734 135.347 72.3384 135.497 72.4584 135.587C72.8634 135.887 73.2609 136.037 73.6509 136.037ZM83.4384 136.037L84.7884 135.7V125.687H83.1009C83.1009 126.512 82.8534 127.345 82.3584 128.185C82.1634 128.5 81.9234 128.792 81.6384 129.062H80.9634V125.125H92.2134V129.062H91.5384C91.2534 128.807 91.0059 128.515 90.7959 128.185C90.3159 127.375 90.0759 126.542 90.0759 125.687H88.3884V135.7L89.7384 136.037V136.375H83.4384V136.037ZM93.6715 136.375V136.037L95.0215 135.7V125.8L93.6715 125.462V125.125H99.9715V125.462L98.6215 125.8V133.225L102.221 127.037V125.8L100.871 125.462V125.125H107.171V125.462L105.821 125.8V135.7L107.171 136.037V136.375H100.871V136.037L102.221 135.7V128.275L98.6215 134.462V135.7L99.9715 136.037V136.375H93.6715ZM108.964 136.037L110.314 135.7V125.8L108.964 125.462V125.125H115.264V125.462L113.914 125.8V130.187H114.702C115.137 130.187 115.512 130.052 115.827 129.782C116.142 129.497 116.367 129.145 116.502 128.725L117.064 126.7C117.424 125.5 118.099 124.9 119.089 124.9C119.764 124.9 120.289 125.08 120.664 125.44C121.039 125.8 121.227 126.295 121.227 126.925C121.227 127.495 121.069 127.937 120.754 128.252C120.454 128.567 120.049 128.725 119.539 128.725C119.329 128.725 119.119 128.71 118.909 128.68L118.639 128.612V125.575C118.189 125.695 117.889 126.07 117.739 126.7L117.177 128.725C117.027 129.25 116.779 129.67 116.434 129.985C116.314 130.105 116.149 130.21 115.939 130.3H116.614C117.499 130.3 118.189 130.48 118.684 130.84C119.194 131.185 119.554 131.642 119.764 132.212L120.889 135.7L122.014 136.037V136.375H119.652C118.857 136.375 118.212 136.195 117.717 135.835C117.237 135.475 116.907 135.017 116.727 134.462L115.489 130.75H113.914V135.7L115.264 136.037V136.375H108.964V136.037ZM127.414 136.712C126.079 136.712 125.052 136.427 124.332 135.857C123.612 135.287 123.252 134.56 123.252 133.675C123.252 133.09 123.379 132.512 123.634 131.942C123.739 131.672 123.874 131.425 124.039 131.2C124.654 131.05 125.322 130.915 126.042 130.795C127.662 130.525 129.094 130.36 130.339 130.3V129.625C130.339 127.96 130.137 126.812 129.732 126.182C129.327 125.552 128.704 125.237 127.864 125.237C127.549 125.237 127.279 125.275 127.054 125.35L126.739 125.462V128.837L126.447 128.905C126.207 128.935 126.004 128.95 125.839 128.95C125.329 128.95 124.917 128.8 124.602 128.5C124.302 128.185 124.152 127.772 124.152 127.262C124.152 126.572 124.497 125.987 125.187 125.507C125.892 125.027 126.934 124.787 128.314 124.787C129.484 124.787 130.489 124.997 131.329 125.417C132.184 125.822 132.829 126.392 133.264 127.127C133.714 127.847 133.939 128.68 133.939 129.625V135.7L135.289 136.037V136.375H133.264C132.364 136.375 131.667 136.097 131.172 135.542C130.962 135.317 130.797 135.032 130.677 134.687C130.467 135.062 130.219 135.4 129.934 135.7C129.259 136.375 128.419 136.712 127.414 136.712ZM128.314 135.925C128.869 135.925 129.372 135.625 129.822 135.025C129.987 134.8 130.159 134.5 130.339 134.125V130.862C129.649 130.862 128.989 130.9 128.359 130.975C127.894 131.035 127.579 131.072 127.414 131.087C127.339 131.252 127.264 131.477 127.189 131.762C127.039 132.332 126.964 132.895 126.964 133.45C126.964 134.29 127.092 134.912 127.347 135.317C127.602 135.722 127.924 135.925 128.314 135.925ZM137.663 136.712C136.988 136.712 136.463 136.532 136.088 136.172C135.712 135.812 135.525 135.317 135.525 134.687C135.525 134.192 135.69 133.772 136.02 133.427C136.365 133.067 136.763 132.887 137.213 132.887C137.333 132.887 137.453 132.902 137.573 132.932C137.693 132.947 137.775 132.955 137.82 132.955L138.113 133V136.037C138.473 135.872 138.788 135.542 139.057 135.047C139.328 134.552 139.5 133.72 139.575 132.55L140.025 125.912L138.45 125.462V125.125H148.913V125.462L147.563 125.8V135.7L148.913 136.037V136.375H142.613V136.037L143.963 135.7V125.687H140.7L140.25 132.55C140.16 133.975 139.875 135.025 139.395 135.7C138.915 136.375 138.338 136.712 137.663 136.712ZM150.713 136.037L152.063 135.7V125.8L150.713 125.462V125.125H157.013V125.462L155.663 125.8V129.625H156.788C160.688 129.625 162.638 130.75 162.638 133C162.638 135.25 160.688 136.375 156.788 136.375H150.713V136.037ZM156.788 135.812C157.448 135.812 157.965 135.58 158.34 135.115C158.73 134.635 158.925 133.93 158.925 133C158.925 132.07 158.73 131.372 158.34 130.907C157.965 130.427 157.448 130.187 156.788 130.187H155.663V135.812H156.788ZM163.984 136.375V136.037L165.334 135.7V125.8L163.984 125.462V125.125H170.284V125.462L168.934 125.8V130.412H172.309V125.8L170.959 125.462V125.125H177.259V125.462L175.909 125.8V135.7L177.259 136.037V136.375H170.959V136.037L172.309 135.7V130.975H168.934V135.7L170.284 136.037V136.375H163.984ZM183.445 136.712C182.11 136.712 181.082 136.427 180.362 135.857C179.642 135.287 179.282 134.56 179.282 133.675C179.282 133.09 179.41 132.512 179.665 131.942C179.77 131.672 179.905 131.425 180.07 131.2C180.685 131.05 181.352 130.915 182.072 130.795C183.692 130.525 185.125 130.36 186.37 130.3V129.625C186.37 127.96 186.167 126.812 185.762 126.182C185.357 125.552 184.735 125.237 183.895 125.237C183.58 125.237 183.31 125.275 183.085 125.35L182.77 125.462V128.837L182.477 128.905C182.237 128.935 182.035 128.95 181.87 128.95C181.36 128.95 180.947 128.8 180.632 128.5C180.332 128.185 180.182 127.772 180.182 127.262C180.182 126.572 180.527 125.987 181.217 125.507C181.922 125.027 182.965 124.787 184.345 124.787C185.515 124.787 186.52 124.997 187.36 125.417C188.215 125.822 188.86 126.392 189.295 127.127C189.745 127.847 189.97 128.68 189.97 129.625V135.7L191.32 136.037V136.375H189.295C188.395 136.375 187.697 136.097 187.202 135.542C186.992 135.317 186.827 135.032 186.707 134.687C186.497 135.062 186.25 135.4 185.965 135.7C185.29 136.375 184.45 136.712 183.445 136.712ZM184.345 135.925C184.9 135.925 185.402 135.625 185.852 135.025C186.017 134.8 186.19 134.5 186.37 134.125V130.862C185.68 130.862 185.02 130.9 184.39 130.975C183.925 131.035 183.61 131.072 183.445 131.087C183.37 131.252 183.295 131.477 183.22 131.762C183.07 132.332 182.995 132.895 182.995 133.45C182.995 134.29 183.122 134.912 183.377 135.317C183.632 135.722 183.955 135.925 184.345 135.925ZM191.893 136.037L193.018 135.7L193.918 133C194.158 132.28 194.795 131.755 195.83 131.425C196.25 131.305 196.738 131.23 197.293 131.2V131.087C196.603 131.072 195.928 130.952 195.268 130.727C193.918 130.247 193.243 129.43 193.243 128.275C193.243 127.345 193.7 126.587 194.615 126.002C195.545 125.417 197.038 125.125 199.093 125.125H205.055V125.462L203.705 125.8V135.7L205.055 136.037V136.375H198.755V136.037L200.105 135.7V131.425H198.305L197.293 134.575C197.128 135.07 196.805 135.497 196.325 135.857C195.86 136.202 195.283 136.375 194.593 136.375H191.893V136.037ZM200.105 130.862V125.687H199.093C198.448 125.687 197.93 125.912 197.54 126.362C197.15 126.797 196.955 127.435 196.955 128.275C196.955 129.115 197.15 129.76 197.54 130.21C197.93 130.645 198.448 130.862 199.093 130.862H200.105ZM219.121 136.712C217.261 136.712 215.799 136.187 214.734 135.137C213.684 134.072 213.159 132.61 213.159 130.75C213.159 128.89 213.684 127.435 214.734 126.385C215.799 125.32 217.261 124.787 219.121 124.787C220.981 124.787 222.436 125.32 223.486 126.385C224.551 127.435 225.084 128.89 225.084 130.75C225.084 132.61 224.551 134.072 223.486 135.137C222.436 136.187 220.981 136.712 219.121 136.712ZM219.121 136.262C219.721 136.262 220.224 135.842 220.629 135.002C221.049 134.162 221.259 132.745 221.259 130.75C221.259 128.755 221.049 127.337 220.629 126.497C220.224 125.657 219.721 125.237 219.121 125.237C218.521 125.237 218.011 125.657 217.591 126.497C217.186 127.337 216.984 128.755 216.984 130.75C216.984 132.745 217.186 134.162 217.591 135.002C218.011 135.842 218.521 136.262 219.121 136.262ZM232.967 136.712C231.047 136.712 229.554 136.187 228.489 135.137C227.424 134.072 226.892 132.61 226.892 130.75C226.892 128.89 227.424 127.435 228.489 126.385C229.554 125.32 231.047 124.787 232.967 124.787C234.347 124.787 235.382 125.027 236.072 125.507C236.777 125.987 237.129 126.572 237.129 127.262C237.129 127.772 236.972 128.185 236.657 128.5C236.357 128.8 235.952 128.95 235.442 128.95C235.232 128.95 235.022 128.935 234.812 128.905L234.542 128.837V125.462L234.227 125.35C234.002 125.275 233.732 125.237 233.417 125.237C232.562 125.237 231.894 125.642 231.414 126.452C230.949 127.262 230.717 128.695 230.717 130.75C230.717 132.745 230.949 134.147 231.414 134.957C231.894 135.752 232.562 136.15 233.417 136.15C234.002 136.15 234.542 136.015 235.037 135.745C235.547 135.46 235.944 135.092 236.229 134.642C236.529 134.177 236.679 133.705 236.679 133.225H237.242C237.242 133.825 237.062 134.395 236.702 134.935C236.342 135.475 235.839 135.91 235.194 136.24C234.549 136.555 233.807 136.712 232.967 136.712ZM238.823 136.037L240.173 135.7V125.8L238.823 125.462V125.125H245.123V125.462L243.773 125.8V129.625H244.898C248.798 129.625 250.748 130.75 250.748 133C250.748 135.25 248.798 136.375 244.898 136.375H238.823V136.037ZM244.898 135.812C245.558 135.812 246.075 135.58 246.45 135.115C246.84 134.635 247.035 133.93 247.035 133C247.035 132.07 246.84 131.372 246.45 130.907C246.075 130.427 245.558 130.187 244.898 130.187H243.773V135.812H244.898ZM41.025 162.375V162.037L42.375 161.7V151.8L41.025 151.462V151.125H47.325V151.462L45.975 151.8V156.412H49.35V151.8L48 151.462V151.125H54.3V151.462L52.95 151.8V161.7L54.3 162.037V162.375H48V162.037L49.35 161.7V156.975H45.975V161.7L47.325 162.037V162.375H41.025ZM60.4857 162.712C59.1507 162.712 58.1232 162.427 57.4032 161.857C56.6832 161.287 56.3232 160.56 56.3232 159.675C56.3232 159.09 56.4507 158.512 56.7057 157.942C56.8107 157.672 56.9457 157.425 57.1107 157.2C57.7257 157.05 58.3932 156.915 59.1132 156.795C60.7332 156.525 62.1657 156.36 63.4107 156.3V155.625C63.4107 153.96 63.2082 152.812 62.8032 152.182C62.3982 151.552 61.7757 151.237 60.9357 151.237C60.6207 151.237 60.3507 151.275 60.1257 151.35L59.8107 151.462V154.837L59.5182 154.905C59.2782 154.935 59.0757 154.95 58.9107 154.95C58.4007 154.95 57.9882 154.8 57.6732 154.5C57.3732 154.185 57.2232 153.772 57.2232 153.262C57.2232 152.572 57.5682 151.987 58.2582 151.507C58.9632 151.027 60.0057 150.787 61.3857 150.787C62.5557 150.787 63.5607 150.997 64.4007 151.417C65.2557 151.822 65.9007 152.392 66.3357 153.127C66.7857 153.847 67.0107 154.68 67.0107 155.625V161.7L68.3607 162.037V162.375H66.3357C65.4357 162.375 64.7382 162.097 64.2432 161.542C64.0332 161.317 63.8682 161.032 63.7482 160.687C63.5382 161.062 63.2907 161.4 63.0057 161.7C62.3307 162.375 61.4907 162.712 60.4857 162.712ZM61.3857 161.925C61.9407 161.925 62.4432 161.625 62.8932 161.025C63.0582 160.8 63.2307 160.5 63.4107 160.125V156.862C62.7207 156.862 62.0607 156.9 61.4307 156.975C60.9657 157.035 60.6507 157.072 60.4857 157.087C60.4107 157.252 60.3357 157.477 60.2607 157.762C60.1107 158.332 60.0357 158.895 60.0357 159.45C60.0357 160.29 60.1632 160.912 60.4182 161.317C60.6732 161.722 60.9957 161.925 61.3857 161.925ZM69.7213 162.037L71.0713 161.7V151.8L69.7213 151.462V151.125H76.0213V151.462L74.6713 151.8V156.187H75.4588C75.8938 156.187 76.2688 156.052 76.5838 155.782C76.8988 155.497 77.1238 155.145 77.2588 154.725L77.8213 152.7C78.1813 151.5 78.8563 150.9 79.8463 150.9C80.5213 150.9 81.0463 151.08 81.4213 151.44C81.7963 151.8 81.9838 152.295 81.9838 152.925C81.9838 153.495 81.8263 153.937 81.5113 154.252C81.2113 154.567 80.8063 154.725 80.2963 154.725C80.0863 154.725 79.8763 154.71 79.6663 154.68L79.3963 154.612V151.575C78.9463 151.695 78.6463 152.07 78.4963 152.7L77.9338 154.725C77.7838 155.25 77.5363 155.67 77.1913 155.985C77.0713 156.105 76.9063 156.21 76.6963 156.3H77.3713C78.2563 156.3 78.9463 156.48 79.4413 156.84C79.9513 157.185 80.3113 157.642 80.5213 158.212L81.6463 161.7L82.7713 162.037V162.375H80.4088C79.6138 162.375 78.9688 162.195 78.4738 161.835C77.9938 161.475 77.6638 161.017 77.4838 160.462L76.2463 156.75H74.6713V161.7L76.0213 162.037V162.375H69.7213V162.037ZM84.7963 162.712C84.1213 162.712 83.5963 162.532 83.2213 162.172C82.8463 161.812 82.6588 161.317 82.6588 160.687C82.6588 160.192 82.8238 159.772 83.1538 159.427C83.4988 159.067 83.8963 158.887 84.3463 158.887C84.4663 158.887 84.5863 158.902 84.7063 158.932C84.8263 158.947 84.9088 158.955 84.9538 158.955L85.2463 159V162.037C85.6063 161.872 85.9213 161.542 86.1913 161.047C86.4613 160.552 86.6338 159.72 86.7088 158.55L87.1588 151.912L85.5838 151.462V151.125H96.0463V151.462L94.6963 151.8V161.7L96.0463 162.037V162.375H89.7463V162.037L91.0963 161.7V151.687H87.8338L87.3838 158.55C87.2938 159.975 87.0088 161.025 86.5288 161.7C86.0488 162.375 85.4713 162.712 84.7963 162.712ZM103.809 162.712C101.949 162.712 100.486 162.187 99.4213 161.137C98.3713 160.072 97.8463 158.61 97.8463 156.75C97.8463 154.89 98.3713 153.435 99.4213 152.385C100.486 151.32 101.949 150.787 103.809 150.787C105.669 150.787 107.124 151.32 108.174 152.385C109.239 153.435 109.771 154.89 109.771 156.75C109.771 158.61 109.239 160.072 108.174 161.137C107.124 162.187 105.669 162.712 103.809 162.712ZM103.809 162.262C104.409 162.262 104.911 161.842 105.316 161.002C105.736 160.162 105.946 158.745 105.946 156.75C105.946 154.755 105.736 153.337 105.316 152.497C104.911 151.657 104.409 151.237 103.809 151.237C103.209 151.237 102.699 151.657 102.279 152.497C101.874 153.337 101.671 154.755 101.671 156.75C101.671 158.745 101.874 160.162 102.279 161.002C102.699 161.842 103.209 162.262 103.809 162.262ZM111.579 162.375V162.037L112.929 161.7V151.8L111.579 151.462V151.125H117.879V151.462L116.529 151.8V156.412H119.904V151.8L118.554 151.462V151.125H124.854V151.462L123.504 151.8V161.7L124.854 162.037V162.375H118.554V162.037L119.904 161.7V156.975H116.529V161.7L117.879 162.037V162.375H111.579ZM131.04 162.712C129.705 162.712 128.677 162.427 127.957 161.857C127.237 161.287 126.877 160.56 126.877 159.675C126.877 159.09 127.005 158.512 127.26 157.942C127.365 157.672 127.5 157.425 127.665 157.2C128.28 157.05 128.947 156.915 129.667 156.795C131.287 156.525 132.72 156.36 133.965 156.3V155.625C133.965 153.96 133.762 152.812 133.357 152.182C132.952 151.552 132.33 151.237 131.49 151.237C131.175 151.237 130.905 151.275 130.68 151.35L130.365 151.462V154.837L130.072 154.905C129.832 154.935 129.63 154.95 129.465 154.95C128.955 154.95 128.542 154.8 128.227 154.5C127.927 154.185 127.777 153.772 127.777 153.262C127.777 152.572 128.122 151.987 128.812 151.507C129.517 151.027 130.56 150.787 131.94 150.787C133.11 150.787 134.115 150.997 134.955 151.417C135.81 151.822 136.455 152.392 136.89 153.127C137.34 153.847 137.565 154.68 137.565 155.625V161.7L138.915 162.037V162.375H136.89C135.99 162.375 135.292 162.097 134.797 161.542C134.587 161.317 134.422 161.032 134.302 160.687C134.092 161.062 133.845 161.4 133.56 161.7C132.885 162.375 132.045 162.712 131.04 162.712ZM131.94 161.925C132.495 161.925 132.997 161.625 133.447 161.025C133.612 160.8 133.785 160.5 133.965 160.125V156.862C133.275 156.862 132.615 156.9 131.985 156.975C131.52 157.035 131.205 157.072 131.04 157.087C130.965 157.252 130.89 157.477 130.815 157.762C130.665 158.332 130.59 158.895 130.59 159.45C130.59 160.29 130.717 160.912 130.972 161.317C131.227 161.722 131.55 161.925 131.94 161.925ZM152.544 162.712C150.684 162.712 149.222 162.187 148.157 161.137C147.107 160.072 146.582 158.61 146.582 156.75C146.582 154.89 147.107 153.435 148.157 152.385C149.222 151.32 150.684 150.787 152.544 150.787C154.404 150.787 155.859 151.32 156.909 152.385C157.974 153.435 158.507 154.89 158.507 156.75C158.507 158.61 157.974 160.072 156.909 161.137C155.859 162.187 154.404 162.712 152.544 162.712ZM152.544 162.262C153.144 162.262 153.647 161.842 154.052 161.002C154.472 160.162 154.682 158.745 154.682 156.75C154.682 154.755 154.472 153.337 154.052 152.497C153.647 151.657 153.144 151.237 152.544 151.237C151.944 151.237 151.434 151.657 151.014 152.497C150.609 153.337 150.407 154.755 150.407 156.75C150.407 158.745 150.609 160.162 151.014 161.002C151.434 161.842 151.944 162.262 152.544 162.262ZM160.315 162.037L161.665 161.7V151.8L160.315 151.462V151.125H166.052C167.357 151.125 168.43 151.26 169.27 151.53C170.125 151.8 170.74 152.152 171.115 152.587C171.49 153.007 171.677 153.457 171.677 153.937C171.677 154.537 171.482 155.025 171.092 155.4C170.717 155.775 170.237 156.045 169.652 156.21C169.022 156.405 168.347 156.51 167.627 156.525V156.637C168.512 156.652 169.3 156.765 169.99 156.975C170.68 157.2 171.242 157.5 171.677 157.875C172.127 158.235 172.352 158.722 172.352 159.337C172.352 160.222 171.887 160.95 170.957 161.52C170.042 162.09 168.557 162.375 166.502 162.375H160.315V162.037ZM166.052 156.3C166.577 156.3 167.027 156.082 167.402 155.647C167.777 155.212 167.965 154.642 167.965 153.937C167.965 153.277 167.777 152.737 167.402 152.317C167.027 151.897 166.577 151.687 166.052 151.687H165.265V156.3H166.052ZM166.502 161.812C167.147 161.812 167.665 161.595 168.055 161.16C168.445 160.725 168.64 160.117 168.64 159.337C168.64 158.557 168.445 157.95 168.055 157.515C167.665 157.08 167.147 156.862 166.502 156.862H165.265V161.812H166.502ZM178.325 162.712C176.99 162.712 175.963 162.427 175.243 161.857C174.523 161.287 174.163 160.56 174.163 159.675C174.163 159.09 174.29 158.512 174.545 157.942C174.65 157.672 174.785 157.425 174.95 157.2C175.565 157.05 176.233 156.915 176.953 156.795C178.573 156.525 180.005 156.36 181.25 156.3V155.625C181.25 153.96 181.048 152.812 180.643 152.182C180.238 151.552 179.615 151.237 178.775 151.237C178.46 151.237 178.19 151.275 177.965 151.35L177.65 151.462V154.837L177.358 154.905C177.118 154.935 176.915 154.95 176.75 154.95C176.24 154.95 175.828 154.8 175.513 154.5C175.213 154.185 175.063 153.772 175.063 153.262C175.063 152.572 175.408 151.987 176.098 151.507C176.803 151.027 177.845 150.787 179.225 150.787C180.395 150.787 181.4 150.997 182.24 151.417C183.095 151.822 183.74 152.392 184.175 153.127C184.625 153.847 184.85 154.68 184.85 155.625V161.7L186.2 162.037V162.375H184.175C183.275 162.375 182.578 162.097 182.083 161.542C181.873 161.317 181.708 161.032 181.588 160.687C181.378 161.062 181.13 161.4 180.845 161.7C180.17 162.375 179.33 162.712 178.325 162.712ZM179.225 161.925C179.78 161.925 180.283 161.625 180.733 161.025C180.898 160.8 181.07 160.5 181.25 160.125V156.862C180.56 156.862 179.9 156.9 179.27 156.975C178.805 157.035 178.49 157.072 178.325 157.087C178.25 157.252 178.175 157.477 178.1 157.762C177.95 158.332 177.875 158.895 177.875 159.45C177.875 160.29 178.003 160.912 178.258 161.317C178.513 161.722 178.835 161.925 179.225 161.925ZM188.573 162.712C187.898 162.712 187.373 162.532 186.998 162.172C186.623 161.812 186.436 161.317 186.436 160.687C186.436 160.192 186.601 159.772 186.931 159.427C187.276 159.067 187.673 158.887 188.123 158.887C188.243 158.887 188.363 158.902 188.483 158.932C188.603 158.947 188.686 158.955 188.731 158.955L189.023 159V162.037C189.383 161.872 189.698 161.542 189.968 161.047C190.238 160.552 190.411 159.72 190.486 158.55L190.936 151.912L189.361 151.462V151.125H199.823V151.462L198.473 151.8V161.7L199.823 162.037V162.375H193.523V162.037L194.873 161.7V151.687H191.611L191.161 158.55C191.071 159.975 190.786 161.025 190.306 161.7C189.826 162.375 189.248 162.712 188.573 162.712ZM206.011 162.712C204.676 162.712 203.648 162.427 202.928 161.857C202.208 161.287 201.848 160.56 201.848 159.675C201.848 159.09 201.976 158.512 202.231 157.942C202.336 157.672 202.471 157.425 202.636 157.2C203.251 157.05 203.918 156.915 204.638 156.795C206.258 156.525 207.691 156.36 208.936 156.3V155.625C208.936 153.96 208.733 152.812 208.328 152.182C207.923 151.552 207.301 151.237 206.461 151.237C206.146 151.237 205.876 151.275 205.651 151.35L205.336 151.462V154.837L205.043 154.905C204.803 154.935 204.601 154.95 204.436 154.95C203.926 154.95 203.513 154.8 203.198 154.5C202.898 154.185 202.748 153.772 202.748 153.262C202.748 152.572 203.093 151.987 203.783 151.507C204.488 151.027 205.531 150.787 206.911 150.787C208.081 150.787 209.086 150.997 209.926 151.417C210.781 151.822 211.426 152.392 211.861 153.127C212.311 153.847 212.536 154.68 212.536 155.625V161.7L213.886 162.037V162.375H211.861C210.961 162.375 210.263 162.097 209.768 161.542C209.558 161.317 209.393 161.032 209.273 160.687C209.063 161.062 208.816 161.4 208.531 161.7C207.856 162.375 207.016 162.712 206.011 162.712ZM206.911 161.925C207.466 161.925 207.968 161.625 208.418 161.025C208.583 160.8 208.756 160.5 208.936 160.125V156.862C208.246 156.862 207.586 156.9 206.956 156.975C206.491 157.035 206.176 157.072 206.011 157.087C205.936 157.252 205.861 157.477 205.786 157.762C205.636 158.332 205.561 158.895 205.561 159.45C205.561 160.29 205.688 160.912 205.943 161.317C206.198 161.722 206.521 161.925 206.911 161.925Z" fill="#26243E"/>
</svg>
