<svg width="443" height="626" viewBox="0 0 443 626" fill="none" xmlns="http://www.w3.org/2000/svg">
<g clip-path="url(#clip0_0_5940)">
<rect width="442.125" height="625.227" transform="translate(0.125 -0.000488281)" fill="#4F8A60"/>
<path d="M43.9 77.1748L47.2 76.3498V73.3248C43.2033 73.1414 39.775 72.3714 36.915 71.0148C34.055 69.6214 31.8917 67.8248 30.425 65.6248C28.9583 63.3881 28.225 60.9131 28.225 58.1998C28.225 55.4864 28.9583 53.0298 30.425 50.8298C31.8917 48.5931 34.055 46.7964 36.915 45.4398C39.775 44.0464 43.2033 43.2581 47.2 43.0748V40.3248L43.9 39.4998V38.6748H59.575V39.4998L56.275 40.3248V43.0748C60.2717 43.2581 63.7 44.0464 66.56 45.4398C69.42 46.7964 71.5833 48.5931 73.05 50.8298C74.5167 53.0298 75.25 55.4864 75.25 58.1998C75.25 60.9131 74.5167 63.3881 73.05 65.6248C71.5833 67.8248 69.42 69.6214 66.56 71.0148C63.7 72.3714 60.2717 73.1414 56.275 73.3248V76.3498L59.575 77.1748V77.9998H43.9V77.1748ZM47.2 44.1748C44.5233 44.5048 42.2867 45.8614 40.49 48.2448C38.73 50.5914 37.85 53.9098 37.85 58.1998C37.85 62.4898 38.73 65.8264 40.49 68.2098C42.2867 70.5564 44.5233 71.8948 47.2 72.2248V44.1748ZM56.275 72.2248C58.9517 71.8948 61.17 70.5564 62.93 68.2098C64.7267 65.8264 65.625 62.4898 65.625 58.1998C65.625 53.9098 64.7267 50.5914 62.93 48.2448C61.17 45.8614 58.9517 44.5048 56.275 44.1748V72.2248ZM95.0393 78.8248C90.3459 78.8248 86.6976 77.5414 84.0943 74.9748C81.4909 72.3714 80.1893 68.7964 80.1893 64.2498C80.1893 61.2798 80.7576 58.6948 81.8943 56.4948C83.0309 54.2948 84.6076 52.6081 86.6243 51.4348C88.6776 50.2614 91.0243 49.6748 93.6643 49.6748C96.3043 49.6748 98.6143 50.1698 100.594 51.1598C102.611 52.1498 104.151 53.4881 105.214 55.1748C106.314 56.8248 106.864 58.6581 106.864 60.6748C106.864 61.5914 106.773 62.3798 106.589 63.0398L106.314 63.9748C104.738 64.3048 103.033 64.5798 101.199 64.7998C97.3493 65.3498 93.4626 65.6248 89.5393 65.6248C89.5393 69.8781 90.1259 72.9214 91.2993 74.7548C92.4726 76.5514 94.0859 77.4498 96.1393 77.4498C97.5693 77.4498 98.8893 77.1198 100.099 76.4598C101.346 75.7631 102.318 74.8648 103.014 73.7648C103.748 72.6281 104.114 71.4731 104.114 70.2998H105.489C105.489 71.7664 105.049 73.1598 104.169 74.4798C103.289 75.7998 102.061 76.8631 100.484 77.6698C98.9076 78.4398 97.0926 78.8248 95.0393 78.8248ZM89.5393 64.2498C91.8859 64.2498 93.7926 64.1581 95.2593 63.9748C95.8826 63.9381 96.5426 63.8464 97.2393 63.6998C97.2759 63.5164 97.3676 63.1131 97.5143 62.4898C97.6976 61.5731 97.7893 60.6014 97.7893 59.5748C97.7893 56.5314 97.3859 54.3131 96.5793 52.9198C95.7726 51.4898 94.8009 50.7748 93.6643 50.7748C90.9143 50.7748 89.5393 55.2664 89.5393 64.2498ZM125.816 78.8248C121.122 78.8248 117.474 77.5414 114.871 74.9748C112.267 72.3714 110.966 68.7964 110.966 64.2498C110.966 59.7031 112.267 56.1464 114.871 53.5798C117.474 50.9764 121.122 49.6748 125.816 49.6748C129.189 49.6748 131.719 50.2614 133.406 51.4348C135.129 52.6081 135.991 54.0381 135.991 55.7248C135.991 56.9714 135.606 57.9798 134.836 58.7498C134.102 59.4831 133.112 59.8498 131.866 59.8498C131.352 59.8498 130.839 59.8131 130.326 59.7398L129.666 59.5748V51.3248L128.896 51.0498C128.346 50.8664 127.686 50.7748 126.916 50.7748C124.826 50.7748 123.194 51.7648 122.021 53.7448C120.884 55.7248 120.316 59.2264 120.316 64.2498C120.316 69.1264 120.884 72.5548 122.021 74.5348C123.194 76.4781 124.826 77.4498 126.916 77.4498C128.346 77.4498 129.666 77.1198 130.876 76.4598C132.122 75.7631 133.094 74.8648 133.791 73.7648C134.524 72.6281 134.891 71.4731 134.891 70.2998H136.266C136.266 71.7664 135.826 73.1598 134.946 74.4798C134.066 75.7998 132.837 76.8631 131.261 77.6698C129.684 78.4398 127.869 78.8248 125.816 78.8248ZM145.356 77.1748L148.656 76.3498V51.8748H144.531C144.531 53.8914 143.926 55.9264 142.716 57.9798C142.239 58.7498 141.652 59.4648 140.956 60.1248H139.306V50.4998H166.806V60.1248H165.156C164.459 59.5014 163.854 58.7864 163.341 57.9798C162.167 55.9998 161.581 53.9648 161.581 51.8748H157.456V76.3498L160.756 77.1748V77.9998H145.356V77.1748ZM170.37 77.9998V77.1748L173.67 76.3498V52.1498L170.37 51.3248V50.4998H185.77V51.3248L182.47 52.1498V70.2998L191.27 55.1748V52.1498L187.97 51.3248V50.4998H203.37V51.3248L200.07 52.1498V76.3498L203.37 77.1748V77.9998H187.97V77.1748L191.27 76.3498V58.1998L182.47 73.3248V76.3498L185.77 77.1748V77.9998H170.37ZM207.753 77.1748L211.053 76.3498V52.1498L207.753 51.3248V50.4998H221.778C224.968 50.4998 227.589 50.8298 229.643 51.4898C231.733 52.1498 233.236 53.0114 234.153 54.0748C235.069 55.1014 235.528 56.2014 235.528 57.3748C235.528 58.8414 235.051 60.0331 234.098 60.9498C233.181 61.8664 232.008 62.5264 230.578 62.9298C229.038 63.4064 227.388 63.6631 225.628 63.6998V63.9748C227.791 64.0114 229.716 64.2864 231.403 64.7998C233.089 65.3498 234.464 66.0831 235.528 66.9998C236.628 67.8798 237.178 69.0714 237.178 70.5748C237.178 72.7381 236.041 74.5164 233.768 75.9098C231.531 77.3031 227.901 77.9998 222.878 77.9998H207.753V77.1748ZM221.778 63.1498C223.061 63.1498 224.161 62.6181 225.078 61.5548C225.994 60.4914 226.453 59.0981 226.453 57.3748C226.453 55.7614 225.994 54.4414 225.078 53.4148C224.161 52.3881 223.061 51.8748 221.778 51.8748H219.853V63.1498H221.778ZM222.878 76.6248C224.454 76.6248 225.719 76.0931 226.673 75.0298C227.626 73.9664 228.103 72.4814 228.103 70.5748C228.103 68.6681 227.626 67.1831 226.673 66.1198C225.719 65.0564 224.454 64.5248 222.878 64.5248H219.853V76.6248H222.878ZM251.779 78.8248C248.515 78.8248 246.004 78.1281 244.244 76.7348C242.484 75.3414 241.604 73.5631 241.604 71.3998C241.604 69.9698 241.915 68.5581 242.539 67.1648C242.795 66.5048 243.125 65.8998 243.529 65.3498C245.032 64.9831 246.664 64.6531 248.424 64.3598C252.384 63.6998 255.885 63.2964 258.929 63.1498V61.4998C258.929 57.4298 258.434 54.6248 257.444 53.0848C256.454 51.5448 254.932 50.7748 252.879 50.7748C252.109 50.7748 251.449 50.8664 250.899 51.0498L250.129 51.3248V59.5748L249.414 59.7398C248.827 59.8131 248.332 59.8498 247.929 59.8498C246.682 59.8498 245.674 59.4831 244.904 58.7498C244.17 57.9798 243.804 56.9714 243.804 55.7248C243.804 54.0381 244.647 52.6081 246.334 51.4348C248.057 50.2614 250.605 49.6748 253.979 49.6748C256.839 49.6748 259.295 50.1881 261.349 51.2148C263.439 52.2048 265.015 53.5981 266.079 55.3948C267.179 57.1548 267.729 59.1898 267.729 61.4998V76.3498L271.029 77.1748V77.9998H266.079C263.879 77.9998 262.174 77.3214 260.964 75.9648C260.45 75.4148 260.047 74.7181 259.754 73.8748C259.24 74.7914 258.635 75.6164 257.939 76.3498C256.289 77.9998 254.235 78.8248 251.779 78.8248ZM253.979 76.8998C255.335 76.8998 256.564 76.1664 257.664 74.6998C258.067 74.1498 258.489 73.4164 258.929 72.4998V64.5248C257.242 64.5248 255.629 64.6164 254.089 64.7998C252.952 64.9464 252.182 65.0381 251.779 65.0748C251.595 65.4781 251.412 66.0281 251.229 66.7248C250.862 68.1181 250.679 69.4931 250.679 70.8498C250.679 72.9031 250.99 74.4248 251.614 75.4148C252.237 76.4048 253.025 76.8998 253.979 76.8998ZM276.829 78.8248C275.179 78.8248 273.896 78.3848 272.979 77.5048C272.063 76.6248 271.604 75.4148 271.604 73.8748C271.604 72.6648 272.008 71.6381 272.814 70.7948C273.658 69.9148 274.629 69.4748 275.729 69.4748C276.023 69.4748 276.316 69.5114 276.609 69.5848C276.903 69.6214 277.104 69.6398 277.214 69.6398L277.929 69.7498V77.1748C278.809 76.7714 279.579 75.9648 280.239 74.7548C280.899 73.5448 281.321 71.5098 281.504 68.6498L282.604 52.4248L278.754 51.3248V50.4998H304.329V51.3248L301.029 52.1498V76.3498L304.329 77.1748V77.9998H288.929V77.1748L292.229 76.3498V51.8748H284.254L283.154 68.6498C282.934 72.1331 282.238 74.6998 281.064 76.3498C279.891 77.9998 278.479 78.8248 276.829 78.8248ZM308.729 77.1748L312.029 76.3498V52.1498L308.729 51.3248V50.4998H324.129V51.3248L320.829 52.1498V61.4998H323.579C333.113 61.4998 337.879 64.2498 337.879 69.7498C337.879 75.2498 333.113 77.9998 323.579 77.9998H308.729V77.1748ZM323.579 76.6248C325.193 76.6248 326.458 76.0564 327.374 74.9198C328.328 73.7464 328.804 72.0231 328.804 69.7498C328.804 67.4764 328.328 65.7714 327.374 64.6348C326.458 63.4614 325.193 62.8748 323.579 62.8748H320.829V76.6248H323.579ZM34.275 121.1V139.525L38.675 141.175V142H28.225V141.175L32.625 139.525V116.15L28.775 115.325V114.5H36.2C37.9967 114.5 39.445 114.885 40.545 115.655C41.645 116.425 42.58 117.506 43.35 118.9L50.83 132.155L56.825 118.9C57.5217 117.433 58.4017 116.333 59.465 115.6C60.5283 114.866 62.0317 114.5 63.975 114.5H69.475V115.325L66.175 116.15V140.35L69.475 141.175V142H54.075V141.175L57.375 140.35V121.1L47.695 142.55H46.375L34.275 121.1ZM88.4264 142.825C83.8797 142.825 80.3047 141.541 77.7014 138.975C75.1347 136.371 73.8514 132.796 73.8514 128.25C73.8514 123.703 75.1347 120.146 77.7014 117.58C80.3047 114.976 83.8797 113.675 88.4264 113.675C92.973 113.675 96.5297 114.976 99.0964 117.58C101.7 120.146 103.001 123.703 103.001 128.25C103.001 132.796 101.7 136.371 99.0964 138.975C96.5297 141.541 92.973 142.825 88.4264 142.825ZM88.4264 141.725C89.893 141.725 91.1214 140.698 92.1114 138.645C93.138 136.591 93.6514 133.126 93.6514 128.25C93.6514 123.373 93.138 119.908 92.1114 117.855C91.1214 115.801 89.893 114.775 88.4264 114.775C86.9597 114.775 85.713 115.801 84.6864 117.855C83.6964 119.908 83.2014 123.373 83.2014 128.25C83.2014 133.126 83.6964 136.591 84.6864 138.645C85.713 140.698 86.9597 141.725 88.4264 141.725ZM106.871 152.175L110.171 151.35V116.15L106.871 115.325V114.5H111.821C113.984 114.5 115.689 115.196 116.936 116.59C117.412 117.14 117.816 117.818 118.146 118.625C118.622 117.671 119.227 116.846 119.961 116.15C121.611 114.5 123.664 113.675 126.121 113.675C128.284 113.675 130.209 114.243 131.896 115.38C133.582 116.48 134.921 118.13 135.911 120.33C136.901 122.493 137.396 125.133 137.396 128.25C137.396 132.943 136.296 136.555 134.096 139.085C131.932 141.578 128.999 142.825 125.296 142.825C123.536 142.825 121.996 142.458 120.676 141.725C120.126 141.468 119.557 141.101 118.971 140.625V151.35L122.271 152.175V153H106.871V152.175ZM123.096 141.175C124.672 141.175 125.882 140.258 126.726 138.425C127.606 136.591 128.046 133.2 128.046 128.25C128.046 123.52 127.642 120.238 126.836 118.405C126.066 116.535 125.094 115.6 123.921 115.6C122.527 115.6 121.281 116.333 120.181 117.8C119.704 118.423 119.301 119.156 118.971 120V138.975C119.484 139.488 119.887 139.855 120.181 140.075C121.171 140.808 122.142 141.175 123.096 141.175ZM156.371 142.825C151.824 142.825 148.249 141.541 145.646 138.975C143.079 136.371 141.796 132.796 141.796 128.25C141.796 123.703 143.079 120.146 145.646 117.58C148.249 114.976 151.824 113.675 156.371 113.675C160.917 113.675 164.474 114.976 167.041 117.58C169.644 120.146 170.946 123.703 170.946 128.25C170.946 132.796 169.644 136.371 167.041 138.975C164.474 141.541 160.917 142.825 156.371 142.825ZM156.371 141.725C157.837 141.725 159.066 140.698 160.056 138.645C161.082 136.591 161.596 133.126 161.596 128.25C161.596 123.373 161.082 119.908 160.056 117.855C159.066 115.801 157.837 114.775 156.371 114.775C154.904 114.775 153.657 115.801 152.631 117.855C151.641 119.908 151.146 123.373 151.146 128.25C151.146 133.126 151.641 136.591 152.631 138.645C153.657 140.698 154.904 141.725 156.371 141.725ZM172.903 141.175L175.653 140.35L178.403 131.825C178.916 130.431 179.778 129.313 180.988 128.47C182.235 127.59 183.94 127.15 186.103 127.15H187.753C187.24 126.93 186.836 126.673 186.543 126.38C185.626 125.536 185.021 124.51 184.728 123.3L183.353 118.35C182.986 116.81 182.253 115.893 181.153 115.6V123.025L180.438 123.19C179.851 123.263 179.356 123.3 178.953 123.3C177.706 123.3 176.698 122.915 175.928 122.145C175.195 121.375 174.828 120.293 174.828 118.9C174.828 117.36 175.286 116.15 176.203 115.27C177.12 114.39 178.403 113.95 180.053 113.95C182.473 113.95 184.123 115.416 185.003 118.35L186.378 123.3C186.708 124.363 187.221 125.225 187.918 125.885C188.615 126.545 189.476 126.875 190.503 126.875H192.428V116.15L189.128 115.325V114.5H204.528V115.325L201.228 116.15V126.875H202.878C203.941 126.875 204.858 126.545 205.628 125.885C206.398 125.188 206.948 124.326 207.278 123.3L208.653 118.35C209.533 115.416 211.183 113.95 213.603 113.95C215.253 113.95 216.536 114.39 217.453 115.27C218.37 116.15 218.828 117.36 218.828 118.9C218.828 120.293 218.443 121.375 217.673 122.145C216.94 122.915 215.95 123.3 214.703 123.3C214.19 123.3 213.676 123.263 213.163 123.19L212.503 123.025V115.6C211.403 115.893 210.67 116.81 210.303 118.35L208.928 123.3C208.561 124.583 207.956 125.61 207.113 126.38C206.82 126.673 206.416 126.93 205.903 127.15H207.553C209.716 127.15 211.403 127.59 212.613 128.47C213.86 129.313 214.74 130.431 215.253 131.825L218.003 140.35L220.753 141.175V142H214.978C213.035 142 211.458 141.56 210.248 140.68C209.075 139.8 208.268 138.681 207.828 137.325L204.803 128.25H201.228V140.35L204.528 141.175V142H189.128V141.175L192.428 140.35V128.25H188.853L185.828 137.325C185.388 138.681 184.563 139.8 183.353 140.68C182.18 141.56 180.621 142 178.678 142H172.903V141.175ZM238.071 142.825C233.378 142.825 229.73 141.541 227.126 138.975C224.523 136.371 223.221 132.796 223.221 128.25C223.221 125.28 223.79 122.695 224.926 120.495C226.063 118.295 227.64 116.608 229.656 115.435C231.71 114.261 234.056 113.675 236.696 113.675C239.336 113.675 241.646 114.17 243.626 115.16C245.643 116.15 247.183 117.488 248.246 119.175C249.346 120.825 249.896 122.658 249.896 124.675C249.896 125.591 249.805 126.38 249.621 127.04L249.346 127.975C247.77 128.305 246.065 128.58 244.231 128.8C240.381 129.35 236.495 129.625 232.571 129.625C232.571 133.878 233.158 136.921 234.331 138.755C235.505 140.551 237.118 141.45 239.171 141.45C240.601 141.45 241.921 141.12 243.131 140.46C244.378 139.763 245.35 138.865 246.046 137.765C246.78 136.628 247.146 135.473 247.146 134.3H248.521C248.521 135.766 248.081 137.16 247.201 138.48C246.321 139.8 245.093 140.863 243.516 141.67C241.94 142.44 240.125 142.825 238.071 142.825ZM232.571 128.25C234.918 128.25 236.825 128.158 238.291 127.975C238.915 127.938 239.575 127.846 240.271 127.7C240.308 127.516 240.4 127.113 240.546 126.49C240.73 125.573 240.821 124.601 240.821 123.575C240.821 120.531 240.418 118.313 239.611 116.92C238.805 115.49 237.833 114.775 236.696 114.775C233.946 114.775 232.571 119.266 232.571 128.25ZM253.998 142V141.175L257.298 140.35V116.15L253.998 115.325V114.5H269.398V115.325L266.098 116.15V127.425H274.348V116.15L271.048 115.325V114.5H286.448V115.325L283.148 116.15V140.35L286.448 141.175V142H271.048V141.175L274.348 140.35V128.8H266.098V140.35L269.398 141.175V142H253.998ZM305.419 142.825C300.872 142.825 297.297 141.541 294.694 138.975C292.127 136.371 290.844 132.796 290.844 128.25C290.844 123.703 292.127 120.146 294.694 117.58C297.297 114.976 300.872 113.675 305.419 113.675C309.965 113.675 313.522 114.976 316.089 117.58C318.692 120.146 319.994 123.703 319.994 128.25C319.994 132.796 318.692 136.371 316.089 138.975C313.522 141.541 309.965 142.825 305.419 142.825ZM305.419 141.725C306.885 141.725 308.114 140.698 309.104 138.645C310.13 136.591 310.644 133.126 310.644 128.25C310.644 123.373 310.13 119.908 309.104 117.855C308.114 115.801 306.885 114.775 305.419 114.775C303.952 114.775 302.705 115.801 301.679 117.855C300.689 119.908 300.194 123.373 300.194 128.25C300.194 133.126 300.689 136.591 301.679 138.645C302.705 140.698 303.952 141.725 305.419 141.725ZM324.413 141.175L327.713 140.35V116.15L324.413 115.325V114.5H349.988V124.125H348.338C347.641 123.501 347.036 122.786 346.523 121.98C345.35 120 344.763 117.965 344.763 115.875H336.513V140.35L339.813 141.175V142H324.413V141.175ZM368.153 142.825C363.606 142.825 360.031 141.541 357.428 138.975C354.861 136.371 353.578 132.796 353.578 128.25C353.578 123.703 354.861 120.146 357.428 117.58C360.031 114.976 363.606 113.675 368.153 113.675C372.7 113.675 376.256 114.976 378.823 117.58C381.426 120.146 382.728 123.703 382.728 128.25C382.728 132.796 381.426 136.371 378.823 138.975C376.256 141.541 372.7 142.825 368.153 142.825ZM368.153 141.725C369.62 141.725 370.848 140.698 371.838 138.645C372.865 136.591 373.378 133.126 373.378 128.25C373.378 123.373 372.865 119.908 371.838 117.855C370.848 115.801 369.62 114.775 368.153 114.775C366.686 114.775 365.44 115.801 364.413 117.855C363.423 119.908 362.928 123.373 362.928 128.25C362.928 133.126 363.423 136.591 364.413 138.645C365.44 140.698 366.686 141.725 368.153 141.725Z" fill="#F8F8F8"/>
<path d="M28.1205 228.966V228.516L29.9205 228.066V214.866L28.1205 214.416V213.966H45.8205V214.416L44.0205 214.866V228.066L45.8205 228.516V228.966H37.4205V228.516L39.2205 228.066V214.716H34.7205V228.066L36.5205 228.516V228.966H28.1205ZM47.9181 234.516L49.7181 234.066V214.866L47.9181 214.416V213.966H50.6181C51.7981 213.966 52.7281 214.346 53.4081 215.106C53.6681 215.406 53.8881 215.776 54.0681 216.216C54.3281 215.696 54.6581 215.246 55.0581 214.866C55.9581 213.966 57.0781 213.516 58.4181 213.516C59.5981 213.516 60.6481 213.826 61.5681 214.446C62.4881 215.046 63.2181 215.946 63.7581 217.146C64.2981 218.326 64.5681 219.766 64.5681 221.466C64.5681 224.026 63.9681 225.996 62.7681 227.376C61.5881 228.736 59.9881 229.416 57.9681 229.416C57.0081 229.416 56.1681 229.216 55.4481 228.816C55.1481 228.676 54.8381 228.476 54.5181 228.216V234.066L56.3181 234.516V234.966H47.9181V234.516ZM56.7681 228.516C57.6281 228.516 58.2881 228.016 58.7481 227.016C59.2281 226.016 59.4681 224.166 59.4681 221.466C59.4681 218.886 59.2481 217.096 58.8081 216.096C58.3881 215.076 57.8581 214.566 57.2181 214.566C56.4581 214.566 55.7781 214.966 55.1781 215.766C54.9181 216.106 54.6981 216.506 54.5181 216.966V227.316C54.7981 227.596 55.0181 227.796 55.1781 227.916C55.7181 228.316 56.2481 228.516 56.7681 228.516ZM66.9681 228.966V228.516L68.7681 228.066V214.866L66.9681 214.416V213.966H75.3681V214.416L73.5681 214.866V224.766L78.3681 216.516V214.866L76.5681 214.416V213.966H84.9681V214.416L83.1681 214.866V228.066L84.9681 228.516V228.966H76.5681V228.516L78.3681 228.066V218.166L73.5681 226.416V228.066L75.3681 228.516V228.966H66.9681ZM86.4588 228.516L88.8588 227.616L92.5788 222.846L87.5088 214.866L86.0088 214.416V213.966H90.0588C91.0188 213.966 91.7988 214.186 92.3988 214.626C92.9988 215.046 93.5688 215.676 94.1088 216.516L95.6388 218.946L98.4588 215.316L96.2088 214.416V213.966H101.909V214.416L99.5088 215.316L96.0888 219.666L101.459 228.066L102.959 228.516V228.966H98.9088C97.9488 228.966 97.1688 228.756 96.5688 228.336C95.9688 227.916 95.3988 227.276 94.8588 226.416L93.0588 223.596L89.9088 227.616L92.1588 228.516V228.966H86.4588V228.516ZM111.363 229.416C108.883 229.416 106.933 228.716 105.513 227.316C104.113 225.896 103.413 223.946 103.413 221.466C103.413 218.986 104.113 217.046 105.513 215.646C106.933 214.226 108.883 213.516 111.363 213.516C113.843 213.516 115.783 214.226 117.183 215.646C118.603 217.046 119.313 218.986 119.313 221.466C119.313 223.946 118.603 225.896 117.183 227.316C115.783 228.716 113.843 229.416 111.363 229.416ZM111.363 228.816C112.163 228.816 112.833 228.256 113.373 227.136C113.933 226.016 114.213 224.126 114.213 221.466C114.213 218.806 113.933 216.916 113.373 215.796C112.833 214.676 112.163 214.116 111.363 214.116C110.563 214.116 109.883 214.676 109.323 215.796C108.783 216.916 108.513 218.806 108.513 221.466C108.513 224.126 108.783 226.016 109.323 227.136C109.883 228.256 110.563 228.816 111.363 228.816ZM119.316 228.216H121.716C122.036 227.996 122.386 227.646 122.766 227.166C123.466 226.286 123.866 225.186 123.966 223.866L124.566 215.016L122.466 214.416V213.966H136.716V214.416L134.916 214.866V228.216H137.616V233.916H136.716C136.196 233.576 135.766 233.166 135.426 232.686C134.586 231.606 134.166 230.366 134.166 228.966H122.766C122.766 230.346 122.336 231.586 121.476 232.686C121.136 233.166 120.716 233.576 120.216 233.916H119.316V228.216ZM130.116 228.216V214.716H125.466L124.866 223.866C124.766 225.126 124.386 226.226 123.726 227.166C123.426 227.586 123.106 227.936 122.766 228.216H130.116ZM139.273 228.966V228.516L141.073 228.066V214.866L139.273 214.416V213.966H147.673V214.416L145.873 214.866V224.766L150.673 216.516V214.866L148.873 214.416V213.966H157.273V214.416L155.473 214.866V228.066L157.273 228.516V228.966H148.873V228.516L150.673 228.066V218.166L145.873 226.416V228.066L147.673 228.516V228.966H139.273ZM162.513 228.516L164.313 228.066V214.716H162.063C162.063 215.816 161.733 216.926 161.073 218.046C160.813 218.466 160.493 218.856 160.113 219.216H159.213V213.966H174.213V219.216H173.313C172.933 218.876 172.603 218.486 172.323 218.046C171.683 216.966 171.363 215.856 171.363 214.716H169.113V228.066L170.913 228.516V228.966H162.513V228.516ZM184.258 229.416C181.698 229.416 179.708 228.716 178.288 227.316C176.868 225.896 176.158 223.946 176.158 221.466C176.158 219.846 176.468 218.436 177.088 217.236C177.708 216.036 178.568 215.116 179.668 214.476C180.788 213.836 182.068 213.516 183.508 213.516C184.948 213.516 186.208 213.786 187.288 214.326C188.388 214.866 189.228 215.596 189.808 216.516C190.408 217.416 190.708 218.416 190.708 219.516C190.708 220.016 190.658 220.446 190.558 220.806L190.408 221.316C189.548 221.496 188.618 221.646 187.618 221.766C185.518 222.066 183.398 222.216 181.258 222.216C181.258 224.536 181.578 226.196 182.218 227.196C182.858 228.176 183.738 228.666 184.858 228.666C185.638 228.666 186.358 228.486 187.018 228.126C187.698 227.746 188.228 227.256 188.608 226.656C189.008 226.036 189.208 225.406 189.208 224.766H189.958C189.958 225.566 189.718 226.326 189.238 227.046C188.758 227.766 188.088 228.346 187.228 228.786C186.368 229.206 185.378 229.416 184.258 229.416ZM181.258 221.466C182.538 221.466 183.578 221.416 184.378 221.316C184.718 221.296 185.078 221.246 185.458 221.166C185.478 221.066 185.528 220.846 185.608 220.506C185.708 220.006 185.758 219.476 185.758 218.916C185.758 217.256 185.538 216.046 185.098 215.286C184.658 214.506 184.128 214.116 183.508 214.116C182.008 214.116 181.258 216.566 181.258 221.466ZM201.353 228.516L203.153 228.066V214.866L201.353 214.416V213.966H209.003C210.743 213.966 212.173 214.146 213.293 214.506C214.433 214.866 215.253 215.336 215.753 215.916C216.253 216.476 216.503 217.076 216.503 217.716C216.503 218.516 216.243 219.166 215.723 219.666C215.223 220.166 214.583 220.526 213.803 220.746C212.963 221.006 212.063 221.146 211.103 221.166V221.316C212.283 221.336 213.333 221.486 214.253 221.766C215.173 222.066 215.923 222.466 216.503 222.966C217.103 223.446 217.403 224.096 217.403 224.916C217.403 226.096 216.783 227.066 215.543 227.826C214.323 228.586 212.343 228.966 209.603 228.966H201.353V228.516ZM209.003 220.866C209.703 220.866 210.303 220.576 210.803 219.996C211.303 219.416 211.553 218.656 211.553 217.716C211.553 216.836 211.303 216.116 210.803 215.556C210.303 214.996 209.703 214.716 209.003 214.716H207.953V220.866H209.003ZM209.603 228.216C210.463 228.216 211.153 227.926 211.673 227.346C212.193 226.766 212.453 225.956 212.453 224.916C212.453 223.876 212.193 223.066 211.673 222.486C211.153 221.906 210.463 221.616 209.603 221.616H207.953V228.216H209.603ZM227.925 228.966V228.516L229.725 228.066V214.866L227.925 214.416V213.966H245.625V214.416L243.825 214.866V228.066L245.625 228.516V228.966H237.225V228.516L239.025 228.066V214.716H234.525V228.066L236.325 228.516V228.966H227.925ZM255.973 229.416C253.493 229.416 251.543 228.716 250.123 227.316C248.723 225.896 248.023 223.946 248.023 221.466C248.023 218.986 248.723 217.046 250.123 215.646C251.543 214.226 253.493 213.516 255.973 213.516C258.453 213.516 260.393 214.226 261.793 215.646C263.213 217.046 263.923 218.986 263.923 221.466C263.923 223.946 263.213 225.896 261.793 227.316C260.393 228.716 258.453 229.416 255.973 229.416ZM255.973 228.816C256.773 228.816 257.443 228.256 257.983 227.136C258.543 226.016 258.823 224.126 258.823 221.466C258.823 218.806 258.543 216.916 257.983 215.796C257.443 214.676 256.773 214.116 255.973 214.116C255.173 214.116 254.493 214.676 253.933 215.796C253.393 216.916 253.123 218.806 253.123 221.466C253.123 224.126 253.393 226.016 253.933 227.136C254.493 228.256 255.173 228.816 255.973 228.816ZM274.433 229.416C271.873 229.416 269.883 228.716 268.463 227.316C267.043 225.896 266.333 223.946 266.333 221.466C266.333 218.986 267.043 217.046 268.463 215.646C269.883 214.226 271.873 213.516 274.433 213.516C276.273 213.516 277.653 213.836 278.573 214.476C279.513 215.116 279.983 215.896 279.983 216.816C279.983 217.496 279.773 218.046 279.353 218.466C278.953 218.866 278.413 219.066 277.733 219.066C277.453 219.066 277.173 219.046 276.893 219.006L276.533 218.916V214.416L276.113 214.266C275.813 214.166 275.453 214.116 275.033 214.116C273.893 214.116 273.003 214.656 272.363 215.736C271.743 216.816 271.433 218.726 271.433 221.466C271.433 224.126 271.743 225.996 272.363 227.076C273.003 228.136 273.893 228.666 275.033 228.666C275.813 228.666 276.533 228.486 277.193 228.126C277.873 227.746 278.403 227.256 278.783 226.656C279.183 226.036 279.383 225.406 279.383 224.766H280.133C280.133 225.566 279.893 226.326 279.413 227.046C278.933 227.766 278.263 228.346 277.403 228.786C276.543 229.206 275.553 229.416 274.433 229.416ZM290.049 229.416C287.489 229.416 285.499 228.716 284.079 227.316C282.659 225.896 281.949 223.946 281.949 221.466C281.949 219.846 282.259 218.436 282.879 217.236C283.499 216.036 284.359 215.116 285.459 214.476C286.579 213.836 287.859 213.516 289.299 213.516C290.739 213.516 291.999 213.786 293.079 214.326C294.179 214.866 295.019 215.596 295.599 216.516C296.199 217.416 296.499 218.416 296.499 219.516C296.499 220.016 296.449 220.446 296.349 220.806L296.199 221.316C295.339 221.496 294.409 221.646 293.409 221.766C291.309 222.066 289.189 222.216 287.049 222.216C287.049 224.536 287.369 226.196 288.009 227.196C288.649 228.176 289.529 228.666 290.649 228.666C291.429 228.666 292.149 228.486 292.809 228.126C293.489 227.746 294.019 227.256 294.399 226.656C294.799 226.036 294.999 225.406 294.999 224.766H295.749C295.749 225.566 295.509 226.326 295.029 227.046C294.549 227.766 293.879 228.346 293.019 228.786C292.159 229.206 291.169 229.416 290.049 229.416ZM287.049 221.466C288.329 221.466 289.369 221.416 290.169 221.316C290.509 221.296 290.869 221.246 291.249 221.166C291.269 221.066 291.319 220.846 291.399 220.506C291.499 220.006 291.549 219.476 291.549 218.916C291.549 217.256 291.329 216.046 290.889 215.286C290.449 214.506 289.919 214.116 289.299 214.116C287.799 214.116 287.049 216.566 287.049 221.466ZM299.793 229.416C298.893 229.416 298.193 229.176 297.693 228.696C297.193 228.216 296.943 227.556 296.943 226.716C296.943 226.056 297.163 225.496 297.603 225.036C298.063 224.556 298.593 224.316 299.193 224.316C299.353 224.316 299.513 224.336 299.673 224.376C299.833 224.396 299.943 224.406 300.003 224.406L300.393 224.466V228.516C300.873 228.296 301.293 227.856 301.653 227.196C302.013 226.536 302.243 225.426 302.343 223.866L302.943 215.016L300.843 214.416V213.966H314.793V214.416L312.993 214.866V228.066L314.793 228.516V228.966H306.393V228.516L308.193 228.066V214.716H303.843L303.243 223.866C303.123 225.766 302.743 227.166 302.103 228.066C301.463 228.966 300.693 229.416 299.793 229.416ZM325.293 229.416C322.733 229.416 320.743 228.716 319.323 227.316C317.903 225.896 317.193 223.946 317.193 221.466C317.193 219.846 317.503 218.436 318.123 217.236C318.743 216.036 319.603 215.116 320.703 214.476C321.823 213.836 323.103 213.516 324.543 213.516C325.983 213.516 327.243 213.786 328.323 214.326C329.423 214.866 330.263 215.596 330.843 216.516C331.443 217.416 331.743 218.416 331.743 219.516C331.743 220.016 331.693 220.446 331.593 220.806L331.443 221.316C330.583 221.496 329.653 221.646 328.653 221.766C326.553 222.066 324.433 222.216 322.293 222.216C322.293 224.536 322.613 226.196 323.253 227.196C323.893 228.176 324.773 228.666 325.893 228.666C326.673 228.666 327.393 228.486 328.053 228.126C328.733 227.746 329.263 227.256 329.643 226.656C330.043 226.036 330.243 225.406 330.243 224.766H330.993C330.993 225.566 330.753 226.326 330.273 227.046C329.793 227.766 329.123 228.346 328.263 228.786C327.403 229.206 326.413 229.416 325.293 229.416ZM322.293 221.466C323.573 221.466 324.613 221.416 325.413 221.316C325.753 221.296 326.113 221.246 326.493 221.166C326.513 221.066 326.563 220.846 326.643 220.506C326.743 220.006 326.793 219.476 326.793 218.916C326.793 217.256 326.573 216.046 326.133 215.286C325.693 214.506 325.163 214.116 324.543 214.116C323.043 214.116 322.293 216.566 322.293 221.466ZM333.98 228.966V228.516L335.78 228.066V214.866L333.98 214.416V213.966H342.38V214.416L340.58 214.866V221.016H345.08V214.866L343.28 214.416V213.966H351.68V214.416L349.88 214.866V228.066L351.68 228.516V228.966H343.28V228.516L345.08 228.066V221.766H340.58V228.066L342.38 228.516V228.966H333.98ZM354.078 228.966V228.516L355.878 228.066V214.866L354.078 214.416V213.966H362.478V214.416L360.678 214.866V224.766L365.478 216.516V214.866L363.678 214.416V213.966H372.078V214.416L370.278 214.866V228.066L372.078 228.516V228.966H363.678V228.516L365.478 228.066V218.166L360.678 226.416V228.066L362.478 228.516V228.966H354.078ZM382.568 229.416C380.008 229.416 378.018 228.716 376.598 227.316C375.178 225.896 374.468 223.946 374.468 221.466C374.468 219.846 374.778 218.436 375.398 217.236C376.018 216.036 376.878 215.116 377.978 214.476C379.098 213.836 380.378 213.516 381.818 213.516C383.258 213.516 384.518 213.786 385.598 214.326C386.698 214.866 387.538 215.596 388.118 216.516C388.718 217.416 389.018 218.416 389.018 219.516C389.018 220.016 388.968 220.446 388.868 220.806L388.718 221.316C387.858 221.496 386.928 221.646 385.928 221.766C383.828 222.066 381.708 222.216 379.568 222.216C379.568 224.536 379.888 226.196 380.528 227.196C381.168 228.176 382.048 228.666 383.168 228.666C383.948 228.666 384.668 228.486 385.328 228.126C386.008 227.746 386.538 227.256 386.918 226.656C387.318 226.036 387.518 225.406 387.518 224.766H388.268C388.268 225.566 388.028 226.326 387.548 227.046C387.068 227.766 386.398 228.346 385.538 228.786C384.678 229.206 383.688 229.416 382.568 229.416ZM379.568 221.466C380.848 221.466 381.888 221.416 382.688 221.316C383.028 221.296 383.388 221.246 383.768 221.166C383.788 221.066 383.838 220.846 383.918 220.506C384.018 220.006 384.068 219.476 384.068 218.916C384.068 217.256 383.848 216.046 383.408 215.286C382.968 214.506 382.438 214.116 381.818 214.116C380.318 214.116 379.568 216.566 379.568 221.466ZM28.4205 263.516L30.2205 263.066V243.866L28.4205 243.416V242.966H36.5205C39.5605 242.966 41.7905 243.456 43.2105 244.436C44.6505 245.396 45.3705 246.656 45.3705 248.216C45.3705 249.296 45.0605 250.166 44.4405 250.826C43.8205 251.486 43.0305 251.976 42.0705 252.296C41.0505 252.656 39.9505 252.846 38.7705 252.866V253.016C40.2305 253.076 41.5005 253.296 42.5805 253.676C43.6805 254.036 44.5905 254.596 45.3105 255.356C46.0505 256.116 46.4205 257.086 46.4205 258.266C46.4205 260.046 45.6905 261.446 44.2305 262.466C42.7705 263.466 40.4005 263.966 37.1205 263.966H28.4205V263.516ZM36.5205 252.566C37.1805 252.566 37.7905 252.386 38.3505 252.026C38.9305 251.646 39.3905 251.126 39.7305 250.466C40.0905 249.786 40.2705 249.036 40.2705 248.216C40.2705 247.336 40.0905 246.556 39.7305 245.876C39.3905 245.196 38.9305 244.666 38.3505 244.286C37.7905 243.906 37.1805 243.716 36.5205 243.716H35.1705V252.566H36.5205ZM37.1205 263.216C38.3605 263.216 39.3705 262.776 40.1505 261.896C40.9305 261.016 41.3205 259.806 41.3205 258.266C41.3205 256.726 40.9305 255.516 40.1505 254.636C39.3705 253.756 38.3605 253.316 37.1205 253.316H35.1705V263.216H37.1205ZM54.3611 264.416C52.5811 264.416 51.2111 264.036 50.2511 263.276C49.2911 262.516 48.8111 261.546 48.8111 260.366C48.8111 259.586 48.9811 258.816 49.3211 258.056C49.4611 257.696 49.6411 257.366 49.8611 257.066C50.6811 256.866 51.5711 256.686 52.5311 256.526C54.6911 256.166 56.6011 255.946 58.2611 255.866V254.966C58.2611 252.746 57.9911 251.216 57.4511 250.376C56.9111 249.536 56.0811 249.116 54.9611 249.116C54.5411 249.116 54.1811 249.166 53.8811 249.266L53.4611 249.416V253.916L53.0711 254.006C52.7511 254.046 52.4811 254.066 52.2611 254.066C51.5811 254.066 51.0311 253.866 50.6111 253.466C50.2111 253.046 50.0111 252.496 50.0111 251.816C50.0111 250.896 50.4711 250.116 51.3911 249.476C52.3311 248.836 53.7211 248.516 55.5611 248.516C57.1211 248.516 58.4611 248.796 59.5811 249.356C60.7211 249.896 61.5811 250.656 62.1611 251.636C62.7611 252.596 63.0611 253.706 63.0611 254.966V263.066L64.8611 263.516V263.966H62.1611C60.9611 263.966 60.0311 263.596 59.3711 262.856C59.0911 262.556 58.8711 262.176 58.7111 261.716C58.4311 262.216 58.1011 262.666 57.7211 263.066C56.8211 263.966 55.7011 264.416 54.3611 264.416ZM55.5611 263.366C56.3011 263.366 56.9711 262.966 57.5711 262.166C57.7911 261.866 58.0211 261.466 58.2611 260.966V256.616C57.3411 256.616 56.4611 256.666 55.6211 256.766C55.0011 256.846 54.5811 256.896 54.3611 256.916C54.2611 257.136 54.1611 257.436 54.0611 257.816C53.8611 258.576 53.7611 259.326 53.7611 260.066C53.7611 261.186 53.9311 262.016 54.2711 262.556C54.6111 263.096 55.0411 263.366 55.5611 263.366ZM74.7752 264.416C72.2152 264.416 70.2252 263.716 68.8052 262.316C67.3852 260.896 66.6752 258.946 66.6752 256.466C66.6752 253.986 67.3852 252.046 68.8052 250.646C70.2252 249.226 72.2152 248.516 74.7752 248.516C76.6152 248.516 77.9952 248.836 78.9152 249.476C79.8552 250.116 80.3252 250.896 80.3252 251.816C80.3252 252.496 80.1152 253.046 79.6952 253.466C79.2952 253.866 78.7552 254.066 78.0752 254.066C77.7952 254.066 77.5152 254.046 77.2352 254.006L76.8752 253.916V249.416L76.4552 249.266C76.1552 249.166 75.7952 249.116 75.3752 249.116C74.2352 249.116 73.3452 249.656 72.7052 250.736C72.0852 251.816 71.7752 253.726 71.7752 256.466C71.7752 259.126 72.0852 260.996 72.7052 262.076C73.3452 263.136 74.2352 263.666 75.3752 263.666C76.1552 263.666 76.8752 263.486 77.5352 263.126C78.2152 262.746 78.7452 262.256 79.1252 261.656C79.5252 261.036 79.7252 260.406 79.7252 259.766H80.4752C80.4752 260.566 80.2352 261.326 79.7552 262.046C79.2752 262.766 78.6052 263.346 77.7452 263.786C76.8852 264.206 75.8952 264.416 74.7752 264.416ZM82.5834 263.966V263.516L84.3834 263.066V249.866L82.5834 249.416V248.966H90.9834V249.416L89.1834 249.866V259.766L93.9834 251.516V249.866L92.1834 249.416V248.966H100.583V249.416L98.7834 249.866V263.066L100.583 263.516V263.966H92.1834V263.516L93.9834 263.066V253.166L89.1834 261.416V263.066L90.9834 263.516V263.966H82.5834ZM104.324 264.416C103.424 264.416 102.724 264.176 102.224 263.696C101.724 263.216 101.474 262.556 101.474 261.716C101.474 261.056 101.694 260.496 102.134 260.036C102.594 259.556 103.124 259.316 103.724 259.316C103.884 259.316 104.044 259.336 104.204 259.376C104.364 259.396 104.474 259.406 104.534 259.406L104.924 259.466V263.516C105.404 263.296 105.824 262.856 106.184 262.196C106.544 261.536 106.774 260.426 106.874 258.866L107.474 250.016L105.374 249.416V248.966H119.324V249.416L117.524 249.866V263.066L119.324 263.516V263.966H110.924V263.516L112.724 263.066V249.716H108.374L107.774 258.866C107.654 260.766 107.274 262.166 106.634 263.066C105.994 263.966 105.224 264.416 104.324 264.416ZM121.724 263.516L123.524 263.066V249.866L121.724 249.416V248.966H130.124V249.416L128.324 249.866V254.966H129.824C135.024 254.966 137.624 256.466 137.624 259.466C137.624 262.466 135.024 263.966 129.824 263.966H121.724V263.516ZM129.824 263.216C130.704 263.216 131.394 262.906 131.894 262.286C132.414 261.646 132.674 260.706 132.674 259.466C132.674 258.226 132.414 257.296 131.894 256.676C131.394 256.036 130.704 255.716 129.824 255.716H128.324V263.216H129.824ZM139.419 263.516L141.219 263.066V249.866L139.419 249.416V248.966H147.819V249.416L146.019 249.866V255.716H147.069C147.649 255.716 148.149 255.536 148.569 255.176C148.989 254.796 149.289 254.326 149.469 253.766L150.219 251.066C150.699 249.466 151.599 248.666 152.919 248.666C153.819 248.666 154.519 248.906 155.019 249.386C155.519 249.866 155.769 250.526 155.769 251.366C155.769 252.126 155.559 252.716 155.139 253.136C154.739 253.556 154.199 253.766 153.519 253.766C153.239 253.766 152.959 253.746 152.679 253.706L152.319 253.616V249.566C151.719 249.726 151.319 250.226 151.119 251.066L150.369 253.766C150.169 254.466 149.839 255.026 149.379 255.446C149.219 255.606 148.999 255.746 148.719 255.866H149.619C150.799 255.866 151.719 256.106 152.379 256.586C153.059 257.046 153.539 257.656 153.819 258.416L155.319 263.066L156.819 263.516V263.966H153.669C152.609 263.966 151.749 263.726 151.089 263.246C150.449 262.766 150.009 262.156 149.769 261.416L148.119 256.466H146.019V263.066L147.819 263.516V263.966H139.419V263.516ZM158.169 263.966V263.516L159.969 263.066V249.866L158.169 249.416V248.966H166.569V249.416L164.769 249.866V259.766L169.569 251.516V249.866L167.769 249.416V248.966H176.169V249.416L174.369 249.866V263.066L176.169 263.516V263.966H167.769V263.516L169.569 263.066V253.166L164.769 261.416V263.066L166.569 263.516V263.966H158.169ZM186.968 263.966V263.516L188.768 263.066V249.866L186.968 249.416V248.966H195.368V249.416L193.568 249.866V259.766L198.368 251.516V249.866L196.568 249.416V248.966H204.968V249.416L203.168 249.866V263.066L204.968 263.516V263.966H196.568V263.516L198.368 263.066V253.166L193.568 261.416V263.066L195.368 263.516V263.966H186.968ZM215.767 263.966V263.516L217.567 263.066V249.866L215.767 249.416V248.966H233.467V249.416L231.667 249.866V263.066L233.467 263.516V263.966H225.067V263.516L226.867 263.066V249.716H222.367V263.066L224.167 263.516V263.966H215.767ZM235.565 269.516L237.365 269.066V249.866L235.565 249.416V248.966H238.265C239.445 248.966 240.375 249.346 241.055 250.106C241.315 250.406 241.535 250.776 241.715 251.216C241.975 250.696 242.305 250.246 242.705 249.866C243.605 248.966 244.725 248.516 246.065 248.516C247.245 248.516 248.295 248.826 249.215 249.446C250.135 250.046 250.865 250.946 251.405 252.146C251.945 253.326 252.215 254.766 252.215 256.466C252.215 259.026 251.615 260.996 250.415 262.376C249.235 263.736 247.635 264.416 245.615 264.416C244.655 264.416 243.815 264.216 243.095 263.816C242.795 263.676 242.485 263.476 242.165 263.216V269.066L243.965 269.516V269.966H235.565V269.516ZM244.415 263.516C245.275 263.516 245.935 263.016 246.395 262.016C246.875 261.016 247.115 259.166 247.115 256.466C247.115 253.886 246.895 252.096 246.455 251.096C246.035 250.076 245.505 249.566 244.865 249.566C244.105 249.566 243.425 249.966 242.825 250.766C242.565 251.106 242.345 251.506 242.165 251.966V262.316C242.445 262.596 242.665 262.796 242.825 262.916C243.365 263.316 243.895 263.516 244.415 263.516ZM254.615 263.966V263.516L256.415 263.066V249.866L254.615 249.416V248.966H263.015V249.416L261.215 249.866V259.766L266.015 251.516V249.866L264.215 249.416V248.966H272.615V249.416L270.815 249.866V263.066L272.615 263.516V263.966H264.215V263.516L266.015 263.066V253.166L261.215 261.416V263.066L263.015 263.516V263.966H254.615ZM277.705 252.566V262.616L280.105 263.516V263.966H274.405V263.516L276.805 262.616V249.866L274.705 249.416V248.966H278.755C279.735 248.966 280.525 249.176 281.125 249.596C281.725 250.016 282.235 250.606 282.655 251.366L286.735 258.596L290.005 251.366C290.385 250.566 290.865 249.966 291.445 249.566C292.025 249.166 292.845 248.966 293.905 248.966H296.905V249.416L295.105 249.866V263.066L296.905 263.516V263.966H288.505V263.516L290.305 263.066V252.566L285.025 264.266H284.305L277.705 252.566ZM299.292 263.966V263.516L301.092 263.066V249.866L299.292 249.416V248.966H307.692V249.416L305.892 249.866V259.766L310.692 251.516V249.866L308.892 249.416V248.966H317.292V249.416L315.492 249.866V263.066L317.292 263.516V263.966H308.892V263.516L310.692 263.066V253.166L305.892 261.416V263.066L307.692 263.516V263.966H299.292ZM322.533 263.516L324.333 263.066V249.716H322.083C322.083 250.816 321.753 251.926 321.093 253.046C320.833 253.466 320.513 253.856 320.133 254.216H319.233V248.966H334.233V254.216H333.333C332.953 253.876 332.623 253.486 332.343 253.046C331.703 251.966 331.383 250.856 331.383 249.716H329.133V263.066L330.933 263.516V263.966H322.533V263.516ZM344.277 264.416C341.717 264.416 339.727 263.716 338.307 262.316C336.887 260.896 336.177 258.946 336.177 256.466C336.177 254.846 336.487 253.436 337.107 252.236C337.727 251.036 338.587 250.116 339.687 249.476C340.807 248.836 342.087 248.516 343.527 248.516C344.967 248.516 346.227 248.786 347.307 249.326C348.407 249.866 349.247 250.596 349.827 251.516C350.427 252.416 350.727 253.416 350.727 254.516C350.727 255.016 350.677 255.446 350.577 255.806L350.427 256.316C349.567 256.496 348.637 256.646 347.637 256.766C345.537 257.066 343.417 257.216 341.277 257.216C341.277 259.536 341.597 261.196 342.237 262.196C342.877 263.176 343.757 263.666 344.877 263.666C345.657 263.666 346.377 263.486 347.037 263.126C347.717 262.746 348.247 262.256 348.627 261.656C349.027 261.036 349.227 260.406 349.227 259.766H349.977C349.977 260.566 349.737 261.326 349.257 262.046C348.777 262.766 348.107 263.346 347.247 263.786C346.387 264.206 345.397 264.416 344.277 264.416ZM341.277 256.466C342.557 256.466 343.597 256.416 344.397 256.316C344.737 256.296 345.097 256.246 345.477 256.166C345.497 256.066 345.547 255.846 345.627 255.506C345.727 255.006 345.777 254.476 345.777 253.916C345.777 252.256 345.557 251.046 345.117 250.286C344.677 249.506 344.147 249.116 343.527 249.116C342.027 249.116 341.277 251.566 341.277 256.466ZM31.4205 305.416C30.5205 305.416 29.8205 305.176 29.3205 304.696C28.8205 304.216 28.5705 303.556 28.5705 302.716C28.5705 301.956 28.7705 301.366 29.1705 300.946C29.5905 300.526 30.1405 300.316 30.8205 300.316C30.9805 300.316 31.1405 300.326 31.3005 300.346C31.4605 300.386 31.5705 300.406 31.6305 300.406L32.0205 300.466V304.516C32.6005 304.416 33.1105 304.096 33.5505 303.556C33.9905 303.016 34.4805 302.086 35.0205 300.766L35.6205 299.266L27.8205 284.866L26.3205 284.416V283.966H30.0705C31.1105 283.966 31.9305 284.186 32.5305 284.626C33.1505 285.046 33.6805 285.676 34.1205 286.516L37.8705 293.446L41.0205 285.316L38.7705 284.416V283.966H44.3205V284.416L41.9205 285.316L35.9205 300.766C35.2805 302.406 34.6005 303.586 33.8805 304.306C33.1605 305.046 32.3405 305.416 31.4205 305.416ZM53.1576 298.516L54.9576 298.066V292.816C54.5576 293.056 54.0676 293.246 53.4876 293.386C52.9276 293.506 52.3676 293.566 51.8076 293.566C49.8476 293.566 48.3776 293.176 47.3976 292.396C46.4376 291.616 45.9576 290.556 45.9576 289.216V284.866L44.1576 284.416V283.966H52.5576V284.416L50.7576 284.866V289.216C50.7576 290.516 50.9476 291.446 51.3276 292.006C51.7276 292.546 52.2876 292.816 53.0076 292.816C53.8076 292.816 54.4576 292.566 54.9576 292.066V284.866L53.1576 284.416V283.966H61.5576V284.416L59.7576 284.866V298.066L61.5576 298.516V298.966H53.1576V298.516ZM69.8005 299.416C68.0205 299.416 66.6505 299.036 65.6905 298.276C64.7305 297.516 64.2505 296.546 64.2505 295.366C64.2505 294.586 64.4205 293.816 64.7605 293.056C64.9005 292.696 65.0805 292.366 65.3005 292.066C66.1205 291.866 67.0105 291.686 67.9705 291.526C70.1305 291.166 72.0405 290.946 73.7005 290.866V289.966C73.7005 287.746 73.4305 286.216 72.8906 285.376C72.3505 284.536 71.5205 284.116 70.4006 284.116C69.9805 284.116 69.6205 284.166 69.3205 284.266L68.9005 284.416V288.916L68.5105 289.006C68.1905 289.046 67.9205 289.066 67.7005 289.066C67.0205 289.066 66.4705 288.866 66.0505 288.466C65.6505 288.046 65.4505 287.496 65.4505 286.816C65.4505 285.896 65.9105 285.116 66.8305 284.476C67.7705 283.836 69.1605 283.516 71.0005 283.516C72.5605 283.516 73.9005 283.796 75.0205 284.356C76.1605 284.896 77.0206 285.656 77.6006 286.636C78.2006 287.596 78.5006 288.706 78.5006 289.966V298.066L80.3006 298.516V298.966H77.6006C76.4006 298.966 75.4706 298.596 74.8105 297.856C74.5305 297.556 74.3105 297.176 74.1506 296.716C73.8706 297.216 73.5405 297.666 73.1605 298.066C72.2605 298.966 71.1405 299.416 69.8005 299.416ZM71.0005 298.366C71.7405 298.366 72.4105 297.966 73.0105 297.166C73.2305 296.866 73.4605 296.466 73.7005 295.966V291.616C72.7805 291.616 71.9005 291.666 71.0605 291.766C70.4405 291.846 70.0205 291.896 69.8005 291.916C69.7005 292.136 69.6005 292.436 69.5005 292.816C69.3005 293.576 69.2005 294.326 69.2005 295.066C69.2005 296.186 69.3705 297.016 69.7105 297.556C70.0505 298.096 70.4805 298.366 71.0005 298.366ZM90.2146 299.416C87.6546 299.416 85.6646 298.716 84.2446 297.316C82.8246 295.896 82.1146 293.946 82.1146 291.466C82.1146 288.986 82.8246 287.046 84.2446 285.646C85.6646 284.226 87.6546 283.516 90.2146 283.516C92.0546 283.516 93.4346 283.836 94.3546 284.476C95.2946 285.116 95.7646 285.896 95.7646 286.816C95.7646 287.496 95.5546 288.046 95.1346 288.466C94.7346 288.866 94.1946 289.066 93.5146 289.066C93.2346 289.066 92.9546 289.046 92.6746 289.006L92.3146 288.916V284.416L91.8946 284.266C91.5946 284.166 91.2346 284.116 90.8146 284.116C89.6746 284.116 88.7846 284.656 88.1446 285.736C87.5246 286.816 87.2146 288.726 87.2146 291.466C87.2146 294.126 87.5246 295.996 88.1446 297.076C88.7846 298.136 89.6746 298.666 90.8146 298.666C91.5946 298.666 92.3146 298.486 92.9746 298.126C93.6546 297.746 94.1846 297.256 94.5646 296.656C94.9646 296.036 95.1646 295.406 95.1646 294.766H95.9146C95.9146 295.566 95.6746 296.326 95.1946 297.046C94.7146 297.766 94.0446 298.346 93.1846 298.786C92.3246 299.206 91.3346 299.416 90.2146 299.416ZM100.873 298.516L102.673 298.066V284.716H100.423C100.423 285.816 100.093 286.926 99.4328 288.046C99.1728 288.466 98.8528 288.856 98.4728 289.216H97.5728V283.966H112.573V289.216H111.673C111.293 288.876 110.963 288.486 110.683 288.046C110.043 286.966 109.723 285.856 109.723 284.716H107.473V298.066L109.273 298.516V298.966H100.873V298.516ZM114.517 298.966V298.516L116.317 298.066V284.866L114.517 284.416V283.966H122.917V284.416L121.117 284.866V294.766L125.917 286.516V284.866L124.117 284.416V283.966H132.517V284.416L130.717 284.866V298.066L132.517 298.516V298.966H124.117V298.516L125.917 298.066V288.166L121.117 296.416V298.066L122.917 298.516V298.966H114.517ZM143.008 299.416C140.448 299.416 138.458 298.716 137.038 297.316C135.618 295.896 134.908 293.946 134.908 291.466C134.908 289.846 135.218 288.436 135.838 287.236C136.458 286.036 137.318 285.116 138.418 284.476C139.538 283.836 140.818 283.516 142.258 283.516C143.698 283.516 144.958 283.786 146.038 284.326C147.138 284.866 147.978 285.596 148.558 286.516C149.158 287.416 149.458 288.416 149.458 289.516C149.458 290.016 149.408 290.446 149.308 290.806L149.158 291.316C148.298 291.496 147.368 291.646 146.368 291.766C144.268 292.066 142.148 292.216 140.008 292.216C140.008 294.536 140.328 296.196 140.968 297.196C141.608 298.176 142.488 298.666 143.608 298.666C144.388 298.666 145.108 298.486 145.768 298.126C146.448 297.746 146.978 297.256 147.358 296.656C147.758 296.036 147.958 295.406 147.958 294.766H148.708C148.708 295.566 148.468 296.326 147.988 297.046C147.508 297.766 146.838 298.346 145.978 298.786C145.118 299.206 144.128 299.416 143.008 299.416ZM140.008 291.466C141.288 291.466 142.328 291.416 143.128 291.316C143.468 291.296 143.828 291.246 144.208 291.166C144.228 291.066 144.278 290.846 144.358 290.506C144.458 290.006 144.508 289.476 144.508 288.916C144.508 287.256 144.288 286.046 143.848 285.286C143.408 284.506 142.878 284.116 142.258 284.116C140.758 284.116 140.008 286.566 140.008 291.466ZM160.103 298.516L161.903 298.066V284.866L160.103 284.416V283.966H167.753C169.493 283.966 170.923 284.146 172.043 284.506C173.183 284.866 174.003 285.336 174.503 285.916C175.003 286.476 175.253 287.076 175.253 287.716C175.253 288.516 174.993 289.166 174.473 289.666C173.973 290.166 173.333 290.526 172.553 290.746C171.713 291.006 170.813 291.146 169.853 291.166V291.316C171.033 291.336 172.083 291.486 173.003 291.766C173.923 292.066 174.673 292.466 175.253 292.966C175.853 293.446 176.153 294.096 176.153 294.916C176.153 296.096 175.533 297.066 174.293 297.826C173.073 298.586 171.093 298.966 168.353 298.966H160.103V298.516ZM167.753 290.866C168.453 290.866 169.053 290.576 169.553 289.996C170.053 289.416 170.303 288.656 170.303 287.716C170.303 286.836 170.053 286.116 169.553 285.556C169.053 284.996 168.453 284.716 167.753 284.716H166.703V290.866H167.753ZM168.353 298.216C169.213 298.216 169.903 297.926 170.423 297.346C170.943 296.766 171.203 295.956 171.203 294.916C171.203 293.876 170.943 293.066 170.423 292.486C169.903 291.906 169.213 291.616 168.353 291.616H166.703V298.216H168.353ZM186.675 298.966V298.516L188.475 298.066V284.866L186.675 284.416V283.966H204.375V284.416L202.575 284.866V298.066L204.375 298.516V298.966H195.975V298.516L197.775 298.066V284.716H193.275V298.066L195.075 298.516V298.966H186.675ZM206.473 304.516L208.273 304.066V284.866L206.473 284.416V283.966H209.173C210.353 283.966 211.283 284.346 211.963 285.106C212.223 285.406 212.443 285.776 212.623 286.216C212.883 285.696 213.213 285.246 213.613 284.866C214.513 283.966 215.633 283.516 216.973 283.516C218.153 283.516 219.203 283.826 220.123 284.446C221.043 285.046 221.773 285.946 222.313 287.146C222.853 288.326 223.123 289.766 223.123 291.466C223.123 294.026 222.523 295.996 221.323 297.376C220.143 298.736 218.543 299.416 216.523 299.416C215.563 299.416 214.723 299.216 214.003 298.816C213.703 298.676 213.393 298.476 213.073 298.216V304.066L214.873 304.516V304.966H206.473V304.516ZM215.323 298.516C216.183 298.516 216.843 298.016 217.303 297.016C217.783 296.016 218.023 294.166 218.023 291.466C218.023 288.886 217.803 287.096 217.363 286.096C216.943 285.076 216.413 284.566 215.773 284.566C215.013 284.566 214.333 284.966 213.733 285.766C213.473 286.106 213.253 286.506 213.073 286.966V297.316C213.353 297.596 213.573 297.796 213.733 297.916C214.273 298.316 214.803 298.516 215.323 298.516ZM231.373 299.416C229.593 299.416 228.223 299.036 227.263 298.276C226.303 297.516 225.823 296.546 225.823 295.366C225.823 294.586 225.993 293.816 226.333 293.056C226.473 292.696 226.653 292.366 226.873 292.066C227.693 291.866 228.583 291.686 229.543 291.526C231.703 291.166 233.613 290.946 235.273 290.866V289.966C235.273 287.746 235.003 286.216 234.463 285.376C233.923 284.536 233.093 284.116 231.973 284.116C231.553 284.116 231.193 284.166 230.893 284.266L230.473 284.416V288.916L230.083 289.006C229.763 289.046 229.493 289.066 229.273 289.066C228.593 289.066 228.043 288.866 227.623 288.466C227.223 288.046 227.023 287.496 227.023 286.816C227.023 285.896 227.483 285.116 228.403 284.476C229.343 283.836 230.733 283.516 232.573 283.516C234.133 283.516 235.473 283.796 236.593 284.356C237.733 284.896 238.593 285.656 239.173 286.636C239.773 287.596 240.073 288.706 240.073 289.966V298.066L241.873 298.516V298.966H239.173C237.973 298.966 237.043 298.596 236.383 297.856C236.103 297.556 235.883 297.176 235.723 296.716C235.443 297.216 235.113 297.666 234.733 298.066C233.833 298.966 232.713 299.416 231.373 299.416ZM232.573 298.366C233.313 298.366 233.983 297.966 234.583 297.166C234.803 296.866 235.033 296.466 235.273 295.966V291.616C234.353 291.616 233.473 291.666 232.633 291.766C232.013 291.846 231.593 291.896 231.373 291.916C231.273 292.136 231.173 292.436 231.073 292.816C230.873 293.576 230.773 294.326 230.773 295.066C230.773 296.186 230.943 297.016 231.283 297.556C231.623 298.096 232.053 298.366 232.573 298.366ZM249.687 299.416C248.387 299.416 247.257 299.206 246.297 298.786C245.357 298.346 244.637 297.776 244.137 297.076C243.637 296.356 243.387 295.586 243.387 294.766H244.137C244.137 295.426 244.347 296.056 244.767 296.656C245.187 297.256 245.767 297.746 246.507 298.126C247.267 298.486 248.127 298.666 249.087 298.666C251.387 298.666 252.537 297.466 252.537 295.066C252.537 293.906 252.277 293.016 251.757 292.396C251.237 291.776 250.547 291.466 249.687 291.466H247.737V290.716H249.087C249.947 290.716 250.637 290.426 251.157 289.846C251.677 289.266 251.937 288.456 251.937 287.416C251.937 286.376 251.677 285.566 251.157 284.986C250.637 284.406 249.947 284.116 249.087 284.116C248.587 284.116 248.157 284.166 247.797 284.266L247.287 284.416V288.916L246.897 289.006C246.577 289.046 246.307 289.066 246.087 289.066C245.407 289.066 244.857 288.866 244.437 288.466C244.037 288.046 243.837 287.496 243.837 286.816C243.837 285.896 244.317 285.116 245.277 284.476C246.257 283.836 247.727 283.516 249.687 283.516C251.347 283.516 252.717 283.696 253.797 284.056C254.877 284.416 255.657 284.896 256.137 285.496C256.637 286.076 256.887 286.716 256.887 287.416C256.887 288.256 256.627 288.916 256.107 289.396C255.607 289.876 254.937 290.266 254.097 290.566C253.277 290.846 252.357 290.996 251.337 291.016V291.166C252.397 291.186 253.417 291.346 254.397 291.646C255.297 291.926 256.037 292.346 256.617 292.906C257.197 293.446 257.487 294.166 257.487 295.066C257.487 296.386 256.877 297.446 255.657 298.246C254.437 299.026 252.447 299.416 249.687 299.416ZM257.509 298.216H259.909C260.229 297.996 260.579 297.646 260.959 297.166C261.659 296.286 262.059 295.186 262.159 293.866L262.759 285.016L260.659 284.416V283.966H274.909V284.416L273.109 284.866V298.216H275.809V303.916H274.909C274.389 303.576 273.959 303.166 273.619 302.686C272.779 301.606 272.359 300.366 272.359 298.966H260.959C260.959 300.346 260.529 301.586 259.669 302.686C259.329 303.166 258.909 303.576 258.409 303.916H257.509V298.216ZM268.309 298.216V284.716H263.659L263.059 293.866C262.959 295.126 262.579 296.226 261.919 297.166C261.619 297.586 261.299 297.936 260.959 298.216H268.309ZM277.466 298.966V298.516L279.266 298.066V284.866L277.466 284.416V283.966H285.866V284.416L284.066 284.866V291.016H288.566V284.866L286.766 284.416V283.966H295.166V284.416L293.366 284.866V298.066L295.166 298.516V298.966H286.766V298.516L288.566 298.066V291.766H284.066V298.066L285.866 298.516V298.966H277.466ZM297.564 298.966V298.516L299.364 298.066V284.866L297.564 284.416V283.966H305.964V284.416L304.164 284.866V294.766L308.964 286.516V284.866L307.164 284.416V283.966H315.564V284.416L313.764 284.866V298.066L315.564 298.516V298.966H307.164V298.516L308.964 298.066V288.166L304.164 296.416V298.066L305.964 298.516V298.966H297.564ZM317.954 298.516L319.754 298.066V284.866L317.954 284.416V283.966H326.354V284.416L324.554 284.866V290.716H325.604C326.184 290.716 326.684 290.536 327.104 290.176C327.524 289.796 327.824 289.326 328.004 288.766L328.754 286.066C329.234 284.466 330.134 283.666 331.454 283.666C332.354 283.666 333.054 283.906 333.554 284.386C334.054 284.866 334.304 285.526 334.304 286.366C334.304 287.126 334.094 287.716 333.674 288.136C333.274 288.556 332.734 288.766 332.054 288.766C331.774 288.766 331.494 288.746 331.214 288.706L330.854 288.616V284.566C330.254 284.726 329.854 285.226 329.654 286.066L328.904 288.766C328.704 289.466 328.374 290.026 327.914 290.446C327.754 290.606 327.534 290.746 327.254 290.866H328.154C329.334 290.866 330.254 291.106 330.914 291.586C331.594 292.046 332.074 292.656 332.354 293.416L333.854 298.066L335.354 298.516V298.966H332.204C331.144 298.966 330.284 298.726 329.624 298.246C328.984 297.766 328.544 297.156 328.304 296.416L326.654 291.466H324.554V298.066L326.354 298.516V298.966H317.954V298.516ZM344.804 299.416C342.244 299.416 340.254 298.716 338.834 297.316C337.414 295.896 336.704 293.946 336.704 291.466C336.704 289.846 337.014 288.436 337.634 287.236C338.254 286.036 339.114 285.116 340.214 284.476C341.334 283.836 342.614 283.516 344.054 283.516C345.494 283.516 346.754 283.786 347.834 284.326C348.934 284.866 349.774 285.596 350.354 286.516C350.954 287.416 351.254 288.416 351.254 289.516C351.254 290.016 351.204 290.446 351.104 290.806L350.954 291.316C350.094 291.496 349.164 291.646 348.164 291.766C346.064 292.066 343.944 292.216 341.804 292.216C341.804 294.536 342.124 296.196 342.764 297.196C343.404 298.176 344.284 298.666 345.404 298.666C346.184 298.666 346.904 298.486 347.564 298.126C348.244 297.746 348.774 297.256 349.154 296.656C349.554 296.036 349.754 295.406 349.754 294.766H350.504C350.504 295.566 350.264 296.326 349.784 297.046C349.304 297.766 348.634 298.346 347.774 298.786C346.914 299.206 345.924 299.416 344.804 299.416ZM341.804 291.466C343.084 291.466 344.124 291.416 344.924 291.316C345.264 291.296 345.624 291.246 346.004 291.166C346.024 291.066 346.074 290.846 346.154 290.506C346.254 290.006 346.304 289.476 346.304 288.916C346.304 287.256 346.084 286.046 345.644 285.286C345.204 284.506 344.674 284.116 344.054 284.116C342.554 284.116 341.804 286.566 341.804 291.466ZM354.092 280.966C354.092 279.926 354.362 279.096 354.902 278.476C355.462 277.836 356.142 277.516 356.942 277.516C357.742 277.516 358.412 277.836 358.952 278.476C359.512 279.096 359.792 279.926 359.792 280.966L357.392 292.516H356.492L354.092 280.966ZM356.942 299.266C356.342 299.266 355.812 299.036 355.352 298.576C354.912 298.096 354.692 297.526 354.692 296.866C354.692 296.206 354.912 295.646 355.352 295.186C355.812 294.706 356.342 294.466 356.942 294.466C357.542 294.466 358.062 294.706 358.502 295.186C358.962 295.646 359.192 296.206 359.192 296.866C359.192 297.526 358.962 298.096 358.502 298.576C358.062 299.036 357.542 299.266 356.942 299.266ZM28.4205 368.516L30.2205 368.066V348.866L28.4205 348.416V347.966H36.5205C39.5605 347.966 41.7905 348.456 43.2105 349.436C44.6505 350.396 45.3705 351.656 45.3705 353.216C45.3705 354.296 45.0605 355.166 44.4405 355.826C43.8205 356.486 43.0305 356.976 42.0705 357.296C41.0505 357.656 39.9505 357.846 38.7705 357.866V358.016C40.2305 358.076 41.5005 358.296 42.5805 358.676C43.6805 359.036 44.5905 359.596 45.3105 360.356C46.0505 361.116 46.4205 362.086 46.4205 363.266C46.4205 365.046 45.6905 366.446 44.2305 367.466C42.7705 368.466 40.4005 368.966 37.1205 368.966H28.4205V368.516ZM36.5205 357.566C37.1805 357.566 37.7905 357.386 38.3505 357.026C38.9305 356.646 39.3905 356.126 39.7305 355.466C40.0905 354.786 40.2705 354.036 40.2705 353.216C40.2705 352.336 40.0905 351.556 39.7305 350.876C39.3905 350.196 38.9305 349.666 38.3505 349.286C37.7905 348.906 37.1805 348.716 36.5205 348.716H35.1705V357.566H36.5205ZM37.1205 368.216C38.3605 368.216 39.3705 367.776 40.1505 366.896C40.9305 366.016 41.3205 364.806 41.3205 363.266C41.3205 361.726 40.9305 360.516 40.1505 359.636C39.3705 358.756 38.3605 358.316 37.1205 358.316H35.1705V368.216H37.1205ZM47.6111 368.516L50.0111 367.616L53.7311 362.846L48.6611 354.866L47.1611 354.416V353.966H51.2111C52.1711 353.966 52.9511 354.186 53.5511 354.626C54.1511 355.046 54.7211 355.676 55.2611 356.516L56.7911 358.946L59.6111 355.316L57.3611 354.416V353.966H63.0611V354.416L60.6611 355.316L57.2411 359.666L62.6111 368.066L64.1111 368.516V368.966H60.0611C59.1011 368.966 58.3211 368.756 57.7211 368.336C57.1211 367.916 56.5511 367.276 56.0111 366.416L54.2111 363.596L51.0611 367.616L53.3111 368.516V368.966H47.6111V368.516ZM72.5158 369.416C70.0358 369.416 68.0858 368.716 66.6658 367.316C65.2658 365.896 64.5658 363.946 64.5658 361.466C64.5658 358.986 65.2658 357.046 66.6658 355.646C68.0858 354.226 70.0358 353.516 72.5158 353.516C74.9958 353.516 76.9358 354.226 78.3358 355.646C79.7558 357.046 80.4658 358.986 80.4658 361.466C80.4658 363.946 79.7558 365.896 78.3358 367.316C76.9358 368.716 74.9958 369.416 72.5158 369.416ZM72.5158 368.816C73.3158 368.816 73.9858 368.256 74.5258 367.136C75.0858 366.016 75.3658 364.126 75.3658 361.466C75.3658 358.806 75.0858 356.916 74.5258 355.796C73.9858 354.676 73.3158 354.116 72.5158 354.116C71.7158 354.116 71.0358 354.676 70.4758 355.796C69.9358 356.916 69.6658 358.806 69.6658 361.466C69.6658 364.126 69.9358 366.016 70.4758 367.136C71.0358 368.256 71.7158 368.816 72.5158 368.816ZM80.4681 368.216H82.8681C83.1881 367.996 83.5381 367.646 83.9181 367.166C84.6181 366.286 85.0181 365.186 85.1181 363.866L85.7181 355.016L83.6181 354.416V353.966H97.8681V354.416L96.0681 354.866V368.216H98.7681V373.916H97.8681C97.3481 373.576 96.9181 373.166 96.5781 372.686C95.7381 371.606 95.3181 370.366 95.3181 368.966H83.9181C83.9181 370.346 83.4881 371.586 82.6281 372.686C82.2881 373.166 81.8681 373.576 81.3681 373.916H80.4681V368.216ZM91.2681 368.216V354.716H86.6181L86.0181 363.866C85.9181 365.126 85.5381 366.226 84.8781 367.166C84.5781 367.586 84.2581 367.936 83.9181 368.216H91.2681ZM116.933 369.416C114.373 369.416 112.383 368.716 110.963 367.316C109.543 365.896 108.833 363.946 108.833 361.466C108.833 358.986 109.543 357.046 110.963 355.646C112.383 354.226 114.373 353.516 116.933 353.516C118.773 353.516 120.153 353.836 121.073 354.476C122.013 355.116 122.483 355.896 122.483 356.816C122.483 357.496 122.273 358.046 121.853 358.466C121.453 358.866 120.913 359.066 120.233 359.066C119.953 359.066 119.673 359.046 119.393 359.006L119.033 358.916V354.416L118.613 354.266C118.313 354.166 117.953 354.116 117.533 354.116C116.393 354.116 115.503 354.656 114.863 355.736C114.243 356.816 113.933 358.726 113.933 361.466C113.933 364.126 114.243 365.996 114.863 367.076C115.503 368.136 116.393 368.666 117.533 368.666C118.313 368.666 119.033 368.486 119.693 368.126C120.373 367.746 120.903 367.256 121.283 366.656C121.683 366.036 121.883 365.406 121.883 364.766H122.633C122.633 365.566 122.393 366.326 121.913 367.046C121.433 367.766 120.763 368.346 119.903 368.786C119.043 369.206 118.053 369.416 116.933 369.416ZM124.742 368.516L126.542 368.066V354.866L124.742 354.416V353.966H132.392C134.132 353.966 135.562 354.146 136.682 354.506C137.822 354.866 138.642 355.336 139.142 355.916C139.642 356.476 139.892 357.076 139.892 357.716C139.892 358.516 139.632 359.166 139.112 359.666C138.612 360.166 137.972 360.526 137.192 360.746C136.352 361.006 135.452 361.146 134.492 361.166V361.316C135.672 361.336 136.722 361.486 137.642 361.766C138.562 362.066 139.312 362.466 139.892 362.966C140.492 363.446 140.792 364.096 140.792 364.916C140.792 366.096 140.172 367.066 138.932 367.826C137.712 368.586 135.732 368.966 132.992 368.966H124.742V368.516ZM132.392 360.866C133.092 360.866 133.692 360.576 134.192 359.996C134.692 359.416 134.942 358.656 134.942 357.716C134.942 356.836 134.692 356.116 134.192 355.556C133.692 354.996 133.092 354.716 132.392 354.716H131.342V360.866H132.392ZM132.992 368.216C133.852 368.216 134.542 367.926 135.062 367.346C135.582 366.766 135.842 365.956 135.842 364.916C135.842 363.876 135.582 363.066 135.062 362.486C134.542 361.906 133.852 361.616 132.992 361.616H131.342V368.216H132.992ZM150.856 369.416C148.376 369.416 146.426 368.716 145.006 367.316C143.606 365.896 142.906 363.946 142.906 361.466C142.906 358.986 143.606 357.046 145.006 355.646C146.426 354.226 148.376 353.516 150.856 353.516C153.336 353.516 155.276 354.226 156.676 355.646C158.096 357.046 158.806 358.986 158.806 361.466C158.806 363.946 158.096 365.896 156.676 367.316C155.276 368.716 153.336 369.416 150.856 369.416ZM150.856 368.816C151.656 368.816 152.326 368.256 152.866 367.136C153.426 366.016 153.706 364.126 153.706 361.466C153.706 358.806 153.426 356.916 152.866 355.796C152.326 354.676 151.656 354.116 150.856 354.116C150.056 354.116 149.376 354.676 148.816 355.796C148.276 356.916 148.006 358.806 148.006 361.466C148.006 364.126 148.276 366.016 148.816 367.136C149.376 368.256 150.056 368.816 150.856 368.816ZM169.166 369.416C166.666 369.416 164.766 368.766 163.466 367.466C162.166 366.166 161.516 364.266 161.516 361.766V359.966C161.516 356.406 162.086 353.816 163.226 352.196C164.386 350.556 166.066 349.546 168.266 349.166L175.166 347.966L175.616 346.466H176.066V349.166C176.066 350.046 175.856 350.726 175.436 351.206C175.016 351.686 174.376 352.006 173.516 352.166L166.616 353.366C165.936 353.486 165.286 353.816 164.666 354.356C164.046 354.876 163.536 355.616 163.136 356.576C162.756 357.516 162.566 358.646 162.566 359.966C162.766 359.246 163.166 358.526 163.766 357.806C164.386 357.086 165.156 356.496 166.076 356.036C167.016 355.556 168.046 355.316 169.166 355.316C171.646 355.316 173.536 355.946 174.836 357.206C176.156 358.446 176.816 360.166 176.816 362.366C176.816 364.566 176.156 366.296 174.836 367.556C173.536 368.796 171.646 369.416 169.166 369.416ZM169.166 368.816C169.886 368.816 170.486 368.326 170.966 367.346C171.466 366.366 171.716 364.706 171.716 362.366C171.716 360.026 171.466 358.366 170.966 357.386C170.486 356.406 169.886 355.916 169.166 355.916C168.446 355.916 167.836 356.406 167.336 357.386C166.856 358.366 166.616 360.026 166.616 362.366C166.616 364.706 166.856 366.366 167.336 367.346C167.836 368.326 168.446 368.816 169.166 368.816ZM187.154 369.416C184.674 369.416 182.724 368.716 181.304 367.316C179.904 365.896 179.204 363.946 179.204 361.466C179.204 358.986 179.904 357.046 181.304 355.646C182.724 354.226 184.674 353.516 187.154 353.516C189.634 353.516 191.574 354.226 192.974 355.646C194.394 357.046 195.104 358.986 195.104 361.466C195.104 363.946 194.394 365.896 192.974 367.316C191.574 368.716 189.634 369.416 187.154 369.416ZM187.154 368.816C187.954 368.816 188.624 368.256 189.164 367.136C189.724 366.016 190.004 364.126 190.004 361.466C190.004 358.806 189.724 356.916 189.164 355.796C188.624 354.676 187.954 354.116 187.154 354.116C186.354 354.116 185.674 354.676 185.114 355.796C184.574 356.916 184.304 358.806 184.304 361.466C184.304 364.126 184.574 366.016 185.114 367.136C185.674 368.256 186.354 368.816 187.154 368.816ZM195.107 368.216H197.507C197.827 367.996 198.177 367.646 198.557 367.166C199.257 366.286 199.657 365.186 199.757 363.866L200.357 355.016L198.257 354.416V353.966H212.507V354.416L210.707 354.866V368.216H213.407V373.916H212.507C211.987 373.576 211.557 373.166 211.217 372.686C210.377 371.606 209.957 370.366 209.957 368.966H198.557C198.557 370.346 198.127 371.586 197.267 372.686C196.927 373.166 196.507 373.576 196.007 373.916H195.107V368.216ZM205.907 368.216V354.716H201.257L200.657 363.866C200.557 365.126 200.177 366.226 199.517 367.166C199.217 367.586 198.897 367.936 198.557 368.216H205.907ZM215.064 368.966V368.516L216.864 368.066V354.866L215.064 354.416V353.966H223.464V354.416L221.664 354.866V361.016H226.164V354.866L224.364 354.416V353.966H232.764V354.416L230.964 354.866V368.066L232.764 368.516V368.966H224.364V368.516L226.164 368.066V361.766H221.664V368.066L223.464 368.516V368.966H215.064ZM235.161 368.516L236.961 368.066V354.866L235.161 354.416V353.966H243.561V354.416L241.761 354.866V359.966H243.261C248.461 359.966 251.061 361.466 251.061 364.466C251.061 367.466 248.461 368.966 243.261 368.966H235.161V368.516ZM251.661 368.966V368.516L253.461 368.066V354.866L251.661 354.416V353.966H260.061V354.416L258.261 354.866V368.066L260.061 368.516V368.966H251.661ZM243.261 368.216C244.141 368.216 244.831 367.906 245.331 367.286C245.851 366.646 246.111 365.706 246.111 364.466C246.111 363.226 245.851 362.296 245.331 361.676C244.831 361.036 244.141 360.716 243.261 360.716H241.761V368.216H243.261ZM271.466 351.866C269.926 351.866 268.786 351.626 268.046 351.146C267.326 350.666 266.966 350.056 266.966 349.316C266.966 348.796 267.136 348.366 267.476 348.026C267.816 347.686 268.246 347.516 268.766 347.516C268.806 347.516 269.036 347.546 269.456 347.606L269.816 347.666V350.966C269.836 350.966 269.976 351.016 270.236 351.116C270.516 351.216 270.926 351.266 271.466 351.266C272.006 351.266 272.406 351.216 272.666 351.116C272.946 351.016 273.096 350.966 273.116 350.966V347.666L273.476 347.606C273.896 347.546 274.126 347.516 274.166 347.516C274.686 347.516 275.116 347.686 275.456 348.026C275.796 348.366 275.966 348.796 275.966 349.316C275.966 350.056 275.596 350.666 274.856 351.146C274.136 351.626 273.006 351.866 271.466 351.866ZM262.466 368.966V368.516L264.266 368.066V354.866L262.466 354.416V353.966H270.866V354.416L269.066 354.866V364.766L273.866 356.516V354.866L272.066 354.416V353.966H280.466V354.416L278.666 354.866V368.066L280.466 368.516V368.966H272.066V368.516L273.866 368.066V358.166L269.066 366.416V368.066L270.866 368.516V368.966H262.466ZM283.457 350.966C283.457 349.926 283.727 349.096 284.267 348.476C284.827 347.836 285.507 347.516 286.307 347.516C287.107 347.516 287.777 347.836 288.317 348.476C288.877 349.096 289.157 349.926 289.157 350.966L286.757 362.516H285.857L283.457 350.966ZM286.307 369.266C285.707 369.266 285.177 369.036 284.717 368.576C284.277 368.096 284.057 367.526 284.057 366.866C284.057 366.206 284.277 365.646 284.717 365.186C285.177 364.706 285.707 364.466 286.307 364.466C286.907 364.466 287.427 364.706 287.867 365.186C288.327 365.646 288.557 366.206 288.557 366.866C288.557 367.526 288.327 368.096 287.867 368.576C287.427 369.036 286.907 369.266 286.307 369.266Z" fill="#F8F8F8"/>
<path fill-rule="evenodd" clip-rule="evenodd" d="M319.733 438.104C319.733 443.626 318.839 448.94 317.188 453.909C317.131 454.313 317.028 454.719 316.876 455.123L289.819 526.548L360.967 499.222C361.298 499.095 361.632 499.001 361.964 498.939C367 497.238 372.395 496.316 378.005 496.316C405.668 496.316 428.094 518.741 428.094 546.404C428.094 574.067 405.668 596.493 378.005 596.493C372.481 596.493 367.166 595.599 362.197 593.947C361.796 593.89 361.392 593.787 360.991 593.636L289.479 566.546L316.817 637.725C316.946 638.06 317.04 638.397 317.102 638.734C318.802 643.768 319.723 649.16 319.723 654.768C319.723 682.431 297.298 704.856 269.635 704.856C241.971 704.856 219.546 682.431 219.546 654.768C219.546 649.245 220.44 643.931 222.091 638.963C222.148 638.559 222.25 638.152 222.403 637.748L249.478 566.275L178.372 593.585C178.041 593.712 177.708 593.806 177.375 593.868C172.339 595.569 166.944 596.491 161.334 596.491C133.671 596.491 111.246 574.066 111.246 546.403C111.246 518.74 133.671 496.314 161.334 496.314C166.858 496.314 172.173 497.209 177.143 498.86C177.544 498.917 177.948 499.02 178.348 499.172L249.76 526.223L222.462 455.147C222.333 454.812 222.239 454.475 222.177 454.138C220.477 449.104 219.556 443.712 219.556 438.104C219.556 410.441 241.981 388.015 269.644 388.015C297.307 388.015 319.733 410.441 319.733 438.104ZM269.423 546.667C269.585 546.667 269.748 546.669 269.91 546.674C269.909 546.517 269.911 546.361 269.915 546.204C269.753 546.205 269.591 546.203 269.43 546.199C269.43 546.355 269.427 546.511 269.423 546.667Z" fill="#F8F8F8"/>
<path fill-rule="evenodd" clip-rule="evenodd" d="M229.105 435.078C233.009 438.982 236.134 443.37 238.479 448.049C238.726 448.377 238.943 448.739 239.121 449.134L270.492 518.768L301.478 449.139C301.626 448.807 301.8 448.498 301.997 448.213C304.355 443.456 307.514 438.995 311.476 435.032C331.037 415.472 362.752 415.472 382.312 435.032C401.873 454.593 401.873 486.308 382.312 505.868C378.405 509.775 374.014 512.902 369.33 515.248C369.006 515.492 368.647 515.706 368.255 515.882L298.548 547.287L368.207 578.286C368.533 578.431 368.836 578.602 369.116 578.794C373.88 581.152 378.348 584.315 382.315 588.282C401.876 607.843 401.876 639.557 382.315 659.118C362.754 678.679 331.04 678.679 311.479 659.118C307.576 655.215 304.452 650.828 302.106 646.151C301.859 645.823 301.642 645.46 301.463 645.064L270.073 575.388L239.11 644.967C238.961 645.3 238.787 645.609 238.589 645.894C236.232 650.65 233.073 655.111 229.111 659.072C209.55 678.633 177.836 678.633 158.275 659.072C138.714 639.511 138.714 607.797 158.275 588.236C162.183 584.328 166.576 581.201 171.26 578.855C171.584 578.612 171.942 578.399 172.332 578.223L241.935 546.866L172.377 515.912C172.049 515.766 171.743 515.594 171.462 515.399C166.7 513.041 162.234 509.88 158.269 505.914C138.708 486.353 138.708 454.639 158.269 435.078C177.83 415.517 209.544 415.517 229.105 435.078ZM270.313 547.405C270.423 547.296 270.534 547.188 270.646 547.081C270.535 546.971 270.426 546.859 270.318 546.746C270.209 546.855 270.099 546.963 269.987 547.07C270.097 547.18 270.206 547.292 270.313 547.405Z" fill="#E9B7AA"/>
<ellipse cx="419.188" cy="20.8123" rx="14.0625" ry="14.0625" fill="#C95853"/>
<ellipse cx="24.3125" cy="20.8123" rx="14.0625" ry="14.0625" fill="#C95853"/>
</g>
<defs>
<clipPath id="clip0_0_5940">
<rect width="442.125" height="625.227" fill="white" transform="translate(0.125 -0.000488281)"/>
</clipPath>
</defs>
</svg>
