<svg width="441" height="624" viewBox="0 0 441 624" fill="none" xmlns="http://www.w3.org/2000/svg">
<rect width="441" height="623.636" transform="translate(0 0.124756)" fill="#F8F8F8"/>
<path d="M45.3 340.2C42.1 340.2 39.6 339.25 37.8 337.35C36 335.45 35.1 332.75 35.1 329.25C35.1 326.95 35.49 324.98 36.27 323.34C37.07 321.68 38.18 320.43 39.6 319.59C41.04 318.73 42.7 318.3 44.58 318.3C45.72 318.3 46.87 318.63 48.03 319.29C48.47 319.53 48.91 319.85 49.35 320.25C49.69 319.73 50.04 319.32 50.4 319.02C50.76 318.76 50.96 318.62 51 318.6H51.75V324.3H50.55C50.29 323.34 49.9 322.47 49.38 321.69C48.9 320.93 48.3 320.3 47.58 319.8C46.88 319.3 46.07 319.05 45.15 319.05C43.77 319.05 42.62 319.85 41.7 321.45C40.8 323.05 40.35 325.65 40.35 329.25C40.35 332.91 40.84 335.53 41.82 337.11C42.82 338.67 44.18 339.45 45.9 339.45C46.84 339.45 47.73 339.19 48.57 338.67C49.43 338.13 50.12 337.42 50.64 336.54C51.18 335.66 51.45 334.73 51.45 333.75H52.2C52.2 334.89 51.89 335.96 51.27 336.96C50.67 337.94 49.84 338.73 48.78 339.33C47.74 339.91 46.58 340.2 45.3 340.2ZM62.2688 340.2C59.7088 340.2 57.7188 339.5 56.2988 338.1C54.8788 336.68 54.1688 334.73 54.1688 332.25C54.1688 330.63 54.4788 329.22 55.0988 328.02C55.7188 326.82 56.5788 325.9 57.6788 325.26C58.7988 324.62 60.0788 324.3 61.5188 324.3C62.9588 324.3 64.2188 324.57 65.2988 325.11C66.3988 325.65 67.2388 326.38 67.8188 327.3C68.4188 328.2 68.7188 329.2 68.7188 330.3C68.7188 330.8 68.6688 331.23 68.5688 331.59L68.4188 332.1C67.5588 332.28 66.6288 332.43 65.6288 332.55C63.5288 332.85 61.4088 333 59.2688 333C59.2688 335.32 59.5888 336.98 60.2288 337.98C60.8688 338.96 61.7488 339.45 62.8688 339.45C63.6488 339.45 64.3688 339.27 65.0288 338.91C65.7088 338.53 66.2388 338.04 66.6188 337.44C67.0188 336.82 67.2188 336.19 67.2188 335.55H67.9688C67.9688 336.35 67.7288 337.11 67.2488 337.83C66.7688 338.55 66.0988 339.13 65.2388 339.57C64.3788 339.99 63.3888 340.2 62.2688 340.2ZM59.2688 332.25C60.5488 332.25 61.5888 332.2 62.3888 332.1C62.7288 332.08 63.0888 332.03 63.4688 331.95C63.4888 331.85 63.5388 331.63 63.6188 331.29C63.7188 330.79 63.7688 330.26 63.7688 329.7C63.7688 328.04 63.5488 326.83 63.1088 326.07C62.6688 325.29 62.1388 324.9 61.5188 324.9C60.0188 324.9 59.2688 327.35 59.2688 332.25ZM70.9559 339.3L72.7559 338.85V325.65L70.9559 325.2V324.75H84.9059V330H84.0059C83.6259 329.66 83.2959 329.27 83.0159 328.83C82.3759 327.75 82.0559 326.64 82.0559 325.5H77.5559V338.85L79.3559 339.3V339.75H70.9559V339.3ZM94.8141 340.2C92.3341 340.2 90.3841 339.5 88.9641 338.1C87.5641 336.68 86.8641 334.73 86.8641 332.25C86.8641 329.77 87.5641 327.83 88.9641 326.43C90.3841 325.01 92.3341 324.3 94.8141 324.3C97.2941 324.3 99.2341 325.01 100.634 326.43C102.054 327.83 102.764 329.77 102.764 332.25C102.764 334.73 102.054 336.68 100.634 338.1C99.2341 339.5 97.2941 340.2 94.8141 340.2ZM94.8141 339.6C95.6141 339.6 96.2841 339.04 96.8241 337.92C97.3841 336.8 97.6641 334.91 97.6641 332.25C97.6641 329.59 97.3841 327.7 96.8241 326.58C96.2841 325.46 95.6141 324.9 94.8141 324.9C94.0141 324.9 93.3341 325.46 92.7741 326.58C92.2341 327.7 91.9641 329.59 91.9641 332.25C91.9641 334.91 92.2341 336.8 92.7741 337.92C93.3341 339.04 94.0141 339.6 94.8141 339.6ZM102.766 339H105.166C105.486 338.78 105.836 338.43 106.216 337.95C106.916 337.07 107.316 335.97 107.416 334.65L108.016 325.8L105.916 325.2V324.75H120.166V325.2L118.366 325.65V339H121.066V344.7H120.166C119.646 344.36 119.216 343.95 118.876 343.47C118.036 342.39 117.616 341.15 117.616 339.75H106.216C106.216 341.13 105.786 342.37 104.926 343.47C104.586 343.95 104.166 344.36 103.666 344.7H102.766V339ZM113.566 339V325.5H108.916L108.316 334.65C108.216 335.91 107.836 337.01 107.176 337.95C106.876 338.37 106.556 338.72 106.216 339H113.566ZM122.723 339.75V339.3L124.523 338.85V325.65L122.723 325.2V324.75H131.123V325.2L129.323 325.65V331.8H133.823V325.65L132.023 325.2V324.75H140.423V325.2L138.623 325.65V338.85L140.423 339.3V339.75H132.023V339.3L133.823 338.85V332.55H129.323V338.85L131.123 339.3V339.75H122.723ZM141.771 339.3L143.271 338.85L144.471 335.25C144.791 334.29 145.641 333.59 147.021 333.15C147.581 332.99 148.231 332.89 148.971 332.85V332.7C148.051 332.68 147.151 332.52 146.271 332.22C144.471 331.58 143.571 330.49 143.571 328.95C143.571 327.71 144.181 326.7 145.401 325.92C146.641 325.14 148.631 324.75 151.371 324.75H159.321V325.2L157.521 325.65V338.85L159.321 339.3V339.75H150.921V339.3L152.721 338.85V333.15H150.321L148.971 337.35C148.751 338.01 148.321 338.58 147.681 339.06C147.061 339.52 146.291 339.75 145.371 339.75H141.771V339.3ZM152.721 332.4V325.5H151.371C150.511 325.5 149.821 325.8 149.301 326.4C148.781 326.98 148.521 327.83 148.521 328.95C148.521 330.07 148.781 330.93 149.301 331.53C149.821 332.11 150.511 332.4 151.371 332.4H152.721ZM170.126 339.3L171.926 338.85V325.65L170.126 325.2V324.75H177.776C179.516 324.75 180.946 324.93 182.066 325.29C183.206 325.65 184.026 326.12 184.526 326.7C185.026 327.26 185.276 327.86 185.276 328.5C185.276 329.3 185.016 329.95 184.496 330.45C183.996 330.95 183.356 331.31 182.576 331.53C181.736 331.79 180.836 331.93 179.876 331.95V332.1C181.056 332.12 182.106 332.27 183.026 332.55C183.946 332.85 184.696 333.25 185.276 333.75C185.876 334.23 186.176 334.88 186.176 335.7C186.176 336.88 185.556 337.85 184.316 338.61C183.096 339.37 181.116 339.75 178.376 339.75H170.126V339.3ZM177.776 331.65C178.476 331.65 179.076 331.36 179.576 330.78C180.076 330.2 180.326 329.44 180.326 328.5C180.326 327.62 180.076 326.9 179.576 326.34C179.076 325.78 178.476 325.5 177.776 325.5H176.726V331.65H177.776ZM178.376 339C179.236 339 179.926 338.71 180.446 338.13C180.966 337.55 181.226 336.74 181.226 335.7C181.226 334.66 180.966 333.85 180.446 333.27C179.926 332.69 179.236 332.4 178.376 332.4H176.726V339H178.376ZM196.39 340.2C193.83 340.2 191.84 339.5 190.42 338.1C189 336.68 188.29 334.73 188.29 332.25C188.29 330.63 188.6 329.22 189.22 328.02C189.84 326.82 190.7 325.9 191.8 325.26C192.92 324.62 194.2 324.3 195.64 324.3C197.08 324.3 198.34 324.57 199.42 325.11C200.52 325.65 201.36 326.38 201.94 327.3C202.54 328.2 202.84 329.2 202.84 330.3C202.84 330.8 202.79 331.23 202.69 331.59L202.54 332.1C201.68 332.28 200.75 332.43 199.75 332.55C197.65 332.85 195.53 333 193.39 333C193.39 335.32 193.71 336.98 194.35 337.98C194.99 338.96 195.87 339.45 196.99 339.45C197.77 339.45 198.49 339.27 199.15 338.91C199.83 338.53 200.36 338.04 200.74 337.44C201.14 336.82 201.34 336.19 201.34 335.55H202.09C202.09 336.35 201.85 337.11 201.37 337.83C200.89 338.55 200.22 339.13 199.36 339.57C198.5 339.99 197.51 340.2 196.39 340.2ZM193.39 332.25C194.67 332.25 195.71 332.2 196.51 332.1C196.85 332.08 197.21 332.03 197.59 331.95C197.61 331.85 197.66 331.63 197.74 331.29C197.84 330.79 197.89 330.26 197.89 329.7C197.89 328.04 197.67 326.83 197.23 326.07C196.79 325.29 196.26 324.9 195.64 324.9C194.14 324.9 193.39 327.35 193.39 332.25ZM213.327 339.3L215.127 338.85V333.6C214.727 333.84 214.237 334.03 213.657 334.17C213.097 334.29 212.537 334.35 211.977 334.35C210.017 334.35 208.547 333.96 207.567 333.18C206.607 332.4 206.127 331.34 206.127 330V325.65L204.327 325.2V324.75H212.727V325.2L210.927 325.65V330C210.927 331.3 211.117 332.23 211.497 332.79C211.897 333.33 212.457 333.6 213.177 333.6C213.977 333.6 214.627 333.35 215.127 332.85V325.65L213.327 325.2V324.75H221.727V325.2L219.927 325.65V338.85L221.727 339.3V339.75H213.327V339.3ZM232.22 340.2C229.66 340.2 227.67 339.5 226.25 338.1C224.83 336.68 224.12 334.73 224.12 332.25C224.12 330.63 224.43 329.22 225.05 328.02C225.67 326.82 226.53 325.9 227.63 325.26C228.75 324.62 230.03 324.3 231.47 324.3C232.91 324.3 234.17 324.57 235.25 325.11C236.35 325.65 237.19 326.38 237.77 327.3C238.37 328.2 238.67 329.2 238.67 330.3C238.67 330.8 238.62 331.23 238.52 331.59L238.37 332.1C237.51 332.28 236.58 332.43 235.58 332.55C233.48 332.85 231.36 333 229.22 333C229.22 335.32 229.54 336.98 230.18 337.98C230.82 338.96 231.7 339.45 232.82 339.45C233.6 339.45 234.32 339.27 234.98 338.91C235.66 338.53 236.19 338.04 236.57 337.44C236.97 336.82 237.17 336.19 237.17 335.55H237.92C237.92 336.35 237.68 337.11 237.2 337.83C236.72 338.55 236.05 339.13 235.19 339.57C234.33 339.99 233.34 340.2 232.22 340.2ZM229.22 332.25C230.5 332.25 231.54 332.2 232.34 332.1C232.68 332.08 233.04 332.03 233.42 331.95C233.44 331.85 233.49 331.63 233.57 331.29C233.67 330.79 233.72 330.26 233.72 329.7C233.72 328.04 233.5 326.83 233.06 326.07C232.62 325.29 232.09 324.9 231.47 324.9C229.97 324.9 229.22 327.35 229.22 332.25ZM240.607 345.3L242.407 344.85V325.65L240.607 325.2V324.75H243.307C244.487 324.75 245.417 325.13 246.097 325.89C246.357 326.19 246.577 326.56 246.757 327C247.017 326.48 247.347 326.03 247.747 325.65C248.647 324.75 249.767 324.3 251.107 324.3C252.287 324.3 253.337 324.61 254.257 325.23C255.177 325.83 255.907 326.73 256.447 327.93C256.987 329.11 257.257 330.55 257.257 332.25C257.257 334.81 256.657 336.78 255.457 338.16C254.277 339.52 252.677 340.2 250.657 340.2C249.697 340.2 248.857 340 248.137 339.6C247.837 339.46 247.527 339.26 247.207 339V344.85L249.007 345.3V345.75H240.607V345.3ZM249.457 339.3C250.317 339.3 250.977 338.8 251.437 337.8C251.917 336.8 252.157 334.95 252.157 332.25C252.157 329.67 251.937 327.88 251.497 326.88C251.077 325.86 250.547 325.35 249.907 325.35C249.147 325.35 248.467 325.75 247.867 326.55C247.607 326.89 247.387 327.29 247.207 327.75V338.1C247.487 338.38 247.707 338.58 247.867 338.7C248.407 339.1 248.937 339.3 249.457 339.3ZM267.607 340.2C265.127 340.2 263.177 339.5 261.757 338.1C260.357 336.68 259.657 334.73 259.657 332.25C259.657 329.77 260.357 327.83 261.757 326.43C263.177 325.01 265.127 324.3 267.607 324.3C270.087 324.3 272.027 325.01 273.427 326.43C274.847 327.83 275.557 329.77 275.557 332.25C275.557 334.73 274.847 336.68 273.427 338.1C272.027 339.5 270.087 340.2 267.607 340.2ZM267.607 339.6C268.407 339.6 269.077 339.04 269.617 337.92C270.177 336.8 270.457 334.91 270.457 332.25C270.457 329.59 270.177 327.7 269.617 326.58C269.077 325.46 268.407 324.9 267.607 324.9C266.807 324.9 266.127 325.46 265.567 326.58C265.027 327.7 264.757 329.59 264.757 332.25C264.757 334.91 265.027 336.8 265.567 337.92C266.127 339.04 266.807 339.6 267.607 339.6ZM280.668 328.35V338.4L283.068 339.3V339.75H277.368V339.3L279.768 338.4V325.65L277.668 325.2V324.75H281.718C282.698 324.75 283.488 324.96 284.088 325.38C284.688 325.8 285.198 326.39 285.618 327.15L289.698 334.38L292.968 327.15C293.348 326.35 293.828 325.75 294.408 325.35C294.988 324.95 295.808 324.75 296.868 324.75H299.868V325.2L298.068 325.65V338.85L299.868 339.3V339.75H291.468V339.3L293.268 338.85V328.35L287.988 340.05H287.268L280.668 328.35ZM34.95 374.3L36.75 373.85V360.65L34.95 360.2V359.75H42.6C44.34 359.75 45.77 359.93 46.89 360.29C48.03 360.65 48.85 361.12 49.35 361.7C49.85 362.26 50.1 362.86 50.1 363.5C50.1 364.3 49.84 364.95 49.32 365.45C48.82 365.95 48.18 366.31 47.4 366.53C46.56 366.79 45.66 366.93 44.7 366.95V367.1C45.88 367.12 46.93 367.27 47.85 367.55C48.77 367.85 49.52 368.25 50.1 368.75C50.7 369.23 51 369.88 51 370.7C51 371.88 50.38 372.85 49.14 373.61C47.92 374.37 45.94 374.75 43.2 374.75H34.95V374.3ZM42.6 366.65C43.3 366.65 43.9 366.36 44.4 365.78C44.9 365.2 45.15 364.44 45.15 363.5C45.15 362.62 44.9 361.9 44.4 361.34C43.9 360.78 43.3 360.5 42.6 360.5H41.55V366.65H42.6ZM43.2 374C44.06 374 44.75 373.71 45.27 373.13C45.79 372.55 46.05 371.74 46.05 370.7C46.05 369.66 45.79 368.85 45.27 368.27C44.75 367.69 44.06 367.4 43.2 367.4H41.55V374H43.2ZM60.6223 374.3L63.0223 373.4L66.7423 368.63L61.6723 360.65L60.1723 360.2V359.75H64.2223C65.1823 359.75 65.9623 359.97 66.5623 360.41C67.1623 360.83 67.7323 361.46 68.2723 362.3L69.8023 364.73L72.6223 361.1L70.3723 360.2V359.75H76.0723V360.2L73.6723 361.1L70.2523 365.45L75.6223 373.85L77.1223 374.3V374.75H73.0723C72.1123 374.75 71.3323 374.54 70.7323 374.12C70.1323 373.7 69.5623 373.06 69.0223 372.2L67.2223 369.38L64.0723 373.4L66.3223 374.3V374.75H60.6223V374.3ZM85.527 375.2C83.047 375.2 81.097 374.5 79.677 373.1C78.277 371.68 77.577 369.73 77.577 367.25C77.577 364.77 78.277 362.83 79.677 361.43C81.097 360.01 83.047 359.3 85.527 359.3C88.007 359.3 89.947 360.01 91.347 361.43C92.767 362.83 93.477 364.77 93.477 367.25C93.477 369.73 92.767 371.68 91.347 373.1C89.947 374.5 88.007 375.2 85.527 375.2ZM85.527 374.6C86.327 374.6 86.997 374.04 87.537 372.92C88.097 371.8 88.377 369.91 88.377 367.25C88.377 364.59 88.097 362.7 87.537 361.58C86.997 360.46 86.327 359.9 85.527 359.9C84.727 359.9 84.047 360.46 83.487 361.58C82.947 362.7 82.677 364.59 82.677 367.25C82.677 369.91 82.947 371.8 83.487 372.92C84.047 374.04 84.727 374.6 85.527 374.6ZM97.2375 375.2C96.3375 375.2 95.6375 374.96 95.1375 374.48C94.6375 374 94.3875 373.34 94.3875 372.5C94.3875 371.84 94.6075 371.28 95.0475 370.82C95.5075 370.34 96.0375 370.1 96.6375 370.1C96.7975 370.1 96.9575 370.12 97.1175 370.16C97.2775 370.18 97.3875 370.19 97.4475 370.19L97.8375 370.25V374.3C98.3175 374.08 98.7375 373.64 99.0975 372.98C99.4575 372.32 99.6875 371.21 99.7875 369.65L100.388 360.8L98.2875 360.2V359.75H112.238V360.2L110.438 360.65V373.85L112.238 374.3V374.75H103.838V374.3L105.638 373.85V360.5H101.288L100.688 369.65C100.568 371.55 100.188 372.95 99.5475 373.85C98.9075 374.75 98.1375 375.2 97.2375 375.2ZM115.988 375.2C115.088 375.2 114.388 374.96 113.888 374.48C113.387 374 113.137 373.34 113.137 372.5C113.137 371.84 113.357 371.28 113.798 370.82C114.258 370.34 114.788 370.1 115.388 370.1C115.548 370.1 115.708 370.12 115.868 370.16C116.028 370.18 116.138 370.19 116.198 370.19L116.588 370.25V374.3C117.068 374.08 117.488 373.64 117.847 372.98C118.208 372.32 118.438 371.21 118.538 369.65L119.138 360.8L117.038 360.2V359.75H130.988V360.2L129.188 360.65V373.85L130.988 374.3V374.75H122.588V374.3L124.388 373.85V360.5H120.038L119.438 369.65C119.318 371.55 118.938 372.95 118.298 373.85C117.658 374.75 116.888 375.2 115.988 375.2ZM141.488 375.2C138.928 375.2 136.938 374.5 135.518 373.1C134.098 371.68 133.388 369.73 133.388 367.25C133.388 365.63 133.698 364.22 134.318 363.02C134.938 361.82 135.798 360.9 136.898 360.26C138.018 359.62 139.298 359.3 140.738 359.3C142.178 359.3 143.438 359.57 144.518 360.11C145.618 360.65 146.458 361.38 147.038 362.3C147.638 363.2 147.938 364.2 147.938 365.3C147.938 365.8 147.888 366.23 147.788 366.59L147.638 367.1C146.778 367.28 145.848 367.43 144.848 367.55C142.748 367.85 140.628 368 138.488 368C138.488 370.32 138.808 371.98 139.448 372.98C140.088 373.96 140.968 374.45 142.088 374.45C142.868 374.45 143.588 374.27 144.248 373.91C144.928 373.53 145.458 373.04 145.838 372.44C146.238 371.82 146.438 371.19 146.438 370.55H147.188C147.188 371.35 146.948 372.11 146.468 372.83C145.988 373.55 145.318 374.13 144.458 374.57C143.598 374.99 142.608 375.2 141.488 375.2ZM138.488 367.25C139.768 367.25 140.808 367.2 141.608 367.1C141.948 367.08 142.308 367.03 142.688 366.95C142.708 366.85 142.758 366.63 142.838 366.29C142.938 365.79 142.988 365.26 142.988 364.7C142.988 363.04 142.768 361.83 142.328 361.07C141.888 360.29 141.358 359.9 140.738 359.9C139.238 359.9 138.488 362.35 138.488 367.25ZM166.533 375.2C164.033 375.2 162.133 374.55 160.833 373.25C159.533 371.95 158.883 370.05 158.883 367.55V365.75C158.883 362.19 159.453 359.6 160.593 357.98C161.753 356.34 163.433 355.33 165.633 354.95L172.533 353.75L172.983 352.25H173.433V354.95C173.433 355.83 173.223 356.51 172.803 356.99C172.383 357.47 171.743 357.79 170.883 357.95L163.983 359.15C163.303 359.27 162.653 359.6 162.033 360.14C161.413 360.66 160.903 361.4 160.503 362.36C160.123 363.3 159.933 364.43 159.933 365.75C160.133 365.03 160.533 364.31 161.133 363.59C161.753 362.87 162.523 362.28 163.443 361.82C164.383 361.34 165.413 361.1 166.533 361.1C169.013 361.1 170.903 361.73 172.203 362.99C173.523 364.23 174.183 365.95 174.183 368.15C174.183 370.35 173.523 372.08 172.203 373.34C170.903 374.58 169.013 375.2 166.533 375.2ZM166.533 374.6C167.253 374.6 167.853 374.11 168.333 373.13C168.833 372.15 169.083 370.49 169.083 368.15C169.083 365.81 168.833 364.15 168.333 363.17C167.853 362.19 167.253 361.7 166.533 361.7C165.813 361.7 165.203 362.19 164.703 363.17C164.223 364.15 163.983 365.81 163.983 368.15C163.983 370.49 164.223 372.15 164.703 373.13C165.203 374.11 165.813 374.6 166.533 374.6ZM179.871 381.2C178.971 381.2 178.271 380.96 177.771 380.48C177.271 380 177.021 379.34 177.021 378.5C177.021 377.74 177.221 377.15 177.621 376.73C178.041 376.31 178.591 376.1 179.271 376.1C179.431 376.1 179.591 376.11 179.751 376.13C179.911 376.17 180.021 376.19 180.081 376.19L180.471 376.25V380.3C181.051 380.2 181.561 379.88 182.001 379.34C182.441 378.8 182.931 377.87 183.471 376.55L184.071 375.05L176.271 360.65L174.771 360.2V359.75H178.521C179.561 359.75 180.381 359.97 180.981 360.41C181.601 360.83 182.131 361.46 182.571 362.3L186.321 369.23L189.471 361.1L187.221 360.2V359.75H192.771V360.2L190.371 361.1L184.371 376.55C183.731 378.19 183.051 379.37 182.331 380.09C181.611 380.83 180.791 381.2 179.871 381.2ZM190.95 374H193.35C193.67 373.78 194.02 373.43 194.4 372.95C195.1 372.07 195.5 370.97 195.6 369.65L196.2 360.8L194.1 360.2V359.75H208.35V360.2L206.55 360.65V374H209.25V379.7H208.35C207.83 379.36 207.4 378.95 207.06 378.47C206.22 377.39 205.8 376.15 205.8 374.75H194.4C194.4 376.13 193.97 377.37 193.11 378.47C192.77 378.95 192.35 379.36 191.85 379.7H190.95V374ZM201.75 374V360.5H197.1L196.5 369.65C196.4 370.91 196.02 372.01 195.36 372.95C195.06 373.37 194.74 373.72 194.4 374H201.75ZM219.007 375.2C216.447 375.2 214.457 374.5 213.037 373.1C211.617 371.68 210.907 369.73 210.907 367.25C210.907 365.63 211.217 364.22 211.837 363.02C212.457 361.82 213.317 360.9 214.417 360.26C215.537 359.62 216.817 359.3 218.257 359.3C219.697 359.3 220.957 359.57 222.037 360.11C223.137 360.65 223.977 361.38 224.557 362.3C225.157 363.2 225.457 364.2 225.457 365.3C225.457 365.8 225.407 366.23 225.307 366.59L225.157 367.1C224.297 367.28 223.367 367.43 222.367 367.55C220.267 367.85 218.147 368 216.007 368C216.007 370.32 216.327 371.98 216.967 372.98C217.607 373.96 218.487 374.45 219.607 374.45C220.387 374.45 221.107 374.27 221.767 373.91C222.447 373.53 222.977 373.04 223.357 372.44C223.757 371.82 223.957 371.19 223.957 370.55H224.707C224.707 371.35 224.467 372.11 223.987 372.83C223.507 373.55 222.837 374.13 221.977 374.57C221.117 374.99 220.127 375.2 219.007 375.2ZM216.007 367.25C217.287 367.25 218.327 367.2 219.127 367.1C219.467 367.08 219.827 367.03 220.207 366.95C220.227 366.85 220.277 366.63 220.357 366.29C220.457 365.79 220.507 365.26 220.507 364.7C220.507 363.04 220.287 361.83 219.847 361.07C219.407 360.29 218.877 359.9 218.257 359.9C216.757 359.9 216.007 362.35 216.007 367.25ZM230.544 374.3L232.344 373.85V360.5H230.094C230.094 361.6 229.764 362.71 229.104 363.83C228.844 364.25 228.524 364.64 228.144 365H227.244V359.75H242.244V365H241.344C240.964 364.66 240.634 364.27 240.354 363.83C239.714 362.75 239.394 361.64 239.394 360.5H237.144V373.85L238.944 374.3V374.75H230.544V374.3ZM252.596 374.75V374.3L254.396 373.85V360.65L252.596 360.2V359.75H260.996V360.2L259.196 360.65V370.55L263.996 362.3V360.65L262.196 360.2V359.75H270.596V360.2L268.796 360.65V373.85L270.596 374.3V374.75H262.196V374.3L263.996 373.85V363.95L259.196 372.2V373.85L260.996 374.3V374.75H252.596ZM271.487 374H273.887C274.207 373.78 274.557 373.43 274.937 372.95C275.637 372.07 276.037 370.97 276.137 369.65L276.737 360.8L274.637 360.2V359.75H288.887V360.2L287.087 360.65V374H289.787V379.7H288.887C288.367 379.36 287.937 378.95 287.597 378.47C286.757 377.39 286.337 376.15 286.337 374.75H274.937C274.937 376.13 274.507 377.37 273.647 378.47C273.307 378.95 272.887 379.36 272.387 379.7H271.487V374ZM282.287 374V360.5H277.637L277.037 369.65C276.937 370.91 276.557 372.01 275.897 372.95C275.597 373.37 275.277 373.72 274.937 374H282.287ZM294.294 374.3L296.094 373.85V360.5H293.844C293.844 361.6 293.514 362.71 292.854 363.83C292.594 364.25 292.274 364.64 291.894 365H290.994V359.75H305.994V365H305.094C304.714 364.66 304.384 364.27 304.104 363.83C303.464 362.75 303.144 361.64 303.144 360.5H300.894V373.85L302.694 374.3V374.75H294.294V374.3ZM307.938 374.75V374.3L309.738 373.85V360.65L307.938 360.2V359.75H316.338V360.2L314.538 360.65V370.55L319.338 362.3V360.65L317.538 360.2V359.75H325.938V360.2L324.138 360.65V373.85L325.938 374.3V374.75H317.538V374.3L319.338 373.85V363.95L314.538 372.2V373.85L316.338 374.3V374.75H307.938ZM41.7 415.3L43.5 414.85V409.9C41.7 409.86 40.13 409.5 38.79 408.82C37.45 408.14 36.42 407.23 35.7 406.09C35 404.93 34.65 403.65 34.65 402.25C34.65 400.85 35 399.58 35.7 398.44C36.42 397.28 37.45 396.36 38.79 395.68C40.13 395 41.7 394.64 43.5 394.6V389.65L41.7 389.2V388.75H45.6C47.4 388.75 48.3 389.65 48.3 391.45V394.6C50.1 394.64 51.67 395 53.01 395.68C54.35 396.36 55.37 397.28 56.07 398.44C56.79 399.58 57.15 400.85 57.15 402.25C57.15 403.65 56.79 404.93 56.07 406.09C55.37 407.23 54.35 408.14 53.01 408.82C51.67 409.5 50.1 409.86 48.3 409.9V414.85L50.1 415.3V415.75H41.7V415.3ZM43.5 395.2C42.4 395.28 41.5 395.88 40.8 397C40.1 398.12 39.75 399.87 39.75 402.25C39.75 404.63 40.1 406.38 40.8 407.5C41.5 408.62 42.4 409.22 43.5 409.3V395.2ZM48.3 409.3C49.4 409.22 50.3 408.62 51 407.5C51.7 406.38 52.05 404.63 52.05 402.25C52.05 399.87 51.7 398.12 51 397C50.3 395.88 49.4 395.28 48.3 395.2V409.3ZM59.2371 409.75V409.3L61.0371 408.85V395.65L59.2371 395.2V394.75H67.6371V395.2L65.8371 395.65V405.55L70.6371 397.3V395.65L68.8371 395.2V394.75H77.2371V395.2L75.4371 395.65V408.85L77.2371 409.3V409.75H68.8371V409.3L70.6371 408.85V398.95L65.8371 407.2V408.85L67.6371 409.3V409.75H59.2371ZM80.9777 410.2C80.0777 410.2 79.3777 409.96 78.8777 409.48C78.3777 409 78.1277 408.34 78.1277 407.5C78.1277 406.84 78.3477 406.28 78.7877 405.82C79.2477 405.34 79.7777 405.1 80.3777 405.1C80.5377 405.1 80.6977 405.12 80.8577 405.16C81.0177 405.18 81.1277 405.19 81.1877 405.19L81.5777 405.25V409.3C82.0577 409.08 82.4777 408.64 82.8377 407.98C83.1977 407.32 83.4277 406.21 83.5277 404.65L84.1277 395.8L82.0277 395.2V394.75H95.9777V395.2L94.1777 395.65V408.85L95.9777 409.3V409.75H87.5777V409.3L89.3777 408.85V395.5H85.0277L84.4277 404.65C84.3077 406.55 83.9277 407.95 83.2877 408.85C82.6477 409.75 81.8777 410.2 80.9777 410.2ZM98.3777 409.3L100.178 408.85V395.65L98.3777 395.2V394.75H106.778V395.2L104.978 395.65V400.75H106.478C111.678 400.75 114.278 402.25 114.278 405.25C114.278 408.25 111.678 409.75 106.478 409.75H98.3777V409.3ZM106.478 409C107.358 409 108.048 408.69 108.548 408.07C109.068 407.43 109.328 406.49 109.328 405.25C109.328 404.01 109.068 403.08 108.548 402.46C108.048 401.82 107.358 401.5 106.478 401.5H104.978V409H106.478ZM118.773 398.35V408.4L121.173 409.3V409.75H115.473V409.3L117.873 408.4V395.65L115.773 395.2V394.75H119.823C120.803 394.75 121.593 394.96 122.193 395.38C122.793 395.8 123.303 396.39 123.723 397.15L127.803 404.38L131.073 397.15C131.453 396.35 131.933 395.75 132.513 395.35C133.093 394.95 133.913 394.75 134.973 394.75H137.973V395.2L136.173 395.65V408.85L137.973 409.3V409.75H129.573V409.3L131.373 408.85V398.35L126.093 410.05H125.373L118.773 398.35ZM155.818 409.15L148.018 402.25L155.818 395.35L156.568 396.1L151.018 402.25L156.568 408.4L155.818 409.15ZM159.118 407.5L153.418 402.25L159.118 397L159.868 397.75L156.268 402.25L159.868 406.75L159.118 407.5ZM162.281 409.3L164.081 408.85V389.65L162.281 389.2V388.75H178.331V394.15H177.431C177.051 393.85 176.721 393.47 176.441 393.01C175.801 391.93 175.481 390.76 175.481 389.5H169.031V408.85L170.831 409.3V409.75H162.281V409.3ZM185.839 410.2C183.359 410.2 181.409 409.5 179.989 408.1C178.589 406.68 177.889 404.73 177.889 402.25C177.889 399.77 178.589 397.83 179.989 396.43C181.409 395.01 183.359 394.3 185.839 394.3C188.319 394.3 190.259 395.01 191.659 396.43C193.079 397.83 193.789 399.77 193.789 402.25C193.789 404.73 193.079 406.68 191.659 408.1C190.259 409.5 188.319 410.2 185.839 410.2ZM185.839 409.6C186.639 409.6 187.309 409.04 187.849 407.92C188.409 406.8 188.689 404.91 188.689 402.25C188.689 399.59 188.409 397.7 187.849 396.58C187.309 395.46 186.639 394.9 185.839 394.9C185.039 394.9 184.359 395.46 183.799 396.58C183.259 397.7 182.989 399.59 182.989 402.25C182.989 404.91 183.259 406.8 183.799 407.92C184.359 409.04 185.039 409.6 185.839 409.6ZM195.9 415.3L197.7 414.85V395.65L195.9 395.2V394.75H198.6C199.78 394.75 200.71 395.13 201.39 395.89C201.65 396.19 201.87 396.56 202.05 397C202.31 396.48 202.64 396.03 203.04 395.65C203.94 394.75 205.06 394.3 206.4 394.3C207.58 394.3 208.63 394.61 209.55 395.23C210.47 395.83 211.2 396.73 211.74 397.93C212.28 399.11 212.55 400.55 212.55 402.25C212.55 404.81 211.95 406.78 210.75 408.16C209.57 409.52 207.97 410.2 205.95 410.2C204.99 410.2 204.15 410 203.43 409.6C203.13 409.46 202.82 409.26 202.5 409V414.85L204.3 415.3V415.75H195.9V415.3ZM204.75 409.3C205.61 409.3 206.27 408.8 206.73 407.8C207.21 406.8 207.45 404.95 207.45 402.25C207.45 399.67 207.23 397.88 206.79 396.88C206.37 395.86 205.84 395.35 205.2 395.35C204.44 395.35 203.76 395.75 203.16 396.55C202.9 396.89 202.68 397.29 202.5 397.75V408.1C202.78 408.38 203 408.58 203.16 408.7C203.7 409.1 204.23 409.3 204.75 409.3ZM212.542 409H214.942C215.262 408.78 215.612 408.43 215.992 407.95C216.692 407.07 217.092 405.97 217.192 404.65L217.792 395.8L215.692 395.2V394.75H229.942V395.2L228.142 395.65V409H230.842V414.7H229.942C229.422 414.36 228.992 413.95 228.652 413.47C227.812 412.39 227.392 411.15 227.392 409.75H215.992C215.992 411.13 215.562 412.37 214.702 413.47C214.362 413.95 213.942 414.36 213.442 414.7H212.542V409ZM223.342 409V395.5H218.692L218.092 404.65C217.992 405.91 217.612 407.01 216.952 407.95C216.652 408.37 216.332 408.72 215.992 409H223.342ZM240.449 410.2C237.969 410.2 236.019 409.5 234.599 408.1C233.199 406.68 232.499 404.73 232.499 402.25C232.499 399.77 233.199 397.83 234.599 396.43C236.019 395.01 237.969 394.3 240.449 394.3C242.929 394.3 244.869 395.01 246.269 396.43C247.689 397.83 248.399 399.77 248.399 402.25C248.399 404.73 247.689 406.68 246.269 408.1C244.869 409.5 242.929 410.2 240.449 410.2ZM240.449 409.6C241.249 409.6 241.919 409.04 242.459 407.92C243.019 406.8 243.299 404.91 243.299 402.25C243.299 399.59 243.019 397.7 242.459 396.58C241.919 395.46 241.249 394.9 240.449 394.9C239.649 394.9 238.969 395.46 238.409 396.58C237.869 397.7 237.599 399.59 237.599 402.25C237.599 404.91 237.869 406.8 238.409 407.92C238.969 409.04 239.649 409.6 240.449 409.6ZM258.909 410.2C256.349 410.2 254.359 409.5 252.939 408.1C251.519 406.68 250.809 404.73 250.809 402.25C250.809 399.77 251.519 397.83 252.939 396.43C254.359 395.01 256.349 394.3 258.909 394.3C260.749 394.3 262.129 394.62 263.049 395.26C263.989 395.9 264.459 396.68 264.459 397.6C264.459 398.28 264.249 398.83 263.829 399.25C263.429 399.65 262.889 399.85 262.209 399.85C261.929 399.85 261.649 399.83 261.369 399.79L261.009 399.7V395.2L260.589 395.05C260.289 394.95 259.929 394.9 259.509 394.9C258.369 394.9 257.479 395.44 256.839 396.52C256.219 397.6 255.909 399.51 255.909 402.25C255.909 404.91 256.219 406.78 256.839 407.86C257.479 408.92 258.369 409.45 259.509 409.45C260.289 409.45 261.009 409.27 261.669 408.91C262.349 408.53 262.879 408.04 263.259 407.44C263.659 406.82 263.859 406.19 263.859 405.55H264.609C264.609 406.35 264.369 407.11 263.889 407.83C263.409 408.55 262.739 409.13 261.879 409.57C261.019 409.99 260.029 410.2 258.909 410.2ZM269.568 409.3L271.368 408.85V395.5H269.118C269.118 396.6 268.788 397.71 268.128 398.83C267.868 399.25 267.548 399.64 267.168 400H266.268V394.75H281.268V400H280.368C279.988 399.66 279.658 399.27 279.378 398.83C278.738 397.75 278.418 396.64 278.418 395.5H276.168V408.85L277.968 409.3V409.75H269.568V409.3ZM283.212 409.3L285.012 408.85V395.65L283.212 395.2V394.75H291.612V395.2L289.812 395.65V400.75H291.312C296.512 400.75 299.112 402.25 299.112 405.25C299.112 408.25 296.512 409.75 291.312 409.75H283.212V409.3ZM291.312 409C292.192 409 292.882 408.69 293.382 408.07C293.902 407.43 294.162 406.49 294.162 405.25C294.162 404.01 293.902 403.08 293.382 402.46C292.882 401.82 292.192 401.5 291.312 401.5H289.812V409H291.312ZM34.95 444.75V444.3L36.75 443.85V430.65L34.95 430.2V429.75H43.35V430.2L41.55 430.65V440.55L46.35 432.3V430.65L44.55 430.2V429.75H52.95V430.2L51.15 430.65V443.85L52.95 444.3V444.75H44.55V444.3L46.35 443.85V433.95L41.55 442.2V443.85L43.35 444.3V444.75H34.95ZM63.7488 444.75V444.3L65.5488 443.85V430.65L63.7488 430.2V429.75H81.4488V430.2L79.6488 430.65V443.85L81.4488 444.3V444.75H73.0488V444.3L74.8488 443.85V430.5H70.3488V443.85L72.1488 444.3V444.75H63.7488ZM83.5465 450.3L85.3465 449.85V430.65L83.5465 430.2V429.75H86.2465C87.4265 429.75 88.3565 430.13 89.0365 430.89C89.2965 431.19 89.5165 431.56 89.6965 432C89.9565 431.48 90.2865 431.03 90.6865 430.65C91.5865 429.75 92.7065 429.3 94.0465 429.3C95.2265 429.3 96.2765 429.61 97.1965 430.23C98.1165 430.83 98.8465 431.73 99.3865 432.93C99.9265 434.11 100.196 435.55 100.196 437.25C100.196 439.81 99.5965 441.78 98.3965 443.16C97.2165 444.52 95.6165 445.2 93.5965 445.2C92.6365 445.2 91.7965 445 91.0765 444.6C90.7765 444.46 90.4665 444.26 90.1465 444V449.85L91.9465 450.3V450.75H83.5465V450.3ZM92.3965 444.3C93.2565 444.3 93.9165 443.8 94.3765 442.8C94.8565 441.8 95.0965 439.95 95.0965 437.25C95.0965 434.67 94.8765 432.88 94.4365 431.88C94.0165 430.86 93.4865 430.35 92.8465 430.35C92.0865 430.35 91.4065 430.75 90.8065 431.55C90.5465 431.89 90.3265 432.29 90.1465 432.75V443.1C90.4265 443.38 90.6465 443.58 90.8065 443.7C91.3465 444.1 91.8765 444.3 92.3965 444.3ZM110.696 445.2C108.136 445.2 106.146 444.5 104.726 443.1C103.306 441.68 102.596 439.73 102.596 437.25C102.596 435.63 102.906 434.22 103.526 433.02C104.146 431.82 105.006 430.9 106.106 430.26C107.226 429.62 108.506 429.3 109.946 429.3C111.386 429.3 112.646 429.57 113.726 430.11C114.826 430.65 115.666 431.38 116.246 432.3C116.846 433.2 117.146 434.2 117.146 435.3C117.146 435.8 117.096 436.23 116.996 436.59L116.846 437.1C115.986 437.28 115.056 437.43 114.056 437.55C111.956 437.85 109.836 438 107.696 438C107.696 440.32 108.016 441.98 108.656 442.98C109.296 443.96 110.176 444.45 111.296 444.45C112.076 444.45 112.796 444.27 113.456 443.91C114.136 443.53 114.666 443.04 115.046 442.44C115.446 441.82 115.646 441.19 115.646 440.55H116.396C116.396 441.35 116.156 442.11 115.676 442.83C115.196 443.55 114.526 444.13 113.666 444.57C112.806 444.99 111.816 445.2 110.696 445.2ZM107.696 437.25C108.976 437.25 110.016 437.2 110.816 437.1C111.156 437.08 111.516 437.03 111.896 436.95C111.916 436.85 111.966 436.63 112.046 436.29C112.146 435.79 112.196 435.26 112.196 434.7C112.196 433.04 111.976 431.83 111.536 431.07C111.096 430.29 110.566 429.9 109.946 429.9C108.446 429.9 107.696 432.35 107.696 437.25ZM116.975 444H119.375C119.695 443.78 120.045 443.43 120.425 442.95C121.125 442.07 121.525 440.97 121.625 439.65L122.225 430.8L120.125 430.2V429.75H134.375V430.2L132.575 430.65V444H135.275V449.7H134.375C133.855 449.36 133.425 448.95 133.085 448.47C132.245 447.39 131.825 446.15 131.825 444.75H120.425C120.425 446.13 119.995 447.37 119.135 448.47C118.795 448.95 118.375 449.36 117.875 449.7H116.975V444ZM127.775 444V430.5H123.125L122.525 439.65C122.425 440.91 122.045 442.01 121.385 442.95C121.085 443.37 120.765 443.72 120.425 444H127.775ZM140.232 451.2C139.332 451.2 138.632 450.96 138.132 450.48C137.632 450 137.382 449.34 137.382 448.5C137.382 447.74 137.582 447.15 137.982 446.73C138.402 446.31 138.952 446.1 139.632 446.1C139.792 446.1 139.952 446.11 140.112 446.13C140.272 446.17 140.382 446.19 140.442 446.19L140.832 446.25V450.3C141.412 450.2 141.922 449.88 142.362 449.34C142.802 448.8 143.292 447.87 143.832 446.55L144.432 445.05L136.632 430.65L135.132 430.2V429.75H138.882C139.922 429.75 140.742 429.97 141.342 430.41C141.962 430.83 142.492 431.46 142.932 432.3L146.682 439.23L149.832 431.1L147.582 430.2V429.75H153.132V430.2L150.732 431.1L144.732 446.55C144.092 448.19 143.412 449.37 142.692 450.09C141.972 450.83 141.152 451.2 140.232 451.2ZM161.67 445.2C159.17 445.2 157.27 444.55 155.97 443.25C154.67 441.95 154.02 440.05 154.02 437.55V435.75C154.02 432.19 154.59 429.6 155.73 427.98C156.89 426.34 158.57 425.33 160.77 424.95L167.67 423.75L168.12 422.25H168.57V424.95C168.57 425.83 168.36 426.51 167.94 426.99C167.52 427.47 166.88 427.79 166.02 427.95L159.12 429.15C158.44 429.27 157.79 429.6 157.17 430.14C156.55 430.66 156.04 431.4 155.64 432.36C155.26 433.3 155.07 434.43 155.07 435.75C155.27 435.03 155.67 434.31 156.27 433.59C156.89 432.87 157.66 432.28 158.58 431.82C159.52 431.34 160.55 431.1 161.67 431.1C164.15 431.1 166.04 431.73 167.34 432.99C168.66 434.23 169.32 435.95 169.32 438.15C169.32 440.35 168.66 442.08 167.34 443.34C166.04 444.58 164.15 445.2 161.67 445.2ZM161.67 444.6C162.39 444.6 162.99 444.11 163.47 443.13C163.97 442.15 164.22 440.49 164.22 438.15C164.22 435.81 163.97 434.15 163.47 433.17C162.99 432.19 162.39 431.7 161.67 431.7C160.95 431.7 160.34 432.19 159.84 433.17C159.36 434.15 159.12 435.81 159.12 438.15C159.12 440.49 159.36 442.15 159.84 443.13C160.34 444.11 160.95 444.6 161.67 444.6ZM179.808 445.2C177.248 445.2 175.258 444.5 173.838 443.1C172.418 441.68 171.708 439.73 171.708 437.25C171.708 435.63 172.018 434.22 172.638 433.02C173.258 431.82 174.118 430.9 175.218 430.26C176.338 429.62 177.618 429.3 179.058 429.3C180.498 429.3 181.758 429.57 182.838 430.11C183.938 430.65 184.778 431.38 185.358 432.3C185.958 433.2 186.258 434.2 186.258 435.3C186.258 435.8 186.208 436.23 186.108 436.59L185.958 437.1C185.098 437.28 184.168 437.43 183.168 437.55C181.068 437.85 178.948 438 176.808 438C176.808 440.32 177.128 441.98 177.768 442.98C178.408 443.96 179.288 444.45 180.408 444.45C181.188 444.45 181.908 444.27 182.568 443.91C183.248 443.53 183.778 443.04 184.158 442.44C184.558 441.82 184.758 441.19 184.758 440.55H185.508C185.508 441.35 185.268 442.11 184.788 442.83C184.308 443.55 183.638 444.13 182.778 444.57C181.918 444.99 180.928 445.2 179.808 445.2ZM176.808 437.25C178.088 437.25 179.128 437.2 179.928 437.1C180.268 437.08 180.628 437.03 181.008 436.95C181.028 436.85 181.078 436.63 181.158 436.29C181.258 435.79 181.308 435.26 181.308 434.7C181.308 433.04 181.088 431.83 180.648 431.07C180.208 430.29 179.678 429.9 179.058 429.9C177.558 429.9 176.808 432.35 176.808 437.25ZM187.445 444.3L188.945 443.85L190.445 439.2C190.725 438.44 191.195 437.83 191.855 437.37C192.535 436.89 193.465 436.65 194.645 436.65H195.545C195.265 436.53 195.045 436.39 194.885 436.23C194.385 435.77 194.055 435.21 193.895 434.55L193.145 431.85C192.945 431.01 192.545 430.51 191.945 430.35V434.4L191.555 434.49C191.235 434.53 190.965 434.55 190.745 434.55C190.065 434.55 189.515 434.34 189.095 433.92C188.695 433.5 188.495 432.91 188.495 432.15C188.495 431.31 188.745 430.65 189.245 430.17C189.745 429.69 190.445 429.45 191.345 429.45C192.665 429.45 193.565 430.25 194.045 431.85L194.795 434.55C194.975 435.13 195.255 435.6 195.635 435.96C196.015 436.32 196.485 436.5 197.045 436.5H198.095V430.65L196.295 430.2V429.75H204.695V430.2L202.895 430.65V436.5H203.795C204.375 436.5 204.875 436.32 205.295 435.96C205.715 435.58 206.015 435.11 206.195 434.55L206.945 431.85C207.425 430.25 208.325 429.45 209.645 429.45C210.545 429.45 211.245 429.69 211.745 430.17C212.245 430.65 212.495 431.31 212.495 432.15C212.495 432.91 212.285 433.5 211.865 433.92C211.465 434.34 210.925 434.55 210.245 434.55C209.965 434.55 209.685 434.53 209.405 434.49L209.045 434.4V430.35C208.445 430.51 208.045 431.01 207.845 431.85L207.095 434.55C206.895 435.25 206.565 435.81 206.105 436.23C205.945 436.39 205.725 436.53 205.445 436.65H206.345C207.525 436.65 208.445 436.89 209.105 437.37C209.785 437.83 210.265 438.44 210.545 439.2L212.045 443.85L213.545 444.3V444.75H210.395C209.335 444.75 208.475 444.51 207.815 444.03C207.175 443.55 206.735 442.94 206.495 442.2L204.845 437.25H202.895V443.85L204.695 444.3V444.75H196.295V444.3L198.095 443.85V437.25H196.145L194.495 442.2C194.255 442.94 193.805 443.55 193.145 444.03C192.505 444.51 191.655 444.75 190.595 444.75H187.445V444.3ZM213.391 444H215.791C216.111 443.78 216.461 443.43 216.841 442.95C217.541 442.07 217.941 440.97 218.041 439.65L218.641 430.8L216.541 430.2V429.75H230.791V430.2L228.991 430.65V444H231.691V449.7H230.791C230.271 449.36 229.841 448.95 229.501 448.47C228.661 447.39 228.241 446.15 228.241 444.75H216.841C216.841 446.13 216.411 447.37 215.551 448.47C215.211 448.95 214.791 449.36 214.291 449.7H213.391V444ZM224.191 444V430.5H219.541L218.941 439.65C218.841 440.91 218.461 442.01 217.801 442.95C217.501 443.37 217.181 443.72 216.841 444H224.191ZM241.448 445.2C238.888 445.2 236.898 444.5 235.478 443.1C234.058 441.68 233.348 439.73 233.348 437.25C233.348 435.63 233.658 434.22 234.278 433.02C234.898 431.82 235.758 430.9 236.858 430.26C237.978 429.62 239.258 429.3 240.698 429.3C242.138 429.3 243.398 429.57 244.478 430.11C245.578 430.65 246.418 431.38 246.998 432.3C247.598 433.2 247.898 434.2 247.898 435.3C247.898 435.8 247.848 436.23 247.748 436.59L247.598 437.1C246.738 437.28 245.808 437.43 244.808 437.55C242.708 437.85 240.588 438 238.448 438C238.448 440.32 238.768 441.98 239.408 442.98C240.048 443.96 240.928 444.45 242.048 444.45C242.828 444.45 243.548 444.27 244.208 443.91C244.888 443.53 245.418 443.04 245.798 442.44C246.198 441.82 246.398 441.19 246.398 440.55H247.148C247.148 441.35 246.908 442.11 246.428 442.83C245.948 443.55 245.278 444.13 244.418 444.57C243.558 444.99 242.568 445.2 241.448 445.2ZM238.448 437.25C239.728 437.25 240.768 437.2 241.568 437.1C241.908 437.08 242.268 437.03 242.648 436.95C242.668 436.85 242.718 436.63 242.798 436.29C242.898 435.79 242.948 435.26 242.948 434.7C242.948 433.04 242.728 431.83 242.288 431.07C241.848 430.29 241.318 429.9 240.698 429.9C239.198 429.9 238.448 432.35 238.448 437.25ZM250.136 444.75V444.3L251.936 443.85V430.65L250.136 430.2V429.75H258.536V430.2L256.736 430.65V436.8H261.236V430.65L259.436 430.2V429.75H267.836V430.2L266.036 430.65V443.85L267.836 444.3V444.75H259.436V444.3L261.236 443.85V437.55H256.736V443.85L258.536 444.3V444.75H250.136ZM270.233 444.75V444.3L272.033 443.85V430.65L270.233 430.2V429.75H278.633V430.2L276.833 430.65V440.55L281.633 432.3V430.65L279.833 430.2V429.75H288.233V430.2L286.433 430.65V443.85L288.233 444.3V444.75H279.833V444.3L281.633 443.85V433.95L276.833 442.2V443.85L278.633 444.3V444.75H270.233ZM298.724 445.2C296.164 445.2 294.174 444.5 292.754 443.1C291.334 441.68 290.624 439.73 290.624 437.25C290.624 435.63 290.934 434.22 291.554 433.02C292.174 431.82 293.034 430.9 294.134 430.26C295.254 429.62 296.534 429.3 297.974 429.3C299.414 429.3 300.674 429.57 301.754 430.11C302.854 430.65 303.694 431.38 304.274 432.3C304.874 433.2 305.174 434.2 305.174 435.3C305.174 435.8 305.124 436.23 305.024 436.59L304.874 437.1C304.014 437.28 303.084 437.43 302.084 437.55C299.984 437.85 297.864 438 295.724 438C295.724 440.32 296.044 441.98 296.684 442.98C297.324 443.96 298.204 444.45 299.324 444.45C300.104 444.45 300.824 444.27 301.484 443.91C302.164 443.53 302.694 443.04 303.074 442.44C303.474 441.82 303.674 441.19 303.674 440.55H304.424C304.424 441.35 304.184 442.11 303.704 442.83C303.224 443.55 302.554 444.13 301.694 444.57C300.834 444.99 299.844 445.2 298.724 445.2ZM295.724 437.25C297.004 437.25 298.044 437.2 298.844 437.1C299.184 437.08 299.544 437.03 299.924 436.95C299.944 436.85 299.994 436.63 300.074 436.29C300.174 435.79 300.224 435.26 300.224 434.7C300.224 433.04 300.004 431.83 299.564 431.07C299.124 430.29 298.594 429.9 297.974 429.9C296.474 429.9 295.724 432.35 295.724 437.25ZM311.161 444.15L310.411 443.4L315.961 437.25L310.411 431.1L311.161 430.35L318.961 437.25L311.161 444.15ZM307.861 442.5L307.111 441.75L310.711 437.25L307.111 432.75L307.861 432L313.561 437.25L307.861 442.5ZM43.05 480.2C40.49 480.2 38.5 479.5 37.08 478.1C35.66 476.68 34.95 474.73 34.95 472.25C34.95 469.77 35.66 467.83 37.08 466.43C38.5 465.01 40.49 464.3 43.05 464.3C44.89 464.3 46.27 464.62 47.19 465.26C48.13 465.9 48.6 466.68 48.6 467.6C48.6 468.28 48.39 468.83 47.97 469.25C47.57 469.65 47.03 469.85 46.35 469.85C46.07 469.85 45.79 469.83 45.51 469.79L45.15 469.7V465.2L44.73 465.05C44.43 464.95 44.07 464.9 43.65 464.9C42.51 464.9 41.62 465.44 40.98 466.52C40.36 467.6 40.05 469.51 40.05 472.25C40.05 474.91 40.36 476.78 40.98 477.86C41.62 478.92 42.51 479.45 43.65 479.45C44.43 479.45 45.15 479.27 45.81 478.91C46.49 478.53 47.02 478.04 47.4 477.44C47.8 476.82 48 476.19 48 475.55H48.75C48.75 476.35 48.51 477.11 48.03 477.83C47.55 478.55 46.88 479.13 46.02 479.57C45.16 479.99 44.17 480.2 43.05 480.2ZM59.5664 479.3L61.3664 478.85V459.65L59.5664 459.2V458.75H68.1164V459.2L66.3164 459.65V468.2H67.8164C69.3164 468.2 70.3164 467.25 70.8164 465.35L71.8664 461.45C72.1064 460.53 72.4964 459.8 73.0364 459.26C73.5964 458.72 74.2564 458.45 75.0164 458.45C75.8964 458.45 76.6164 458.71 77.1764 459.23C77.7364 459.73 78.0164 460.37 78.0164 461.15C78.0164 461.91 77.7864 462.53 77.3264 463.01C76.8664 463.47 76.2964 463.7 75.6164 463.7C75.3364 463.7 75.0564 463.68 74.7764 463.64L74.4164 463.55V459.35C74.0764 459.43 73.7564 459.66 73.4564 460.04C73.1564 460.4 72.9264 460.87 72.7664 461.45L71.7164 465.35C71.4164 466.45 71.0164 467.25 70.5164 467.75C70.2964 467.99 70.0464 468.19 69.7664 468.35H70.5164C72.9564 468.35 74.4564 469.2 75.0164 470.9L77.7164 478.85L79.2164 479.3V479.75H75.6164C74.5564 479.75 73.7364 479.53 73.1564 479.09C72.5764 478.65 72.1464 478.02 71.8664 477.2L69.0164 468.95H66.3164V478.85L68.1164 479.3V479.75H59.5664V479.3ZM80.5652 479.75V479.3L82.3652 478.85V465.65L80.5652 465.2V464.75H88.9652V465.2L87.1652 465.65V475.55L91.9652 467.3V465.65L90.1652 465.2V464.75H98.5652V465.2L96.7652 465.65V478.85L98.5652 479.3V479.75H90.1652V479.3L91.9652 478.85V468.95L87.1652 477.2V478.85L88.9652 479.3V479.75H80.5652ZM100.656 485.3L102.456 484.85V465.65L100.656 465.2V464.75H103.356C104.536 464.75 105.466 465.13 106.146 465.89C106.406 466.19 106.626 466.56 106.806 467C107.066 466.48 107.396 466.03 107.796 465.65C108.696 464.75 109.816 464.3 111.156 464.3C112.336 464.3 113.386 464.61 114.306 465.23C115.226 465.83 115.956 466.73 116.496 467.93C117.036 469.11 117.306 470.55 117.306 472.25C117.306 474.81 116.706 476.78 115.506 478.16C114.326 479.52 112.726 480.2 110.706 480.2C109.746 480.2 108.906 480 108.186 479.6C107.886 479.46 107.576 479.26 107.256 479V484.85L109.056 485.3V485.75H100.656V485.3ZM109.506 479.3C110.366 479.3 111.026 478.8 111.486 477.8C111.966 476.8 112.206 474.95 112.206 472.25C112.206 469.67 111.986 467.88 111.546 466.88C111.126 465.86 110.596 465.35 109.956 465.35C109.196 465.35 108.516 465.75 107.916 466.55C107.656 466.89 107.436 467.29 107.256 467.75V478.1C107.536 478.38 107.756 478.58 107.916 478.7C108.456 479.1 108.986 479.3 109.506 479.3ZM127.656 480.2C125.176 480.2 123.226 479.5 121.806 478.1C120.406 476.68 119.706 474.73 119.706 472.25C119.706 469.77 120.406 467.83 121.806 466.43C123.226 465.01 125.176 464.3 127.656 464.3C130.136 464.3 132.076 465.01 133.476 466.43C134.896 467.83 135.606 469.77 135.606 472.25C135.606 474.73 134.896 476.68 133.476 478.1C132.076 479.5 130.136 480.2 127.656 480.2ZM127.656 479.6C128.456 479.6 129.126 479.04 129.666 477.92C130.226 476.8 130.506 474.91 130.506 472.25C130.506 469.59 130.226 467.7 129.666 466.58C129.126 465.46 128.456 464.9 127.656 464.9C126.856 464.9 126.176 465.46 125.616 466.58C125.076 467.7 124.806 469.59 124.806 472.25C124.806 474.91 125.076 476.8 125.616 477.92C126.176 479.04 126.856 479.6 127.656 479.6ZM147.016 462.65C145.476 462.65 144.336 462.41 143.596 461.93C142.876 461.45 142.516 460.84 142.516 460.1C142.516 459.58 142.686 459.15 143.026 458.81C143.366 458.47 143.796 458.3 144.316 458.3C144.356 458.3 144.586 458.33 145.006 458.39L145.366 458.45V461.75C145.386 461.75 145.526 461.8 145.786 461.9C146.066 462 146.476 462.05 147.016 462.05C147.556 462.05 147.956 462 148.216 461.9C148.496 461.8 148.646 461.75 148.666 461.75V458.45L149.026 458.39C149.446 458.33 149.676 458.3 149.716 458.3C150.236 458.3 150.666 458.47 151.006 458.81C151.346 459.15 151.516 459.58 151.516 460.1C151.516 460.84 151.146 461.45 150.406 461.93C149.686 462.41 148.556 462.65 147.016 462.65ZM138.016 479.75V479.3L139.816 478.85V465.65L138.016 465.2V464.75H146.416V465.2L144.616 465.65V475.55L149.416 467.3V465.65L147.616 465.2V464.75H156.016V465.2L154.216 465.65V478.85L156.016 479.3V479.75H147.616V479.3L149.416 478.85V468.95L144.616 477.2V478.85L146.416 479.3V479.75H138.016ZM167.115 479.75V479.3L168.915 478.85V459.65L167.115 459.2V458.75H175.665V459.2L173.865 459.65V468.95H180.315V459.65L178.515 459.2V458.75H187.065V459.2L185.265 459.65V478.85L187.065 479.3V479.75H178.515V479.3L180.315 478.85V469.7H173.865V478.85L175.665 479.3V479.75H167.115ZM195.605 480.2C193.825 480.2 192.455 479.82 191.495 479.06C190.535 478.3 190.055 477.33 190.055 476.15C190.055 475.37 190.225 474.6 190.565 473.84C190.705 473.48 190.885 473.15 191.105 472.85C191.925 472.65 192.815 472.47 193.775 472.31C195.935 471.95 197.845 471.73 199.505 471.65V470.75C199.505 468.53 199.235 467 198.695 466.16C198.155 465.32 197.325 464.9 196.205 464.9C195.785 464.9 195.425 464.95 195.125 465.05L194.705 465.2V469.7L194.315 469.79C193.995 469.83 193.725 469.85 193.505 469.85C192.825 469.85 192.275 469.65 191.855 469.25C191.455 468.83 191.255 468.28 191.255 467.6C191.255 466.68 191.715 465.9 192.635 465.26C193.575 464.62 194.965 464.3 196.805 464.3C198.365 464.3 199.705 464.58 200.825 465.14C201.965 465.68 202.825 466.44 203.405 467.42C204.005 468.38 204.305 469.49 204.305 470.75V478.85L206.105 479.3V479.75H203.405C202.205 479.75 201.275 479.38 200.615 478.64C200.335 478.34 200.115 477.96 199.955 477.5C199.675 478 199.345 478.45 198.965 478.85C198.065 479.75 196.945 480.2 195.605 480.2ZM196.805 479.15C197.545 479.15 198.215 478.75 198.815 477.95C199.035 477.65 199.265 477.25 199.505 476.75V472.4C198.585 472.4 197.705 472.45 196.865 472.55C196.245 472.63 195.825 472.68 195.605 472.7C195.505 472.92 195.405 473.22 195.305 473.6C195.105 474.36 195.005 475.11 195.005 475.85C195.005 476.97 195.175 477.8 195.515 478.34C195.855 478.88 196.285 479.15 196.805 479.15ZM216.919 462.65C215.379 462.65 214.239 462.41 213.499 461.93C212.779 461.45 212.419 460.84 212.419 460.1C212.419 459.58 212.589 459.15 212.929 458.81C213.269 458.47 213.699 458.3 214.219 458.3C214.259 458.3 214.489 458.33 214.909 458.39L215.269 458.45V461.75C215.289 461.75 215.429 461.8 215.689 461.9C215.969 462 216.379 462.05 216.919 462.05C217.459 462.05 217.859 462 218.119 461.9C218.399 461.8 218.549 461.75 218.569 461.75V458.45L218.929 458.39C219.349 458.33 219.579 458.3 219.619 458.3C220.139 458.3 220.569 458.47 220.909 458.81C221.249 459.15 221.419 459.58 221.419 460.1C221.419 460.84 221.049 461.45 220.309 461.93C219.589 462.41 218.459 462.65 216.919 462.65ZM207.919 479.75V479.3L209.719 478.85V465.65L207.919 465.2V464.75H216.319V465.2L214.519 465.65V475.55L219.319 467.3V465.65L217.519 465.2V464.75H225.919V465.2L224.119 465.65V478.85L225.919 479.3V479.75H217.519V479.3L219.319 478.85V468.95L214.519 477.2V478.85L216.319 479.3V479.75H207.919ZM231.159 479.3L232.959 478.85V465.5H230.709C230.709 466.6 230.379 467.71 229.719 468.83C229.459 469.25 229.139 469.64 228.759 470H227.859V464.75H242.859V470H241.959C241.579 469.66 241.249 469.27 240.969 468.83C240.329 467.75 240.009 466.64 240.009 465.5H237.759V478.85L239.559 479.3V479.75H231.159V479.3ZM245.245 480.2C244.345 480.2 243.645 479.96 243.145 479.48C242.645 479 242.395 478.34 242.395 477.5C242.395 476.84 242.615 476.28 243.055 475.82C243.515 475.34 244.045 475.1 244.645 475.1C244.805 475.1 244.965 475.12 245.125 475.16C245.285 475.18 245.395 475.19 245.455 475.19L245.845 475.25V479.3C246.325 479.08 246.745 478.64 247.105 477.98C247.465 477.32 247.695 476.21 247.795 474.65L248.395 465.8L246.295 465.2V464.75H260.245V465.2L258.445 465.65V478.85L260.245 479.3V479.75H251.845V479.3L253.645 478.85V465.5H249.295L248.695 474.65C248.575 476.55 248.195 477.95 247.555 478.85C246.915 479.75 246.145 480.2 245.245 480.2ZM262.645 479.75V479.3L264.445 478.85V465.65L262.645 465.2V464.75H271.045V465.2L269.245 465.65V475.55L274.045 467.3V465.65L272.245 465.2V464.75H280.645V465.2L278.845 465.65V478.85L280.645 479.3V479.75H272.245V479.3L274.045 478.85V468.95L269.245 477.2V478.85L271.045 479.3V479.75H262.645ZM34.95 514.3L36.75 513.85V500.65L34.95 500.2V499.75H42.6C44.34 499.75 45.77 499.93 46.89 500.29C48.03 500.65 48.85 501.12 49.35 501.7C49.85 502.26 50.1 502.86 50.1 503.5C50.1 504.3 49.84 504.95 49.32 505.45C48.82 505.95 48.18 506.31 47.4 506.53C46.56 506.79 45.66 506.93 44.7 506.95V507.1C45.88 507.12 46.93 507.27 47.85 507.55C48.77 507.85 49.52 508.25 50.1 508.75C50.7 509.23 51 509.88 51 510.7C51 511.88 50.38 512.85 49.14 513.61C47.92 514.37 45.94 514.75 43.2 514.75H34.95V514.3ZM42.6 506.65C43.3 506.65 43.9 506.36 44.4 505.78C44.9 505.2 45.15 504.44 45.15 503.5C45.15 502.62 44.9 501.9 44.4 501.34C43.9 500.78 43.3 500.5 42.6 500.5H41.55V506.65H42.6ZM43.2 514C44.06 514 44.75 513.71 45.27 513.13C45.79 512.55 46.05 511.74 46.05 510.7C46.05 509.66 45.79 508.85 45.27 508.27C44.75 507.69 44.06 507.4 43.2 507.4H41.55V514H43.2ZM61.5223 514.3L63.3223 513.85V500.65L61.5223 500.2V499.75H75.4723V505H74.5723C74.1923 504.66 73.8623 504.27 73.5823 503.83C72.9423 502.75 72.6223 501.64 72.6223 500.5H68.1223V513.85L69.9223 514.3V514.75H61.5223V514.3ZM77.5793 515.2C76.6793 515.2 75.9793 514.96 75.4793 514.48C74.9793 514 74.7293 513.34 74.7293 512.5C74.7293 511.84 74.9493 511.28 75.3893 510.82C75.8493 510.34 76.3793 510.1 76.9793 510.1C77.1393 510.1 77.2993 510.12 77.4593 510.16C77.6193 510.18 77.7293 510.19 77.7893 510.19L78.1793 510.25V514.3C78.6593 514.08 79.0793 513.64 79.4393 512.98C79.7993 512.32 80.0293 511.21 80.1293 509.65L80.7293 500.8L78.6293 500.2V499.75H92.5793V500.2L90.7793 500.65V513.85L92.5793 514.3V514.75H84.1793V514.3L85.9793 513.85V500.5H81.6293L81.0293 509.65C80.9093 511.55 80.5293 512.95 79.8893 513.85C79.2493 514.75 78.4793 515.2 77.5793 515.2ZM100.829 515.2C99.0493 515.2 97.6793 514.82 96.7193 514.06C95.7593 513.3 95.2793 512.33 95.2793 511.15C95.2793 510.37 95.4493 509.6 95.7893 508.84C95.9293 508.48 96.1093 508.15 96.3293 507.85C97.1493 507.65 98.0393 507.47 98.9993 507.31C101.159 506.95 103.069 506.73 104.729 506.65V505.75C104.729 503.53 104.459 502 103.919 501.16C103.379 500.32 102.549 499.9 101.429 499.9C101.009 499.9 100.649 499.95 100.349 500.05L99.9293 500.2V504.7L99.5393 504.79C99.2193 504.83 98.9493 504.85 98.7293 504.85C98.0493 504.85 97.4993 504.65 97.0793 504.25C96.6793 503.83 96.4793 503.28 96.4793 502.6C96.4793 501.68 96.9393 500.9 97.8593 500.26C98.7993 499.62 100.189 499.3 102.029 499.3C103.589 499.3 104.929 499.58 106.049 500.14C107.189 500.68 108.049 501.44 108.629 502.42C109.229 503.38 109.529 504.49 109.529 505.75V513.85L111.329 514.3V514.75H108.629C107.429 514.75 106.499 514.38 105.839 513.64C105.559 513.34 105.339 512.96 105.179 512.5C104.899 513 104.569 513.45 104.189 513.85C103.289 514.75 102.169 515.2 100.829 515.2ZM102.029 514.15C102.769 514.15 103.439 513.75 104.039 512.95C104.259 512.65 104.489 512.25 104.729 511.75V507.4C103.809 507.4 102.929 507.45 102.089 507.55C101.469 507.63 101.049 507.68 100.829 507.7C100.729 507.92 100.629 508.22 100.529 508.6C100.329 509.36 100.229 510.11 100.229 510.85C100.229 511.97 100.399 512.8 100.739 513.34C101.079 513.88 101.509 514.15 102.029 514.15ZM113.143 514.3L114.943 513.85V500.65L113.143 500.2V499.75H120.793C122.533 499.75 123.963 499.93 125.083 500.29C126.223 500.65 127.043 501.12 127.543 501.7C128.043 502.26 128.293 502.86 128.293 503.5C128.293 504.3 128.033 504.95 127.513 505.45C127.013 505.95 126.373 506.31 125.593 506.53C124.753 506.79 123.853 506.93 122.893 506.95V507.1C124.073 507.12 125.123 507.27 126.043 507.55C126.963 507.85 127.713 508.25 128.293 508.75C128.893 509.23 129.193 509.88 129.193 510.7C129.193 511.88 128.573 512.85 127.333 513.61C126.113 514.37 124.133 514.75 121.393 514.75H113.143V514.3ZM120.793 506.65C121.493 506.65 122.093 506.36 122.593 505.78C123.093 505.2 123.343 504.44 123.343 503.5C123.343 502.62 123.093 501.9 122.593 501.34C122.093 500.78 121.493 500.5 120.793 500.5H119.743V506.65H120.793ZM121.393 514C122.253 514 122.943 513.71 123.463 513.13C123.983 512.55 124.243 511.74 124.243 510.7C124.243 509.66 123.983 508.85 123.463 508.27C122.943 507.69 122.253 507.4 121.393 507.4H119.743V514H121.393ZM131.307 514.75V514.3L133.107 513.85V500.65L131.307 500.2V499.75H139.707V500.2L137.907 500.65V506.8H142.407V500.65L140.607 500.2V499.75H149.007V500.2L147.207 500.65V513.85L149.007 514.3V514.75H140.607V514.3L142.407 513.85V507.55H137.907V513.85L139.707 514.3V514.75H131.307ZM159.355 515.2C156.875 515.2 154.925 514.5 153.505 513.1C152.105 511.68 151.405 509.73 151.405 507.25C151.405 504.77 152.105 502.83 153.505 501.43C154.925 500.01 156.875 499.3 159.355 499.3C161.835 499.3 163.775 500.01 165.175 501.43C166.595 502.83 167.305 504.77 167.305 507.25C167.305 509.73 166.595 511.68 165.175 513.1C163.775 514.5 161.835 515.2 159.355 515.2ZM159.355 514.6C160.155 514.6 160.825 514.04 161.365 512.92C161.925 511.8 162.205 509.91 162.205 507.25C162.205 504.59 161.925 502.7 161.365 501.58C160.825 500.46 160.155 499.9 159.355 499.9C158.555 499.9 157.875 500.46 157.315 501.58C156.775 502.7 156.505 504.59 156.505 507.25C156.505 509.91 156.775 511.8 157.315 512.92C157.875 514.04 158.555 514.6 159.355 514.6ZM178.716 497.65C177.176 497.65 176.036 497.41 175.296 496.93C174.576 496.45 174.216 495.84 174.216 495.1C174.216 494.58 174.386 494.15 174.726 493.81C175.066 493.47 175.496 493.3 176.016 493.3C176.056 493.3 176.286 493.33 176.706 493.39L177.066 493.45V496.75C177.086 496.75 177.226 496.8 177.486 496.9C177.766 497 178.176 497.05 178.716 497.05C179.256 497.05 179.656 497 179.916 496.9C180.196 496.8 180.346 496.75 180.366 496.75V493.45L180.726 493.39C181.146 493.33 181.376 493.3 181.416 493.3C181.936 493.3 182.366 493.47 182.706 493.81C183.046 494.15 183.216 494.58 183.216 495.1C183.216 495.84 182.846 496.45 182.106 496.93C181.386 497.41 180.256 497.65 178.716 497.65ZM169.716 514.75V514.3L171.516 513.85V500.65L169.716 500.2V499.75H178.116V500.2L176.316 500.65V510.55L181.116 502.3V500.65L179.316 500.2V499.75H187.716V500.2L185.916 500.65V513.85L187.716 514.3V514.75H179.316V514.3L181.116 513.85V503.95L176.316 512.2V513.85L178.116 514.3V514.75H169.716ZM198.214 520.3L200.014 519.85V500.65L198.214 500.2V499.75H200.914C202.094 499.75 203.024 500.13 203.704 500.89C203.964 501.19 204.184 501.56 204.364 502C204.624 501.48 204.954 501.03 205.354 500.65C206.254 499.75 207.374 499.3 208.714 499.3C209.894 499.3 210.944 499.61 211.864 500.23C212.784 500.83 213.514 501.73 214.054 502.93C214.594 504.11 214.864 505.55 214.864 507.25C214.864 509.81 214.264 511.78 213.064 513.16C211.884 514.52 210.284 515.2 208.264 515.2C207.304 515.2 206.464 515 205.744 514.6C205.444 514.46 205.134 514.26 204.814 514V519.85L206.614 520.3V520.75H198.214V520.3ZM207.064 514.3C207.924 514.3 208.584 513.8 209.044 512.8C209.524 511.8 209.764 509.95 209.764 507.25C209.764 504.67 209.544 502.88 209.104 501.88C208.684 500.86 208.154 500.35 207.514 500.35C206.754 500.35 206.074 500.75 205.474 501.55C205.214 501.89 204.994 502.29 204.814 502.75V513.1C205.094 513.38 205.314 513.58 205.474 513.7C206.014 514.1 206.544 514.3 207.064 514.3ZM225.214 515.2C222.734 515.2 220.784 514.5 219.364 513.1C217.964 511.68 217.264 509.73 217.264 507.25C217.264 504.77 217.964 502.83 219.364 501.43C220.784 500.01 222.734 499.3 225.214 499.3C227.694 499.3 229.634 500.01 231.034 501.43C232.454 502.83 233.164 504.77 233.164 507.25C233.164 509.73 232.454 511.68 231.034 513.1C229.634 514.5 227.694 515.2 225.214 515.2ZM225.214 514.6C226.014 514.6 226.684 514.04 227.224 512.92C227.784 511.8 228.064 509.91 228.064 507.25C228.064 504.59 227.784 502.7 227.224 501.58C226.684 500.46 226.014 499.9 225.214 499.9C224.414 499.9 223.734 500.46 223.174 501.58C222.634 502.7 222.364 504.59 222.364 507.25C222.364 509.91 222.634 511.8 223.174 512.92C223.734 514.04 224.414 514.6 225.214 514.6ZM236.925 515.2C236.025 515.2 235.325 514.96 234.825 514.48C234.325 514 234.075 513.34 234.075 512.5C234.075 511.84 234.295 511.28 234.735 510.82C235.195 510.34 235.725 510.1 236.325 510.1C236.485 510.1 236.645 510.12 236.805 510.16C236.965 510.18 237.075 510.19 237.135 510.19L237.525 510.25V514.3C238.005 514.08 238.425 513.64 238.785 512.98C239.145 512.32 239.375 511.21 239.475 509.65L240.075 500.8L237.975 500.2V499.75H251.925V500.2L250.125 500.65V513.85L251.925 514.3V514.75H243.525V514.3L245.325 513.85V500.5H240.975L240.375 509.65C240.255 511.55 239.875 512.95 239.235 513.85C238.595 514.75 237.825 515.2 236.925 515.2ZM254.325 514.75V514.3L256.125 513.85V500.65L254.325 500.2V499.75H262.725V500.2L260.925 500.65V510.55L265.725 502.3V500.65L263.925 500.2V499.75H272.325V500.2L270.525 500.65V513.85L272.325 514.3V514.75H263.925V514.3L265.725 513.85V503.95L260.925 512.2V513.85L262.725 514.3V514.75H254.325Z" fill="#C95853"/>
<path d="M52.75 107.35L59.35 105.7V35.2998L52.75 33.6497V31.9998H82.45C93.5967 31.9998 101.773 33.7964 106.98 37.3898C112.26 40.9098 114.9 45.5298 114.9 51.2498C114.9 55.2098 113.763 58.3998 111.49 60.8198C109.217 63.2398 106.32 65.0364 102.8 66.2098C99.06 67.5298 95.0267 68.2264 90.7 68.2998V68.8498C96.0533 69.0698 100.71 69.8764 104.67 71.2698C108.703 72.5898 112.04 74.6431 114.68 77.4298C117.393 80.2164 118.75 83.7731 118.75 88.0998C118.75 94.6264 116.073 99.7598 110.72 103.5C105.367 107.166 96.6767 109 84.65 109H52.75V107.35ZM82.45 67.1998C84.87 67.1998 87.1067 66.5398 89.16 65.2198C91.2867 63.8264 92.9733 61.9198 94.22 59.4998C95.54 57.0064 96.2 54.2564 96.2 51.2498C96.2 48.0231 95.54 45.1631 94.22 42.6698C92.9733 40.1764 91.2867 38.2331 89.16 36.8398C87.1067 35.4464 84.87 34.7498 82.45 34.7498H77.5V67.1998H82.45ZM84.65 106.25C89.1967 106.25 92.9 104.636 95.76 101.41C98.62 98.1831 100.05 93.7464 100.05 88.0998C100.05 82.4531 98.62 78.0164 95.76 74.7898C92.9 71.5631 89.1967 69.9498 84.65 69.9498H77.5V106.25H84.65ZM156.116 110.65C146.729 110.65 139.432 108.083 134.226 102.95C129.019 97.7431 126.416 90.5931 126.416 81.4998C126.416 75.5598 127.552 70.3898 129.826 65.9898C132.099 61.5898 135.252 58.2164 139.286 55.8698C143.392 53.5231 148.086 52.3498 153.366 52.3498C158.646 52.3498 163.266 53.3398 167.226 55.3198C171.259 57.2998 174.339 59.9764 176.466 63.3498C178.666 66.6498 179.766 70.3164 179.766 74.3498C179.766 76.1831 179.582 77.7598 179.216 79.0798L178.666 80.9498C175.512 81.6098 172.102 82.1598 168.436 82.5998C160.736 83.6998 152.962 84.2498 145.116 84.2498C145.116 92.7564 146.289 98.8431 148.636 102.51C150.982 106.103 154.209 107.9 158.316 107.9C161.176 107.9 163.816 107.24 166.236 105.92C168.729 104.526 170.672 102.73 172.066 100.53C173.532 98.2564 174.266 95.9464 174.266 93.5998H177.016C177.016 96.5331 176.136 99.3198 174.376 101.96C172.616 104.6 170.159 106.726 167.006 108.34C163.852 109.88 160.222 110.65 156.116 110.65ZM145.116 81.4998C149.809 81.4998 153.622 81.3164 156.556 80.9498C157.802 80.8764 159.122 80.6931 160.516 80.3998C160.589 80.0331 160.772 79.2264 161.066 77.9798C161.432 76.1464 161.616 74.2031 161.616 72.1498C161.616 66.0631 160.809 61.6264 159.196 58.8398C157.582 55.9798 155.639 54.5498 153.366 54.5498C147.866 54.5498 145.116 63.5331 145.116 81.4998ZM218.218 107.35L224.818 105.7V86.4498C223.352 87.3298 221.555 88.0264 219.428 88.5398C217.375 88.9798 215.322 89.1998 213.268 89.1998C206.082 89.1998 200.692 87.7698 197.098 84.9098C193.578 82.0498 191.818 78.1631 191.818 73.2498V57.2998L185.218 55.6498V53.9998H216.018V55.6498L209.418 57.2998V73.2498C209.418 78.0164 210.115 81.4264 211.508 83.4798C212.975 85.4598 215.028 86.4498 217.668 86.4498C220.602 86.4498 222.985 85.5331 224.818 83.6998V57.2998L218.218 55.6498V53.9998H249.018V55.6498L242.418 57.2998V105.7L249.018 107.35V109H218.218V107.35ZM287.493 110.65C278.106 110.65 270.809 108.083 265.603 102.95C260.396 97.7431 257.793 90.5931 257.793 81.4998C257.793 75.5598 258.929 70.3898 261.203 65.9898C263.476 61.5898 266.629 58.2164 270.663 55.8698C274.769 53.5231 279.463 52.3498 284.743 52.3498C290.023 52.3498 294.643 53.3398 298.603 55.3198C302.636 57.2998 305.716 59.9764 307.843 63.3498C310.043 66.6498 311.143 70.3164 311.143 74.3498C311.143 76.1831 310.959 77.7598 310.593 79.0798L310.043 80.9498C306.889 81.6098 303.479 82.1598 299.813 82.5998C292.113 83.6998 284.339 84.2498 276.493 84.2498C276.493 92.7564 277.666 98.8431 280.013 102.51C282.359 106.103 285.586 107.9 289.693 107.9C292.553 107.9 295.193 107.24 297.613 105.92C300.106 104.526 302.049 102.73 303.443 100.53C304.909 98.2564 305.643 95.9464 305.643 93.5998H308.393C308.393 96.5331 307.513 99.3198 305.753 101.96C303.993 104.6 301.536 106.726 298.383 108.34C295.229 109.88 291.599 110.65 287.493 110.65ZM276.493 81.4998C281.186 81.4998 284.999 81.3164 287.933 80.9498C289.179 80.8764 290.499 80.6931 291.893 80.3998C291.966 80.0331 292.149 79.2264 292.443 77.9798C292.809 76.1464 292.993 74.2031 292.993 72.1498C292.993 66.0631 292.186 61.6264 290.573 58.8398C288.959 55.9798 287.016 54.5498 284.743 54.5498C279.243 54.5498 276.493 63.5331 276.493 81.4998ZM318.245 129.35L324.845 127.7V57.2998L318.245 55.6498V53.9998H328.145C332.472 53.9998 335.882 55.3931 338.375 58.1798C339.329 59.2798 340.135 60.6364 340.795 62.2498C341.749 60.3431 342.959 58.6931 344.425 57.2998C347.725 53.9998 351.832 52.3498 356.745 52.3498C361.072 52.3498 364.922 53.4864 368.295 55.7598C371.669 57.9598 374.345 61.2598 376.325 65.6598C378.305 69.9864 379.295 75.2664 379.295 81.4998C379.295 90.8864 377.095 98.1098 372.695 103.17C368.369 108.156 362.502 110.65 355.095 110.65C351.575 110.65 348.495 109.916 345.855 108.45C344.755 107.936 343.619 107.203 342.445 106.25V127.7L349.045 129.35V131H318.245V129.35ZM350.695 107.35C353.849 107.35 356.269 105.516 357.955 101.85C359.715 98.1831 360.595 91.3998 360.595 81.4998C360.595 72.0398 359.789 65.4764 358.175 61.8098C356.635 58.0698 354.692 56.1998 352.345 56.1998C349.559 56.1998 347.065 57.6664 344.865 60.5998C343.912 61.8464 343.105 63.3131 342.445 64.9998V102.95C343.472 103.976 344.279 104.71 344.865 105.15C346.845 106.616 348.789 107.35 350.695 107.35ZM52.75 234.35L59.35 232.7V162.3L52.75 160.65V159H84.1V160.65L77.5 162.3V193.65H83C88.5 193.65 92.1667 190.166 94 183.2L97.85 168.9C98.73 165.526 100.16 162.85 102.14 160.87C104.193 158.89 106.613 157.9 109.4 157.9C112.627 157.9 115.267 158.853 117.32 160.76C119.373 162.593 120.4 164.94 120.4 167.8C120.4 170.586 119.557 172.86 117.87 174.62C116.183 176.306 114.093 177.15 111.6 177.15C110.573 177.15 109.547 177.076 108.52 176.93L107.2 176.6V161.2C105.953 161.493 104.78 162.336 103.68 163.73C102.58 165.05 101.737 166.773 101.15 168.9L97.3 183.2C96.2 187.233 94.7333 190.166 92.9 192C92.0933 192.88 91.1767 193.613 90.15 194.2H92.9C101.847 194.2 107.347 197.316 109.4 203.55L119.3 232.7L124.8 234.35V236H111.6C107.713 236 104.707 235.193 102.58 233.58C100.453 231.966 98.8767 229.656 97.85 226.65L87.4 196.4H77.5V232.7L84.1 234.35V236H52.75V234.35ZM129.746 236V234.35L136.346 232.7V184.3L129.746 182.65V181H160.546V182.65L153.946 184.3V220.6L171.546 190.35V184.3L164.946 182.65V181H195.746V182.65L189.146 184.3V232.7L195.746 234.35V236H164.946V234.35L171.546 232.7V196.4L153.946 226.65V232.7L160.546 234.35V236H129.746ZM204.511 236V234.35L211.111 232.7V184.3L204.511 182.65V181H235.311V182.65L228.711 184.3V206.85H245.211V184.3L238.611 182.65V181H269.411V182.65L262.811 184.3V232.7L269.411 234.35V236H238.611V234.35L245.211 232.7V209.6H228.711V232.7L235.311 234.35V236H204.511ZM307.353 237.65C298.259 237.65 291.109 235.083 285.903 229.95C280.769 224.743 278.203 217.593 278.203 208.5C278.203 199.406 280.769 192.293 285.903 187.16C291.109 181.953 298.259 179.35 307.353 179.35C316.446 179.35 323.559 181.953 328.693 187.16C333.899 192.293 336.503 199.406 336.503 208.5C336.503 217.593 333.899 224.743 328.693 229.95C323.559 235.083 316.446 237.65 307.353 237.65ZM307.353 235.45C310.286 235.45 312.743 233.396 314.723 229.29C316.776 225.183 317.803 218.253 317.803 208.5C317.803 198.746 316.776 191.816 314.723 187.71C312.743 183.603 310.286 181.55 307.353 181.55C304.419 181.55 301.926 183.603 299.873 187.71C297.893 191.816 296.903 198.746 296.903 208.5C296.903 218.253 297.893 225.183 299.873 229.29C301.926 233.396 304.419 235.45 307.353 235.45Z" fill="#4F8A60"/>
<ellipse cx="25.3125" cy="19.8123" rx="14.0625" ry="14.0625" fill="#C95853"/>
<ellipse cx="415.688" cy="19.8123" rx="14.0625" ry="14.0625" fill="#C95853"/>
</svg>
