<svg width="1128" height="840" viewBox="0 0 1128 840" fill="none" xmlns="http://www.w3.org/2000/svg">
<path fill-rule="evenodd" clip-rule="evenodd" d="M0.125 188.597V839.967H1127.97V188.597H1061.82C1061.45 181.871 1058.46 167.072 1049.49 161.691C1038.28 154.964 1018.1 121.33 1016.98 101.15C1015.86 80.97 1011.37 0.249512 925.048 0.249512C841.511 0.249512 841.961 78.9878 842.078 99.3146V99.3273C842.081 100.001 842.085 100.61 842.085 101.15C842.085 117.967 827.51 150.479 810.694 161.691C797.24 170.66 795.372 183.366 796.119 188.597H320.765C320.391 181.871 317.402 167.072 308.433 161.691C297.221 154.964 277.041 121.33 275.92 101.15C274.799 80.97 270.315 0.249512 183.988 0.249512C100.451 0.249512 100.902 78.9879 101.018 99.3146C101.022 99.9933 101.026 100.607 101.026 101.15C101.026 117.967 86.4511 150.479 69.6343 161.691C56.1809 170.66 54.3124 183.366 55.0598 188.597H0.125ZM164.929 188.597V112.361H200.805V188.597H164.929ZM24.7896 221.11V810.818H1099.94V221.11H24.7896ZM941.865 188.597H905.989V112.361H941.865V188.597Z" fill="#4F8A60"/>
<ellipse cx="181.099" cy="111.73" rx="28.9558" ry="28.9558" fill="#F8F8F8"/>
<ellipse cx="925.262" cy="111.73" rx="28.9558" ry="28.9558" fill="#F8F8F8"/>
</svg>
