<svg width="612" height="324" viewBox="0 0 612 324" fill="none" xmlns="http://www.w3.org/2000/svg">
<path fill-rule="evenodd" clip-rule="evenodd" d="M175.552 323.4H414.351C430.046 316.674 463.904 293.579 473.77 255.012C490.213 258.002 526.911 249.182 542.158 189.987C561.217 115.993 573.549 73.3909 607.183 70.0275C616.152 67.7853 610.546 56.5741 591.487 50.9685C590.719 50.7427 589.963 50.5187 589.216 50.2977C571.425 45.0325 559.373 41.4656 542.158 55.453C532.684 63.151 518.518 86.1746 506.103 106.352C495.013 124.376 485.32 140.129 481.618 140.658C474.095 141.733 472.753 139.717 460.807 121.777C460.29 121 459.753 120.194 459.195 119.357C448.433 103.213 426.309 90.2077 416.593 85.7232C418.088 79.3702 418.162 66.8884 406.503 67.7853C405.383 67.8714 403.083 67.9445 399.778 68.0058C383.634 44.8629 341.48 39.5306 322.421 39.7573V34.1521C326.158 31.5361 332.287 23.3894 326.906 11.7297C320.179 -2.84481 267.486 -3.96593 259.638 11.7297C253.36 24.2862 260.76 31.9099 265.244 34.1521V39.7573C225.781 38.8604 200.967 58.0929 193.492 67.8213C191.182 67.8092 188.937 67.7972 186.763 67.7853C182.279 67.4116 173.758 70.476 175.552 85.7232C172.563 87.9654 165.463 93.3468 160.979 96.9344C152.757 86.4706 125.327 66.8884 81.3792 72.2698C26.4444 78.9965 -0.462485 130.568 0.658634 164.201C1.77975 197.835 11.8726 228.105 46.6259 256.133C74.4285 278.556 129.214 296.867 153.132 303.22C157.615 308.826 168.375 320.71 175.552 323.4ZM108.287 185.503C103.803 225.863 119.872 259.87 128.468 271.829C108.468 270.011 95.8392 263.769 89.9847 260.876C88.6192 260.201 87.6222 259.709 86.9862 259.497C83.6228 258.375 33.1725 233.711 24.2035 197.835C15.2346 161.959 17.4768 138.416 44.3837 110.388C71.2905 82.3598 102.682 90.2077 115.014 96.9344C124.88 102.316 128.094 116.367 128.468 122.72C123.609 126.831 112.772 145.142 108.287 185.503Z" fill="#F8F8F8"/>
</svg>
