<svg width="781" height="697" viewBox="0 0 781 697" fill="none" xmlns="http://www.w3.org/2000/svg">
<rect x="72.625" y="205.875" width="633.375" height="433.125" fill="#F8F8F8"/>
<path d="M612.625 495L595.188 496.125V471.375V399.937L631.75 398.25L668.312 396.562V468V492.187L653.688 492.75C655 484.875 659.762 468.9 668.312 468C642.663 458.55 633.25 417.562 631.75 398.25C629.144 422.451 618.293 470.683 595.675 471.367C603.563 471.566 610.237 487.1 612.625 495Z" fill="#E9B7AA"/>
<path d="M435.438 502.875L418.562 504V479.812V407.812L454.844 406.406L491.125 405V476.437V500.625L476.5 501.187C477.062 494.062 480.775 479.137 491.125 476.437C465.925 469.237 456.438 426.75 454.844 406.406C453.25 429.375 443.762 476.212 418.562 479.812C428.463 482.962 433.938 496.5 435.438 502.875Z" fill="#E9B7AA"/>
<path d="M664.938 291.375H654.25C655.563 285.75 659.538 274.725 664.938 275.625C651.888 269.775 647.125 235.875 646.375 219.656C646 237.375 641.763 273.825 627.813 277.875C634.113 279.675 637.938 288.75 639.063 293.062H627.813V277.875V220.5L646.375 219.656L664.938 218.812V275.625V291.375Z" fill="#E9B7AA"/>
<path d="M96.25 497.25H81.0625V473.062V401.625L117.344 402.75L153.625 403.875V475.875V499.5L138.438 498.375C139.75 490.875 144.625 475.875 153.625 475.875C125.275 466.425 117.625 423.187 117.344 402.75C116.5 423.187 108.062 465.862 81.0625 473.062C90.0625 474.862 94.9375 489.937 96.25 497.25Z" fill="#E9B7AA"/>
<path d="M239.688 502.312L223.938 501.187V477.562V406.125L260.5 407.25L297.062 408.375V479.812V504H281.875C283.938 495.75 289.863 479.362 297.062 479.812C272.312 474.862 262.375 429.375 260.5 407.25C257.312 427.687 249.25 473.625 223.938 477.562C232.488 478.462 238 494.437 239.688 502.312Z" fill="#E9B7AA"/>
<path d="M254.312 293.062H243.062C245.125 287.625 250.263 277.2 254.312 279C240.812 269.1 236.688 236.625 236.312 221.625C235.938 238.465 231.829 273.457 218.395 278.966C223.753 276.858 227.694 287.466 229 293.062H218.312V279V221.625H236.312H254.312V279V293.062Z" fill="#E9B7AA"/>
<path d="M155.312 291.375H144.625C146.642 286.24 151.494 276.512 155.074 277.773C143.101 272.471 138.432 238.203 137.594 221.625C136.415 239.762 131.464 275.442 120.96 277.756C125.135 278.059 129.4 286.717 131.125 291.375H119.875V277.875V221.625H137.594H155.312V277.875V291.375Z" fill="#E9B7AA"/>
<path fill-rule="evenodd" clip-rule="evenodd" d="M741.464 228.376V250.782V305.262V549.139V558.283V677.022L666.793 680.403L618.095 682.608V682.752L338.892 695.25L36.9638 686.375V558.283V500.573V314.407L2.875 313.266L173.319 49.8212L391.671 69.0537V48.739L405.143 47.6092V1.12451H447.781V46.5748H457.391V74.8424L486.61 77.416L657.053 53.0676L778.799 228.376H741.464ZM137.607 221.883H119.751V256.782V291.681H137.607H155.463V256.782V221.883H137.607ZM236.306 221.883H218.449V257.594V293.305H236.306H254.162V257.594V221.883H236.306ZM104.541 402.086L80.7454 401.354V425.296V449.239V473.181V497.124L104.826 497.763L129.062 498.619L153.793 499.617V475.662V451.85V427.609V403.797L129.062 402.799L104.541 402.086ZM247.823 406.608L224.027 405.876V429.819V453.761V477.704V501.646L248.108 502.286L272.344 503.141L297.075 504.14V480.185V456.372V432.132V408.32L272.344 407.321L247.823 406.608ZM443.225 406.362L418.276 407.502V430.754V456.002V479.824V504.216L443.225 502.79L467.909 501.649L491.323 500.794V476.401V453.15V427.902V404.365L467.909 405.506L443.225 406.362ZM620.112 398.465L595.163 399.606V422.857V448.105V471.927V496.319L620.112 494.893L644.796 493.753L668.21 492.897V468.505V445.253V420.005V396.469L644.796 397.609L620.112 398.465ZM646.099 219.207L627.431 220.062V256.87V293.392L646.099 292.537L664.766 291.681V255.159V218.636L646.099 219.207Z" fill="#F8F8F8"/>
<path d="M741.464 677.022V558.283V549.139M741.464 677.022L666.793 680.403M741.464 677.022L618.095 682.608M657.053 53.0676L778.799 228.376H741.464V250.782V305.262V549.139M657.053 53.0676L519.075 213.767M657.053 53.0676L486.61 77.416M519.075 213.767H548.294V313.909M519.075 213.767H491.48M548.294 313.909L491.48 213.767M548.294 313.909L378.726 321.498M491.48 213.767L480.117 208.897L486.61 77.416M645.208 95.3593L726.854 208.897H746.333L657.053 80.6624L562.904 197.534M486.61 77.416L457.391 74.8424M173.319 49.8212L2.875 313.266L36.9638 314.407V500.573V558.283M173.319 49.8212L391.671 69.0537M173.319 49.8212L378.726 321.498M183.058 85.6368L173.319 72.5463L36.9638 291.681H54.8197L183.058 85.6368ZM183.058 85.6368L347.512 302.701M338.892 567.158L36.9638 558.283M338.892 567.158V695.25M338.892 567.158V510.311V323.281L381.02 324.533L378.726 321.498M338.892 567.158L741.464 549.139M424.597 563.321V636.492L446.511 635.156L468.426 633.821V561.36M446.511 562.341V635.317M618.095 554.661V682.608M666.793 552.481V554.661V560.075V573.648V578.517M666.793 680.403V655.686M666.793 680.403L618.095 682.608M666.793 578.517V650.816V655.686M666.793 578.517L655.076 579.088V573.669L666.793 573.103M666.793 655.686L655.076 656.256V650.838L666.793 650.272M391.671 69.0537V48.739L405.143 47.6092M391.671 69.0537L420.056 100.141M420.056 100.141H457.391V74.8424M420.056 100.141V46.5748M420.056 46.5748L405.143 47.6092M420.056 46.5748H447.781M405.143 47.6092V1.12451H447.781V46.5748M447.781 46.5748H457.391V74.8424M36.9638 558.283V686.375L338.892 695.25M338.892 695.25L741.464 677.23M338.892 695.25L618.095 682.752V682.608M338.892 695.25L618.095 682.608M137.607 221.883H155.463V256.782M137.607 221.883H119.751V256.782M137.607 221.883V256.782M137.607 291.681H119.751V256.782M137.607 291.681H155.463V256.782M137.607 291.681V256.782M119.751 256.782H137.607M155.463 256.782H137.607M236.306 221.883H254.162V257.594M236.306 221.883H218.449V257.594M236.306 221.883V257.594M236.306 293.305H218.449V257.594M236.306 293.305H254.162V257.594M236.306 293.305V257.594M218.449 257.594H236.306M254.162 257.594H236.306M443.225 406.362L418.276 407.502V430.754M443.225 406.362L467.909 405.506M443.225 406.362V429.78M443.225 502.79L418.276 504.216V479.824M443.225 502.79L467.909 501.649M443.225 502.79V478.655M467.909 405.506L491.323 404.365V427.902M467.909 405.506V428.816M467.909 501.649L491.323 500.794V476.401M467.909 501.649V477.498M418.276 456.002V430.754M418.276 456.002V479.824M418.276 456.002L443.225 455.028M491.323 453.15V427.902M491.323 453.15V476.401M491.323 453.15L467.909 454.064M491.323 427.902L467.909 428.816M418.276 430.754L443.225 429.78M418.276 479.824L443.225 478.655M491.323 476.401L467.909 477.498M646.099 219.207L664.766 218.636V255.159M646.099 219.207L627.431 220.062V256.87M646.099 219.207V256.014M646.099 292.537L627.431 293.392V256.87M646.099 292.537L664.766 291.681V255.159M646.099 292.537V256.014M627.431 256.87L646.099 256.014M664.766 255.159L646.099 256.014M104.541 402.086L80.7454 401.354V425.296M104.541 402.086L129.062 402.799M104.541 402.086L104.612 426.052M104.826 497.763L80.7454 497.124V473.181M104.826 497.763L129.062 498.619M104.826 497.763L104.755 473.997M129.062 402.799L153.793 403.797V427.609M129.062 402.799V426.826M129.062 498.619L153.793 499.617V475.662M129.062 498.619V474.822M80.7454 449.239V425.296M80.7454 449.239V473.181M80.7454 449.239L104.684 450.094M153.793 451.85V427.609M153.793 451.85V475.662M153.793 451.85L129.062 450.966M80.7454 425.296L104.612 426.052M153.793 427.609L129.062 426.826M153.793 475.662L129.062 474.822M80.7454 473.181L104.755 473.997M247.823 406.608L224.027 405.876V429.819M247.823 406.608L272.344 407.321M247.823 406.608L247.894 430.575M248.108 502.286L224.027 501.646V477.704M248.108 502.286L272.344 503.141M248.108 502.286L248.037 478.519M272.344 407.321L297.075 408.32V432.132M272.344 407.321V431.349M272.344 503.141L297.075 504.14V480.185M272.344 503.141V479.345M224.027 453.761V429.819M224.027 453.761V477.704M224.027 453.761L247.966 454.617M297.075 456.372V432.132M297.075 456.372V480.185M297.075 456.372L272.344 455.488M224.027 429.819L247.894 430.575M297.075 432.132L272.344 431.349M297.075 480.185L272.344 479.345M224.027 477.704L248.037 478.519M620.112 398.465L595.163 399.606V422.857M620.112 398.465L644.796 397.609M620.112 398.465V421.883M620.112 494.893L595.163 496.319V471.927M620.112 494.893L644.796 493.753M620.112 494.893V470.758M644.796 397.609L668.21 396.469V420.005M644.796 397.609V420.92M644.796 493.753L668.21 492.897V468.505M644.796 493.753V469.602M595.163 448.105V422.857M595.163 448.105V471.927M595.163 448.105L620.112 447.131M668.21 445.253V420.005M668.21 445.253V468.505M668.21 445.253L644.796 446.167M668.21 420.005L644.796 420.92M595.163 422.857L620.112 421.883M595.163 471.927L620.112 470.758M668.21 468.505L644.796 469.602M104.612 426.052L129.062 426.826M104.612 426.052L104.684 450.094M129.062 426.826V450.966M129.062 450.966L104.684 450.094M129.062 450.966V474.822M104.684 450.094L104.755 473.997M104.755 473.997L129.062 474.822M247.894 430.575L272.344 431.349M247.894 430.575L247.966 454.617M272.344 431.349V455.488M272.344 455.488L247.966 454.617M272.344 455.488V479.345M247.966 454.617L248.037 478.519M248.037 478.519L272.344 479.345M443.225 429.78L467.909 428.816M443.225 429.78V455.028M467.909 428.816V454.064M467.909 454.064L443.225 455.028M467.909 454.064V477.498M443.225 455.028V478.655M443.225 478.655L467.909 477.498M620.112 421.883L644.796 420.92M620.112 421.883V447.131M644.796 420.92V446.167M644.796 446.167L620.112 447.131M644.796 446.167V469.602M620.112 447.131V470.758M620.112 470.758L644.796 469.602M413.738 402.517V508.98L495.52 505.273V399.095L413.738 402.517ZM76.023 397.863V501.76L157.805 504.47V400.501L76.023 397.863ZM219.305 402.386V506.282L301.087 508.993V405.023L219.305 402.386ZM590.626 394.621V501.084L672.407 497.376V391.199L590.626 394.621Z" stroke="#26243E" stroke-width="2.12625"/>
<path d="M378.554 321.093L173.619 49.9052C173.501 49.7494 173.624 49.5279 173.819 49.5454L391.476 69.1795C391.532 69.1845 391.583 69.2098 391.621 69.2506L420.183 100.053C420.226 100.099 420.286 100.125 420.348 100.125H457.15C457.274 100.125 457.375 100.024 457.375 99.8997V75.0599C457.375 74.9272 457.489 74.8232 457.622 74.836L486.625 77.6248L656.469 52.9609C656.675 52.931 656.808 53.1721 656.673 53.3299L519.317 213.671C519.275 213.721 519.212 213.75 519.146 213.75H491.688L547.758 313.556C547.84 313.702 547.739 313.883 547.572 313.891L378.743 321.182C378.669 321.185 378.598 321.152 378.554 321.093Z" fill="#E9B7AA"/>
<path d="M491.688 213.75L547.758 313.556C547.84 313.702 547.739 313.883 547.572 313.891L378.743 321.182C378.669 321.185 378.598 321.152 378.554 321.093L173.619 49.9052C173.501 49.7494 173.624 49.5279 173.819 49.5454L391.476 69.1795C391.532 69.1845 391.583 69.2098 391.621 69.2506L420.183 100.053C420.226 100.099 420.286 100.125 420.348 100.125H457.15C457.274 100.125 457.375 100.024 457.375 99.8998V75.0599C457.375 74.9272 457.489 74.8233 457.622 74.836L486.625 77.6248M491.688 213.75L480.019 208.749C479.933 208.712 479.878 208.625 479.883 208.531L486.625 77.6248M491.688 213.75H519.146C519.212 213.75 519.275 213.721 519.317 213.671L656.673 53.3299C656.808 53.1721 656.675 52.931 656.469 52.9609L486.625 77.6248" stroke="#26243E" stroke-width="2.12625"/>
</svg>
